<?xml version="1.0" encoding="utf-8" standalone="no"?>
<!DOCTYPE svg PUBLIC "-//W3C//DTD SVG 1.1//EN"
  "http://www.w3.org/Graphics/SVG/1.1/DTD/svg11.dtd">
<!-- Created with matplotlib (https://matplotlib.org/) -->
<svg height="707.04pt" version="1.1" viewBox="0 0 1330.56 707.04" width="1330.56pt" xmlns="http://www.w3.org/2000/svg" xmlns:xlink="http://www.w3.org/1999/xlink">
 <defs>
  <style type="text/css">
*{stroke-linecap:butt;stroke-linejoin:round;}
  </style>
 </defs>
 <g id="figure_1">
  <g id="patch_1">
   <path d="M 0 707.04 
L 1330.56 707.04 
L 1330.56 0 
L 0 0 
z
" style="fill:#ffffff;"/>
  </g>
  <g id="axes_1">
   <g id="patch_2">
    <path d="M 56.343467 343.118485 
L 444.1976 343.118485 
L 444.1976 35.352 
L 56.343467 35.352 
z
" style="fill:#ffffff;"/>
   </g>
   <g id="matplotlib.axis_1">
    <g id="xtick_1">
     <g id="line2d_1">
      <defs>
       <path d="M 0 0 
L 0 3.5 
" id="m641fe88e21" style="stroke:#000000;stroke-width:0.8;"/>
      </defs>
      <g>
       <use style="stroke:#000000;stroke-width:0.8;" x="73.9732" xlink:href="#m641fe88e21" y="343.118485"/>
      </g>
     </g>
     <g id="text_1">
      <!-- 0 -->
      <defs>
       <path d="M 31.78125 66.40625 
Q 24.171875 66.40625 20.328125 58.90625 
Q 16.5 51.421875 16.5 36.375 
Q 16.5 21.390625 20.328125 13.890625 
Q 24.171875 6.390625 31.78125 6.390625 
Q 39.453125 6.390625 43.28125 13.890625 
Q 47.125 21.390625 47.125 36.375 
Q 47.125 51.421875 43.28125 58.90625 
Q 39.453125 66.40625 31.78125 66.40625 
z
M 31.78125 74.21875 
Q 44.046875 74.21875 50.515625 64.515625 
Q 56.984375 54.828125 56.984375 36.375 
Q 56.984375 17.96875 50.515625 8.265625 
Q 44.046875 -1.421875 31.78125 -1.421875 
Q 19.53125 -1.421875 13.0625 8.265625 
Q 6.59375 17.96875 6.59375 36.375 
Q 6.59375 54.828125 13.0625 64.515625 
Q 19.53125 74.21875 31.78125 74.21875 
z
" id="DejaVuSans-48"/>
      </defs>
      <g transform="translate(70.79195 357.716922)scale(0.1 -0.1)">
       <use xlink:href="#DejaVuSans-48"/>
      </g>
     </g>
    </g>
    <g id="xtick_2">
     <g id="line2d_2">
      <g>
       <use style="stroke:#000000;stroke-width:0.8;" x="130.843308" xlink:href="#m641fe88e21" y="343.118485"/>
      </g>
     </g>
     <g id="text_2">
      <!-- 5 -->
      <defs>
       <path d="M 10.796875 72.90625 
L 49.515625 72.90625 
L 49.515625 64.59375 
L 19.828125 64.59375 
L 19.828125 46.734375 
Q 21.96875 47.46875 24.109375 47.828125 
Q 26.265625 48.1875 28.421875 48.1875 
Q 40.625 48.1875 47.75 41.5 
Q 54.890625 34.8125 54.890625 23.390625 
Q 54.890625 11.625 47.5625 5.09375 
Q 40.234375 -1.421875 26.90625 -1.421875 
Q 22.3125 -1.421875 17.546875 -0.640625 
Q 12.796875 0.140625 7.71875 1.703125 
L 7.71875 11.625 
Q 12.109375 9.234375 16.796875 8.0625 
Q 21.484375 6.890625 26.703125 6.890625 
Q 35.15625 6.890625 40.078125 11.328125 
Q 45.015625 15.765625 45.015625 23.390625 
Q 45.015625 31 40.078125 35.4375 
Q 35.15625 39.890625 26.703125 39.890625 
Q 22.75 39.890625 18.8125 39.015625 
Q 14.890625 38.140625 10.796875 36.28125 
z
" id="DejaVuSans-53"/>
      </defs>
      <g transform="translate(127.662058 357.716922)scale(0.1 -0.1)">
       <use xlink:href="#DejaVuSans-53"/>
      </g>
     </g>
    </g>
    <g id="xtick_3">
     <g id="line2d_3">
      <g>
       <use style="stroke:#000000;stroke-width:0.8;" x="187.713415" xlink:href="#m641fe88e21" y="343.118485"/>
      </g>
     </g>
     <g id="text_3">
      <!-- 10 -->
      <defs>
       <path d="M 12.40625 8.296875 
L 28.515625 8.296875 
L 28.515625 63.921875 
L 10.984375 60.40625 
L 10.984375 69.390625 
L 28.421875 72.90625 
L 38.28125 72.90625 
L 38.28125 8.296875 
L 54.390625 8.296875 
L 54.390625 0 
L 12.40625 0 
z
" id="DejaVuSans-49"/>
      </defs>
      <g transform="translate(181.350915 357.716922)scale(0.1 -0.1)">
       <use xlink:href="#DejaVuSans-49"/>
       <use x="63.623047" xlink:href="#DejaVuSans-48"/>
      </g>
     </g>
    </g>
    <g id="xtick_4">
     <g id="line2d_4">
      <g>
       <use style="stroke:#000000;stroke-width:0.8;" x="244.583523" xlink:href="#m641fe88e21" y="343.118485"/>
      </g>
     </g>
     <g id="text_4">
      <!-- 15 -->
      <g transform="translate(238.221023 357.716922)scale(0.1 -0.1)">
       <use xlink:href="#DejaVuSans-49"/>
       <use x="63.623047" xlink:href="#DejaVuSans-53"/>
      </g>
     </g>
    </g>
    <g id="xtick_5">
     <g id="line2d_5">
      <g>
       <use style="stroke:#000000;stroke-width:0.8;" x="301.45363" xlink:href="#m641fe88e21" y="343.118485"/>
      </g>
     </g>
     <g id="text_5">
      <!-- 20 -->
      <defs>
       <path d="M 19.1875 8.296875 
L 53.609375 8.296875 
L 53.609375 0 
L 7.328125 0 
L 7.328125 8.296875 
Q 12.9375 14.109375 22.625 23.890625 
Q 32.328125 33.6875 34.8125 36.53125 
Q 39.546875 41.84375 41.421875 45.53125 
Q 43.3125 49.21875 43.3125 52.78125 
Q 43.3125 58.59375 39.234375 62.25 
Q 35.15625 65.921875 28.609375 65.921875 
Q 23.96875 65.921875 18.8125 64.3125 
Q 13.671875 62.703125 7.8125 59.421875 
L 7.8125 69.390625 
Q 13.765625 71.78125 18.9375 73 
Q 24.125 74.21875 28.421875 74.21875 
Q 39.75 74.21875 46.484375 68.546875 
Q 53.21875 62.890625 53.21875 53.421875 
Q 53.21875 48.921875 51.53125 44.890625 
Q 49.859375 40.875 45.40625 35.40625 
Q 44.1875 33.984375 37.640625 27.21875 
Q 31.109375 20.453125 19.1875 8.296875 
z
" id="DejaVuSans-50"/>
      </defs>
      <g transform="translate(295.09113 357.716922)scale(0.1 -0.1)">
       <use xlink:href="#DejaVuSans-50"/>
       <use x="63.623047" xlink:href="#DejaVuSans-48"/>
      </g>
     </g>
    </g>
    <g id="xtick_6">
     <g id="line2d_6">
      <g>
       <use style="stroke:#000000;stroke-width:0.8;" x="358.323738" xlink:href="#m641fe88e21" y="343.118485"/>
      </g>
     </g>
     <g id="text_6">
      <!-- 25 -->
      <g transform="translate(351.961238 357.716922)scale(0.1 -0.1)">
       <use xlink:href="#DejaVuSans-50"/>
       <use x="63.623047" xlink:href="#DejaVuSans-53"/>
      </g>
     </g>
    </g>
    <g id="xtick_7">
     <g id="line2d_7">
      <g>
       <use style="stroke:#000000;stroke-width:0.8;" x="415.193845" xlink:href="#m641fe88e21" y="343.118485"/>
      </g>
     </g>
     <g id="text_7">
      <!-- 30 -->
      <defs>
       <path d="M 40.578125 39.3125 
Q 47.65625 37.796875 51.625 33 
Q 55.609375 28.21875 55.609375 21.1875 
Q 55.609375 10.40625 48.1875 4.484375 
Q 40.765625 -1.421875 27.09375 -1.421875 
Q 22.515625 -1.421875 17.65625 -0.515625 
Q 12.796875 0.390625 7.625 2.203125 
L 7.625 11.71875 
Q 11.71875 9.328125 16.59375 8.109375 
Q 21.484375 6.890625 26.8125 6.890625 
Q 36.078125 6.890625 40.9375 10.546875 
Q 45.796875 14.203125 45.796875 21.1875 
Q 45.796875 27.640625 41.28125 31.265625 
Q 36.765625 34.90625 28.71875 34.90625 
L 20.21875 34.90625 
L 20.21875 43.015625 
L 29.109375 43.015625 
Q 36.375 43.015625 40.234375 45.921875 
Q 44.09375 48.828125 44.09375 54.296875 
Q 44.09375 59.90625 40.109375 62.90625 
Q 36.140625 65.921875 28.71875 65.921875 
Q 24.65625 65.921875 20.015625 65.03125 
Q 15.375 64.15625 9.8125 62.3125 
L 9.8125 71.09375 
Q 15.4375 72.65625 20.34375 73.4375 
Q 25.25 74.21875 29.59375 74.21875 
Q 40.828125 74.21875 47.359375 69.109375 
Q 53.90625 64.015625 53.90625 55.328125 
Q 53.90625 49.265625 50.4375 45.09375 
Q 46.96875 40.921875 40.578125 39.3125 
z
" id="DejaVuSans-51"/>
      </defs>
      <g transform="translate(408.831345 357.716922)scale(0.1 -0.1)">
       <use xlink:href="#DejaVuSans-51"/>
       <use x="63.623047" xlink:href="#DejaVuSans-48"/>
      </g>
     </g>
    </g>
   </g>
   <g id="matplotlib.axis_2">
    <g id="ytick_1">
     <g id="line2d_8">
      <defs>
       <path d="M 0 0 
L -3.5 0 
" id="m6b9e6b798b" style="stroke:#000000;stroke-width:0.8;"/>
      </defs>
      <g>
       <use style="stroke:#000000;stroke-width:0.8;" x="56.343467" xlink:href="#m6b9e6b798b" y="317.088834"/>
      </g>
     </g>
     <g id="text_8">
      <!-- −0.015 -->
      <defs>
       <path d="M 10.59375 35.5 
L 73.1875 35.5 
L 73.1875 27.203125 
L 10.59375 27.203125 
z
" id="DejaVuSans-8722"/>
       <path d="M 10.6875 12.40625 
L 21 12.40625 
L 21 0 
L 10.6875 0 
z
" id="DejaVuSans-46"/>
      </defs>
      <g transform="translate(12.335654 320.888053)scale(0.1 -0.1)">
       <use xlink:href="#DejaVuSans-8722"/>
       <use x="83.789062" xlink:href="#DejaVuSans-48"/>
       <use x="147.412109" xlink:href="#DejaVuSans-46"/>
       <use x="179.199219" xlink:href="#DejaVuSans-48"/>
       <use x="242.822266" xlink:href="#DejaVuSans-49"/>
       <use x="306.445312" xlink:href="#DejaVuSans-53"/>
      </g>
     </g>
    </g>
    <g id="ytick_2">
     <g id="line2d_9">
      <g>
       <use style="stroke:#000000;stroke-width:0.8;" x="56.343467" xlink:href="#m6b9e6b798b" y="274.483607"/>
      </g>
     </g>
     <g id="text_9">
      <!-- −0.010 -->
      <g transform="translate(12.335654 278.282826)scale(0.1 -0.1)">
       <use xlink:href="#DejaVuSans-8722"/>
       <use x="83.789062" xlink:href="#DejaVuSans-48"/>
       <use x="147.412109" xlink:href="#DejaVuSans-46"/>
       <use x="179.199219" xlink:href="#DejaVuSans-48"/>
       <use x="242.822266" xlink:href="#DejaVuSans-49"/>
       <use x="306.445312" xlink:href="#DejaVuSans-48"/>
      </g>
     </g>
    </g>
    <g id="ytick_3">
     <g id="line2d_10">
      <g>
       <use style="stroke:#000000;stroke-width:0.8;" x="56.343467" xlink:href="#m6b9e6b798b" y="231.878379"/>
      </g>
     </g>
     <g id="text_10">
      <!-- −0.005 -->
      <g transform="translate(12.335654 235.677598)scale(0.1 -0.1)">
       <use xlink:href="#DejaVuSans-8722"/>
       <use x="83.789062" xlink:href="#DejaVuSans-48"/>
       <use x="147.412109" xlink:href="#DejaVuSans-46"/>
       <use x="179.199219" xlink:href="#DejaVuSans-48"/>
       <use x="242.822266" xlink:href="#DejaVuSans-48"/>
       <use x="306.445312" xlink:href="#DejaVuSans-53"/>
      </g>
     </g>
    </g>
    <g id="ytick_4">
     <g id="line2d_11">
      <g>
       <use style="stroke:#000000;stroke-width:0.8;" x="56.343467" xlink:href="#m6b9e6b798b" y="189.273152"/>
      </g>
     </g>
     <g id="text_11">
      <!-- 0.000 -->
      <g transform="translate(20.715342 193.072371)scale(0.1 -0.1)">
       <use xlink:href="#DejaVuSans-48"/>
       <use x="63.623047" xlink:href="#DejaVuSans-46"/>
       <use x="95.410156" xlink:href="#DejaVuSans-48"/>
       <use x="159.033203" xlink:href="#DejaVuSans-48"/>
       <use x="222.65625" xlink:href="#DejaVuSans-48"/>
      </g>
     </g>
    </g>
    <g id="ytick_5">
     <g id="line2d_12">
      <g>
       <use style="stroke:#000000;stroke-width:0.8;" x="56.343467" xlink:href="#m6b9e6b798b" y="146.667924"/>
      </g>
     </g>
     <g id="text_12">
      <!-- 0.005 -->
      <g transform="translate(20.715342 150.467143)scale(0.1 -0.1)">
       <use xlink:href="#DejaVuSans-48"/>
       <use x="63.623047" xlink:href="#DejaVuSans-46"/>
       <use x="95.410156" xlink:href="#DejaVuSans-48"/>
       <use x="159.033203" xlink:href="#DejaVuSans-48"/>
       <use x="222.65625" xlink:href="#DejaVuSans-53"/>
      </g>
     </g>
    </g>
    <g id="ytick_6">
     <g id="line2d_13">
      <g>
       <use style="stroke:#000000;stroke-width:0.8;" x="56.343467" xlink:href="#m6b9e6b798b" y="104.062697"/>
      </g>
     </g>
     <g id="text_13">
      <!-- 0.010 -->
      <g transform="translate(20.715342 107.861916)scale(0.1 -0.1)">
       <use xlink:href="#DejaVuSans-48"/>
       <use x="63.623047" xlink:href="#DejaVuSans-46"/>
       <use x="95.410156" xlink:href="#DejaVuSans-48"/>
       <use x="159.033203" xlink:href="#DejaVuSans-49"/>
       <use x="222.65625" xlink:href="#DejaVuSans-48"/>
      </g>
     </g>
    </g>
    <g id="ytick_7">
     <g id="line2d_14">
      <g>
       <use style="stroke:#000000;stroke-width:0.8;" x="56.343467" xlink:href="#m6b9e6b798b" y="61.457469"/>
      </g>
     </g>
     <g id="text_14">
      <!-- 0.015 -->
      <g transform="translate(20.715342 65.256688)scale(0.1 -0.1)">
       <use xlink:href="#DejaVuSans-48"/>
       <use x="63.623047" xlink:href="#DejaVuSans-46"/>
       <use x="95.410156" xlink:href="#DejaVuSans-48"/>
       <use x="159.033203" xlink:href="#DejaVuSans-49"/>
       <use x="222.65625" xlink:href="#DejaVuSans-53"/>
      </g>
     </g>
    </g>
   </g>
   <g id="line2d_15">
    <path clip-path="url(#pa47a01c379)" d="M 73.9732 183.221147 
L 85.347222 318.755549 
L 96.721243 184.407729 
L 108.095265 114.292809 
L 119.469286 311.673714 
L 130.843308 183.055721 
L 142.217329 80.237857 
L 153.591351 178.556659 
L 164.965372 203.948948 
L 176.339394 161.389309 
L 187.713415 168.850933 
L 199.087437 49.341386 
L 210.461458 217.576743 
L 221.83548 152.7171 
L 233.209501 212.348059 
L 244.583523 165.522442 
L 255.957544 179.62869 
L 267.331566 179.559756 
L 278.705587 173.018062 
L 290.079609 153.983926 
L 301.45363 170.489444 
L 312.827652 144.198613 
L 324.201673 289.649364 
L 335.575695 182.765118 
L 346.949716 187.251397 
L 358.323738 188.007512 
L 369.697759 181.564477 
L 381.071781 145.375708 
L 392.445802 83.274745 
L 403.819824 313.937747 
L 415.193845 164.385903 
L 426.567867 101.491891 
" style="fill:none;stroke:#1f77b4;stroke-linecap:square;stroke-opacity:0.5;stroke-width:1.5;"/>
   </g>
   <g id="line2d_16">
    <path clip-path="url(#pa47a01c379)" d="M 73.9732 180.730358 
L 85.347222 329.129099 
L 96.721243 184.692031 
L 108.095265 126.319367 
L 119.469286 318.123546 
L 130.843308 182.376337 
L 142.217329 110.967643 
L 153.591351 198.178864 
L 164.965372 208.719718 
L 176.339394 174.676586 
L 187.713415 169.760827 
L 199.087437 76.924103 
L 210.461458 220.025643 
L 221.83548 146.923563 
L 233.209501 203.624944 
L 244.583523 171.536293 
L 255.957544 177.69194 
L 267.331566 182.900569 
L 278.705587 320.075295 
L 290.079609 151.872413 
L 301.45363 166.054215 
L 312.827652 152.956961 
L 324.201673 289.017806 
L 335.575695 186.626754 
L 346.949716 185.385664 
L 358.323738 177.83301 
L 369.697759 183.557555 
L 381.071781 151.61307 
L 392.445802 82.648789 
L 403.819824 320.105507 
L 415.193845 157.457933 
L 426.567867 84.016762 
" style="fill:none;stroke:#ff7f0e;stroke-dasharray:5.55,2.4;stroke-dashoffset:0;stroke-opacity:0.5;stroke-width:1.5;"/>
   </g>
   <g id="patch_3">
    <path d="M 56.343467 343.118485 
L 56.343467 35.352 
" style="fill:none;stroke:#000000;stroke-linecap:square;stroke-linejoin:miter;stroke-width:0.8;"/>
   </g>
   <g id="patch_4">
    <path d="M 444.1976 343.118485 
L 444.1976 35.352 
" style="fill:none;stroke:#000000;stroke-linecap:square;stroke-linejoin:miter;stroke-width:0.8;"/>
   </g>
   <g id="patch_5">
    <path d="M 56.343467 343.118485 
L 444.1976 343.118485 
" style="fill:none;stroke:#000000;stroke-linecap:square;stroke-linejoin:miter;stroke-width:0.8;"/>
   </g>
   <g id="patch_6">
    <path d="M 56.343467 35.352 
L 444.1976 35.352 
" style="fill:none;stroke:#000000;stroke-linecap:square;stroke-linejoin:miter;stroke-width:0.8;"/>
   </g>
   <g id="text_15">
    <!-- translation_x -->
    <defs>
     <path d="M 18.3125 70.21875 
L 18.3125 54.6875 
L 36.8125 54.6875 
L 36.8125 47.703125 
L 18.3125 47.703125 
L 18.3125 18.015625 
Q 18.3125 11.328125 20.140625 9.421875 
Q 21.96875 7.515625 27.59375 7.515625 
L 36.8125 7.515625 
L 36.8125 0 
L 27.59375 0 
Q 17.1875 0 13.234375 3.875 
Q 9.28125 7.765625 9.28125 18.015625 
L 9.28125 47.703125 
L 2.6875 47.703125 
L 2.6875 54.6875 
L 9.28125 54.6875 
L 9.28125 70.21875 
z
" id="DejaVuSans-116"/>
     <path d="M 41.109375 46.296875 
Q 39.59375 47.171875 37.8125 47.578125 
Q 36.03125 48 33.890625 48 
Q 26.265625 48 22.1875 43.046875 
Q 18.109375 38.09375 18.109375 28.8125 
L 18.109375 0 
L 9.078125 0 
L 9.078125 54.6875 
L 18.109375 54.6875 
L 18.109375 46.1875 
Q 20.953125 51.171875 25.484375 53.578125 
Q 30.03125 56 36.53125 56 
Q 37.453125 56 38.578125 55.875 
Q 39.703125 55.765625 41.0625 55.515625 
z
" id="DejaVuSans-114"/>
     <path d="M 34.28125 27.484375 
Q 23.390625 27.484375 19.1875 25 
Q 14.984375 22.515625 14.984375 16.5 
Q 14.984375 11.71875 18.140625 8.90625 
Q 21.296875 6.109375 26.703125 6.109375 
Q 34.1875 6.109375 38.703125 11.40625 
Q 43.21875 16.703125 43.21875 25.484375 
L 43.21875 27.484375 
z
M 52.203125 31.203125 
L 52.203125 0 
L 43.21875 0 
L 43.21875 8.296875 
Q 40.140625 3.328125 35.546875 0.953125 
Q 30.953125 -1.421875 24.3125 -1.421875 
Q 15.921875 -1.421875 10.953125 3.296875 
Q 6 8.015625 6 15.921875 
Q 6 25.140625 12.171875 29.828125 
Q 18.359375 34.515625 30.609375 34.515625 
L 43.21875 34.515625 
L 43.21875 35.40625 
Q 43.21875 41.609375 39.140625 45 
Q 35.0625 48.390625 27.6875 48.390625 
Q 23 48.390625 18.546875 47.265625 
Q 14.109375 46.140625 10.015625 43.890625 
L 10.015625 52.203125 
Q 14.9375 54.109375 19.578125 55.046875 
Q 24.21875 56 28.609375 56 
Q 40.484375 56 46.34375 49.84375 
Q 52.203125 43.703125 52.203125 31.203125 
z
" id="DejaVuSans-97"/>
     <path d="M 54.890625 33.015625 
L 54.890625 0 
L 45.90625 0 
L 45.90625 32.71875 
Q 45.90625 40.484375 42.875 44.328125 
Q 39.84375 48.1875 33.796875 48.1875 
Q 26.515625 48.1875 22.3125 43.546875 
Q 18.109375 38.921875 18.109375 30.90625 
L 18.109375 0 
L 9.078125 0 
L 9.078125 54.6875 
L 18.109375 54.6875 
L 18.109375 46.1875 
Q 21.34375 51.125 25.703125 53.5625 
Q 30.078125 56 35.796875 56 
Q 45.21875 56 50.046875 50.171875 
Q 54.890625 44.34375 54.890625 33.015625 
z
" id="DejaVuSans-110"/>
     <path d="M 44.28125 53.078125 
L 44.28125 44.578125 
Q 40.484375 46.53125 36.375 47.5 
Q 32.28125 48.484375 27.875 48.484375 
Q 21.1875 48.484375 17.84375 46.4375 
Q 14.5 44.390625 14.5 40.28125 
Q 14.5 37.15625 16.890625 35.375 
Q 19.28125 33.59375 26.515625 31.984375 
L 29.59375 31.296875 
Q 39.15625 29.25 43.1875 25.515625 
Q 47.21875 21.78125 47.21875 15.09375 
Q 47.21875 7.46875 41.1875 3.015625 
Q 35.15625 -1.421875 24.609375 -1.421875 
Q 20.21875 -1.421875 15.453125 -0.5625 
Q 10.6875 0.296875 5.421875 2 
L 5.421875 11.28125 
Q 10.40625 8.6875 15.234375 7.390625 
Q 20.0625 6.109375 24.8125 6.109375 
Q 31.15625 6.109375 34.5625 8.28125 
Q 37.984375 10.453125 37.984375 14.40625 
Q 37.984375 18.0625 35.515625 20.015625 
Q 33.0625 21.96875 24.703125 23.78125 
L 21.578125 24.515625 
Q 13.234375 26.265625 9.515625 29.90625 
Q 5.8125 33.546875 5.8125 39.890625 
Q 5.8125 47.609375 11.28125 51.796875 
Q 16.75 56 26.8125 56 
Q 31.78125 56 36.171875 55.265625 
Q 40.578125 54.546875 44.28125 53.078125 
z
" id="DejaVuSans-115"/>
     <path d="M 9.421875 75.984375 
L 18.40625 75.984375 
L 18.40625 0 
L 9.421875 0 
z
" id="DejaVuSans-108"/>
     <path d="M 9.421875 54.6875 
L 18.40625 54.6875 
L 18.40625 0 
L 9.421875 0 
z
M 9.421875 75.984375 
L 18.40625 75.984375 
L 18.40625 64.59375 
L 9.421875 64.59375 
z
" id="DejaVuSans-105"/>
     <path d="M 30.609375 48.390625 
Q 23.390625 48.390625 19.1875 42.75 
Q 14.984375 37.109375 14.984375 27.296875 
Q 14.984375 17.484375 19.15625 11.84375 
Q 23.34375 6.203125 30.609375 6.203125 
Q 37.796875 6.203125 41.984375 11.859375 
Q 46.1875 17.53125 46.1875 27.296875 
Q 46.1875 37.015625 41.984375 42.703125 
Q 37.796875 48.390625 30.609375 48.390625 
z
M 30.609375 56 
Q 42.328125 56 49.015625 48.375 
Q 55.71875 40.765625 55.71875 27.296875 
Q 55.71875 13.875 49.015625 6.21875 
Q 42.328125 -1.421875 30.609375 -1.421875 
Q 18.84375 -1.421875 12.171875 6.21875 
Q 5.515625 13.875 5.515625 27.296875 
Q 5.515625 40.765625 12.171875 48.375 
Q 18.84375 56 30.609375 56 
z
" id="DejaVuSans-111"/>
     <path d="M 50.984375 -16.609375 
L 50.984375 -23.578125 
L -0.984375 -23.578125 
L -0.984375 -16.609375 
z
" id="DejaVuSans-95"/>
     <path d="M 54.890625 54.6875 
L 35.109375 28.078125 
L 55.90625 0 
L 45.3125 0 
L 29.390625 21.484375 
L 13.484375 0 
L 2.875 0 
L 24.125 28.609375 
L 4.6875 54.6875 
L 15.28125 54.6875 
L 29.78125 35.203125 
L 44.28125 54.6875 
z
" id="DejaVuSans-120"/>
    </defs>
    <g transform="translate(211.458971 29.352)scale(0.12 -0.12)">
     <use xlink:href="#DejaVuSans-116"/>
     <use x="39.208984" xlink:href="#DejaVuSans-114"/>
     <use x="80.322266" xlink:href="#DejaVuSans-97"/>
     <use x="141.601562" xlink:href="#DejaVuSans-110"/>
     <use x="204.980469" xlink:href="#DejaVuSans-115"/>
     <use x="257.080078" xlink:href="#DejaVuSans-108"/>
     <use x="284.863281" xlink:href="#DejaVuSans-97"/>
     <use x="346.142578" xlink:href="#DejaVuSans-116"/>
     <use x="385.351562" xlink:href="#DejaVuSans-105"/>
     <use x="413.134766" xlink:href="#DejaVuSans-111"/>
     <use x="474.316406" xlink:href="#DejaVuSans-110"/>
     <use x="537.695312" xlink:href="#DejaVuSans-95"/>
     <use x="587.695312" xlink:href="#DejaVuSans-120"/>
    </g>
   </g>
   <g id="legend_1">
    <g id="patch_7">
     <path d="M 357.861662 72.70825 
L 437.1976 72.70825 
Q 439.1976 72.70825 439.1976 70.70825 
L 439.1976 42.352 
Q 439.1976 40.352 437.1976 40.352 
L 357.861662 40.352 
Q 355.861662 40.352 355.861662 42.352 
L 355.861662 70.70825 
Q 355.861662 72.70825 357.861662 72.70825 
z
" style="fill:#ffffff;opacity:0.8;stroke:#cccccc;stroke-linejoin:miter;"/>
    </g>
    <g id="line2d_17">
     <path d="M 359.861662 48.450437 
L 379.861662 48.450437 
" style="fill:none;stroke:#1f77b4;stroke-linecap:square;stroke-opacity:0.5;stroke-width:1.5;"/>
    </g>
    <g id="line2d_18"/>
    <g id="text_16">
     <!-- True -->
     <defs>
      <path d="M -0.296875 72.90625 
L 61.375 72.90625 
L 61.375 64.59375 
L 35.5 64.59375 
L 35.5 0 
L 25.59375 0 
L 25.59375 64.59375 
L -0.296875 64.59375 
z
" id="DejaVuSans-84"/>
      <path d="M 8.5 21.578125 
L 8.5 54.6875 
L 17.484375 54.6875 
L 17.484375 21.921875 
Q 17.484375 14.15625 20.5 10.265625 
Q 23.53125 6.390625 29.59375 6.390625 
Q 36.859375 6.390625 41.078125 11.03125 
Q 45.3125 15.671875 45.3125 23.6875 
L 45.3125 54.6875 
L 54.296875 54.6875 
L 54.296875 0 
L 45.3125 0 
L 45.3125 8.40625 
Q 42.046875 3.421875 37.71875 1 
Q 33.40625 -1.421875 27.6875 -1.421875 
Q 18.265625 -1.421875 13.375 4.4375 
Q 8.5 10.296875 8.5 21.578125 
z
M 31.109375 56 
z
" id="DejaVuSans-117"/>
      <path d="M 56.203125 29.59375 
L 56.203125 25.203125 
L 14.890625 25.203125 
Q 15.484375 15.921875 20.484375 11.0625 
Q 25.484375 6.203125 34.421875 6.203125 
Q 39.59375 6.203125 44.453125 7.46875 
Q 49.3125 8.734375 54.109375 11.28125 
L 54.109375 2.78125 
Q 49.265625 0.734375 44.1875 -0.34375 
Q 39.109375 -1.421875 33.890625 -1.421875 
Q 20.796875 -1.421875 13.15625 6.1875 
Q 5.515625 13.8125 5.515625 26.8125 
Q 5.515625 40.234375 12.765625 48.109375 
Q 20.015625 56 32.328125 56 
Q 43.359375 56 49.78125 48.890625 
Q 56.203125 41.796875 56.203125 29.59375 
z
M 47.21875 32.234375 
Q 47.125 39.59375 43.09375 43.984375 
Q 39.0625 48.390625 32.421875 48.390625 
Q 24.90625 48.390625 20.390625 44.140625 
Q 15.875 39.890625 15.1875 32.171875 
z
" id="DejaVuSans-101"/>
     </defs>
     <g transform="translate(387.861662 51.950437)scale(0.1 -0.1)">
      <use xlink:href="#DejaVuSans-84"/>
      <use x="60.865234" xlink:href="#DejaVuSans-114"/>
      <use x="101.978516" xlink:href="#DejaVuSans-117"/>
      <use x="165.357422" xlink:href="#DejaVuSans-101"/>
     </g>
    </g>
    <g id="line2d_19">
     <path d="M 359.861662 63.128562 
L 379.861662 63.128562 
" style="fill:none;stroke:#ff7f0e;stroke-dasharray:5.55,2.4;stroke-dashoffset:0;stroke-opacity:0.5;stroke-width:1.5;"/>
    </g>
    <g id="line2d_20"/>
    <g id="text_17">
     <!-- Predicted -->
     <defs>
      <path d="M 19.671875 64.796875 
L 19.671875 37.40625 
L 32.078125 37.40625 
Q 38.96875 37.40625 42.71875 40.96875 
Q 46.484375 44.53125 46.484375 51.125 
Q 46.484375 57.671875 42.71875 61.234375 
Q 38.96875 64.796875 32.078125 64.796875 
z
M 9.8125 72.90625 
L 32.078125 72.90625 
Q 44.34375 72.90625 50.609375 67.359375 
Q 56.890625 61.8125 56.890625 51.125 
Q 56.890625 40.328125 50.609375 34.8125 
Q 44.34375 29.296875 32.078125 29.296875 
L 19.671875 29.296875 
L 19.671875 0 
L 9.8125 0 
z
" id="DejaVuSans-80"/>
      <path d="M 45.40625 46.390625 
L 45.40625 75.984375 
L 54.390625 75.984375 
L 54.390625 0 
L 45.40625 0 
L 45.40625 8.203125 
Q 42.578125 3.328125 38.25 0.953125 
Q 33.9375 -1.421875 27.875 -1.421875 
Q 17.96875 -1.421875 11.734375 6.484375 
Q 5.515625 14.40625 5.515625 27.296875 
Q 5.515625 40.1875 11.734375 48.09375 
Q 17.96875 56 27.875 56 
Q 33.9375 56 38.25 53.625 
Q 42.578125 51.265625 45.40625 46.390625 
z
M 14.796875 27.296875 
Q 14.796875 17.390625 18.875 11.75 
Q 22.953125 6.109375 30.078125 6.109375 
Q 37.203125 6.109375 41.296875 11.75 
Q 45.40625 17.390625 45.40625 27.296875 
Q 45.40625 37.203125 41.296875 42.84375 
Q 37.203125 48.484375 30.078125 48.484375 
Q 22.953125 48.484375 18.875 42.84375 
Q 14.796875 37.203125 14.796875 27.296875 
z
" id="DejaVuSans-100"/>
      <path d="M 48.78125 52.59375 
L 48.78125 44.1875 
Q 44.96875 46.296875 41.140625 47.34375 
Q 37.3125 48.390625 33.40625 48.390625 
Q 24.65625 48.390625 19.8125 42.84375 
Q 14.984375 37.3125 14.984375 27.296875 
Q 14.984375 17.28125 19.8125 11.734375 
Q 24.65625 6.203125 33.40625 6.203125 
Q 37.3125 6.203125 41.140625 7.25 
Q 44.96875 8.296875 48.78125 10.40625 
L 48.78125 2.09375 
Q 45.015625 0.34375 40.984375 -0.53125 
Q 36.96875 -1.421875 32.421875 -1.421875 
Q 20.0625 -1.421875 12.78125 6.34375 
Q 5.515625 14.109375 5.515625 27.296875 
Q 5.515625 40.671875 12.859375 48.328125 
Q 20.21875 56 33.015625 56 
Q 37.15625 56 41.109375 55.140625 
Q 45.0625 54.296875 48.78125 52.59375 
z
" id="DejaVuSans-99"/>
     </defs>
     <g transform="translate(387.861662 66.628562)scale(0.1 -0.1)">
      <use xlink:href="#DejaVuSans-80"/>
      <use x="60.287109" xlink:href="#DejaVuSans-114"/>
      <use x="101.369141" xlink:href="#DejaVuSans-101"/>
      <use x="162.892578" xlink:href="#DejaVuSans-100"/>
      <use x="226.369141" xlink:href="#DejaVuSans-105"/>
      <use x="254.152344" xlink:href="#DejaVuSans-99"/>
      <use x="309.132812" xlink:href="#DejaVuSans-116"/>
      <use x="348.341797" xlink:href="#DejaVuSans-101"/>
      <use x="409.865234" xlink:href="#DejaVuSans-100"/>
     </g>
    </g>
   </g>
  </g>
  <g id="axes_2">
   <g id="patch_8">
    <path d="M 493.980667 343.118485 
L 881.8348 343.118485 
L 881.8348 35.352 
L 493.980667 35.352 
z
" style="fill:#ffffff;"/>
   </g>
   <g id="matplotlib.axis_3">
    <g id="xtick_8">
     <g id="line2d_21">
      <g>
       <use style="stroke:#000000;stroke-width:0.8;" x="511.6104" xlink:href="#m641fe88e21" y="343.118485"/>
      </g>
     </g>
     <g id="text_18">
      <!-- 0 -->
      <g transform="translate(508.42915 357.716922)scale(0.1 -0.1)">
       <use xlink:href="#DejaVuSans-48"/>
      </g>
     </g>
    </g>
    <g id="xtick_9">
     <g id="line2d_22">
      <g>
       <use style="stroke:#000000;stroke-width:0.8;" x="568.480508" xlink:href="#m641fe88e21" y="343.118485"/>
      </g>
     </g>
     <g id="text_19">
      <!-- 5 -->
      <g transform="translate(565.299258 357.716922)scale(0.1 -0.1)">
       <use xlink:href="#DejaVuSans-53"/>
      </g>
     </g>
    </g>
    <g id="xtick_10">
     <g id="line2d_23">
      <g>
       <use style="stroke:#000000;stroke-width:0.8;" x="625.350615" xlink:href="#m641fe88e21" y="343.118485"/>
      </g>
     </g>
     <g id="text_20">
      <!-- 10 -->
      <g transform="translate(618.988115 357.716922)scale(0.1 -0.1)">
       <use xlink:href="#DejaVuSans-49"/>
       <use x="63.623047" xlink:href="#DejaVuSans-48"/>
      </g>
     </g>
    </g>
    <g id="xtick_11">
     <g id="line2d_24">
      <g>
       <use style="stroke:#000000;stroke-width:0.8;" x="682.220723" xlink:href="#m641fe88e21" y="343.118485"/>
      </g>
     </g>
     <g id="text_21">
      <!-- 15 -->
      <g transform="translate(675.858223 357.716922)scale(0.1 -0.1)">
       <use xlink:href="#DejaVuSans-49"/>
       <use x="63.623047" xlink:href="#DejaVuSans-53"/>
      </g>
     </g>
    </g>
    <g id="xtick_12">
     <g id="line2d_25">
      <g>
       <use style="stroke:#000000;stroke-width:0.8;" x="739.09083" xlink:href="#m641fe88e21" y="343.118485"/>
      </g>
     </g>
     <g id="text_22">
      <!-- 20 -->
      <g transform="translate(732.72833 357.716922)scale(0.1 -0.1)">
       <use xlink:href="#DejaVuSans-50"/>
       <use x="63.623047" xlink:href="#DejaVuSans-48"/>
      </g>
     </g>
    </g>
    <g id="xtick_13">
     <g id="line2d_26">
      <g>
       <use style="stroke:#000000;stroke-width:0.8;" x="795.960938" xlink:href="#m641fe88e21" y="343.118485"/>
      </g>
     </g>
     <g id="text_23">
      <!-- 25 -->
      <g transform="translate(789.598438 357.716922)scale(0.1 -0.1)">
       <use xlink:href="#DejaVuSans-50"/>
       <use x="63.623047" xlink:href="#DejaVuSans-53"/>
      </g>
     </g>
    </g>
    <g id="xtick_14">
     <g id="line2d_27">
      <g>
       <use style="stroke:#000000;stroke-width:0.8;" x="852.831045" xlink:href="#m641fe88e21" y="343.118485"/>
      </g>
     </g>
     <g id="text_24">
      <!-- 30 -->
      <g transform="translate(846.468545 357.716922)scale(0.1 -0.1)">
       <use xlink:href="#DejaVuSans-51"/>
       <use x="63.623047" xlink:href="#DejaVuSans-48"/>
      </g>
     </g>
    </g>
   </g>
   <g id="matplotlib.axis_4">
    <g id="ytick_8">
     <g id="line2d_28">
      <g>
       <use style="stroke:#000000;stroke-width:0.8;" x="493.980667" xlink:href="#m6b9e6b798b" y="312.76398"/>
      </g>
     </g>
     <g id="text_25">
      <!-- −0.03 -->
      <g transform="translate(456.335354 316.563199)scale(0.1 -0.1)">
       <use xlink:href="#DejaVuSans-8722"/>
       <use x="83.789062" xlink:href="#DejaVuSans-48"/>
       <use x="147.412109" xlink:href="#DejaVuSans-46"/>
       <use x="179.199219" xlink:href="#DejaVuSans-48"/>
       <use x="242.822266" xlink:href="#DejaVuSans-51"/>
      </g>
     </g>
    </g>
    <g id="ytick_9">
     <g id="line2d_29">
      <g>
       <use style="stroke:#000000;stroke-width:0.8;" x="493.980667" xlink:href="#m6b9e6b798b" y="272.69794"/>
      </g>
     </g>
     <g id="text_26">
      <!-- −0.02 -->
      <g transform="translate(456.335354 276.497158)scale(0.1 -0.1)">
       <use xlink:href="#DejaVuSans-8722"/>
       <use x="83.789062" xlink:href="#DejaVuSans-48"/>
       <use x="147.412109" xlink:href="#DejaVuSans-46"/>
       <use x="179.199219" xlink:href="#DejaVuSans-48"/>
       <use x="242.822266" xlink:href="#DejaVuSans-50"/>
      </g>
     </g>
    </g>
    <g id="ytick_10">
     <g id="line2d_30">
      <g>
       <use style="stroke:#000000;stroke-width:0.8;" x="493.980667" xlink:href="#m6b9e6b798b" y="232.631899"/>
      </g>
     </g>
     <g id="text_27">
      <!-- −0.01 -->
      <g transform="translate(456.335354 236.431118)scale(0.1 -0.1)">
       <use xlink:href="#DejaVuSans-8722"/>
       <use x="83.789062" xlink:href="#DejaVuSans-48"/>
       <use x="147.412109" xlink:href="#DejaVuSans-46"/>
       <use x="179.199219" xlink:href="#DejaVuSans-48"/>
       <use x="242.822266" xlink:href="#DejaVuSans-49"/>
      </g>
     </g>
    </g>
    <g id="ytick_11">
     <g id="line2d_31">
      <g>
       <use style="stroke:#000000;stroke-width:0.8;" x="493.980667" xlink:href="#m6b9e6b798b" y="192.565859"/>
      </g>
     </g>
     <g id="text_28">
      <!-- 0.00 -->
      <g transform="translate(464.715042 196.365078)scale(0.1 -0.1)">
       <use xlink:href="#DejaVuSans-48"/>
       <use x="63.623047" xlink:href="#DejaVuSans-46"/>
       <use x="95.410156" xlink:href="#DejaVuSans-48"/>
       <use x="159.033203" xlink:href="#DejaVuSans-48"/>
      </g>
     </g>
    </g>
    <g id="ytick_12">
     <g id="line2d_32">
      <g>
       <use style="stroke:#000000;stroke-width:0.8;" x="493.980667" xlink:href="#m6b9e6b798b" y="152.499819"/>
      </g>
     </g>
     <g id="text_29">
      <!-- 0.01 -->
      <g transform="translate(464.715042 156.299038)scale(0.1 -0.1)">
       <use xlink:href="#DejaVuSans-48"/>
       <use x="63.623047" xlink:href="#DejaVuSans-46"/>
       <use x="95.410156" xlink:href="#DejaVuSans-48"/>
       <use x="159.033203" xlink:href="#DejaVuSans-49"/>
      </g>
     </g>
    </g>
    <g id="ytick_13">
     <g id="line2d_33">
      <g>
       <use style="stroke:#000000;stroke-width:0.8;" x="493.980667" xlink:href="#m6b9e6b798b" y="112.433779"/>
      </g>
     </g>
     <g id="text_30">
      <!-- 0.02 -->
      <g transform="translate(464.715042 116.232997)scale(0.1 -0.1)">
       <use xlink:href="#DejaVuSans-48"/>
       <use x="63.623047" xlink:href="#DejaVuSans-46"/>
       <use x="95.410156" xlink:href="#DejaVuSans-48"/>
       <use x="159.033203" xlink:href="#DejaVuSans-50"/>
      </g>
     </g>
    </g>
    <g id="ytick_14">
     <g id="line2d_34">
      <g>
       <use style="stroke:#000000;stroke-width:0.8;" x="493.980667" xlink:href="#m6b9e6b798b" y="72.367738"/>
      </g>
     </g>
     <g id="text_31">
      <!-- 0.03 -->
      <g transform="translate(464.715042 76.166957)scale(0.1 -0.1)">
       <use xlink:href="#DejaVuSans-48"/>
       <use x="63.623047" xlink:href="#DejaVuSans-46"/>
       <use x="95.410156" xlink:href="#DejaVuSans-48"/>
       <use x="159.033203" xlink:href="#DejaVuSans-51"/>
      </g>
     </g>
    </g>
   </g>
   <g id="line2d_35">
    <path clip-path="url(#p237d560ece)" d="M 511.6104 165.095261 
L 522.984422 221.658013 
L 534.358443 177.904533 
L 545.732465 202.816115 
L 557.106486 328.447036 
L 568.480508 214.001432 
L 579.854529 118.770625 
L 591.228551 136.887688 
L 602.602572 167.448858 
L 613.976594 211.983866 
L 625.350615 219.496971 
L 636.724637 49.341386 
L 648.098658 287.503541 
L 659.47268 219.961254 
L 670.846701 168.205305 
L 682.220723 221.559772 
L 693.594744 215.059257 
L 704.968766 115.605005 
L 716.342787 200.974439 
L 727.716809 165.48823 
L 739.09083 216.176338 
L 750.464852 209.909928 
L 761.838873 90.593777 
L 773.212895 216.715145 
L 784.586916 219.831361 
L 795.960938 173.307276 
L 807.334959 118.039016 
L 818.708981 104.408548 
L 830.083002 257.951627 
L 841.457024 211.466293 
L 852.831045 221.500673 
L 864.205067 279.373739 
" style="fill:none;stroke:#1f77b4;stroke-linecap:square;stroke-opacity:0.5;stroke-width:1.5;"/>
   </g>
   <g id="line2d_36">
    <path clip-path="url(#p237d560ece)" d="M 511.6104 166.5261 
L 522.984422 214.097037 
L 534.358443 178.083075 
L 545.732465 209.538711 
L 557.106486 329.129099 
L 568.480508 216.539805 
L 579.854529 122.974974 
L 591.228551 146.519253 
L 602.602572 165.221742 
L 613.976594 217.304552 
L 625.350615 218.546657 
L 636.724637 51.98741 
L 648.098658 300.26527 
L 659.47268 216.54459 
L 670.846701 169.859326 
L 682.220723 218.706023 
L 693.594744 216.463344 
L 704.968766 127.942895 
L 716.342787 208.640751 
L 727.716809 163.113754 
L 739.09083 217.6246 
L 750.464852 219.718432 
L 761.838873 98.455826 
L 773.212895 215.860613 
L 784.586916 214.58664 
L 795.960938 171.666584 
L 807.334959 130.565877 
L 818.708981 113.94688 
L 830.083002 233.959665 
L 841.457024 203.977076 
L 852.831045 221.655007 
L 864.205067 244.497533 
" style="fill:none;stroke:#ff7f0e;stroke-dasharray:5.55,2.4;stroke-dashoffset:0;stroke-opacity:0.5;stroke-width:1.5;"/>
   </g>
   <g id="patch_9">
    <path d="M 493.980667 343.118485 
L 493.980667 35.352 
" style="fill:none;stroke:#000000;stroke-linecap:square;stroke-linejoin:miter;stroke-width:0.8;"/>
   </g>
   <g id="patch_10">
    <path d="M 881.8348 343.118485 
L 881.8348 35.352 
" style="fill:none;stroke:#000000;stroke-linecap:square;stroke-linejoin:miter;stroke-width:0.8;"/>
   </g>
   <g id="patch_11">
    <path d="M 493.980667 343.118485 
L 881.8348 343.118485 
" style="fill:none;stroke:#000000;stroke-linecap:square;stroke-linejoin:miter;stroke-width:0.8;"/>
   </g>
   <g id="patch_12">
    <path d="M 493.980667 35.352 
L 881.8348 35.352 
" style="fill:none;stroke:#000000;stroke-linecap:square;stroke-linejoin:miter;stroke-width:0.8;"/>
   </g>
   <g id="text_32">
    <!-- translation_y -->
    <defs>
     <path d="M 32.171875 -5.078125 
Q 28.375 -14.84375 24.75 -17.8125 
Q 21.140625 -20.796875 15.09375 -20.796875 
L 7.90625 -20.796875 
L 7.90625 -13.28125 
L 13.1875 -13.28125 
Q 16.890625 -13.28125 18.9375 -11.515625 
Q 21 -9.765625 23.484375 -3.21875 
L 25.09375 0.875 
L 2.984375 54.6875 
L 12.5 54.6875 
L 29.59375 11.921875 
L 46.6875 54.6875 
L 56.203125 54.6875 
z
" id="DejaVuSans-121"/>
    </defs>
    <g transform="translate(649.096171 29.352)scale(0.12 -0.12)">
     <use xlink:href="#DejaVuSans-116"/>
     <use x="39.208984" xlink:href="#DejaVuSans-114"/>
     <use x="80.322266" xlink:href="#DejaVuSans-97"/>
     <use x="141.601562" xlink:href="#DejaVuSans-110"/>
     <use x="204.980469" xlink:href="#DejaVuSans-115"/>
     <use x="257.080078" xlink:href="#DejaVuSans-108"/>
     <use x="284.863281" xlink:href="#DejaVuSans-97"/>
     <use x="346.142578" xlink:href="#DejaVuSans-116"/>
     <use x="385.351562" xlink:href="#DejaVuSans-105"/>
     <use x="413.134766" xlink:href="#DejaVuSans-111"/>
     <use x="474.316406" xlink:href="#DejaVuSans-110"/>
     <use x="537.695312" xlink:href="#DejaVuSans-95"/>
     <use x="587.695312" xlink:href="#DejaVuSans-121"/>
    </g>
   </g>
   <g id="legend_2">
    <g id="patch_13">
     <path d="M 795.498862 72.70825 
L 874.8348 72.70825 
Q 876.8348 72.70825 876.8348 70.70825 
L 876.8348 42.352 
Q 876.8348 40.352 874.8348 40.352 
L 795.498862 40.352 
Q 793.498862 40.352 793.498862 42.352 
L 793.498862 70.70825 
Q 793.498862 72.70825 795.498862 72.70825 
z
" style="fill:#ffffff;opacity:0.8;stroke:#cccccc;stroke-linejoin:miter;"/>
    </g>
    <g id="line2d_37">
     <path d="M 797.498862 48.450437 
L 817.498862 48.450437 
" style="fill:none;stroke:#1f77b4;stroke-linecap:square;stroke-opacity:0.5;stroke-width:1.5;"/>
    </g>
    <g id="line2d_38"/>
    <g id="text_33">
     <!-- True -->
     <g transform="translate(825.498862 51.950437)scale(0.1 -0.1)">
      <use xlink:href="#DejaVuSans-84"/>
      <use x="60.865234" xlink:href="#DejaVuSans-114"/>
      <use x="101.978516" xlink:href="#DejaVuSans-117"/>
      <use x="165.357422" xlink:href="#DejaVuSans-101"/>
     </g>
    </g>
    <g id="line2d_39">
     <path d="M 797.498862 63.128562 
L 817.498862 63.128562 
" style="fill:none;stroke:#ff7f0e;stroke-dasharray:5.55,2.4;stroke-dashoffset:0;stroke-opacity:0.5;stroke-width:1.5;"/>
    </g>
    <g id="line2d_40"/>
    <g id="text_34">
     <!-- Predicted -->
     <g transform="translate(825.498862 66.628562)scale(0.1 -0.1)">
      <use xlink:href="#DejaVuSans-80"/>
      <use x="60.287109" xlink:href="#DejaVuSans-114"/>
      <use x="101.369141" xlink:href="#DejaVuSans-101"/>
      <use x="162.892578" xlink:href="#DejaVuSans-100"/>
      <use x="226.369141" xlink:href="#DejaVuSans-105"/>
      <use x="254.152344" xlink:href="#DejaVuSans-99"/>
      <use x="309.132812" xlink:href="#DejaVuSans-116"/>
      <use x="348.341797" xlink:href="#DejaVuSans-101"/>
      <use x="409.865234" xlink:href="#DejaVuSans-100"/>
     </g>
    </g>
   </g>
  </g>
  <g id="axes_3">
   <g id="patch_14">
    <path d="M 931.617867 343.118485 
L 1319.472 343.118485 
L 1319.472 35.352 
L 931.617867 35.352 
z
" style="fill:#ffffff;"/>
   </g>
   <g id="matplotlib.axis_5">
    <g id="xtick_15">
     <g id="line2d_41">
      <g>
       <use style="stroke:#000000;stroke-width:0.8;" x="949.2476" xlink:href="#m641fe88e21" y="343.118485"/>
      </g>
     </g>
     <g id="text_35">
      <!-- 0 -->
      <g transform="translate(946.06635 357.716922)scale(0.1 -0.1)">
       <use xlink:href="#DejaVuSans-48"/>
      </g>
     </g>
    </g>
    <g id="xtick_16">
     <g id="line2d_42">
      <g>
       <use style="stroke:#000000;stroke-width:0.8;" x="1006.117708" xlink:href="#m641fe88e21" y="343.118485"/>
      </g>
     </g>
     <g id="text_36">
      <!-- 5 -->
      <g transform="translate(1002.936458 357.716922)scale(0.1 -0.1)">
       <use xlink:href="#DejaVuSans-53"/>
      </g>
     </g>
    </g>
    <g id="xtick_17">
     <g id="line2d_43">
      <g>
       <use style="stroke:#000000;stroke-width:0.8;" x="1062.987815" xlink:href="#m641fe88e21" y="343.118485"/>
      </g>
     </g>
     <g id="text_37">
      <!-- 10 -->
      <g transform="translate(1056.625315 357.716922)scale(0.1 -0.1)">
       <use xlink:href="#DejaVuSans-49"/>
       <use x="63.623047" xlink:href="#DejaVuSans-48"/>
      </g>
     </g>
    </g>
    <g id="xtick_18">
     <g id="line2d_44">
      <g>
       <use style="stroke:#000000;stroke-width:0.8;" x="1119.857923" xlink:href="#m641fe88e21" y="343.118485"/>
      </g>
     </g>
     <g id="text_38">
      <!-- 15 -->
      <g transform="translate(1113.495423 357.716922)scale(0.1 -0.1)">
       <use xlink:href="#DejaVuSans-49"/>
       <use x="63.623047" xlink:href="#DejaVuSans-53"/>
      </g>
     </g>
    </g>
    <g id="xtick_19">
     <g id="line2d_45">
      <g>
       <use style="stroke:#000000;stroke-width:0.8;" x="1176.72803" xlink:href="#m641fe88e21" y="343.118485"/>
      </g>
     </g>
     <g id="text_39">
      <!-- 20 -->
      <g transform="translate(1170.36553 357.716922)scale(0.1 -0.1)">
       <use xlink:href="#DejaVuSans-50"/>
       <use x="63.623047" xlink:href="#DejaVuSans-48"/>
      </g>
     </g>
    </g>
    <g id="xtick_20">
     <g id="line2d_46">
      <g>
       <use style="stroke:#000000;stroke-width:0.8;" x="1233.598138" xlink:href="#m641fe88e21" y="343.118485"/>
      </g>
     </g>
     <g id="text_40">
      <!-- 25 -->
      <g transform="translate(1227.235638 357.716922)scale(0.1 -0.1)">
       <use xlink:href="#DejaVuSans-50"/>
       <use x="63.623047" xlink:href="#DejaVuSans-53"/>
      </g>
     </g>
    </g>
    <g id="xtick_21">
     <g id="line2d_47">
      <g>
       <use style="stroke:#000000;stroke-width:0.8;" x="1290.468245" xlink:href="#m641fe88e21" y="343.118485"/>
      </g>
     </g>
     <g id="text_41">
      <!-- 30 -->
      <g transform="translate(1284.105745 357.716922)scale(0.1 -0.1)">
       <use xlink:href="#DejaVuSans-51"/>
       <use x="63.623047" xlink:href="#DejaVuSans-48"/>
      </g>
     </g>
    </g>
   </g>
   <g id="matplotlib.axis_6">
    <g id="ytick_15">
     <g id="line2d_48">
      <g>
       <use style="stroke:#000000;stroke-width:0.8;" x="931.617867" xlink:href="#m6b9e6b798b" y="313.78443"/>
      </g>
     </g>
     <g id="text_42">
      <!-- −0.05 -->
      <g transform="translate(893.972554 317.583649)scale(0.1 -0.1)">
       <use xlink:href="#DejaVuSans-8722"/>
       <use x="83.789062" xlink:href="#DejaVuSans-48"/>
       <use x="147.412109" xlink:href="#DejaVuSans-46"/>
       <use x="179.199219" xlink:href="#DejaVuSans-48"/>
       <use x="242.822266" xlink:href="#DejaVuSans-53"/>
      </g>
     </g>
    </g>
    <g id="ytick_16">
     <g id="line2d_49">
      <g>
       <use style="stroke:#000000;stroke-width:0.8;" x="931.617867" xlink:href="#m6b9e6b798b" y="274.958155"/>
      </g>
     </g>
     <g id="text_43">
      <!-- −0.04 -->
      <defs>
       <path d="M 37.796875 64.3125 
L 12.890625 25.390625 
L 37.796875 25.390625 
z
M 35.203125 72.90625 
L 47.609375 72.90625 
L 47.609375 25.390625 
L 58.015625 25.390625 
L 58.015625 17.1875 
L 47.609375 17.1875 
L 47.609375 0 
L 37.796875 0 
L 37.796875 17.1875 
L 4.890625 17.1875 
L 4.890625 26.703125 
z
" id="DejaVuSans-52"/>
      </defs>
      <g transform="translate(893.972554 278.757374)scale(0.1 -0.1)">
       <use xlink:href="#DejaVuSans-8722"/>
       <use x="83.789062" xlink:href="#DejaVuSans-48"/>
       <use x="147.412109" xlink:href="#DejaVuSans-46"/>
       <use x="179.199219" xlink:href="#DejaVuSans-48"/>
       <use x="242.822266" xlink:href="#DejaVuSans-52"/>
      </g>
     </g>
    </g>
    <g id="ytick_17">
     <g id="line2d_50">
      <g>
       <use style="stroke:#000000;stroke-width:0.8;" x="931.617867" xlink:href="#m6b9e6b798b" y="236.131881"/>
      </g>
     </g>
     <g id="text_44">
      <!-- −0.03 -->
      <g transform="translate(893.972554 239.931099)scale(0.1 -0.1)">
       <use xlink:href="#DejaVuSans-8722"/>
       <use x="83.789062" xlink:href="#DejaVuSans-48"/>
       <use x="147.412109" xlink:href="#DejaVuSans-46"/>
       <use x="179.199219" xlink:href="#DejaVuSans-48"/>
       <use x="242.822266" xlink:href="#DejaVuSans-51"/>
      </g>
     </g>
    </g>
    <g id="ytick_18">
     <g id="line2d_51">
      <g>
       <use style="stroke:#000000;stroke-width:0.8;" x="931.617867" xlink:href="#m6b9e6b798b" y="197.305606"/>
      </g>
     </g>
     <g id="text_45">
      <!-- −0.02 -->
      <g transform="translate(893.972554 201.104824)scale(0.1 -0.1)">
       <use xlink:href="#DejaVuSans-8722"/>
       <use x="83.789062" xlink:href="#DejaVuSans-48"/>
       <use x="147.412109" xlink:href="#DejaVuSans-46"/>
       <use x="179.199219" xlink:href="#DejaVuSans-48"/>
       <use x="242.822266" xlink:href="#DejaVuSans-50"/>
      </g>
     </g>
    </g>
    <g id="ytick_19">
     <g id="line2d_52">
      <g>
       <use style="stroke:#000000;stroke-width:0.8;" x="931.617867" xlink:href="#m6b9e6b798b" y="158.479331"/>
      </g>
     </g>
     <g id="text_46">
      <!-- −0.01 -->
      <g transform="translate(893.972554 162.27855)scale(0.1 -0.1)">
       <use xlink:href="#DejaVuSans-8722"/>
       <use x="83.789062" xlink:href="#DejaVuSans-48"/>
       <use x="147.412109" xlink:href="#DejaVuSans-46"/>
       <use x="179.199219" xlink:href="#DejaVuSans-48"/>
       <use x="242.822266" xlink:href="#DejaVuSans-49"/>
      </g>
     </g>
    </g>
    <g id="ytick_20">
     <g id="line2d_53">
      <g>
       <use style="stroke:#000000;stroke-width:0.8;" x="931.617867" xlink:href="#m6b9e6b798b" y="119.653056"/>
      </g>
     </g>
     <g id="text_47">
      <!-- 0.00 -->
      <g transform="translate(902.352242 123.452275)scale(0.1 -0.1)">
       <use xlink:href="#DejaVuSans-48"/>
       <use x="63.623047" xlink:href="#DejaVuSans-46"/>
       <use x="95.410156" xlink:href="#DejaVuSans-48"/>
       <use x="159.033203" xlink:href="#DejaVuSans-48"/>
      </g>
     </g>
    </g>
    <g id="ytick_21">
     <g id="line2d_54">
      <g>
       <use style="stroke:#000000;stroke-width:0.8;" x="931.617867" xlink:href="#m6b9e6b798b" y="80.826781"/>
      </g>
     </g>
     <g id="text_48">
      <!-- 0.01 -->
      <g transform="translate(902.352242 84.626)scale(0.1 -0.1)">
       <use xlink:href="#DejaVuSans-48"/>
       <use x="63.623047" xlink:href="#DejaVuSans-46"/>
       <use x="95.410156" xlink:href="#DejaVuSans-48"/>
       <use x="159.033203" xlink:href="#DejaVuSans-49"/>
      </g>
     </g>
    </g>
    <g id="ytick_22">
     <g id="line2d_55">
      <g>
       <use style="stroke:#000000;stroke-width:0.8;" x="931.617867" xlink:href="#m6b9e6b798b" y="42.000506"/>
      </g>
     </g>
     <g id="text_49">
      <!-- 0.02 -->
      <g transform="translate(902.352242 45.799725)scale(0.1 -0.1)">
       <use xlink:href="#DejaVuSans-48"/>
       <use x="63.623047" xlink:href="#DejaVuSans-46"/>
       <use x="95.410156" xlink:href="#DejaVuSans-48"/>
       <use x="159.033203" xlink:href="#DejaVuSans-50"/>
      </g>
     </g>
    </g>
   </g>
   <g id="line2d_56">
    <path clip-path="url(#pfb35075afd)" d="M 949.2476 122.02405 
L 960.621622 214.343741 
L 971.995643 119.186538 
L 983.369665 69.592009 
L 994.743686 272.996267 
L 1006.117708 133.434712 
L 1017.491729 230.988951 
L 1028.865751 261.017976 
L 1040.239772 123.169079 
L 1051.613794 49.341386 
L 1062.987815 128.430859 
L 1074.361837 71.844315 
L 1085.735858 126.593718 
L 1097.10988 128.843934 
L 1108.483901 126.407079 
L 1119.857923 126.22176 
L 1131.231944 134.56553 
L 1142.605966 261.484668 
L 1153.979987 192.927167 
L 1165.354009 116.276894 
L 1176.72803 135.45508 
L 1188.102052 55.276371 
L 1199.476073 314.56291 
L 1210.850095 135.003372 
L 1222.224116 136.812988 
L 1233.598138 244.941566 
L 1244.972159 264.274338 
L 1256.346181 252.123261 
L 1267.720202 150.457122 
L 1279.094224 202.767301 
L 1290.468245 131.84012 
L 1301.842267 141.47156 
" style="fill:none;stroke:#1f77b4;stroke-linecap:square;stroke-opacity:0.5;stroke-width:1.5;"/>
   </g>
   <g id="line2d_57">
    <path clip-path="url(#pfb35075afd)" d="M 949.2476 122.484346 
L 960.621622 210.336745 
L 971.995643 119.484708 
L 983.369665 78.859321 
L 994.743686 255.472497 
L 1006.117708 135.532169 
L 1017.491729 225.013091 
L 1028.865751 271.6713 
L 1040.239772 126.60018 
L 1051.613794 55.325895 
L 1062.987815 133.315808 
L 1074.361837 71.554024 
L 1085.735858 121.160309 
L 1097.10988 131.257195 
L 1108.483901 126.728648 
L 1119.857923 132.989202 
L 1131.231944 135.844531 
L 1142.605966 270.355199 
L 1153.979987 206.97737 
L 1165.354009 117.189111 
L 1176.72803 133.517887 
L 1188.102052 53.846787 
L 1199.476073 329.129099 
L 1210.850095 135.979751 
L 1222.224116 137.031617 
L 1233.598138 248.634638 
L 1244.972159 267.281256 
L 1256.346181 256.501257 
L 1267.720202 167.828045 
L 1279.094224 207.04875 
L 1290.468245 128.739259 
L 1301.842267 162.245361 
" style="fill:none;stroke:#ff7f0e;stroke-dasharray:5.55,2.4;stroke-dashoffset:0;stroke-opacity:0.5;stroke-width:1.5;"/>
   </g>
   <g id="patch_15">
    <path d="M 931.617867 343.118485 
L 931.617867 35.352 
" style="fill:none;stroke:#000000;stroke-linecap:square;stroke-linejoin:miter;stroke-width:0.8;"/>
   </g>
   <g id="patch_16">
    <path d="M 1319.472 343.118485 
L 1319.472 35.352 
" style="fill:none;stroke:#000000;stroke-linecap:square;stroke-linejoin:miter;stroke-width:0.8;"/>
   </g>
   <g id="patch_17">
    <path d="M 931.617867 343.118485 
L 1319.472 343.118485 
" style="fill:none;stroke:#000000;stroke-linecap:square;stroke-linejoin:miter;stroke-width:0.8;"/>
   </g>
   <g id="patch_18">
    <path d="M 931.617867 35.352 
L 1319.472 35.352 
" style="fill:none;stroke:#000000;stroke-linecap:square;stroke-linejoin:miter;stroke-width:0.8;"/>
   </g>
   <g id="text_50">
    <!-- translation_z -->
    <defs>
     <path d="M 5.515625 54.6875 
L 48.1875 54.6875 
L 48.1875 46.484375 
L 14.40625 7.171875 
L 48.1875 7.171875 
L 48.1875 0 
L 4.296875 0 
L 4.296875 8.203125 
L 38.09375 47.515625 
L 5.515625 47.515625 
z
" id="DejaVuSans-122"/>
    </defs>
    <g transform="translate(1087.135558 29.352)scale(0.12 -0.12)">
     <use xlink:href="#DejaVuSans-116"/>
     <use x="39.208984" xlink:href="#DejaVuSans-114"/>
     <use x="80.322266" xlink:href="#DejaVuSans-97"/>
     <use x="141.601562" xlink:href="#DejaVuSans-110"/>
     <use x="204.980469" xlink:href="#DejaVuSans-115"/>
     <use x="257.080078" xlink:href="#DejaVuSans-108"/>
     <use x="284.863281" xlink:href="#DejaVuSans-97"/>
     <use x="346.142578" xlink:href="#DejaVuSans-116"/>
     <use x="385.351562" xlink:href="#DejaVuSans-105"/>
     <use x="413.134766" xlink:href="#DejaVuSans-111"/>
     <use x="474.316406" xlink:href="#DejaVuSans-110"/>
     <use x="537.695312" xlink:href="#DejaVuSans-95"/>
     <use x="587.695312" xlink:href="#DejaVuSans-122"/>
    </g>
   </g>
   <g id="legend_3">
    <g id="patch_19">
     <path d="M 1233.136062 72.70825 
L 1312.472 72.70825 
Q 1314.472 72.70825 1314.472 70.70825 
L 1314.472 42.352 
Q 1314.472 40.352 1312.472 40.352 
L 1233.136062 40.352 
Q 1231.136062 40.352 1231.136062 42.352 
L 1231.136062 70.70825 
Q 1231.136062 72.70825 1233.136062 72.70825 
z
" style="fill:#ffffff;opacity:0.8;stroke:#cccccc;stroke-linejoin:miter;"/>
    </g>
    <g id="line2d_58">
     <path d="M 1235.136062 48.450437 
L 1255.136062 48.450437 
" style="fill:none;stroke:#1f77b4;stroke-linecap:square;stroke-opacity:0.5;stroke-width:1.5;"/>
    </g>
    <g id="line2d_59"/>
    <g id="text_51">
     <!-- True -->
     <g transform="translate(1263.136062 51.950437)scale(0.1 -0.1)">
      <use xlink:href="#DejaVuSans-84"/>
      <use x="60.865234" xlink:href="#DejaVuSans-114"/>
      <use x="101.978516" xlink:href="#DejaVuSans-117"/>
      <use x="165.357422" xlink:href="#DejaVuSans-101"/>
     </g>
    </g>
    <g id="line2d_60">
     <path d="M 1235.136062 63.128562 
L 1255.136062 63.128562 
" style="fill:none;stroke:#ff7f0e;stroke-dasharray:5.55,2.4;stroke-dashoffset:0;stroke-opacity:0.5;stroke-width:1.5;"/>
    </g>
    <g id="line2d_61"/>
    <g id="text_52">
     <!-- Predicted -->
     <g transform="translate(1263.136062 66.628562)scale(0.1 -0.1)">
      <use xlink:href="#DejaVuSans-80"/>
      <use x="60.287109" xlink:href="#DejaVuSans-114"/>
      <use x="101.369141" xlink:href="#DejaVuSans-101"/>
      <use x="162.892578" xlink:href="#DejaVuSans-100"/>
      <use x="226.369141" xlink:href="#DejaVuSans-105"/>
      <use x="254.152344" xlink:href="#DejaVuSans-99"/>
      <use x="309.132812" xlink:href="#DejaVuSans-116"/>
      <use x="348.341797" xlink:href="#DejaVuSans-101"/>
      <use x="409.865234" xlink:href="#DejaVuSans-100"/>
     </g>
    </g>
   </g>
  </g>
  <g id="axes_4">
   <g id="patch_20">
    <path d="M 56.343467 684.224867 
L 444.1976 684.224867 
L 444.1976 376.458382 
L 56.343467 376.458382 
z
" style="fill:#ffffff;"/>
   </g>
   <g id="matplotlib.axis_7">
    <g id="xtick_22">
     <g id="line2d_62">
      <g>
       <use style="stroke:#000000;stroke-width:0.8;" x="73.9732" xlink:href="#m641fe88e21" y="684.224867"/>
      </g>
     </g>
     <g id="text_53">
      <!-- 0 -->
      <g transform="translate(70.79195 698.823304)scale(0.1 -0.1)">
       <use xlink:href="#DejaVuSans-48"/>
      </g>
     </g>
    </g>
    <g id="xtick_23">
     <g id="line2d_63">
      <g>
       <use style="stroke:#000000;stroke-width:0.8;" x="130.843308" xlink:href="#m641fe88e21" y="684.224867"/>
      </g>
     </g>
     <g id="text_54">
      <!-- 5 -->
      <g transform="translate(127.662058 698.823304)scale(0.1 -0.1)">
       <use xlink:href="#DejaVuSans-53"/>
      </g>
     </g>
    </g>
    <g id="xtick_24">
     <g id="line2d_64">
      <g>
       <use style="stroke:#000000;stroke-width:0.8;" x="187.713415" xlink:href="#m641fe88e21" y="684.224867"/>
      </g>
     </g>
     <g id="text_55">
      <!-- 10 -->
      <g transform="translate(181.350915 698.823304)scale(0.1 -0.1)">
       <use xlink:href="#DejaVuSans-49"/>
       <use x="63.623047" xlink:href="#DejaVuSans-48"/>
      </g>
     </g>
    </g>
    <g id="xtick_25">
     <g id="line2d_65">
      <g>
       <use style="stroke:#000000;stroke-width:0.8;" x="244.583523" xlink:href="#m641fe88e21" y="684.224867"/>
      </g>
     </g>
     <g id="text_56">
      <!-- 15 -->
      <g transform="translate(238.221023 698.823304)scale(0.1 -0.1)">
       <use xlink:href="#DejaVuSans-49"/>
       <use x="63.623047" xlink:href="#DejaVuSans-53"/>
      </g>
     </g>
    </g>
    <g id="xtick_26">
     <g id="line2d_66">
      <g>
       <use style="stroke:#000000;stroke-width:0.8;" x="301.45363" xlink:href="#m641fe88e21" y="684.224867"/>
      </g>
     </g>
     <g id="text_57">
      <!-- 20 -->
      <g transform="translate(295.09113 698.823304)scale(0.1 -0.1)">
       <use xlink:href="#DejaVuSans-50"/>
       <use x="63.623047" xlink:href="#DejaVuSans-48"/>
      </g>
     </g>
    </g>
    <g id="xtick_27">
     <g id="line2d_67">
      <g>
       <use style="stroke:#000000;stroke-width:0.8;" x="358.323738" xlink:href="#m641fe88e21" y="684.224867"/>
      </g>
     </g>
     <g id="text_58">
      <!-- 25 -->
      <g transform="translate(351.961238 698.823304)scale(0.1 -0.1)">
       <use xlink:href="#DejaVuSans-50"/>
       <use x="63.623047" xlink:href="#DejaVuSans-53"/>
      </g>
     </g>
    </g>
    <g id="xtick_28">
     <g id="line2d_68">
      <g>
       <use style="stroke:#000000;stroke-width:0.8;" x="415.193845" xlink:href="#m641fe88e21" y="684.224867"/>
      </g>
     </g>
     <g id="text_59">
      <!-- 30 -->
      <g transform="translate(408.831345 698.823304)scale(0.1 -0.1)">
       <use xlink:href="#DejaVuSans-51"/>
       <use x="63.623047" xlink:href="#DejaVuSans-48"/>
      </g>
     </g>
    </g>
   </g>
   <g id="matplotlib.axis_8">
    <g id="ytick_23">
     <g id="line2d_69">
      <g>
       <use style="stroke:#000000;stroke-width:0.8;" x="56.343467" xlink:href="#m6b9e6b798b" y="650.300247"/>
      </g>
     </g>
     <g id="text_60">
      <!-- −30 -->
      <g transform="translate(28.238779 654.099465)scale(0.1 -0.1)">
       <use xlink:href="#DejaVuSans-8722"/>
       <use x="83.789062" xlink:href="#DejaVuSans-51"/>
       <use x="147.412109" xlink:href="#DejaVuSans-48"/>
      </g>
     </g>
    </g>
    <g id="ytick_24">
     <g id="line2d_70">
      <g>
       <use style="stroke:#000000;stroke-width:0.8;" x="56.343467" xlink:href="#m6b9e6b798b" y="604.056436"/>
      </g>
     </g>
     <g id="text_61">
      <!-- −20 -->
      <g transform="translate(28.238779 607.855654)scale(0.1 -0.1)">
       <use xlink:href="#DejaVuSans-8722"/>
       <use x="83.789062" xlink:href="#DejaVuSans-50"/>
       <use x="147.412109" xlink:href="#DejaVuSans-48"/>
      </g>
     </g>
    </g>
    <g id="ytick_25">
     <g id="line2d_71">
      <g>
       <use style="stroke:#000000;stroke-width:0.8;" x="56.343467" xlink:href="#m6b9e6b798b" y="557.812625"/>
      </g>
     </g>
     <g id="text_62">
      <!-- −10 -->
      <g transform="translate(28.238779 561.611844)scale(0.1 -0.1)">
       <use xlink:href="#DejaVuSans-8722"/>
       <use x="83.789062" xlink:href="#DejaVuSans-49"/>
       <use x="147.412109" xlink:href="#DejaVuSans-48"/>
      </g>
     </g>
    </g>
    <g id="ytick_26">
     <g id="line2d_72">
      <g>
       <use style="stroke:#000000;stroke-width:0.8;" x="56.343467" xlink:href="#m6b9e6b798b" y="511.568814"/>
      </g>
     </g>
     <g id="text_63">
      <!-- 0 -->
      <g transform="translate(42.980967 515.368033)scale(0.1 -0.1)">
       <use xlink:href="#DejaVuSans-48"/>
      </g>
     </g>
    </g>
    <g id="ytick_27">
     <g id="line2d_73">
      <g>
       <use style="stroke:#000000;stroke-width:0.8;" x="56.343467" xlink:href="#m6b9e6b798b" y="465.325003"/>
      </g>
     </g>
     <g id="text_64">
      <!-- 10 -->
      <g transform="translate(36.618467 469.124222)scale(0.1 -0.1)">
       <use xlink:href="#DejaVuSans-49"/>
       <use x="63.623047" xlink:href="#DejaVuSans-48"/>
      </g>
     </g>
    </g>
    <g id="ytick_28">
     <g id="line2d_74">
      <g>
       <use style="stroke:#000000;stroke-width:0.8;" x="56.343467" xlink:href="#m6b9e6b798b" y="419.081192"/>
      </g>
     </g>
     <g id="text_65">
      <!-- 20 -->
      <g transform="translate(36.618467 422.880411)scale(0.1 -0.1)">
       <use xlink:href="#DejaVuSans-50"/>
       <use x="63.623047" xlink:href="#DejaVuSans-48"/>
      </g>
     </g>
    </g>
   </g>
   <g id="line2d_75">
    <path clip-path="url(#p859fd044ad)" d="M 73.9732 404.216584 
L 85.347222 410.734641 
L 96.721243 399.83313 
L 108.095265 408.874253 
L 119.469286 614.558405 
L 130.843308 615.428713 
L 142.217329 670.235481 
L 153.591351 639.470868 
L 164.965372 407.988686 
L 176.339394 629.802215 
L 187.713415 622.574767 
L 199.087437 415.526891 
L 210.461458 614.460367 
L 221.83548 618.115943 
L 233.209501 412.132131 
L 244.583523 613.420338 
L 255.957544 607.541833 
L 267.331566 645.25736 
L 278.705587 417.786821 
L 290.079609 397.511228 
L 301.45363 623.209229 
L 312.827652 404.057034 
L 324.201673 639.576764 
L 335.575695 620.593223 
L 346.949716 610.234143 
L 358.323738 649.702309 
L 369.697759 640.685239 
L 381.071781 659.369577 
L 392.445802 409.28999 
L 403.819824 408.929292 
L 415.193845 605.44514 
L 426.567867 414.105357 
" style="fill:none;stroke:#1f77b4;stroke-linecap:square;stroke-opacity:0.5;stroke-width:1.5;"/>
   </g>
   <g id="line2d_76">
    <path clip-path="url(#p859fd044ad)" d="M 73.9732 401.115073 
L 85.347222 396.243803 
L 96.721243 398.516585 
L 108.095265 408.229824 
L 119.469286 603.152107 
L 130.843308 610.399983 
L 142.217329 663.878915 
L 153.591351 631.418333 
L 164.965372 404.523787 
L 176.339394 625.972932 
L 187.713415 621.413344 
L 199.087437 397.383043 
L 210.461458 598.380674 
L 221.83548 614.63747 
L 233.209501 411.875619 
L 244.583523 608.906775 
L 255.957544 600.52609 
L 267.331566 646.433486 
L 278.705587 406.140329 
L 290.079609 390.447768 
L 301.45363 618.644112 
L 312.827652 403.532305 
L 324.201673 637.239568 
L 335.575695 614.518264 
L 346.949716 608.274368 
L 358.323738 653.967051 
L 369.697759 640.860375 
L 381.071781 657.95458 
L 392.445802 408.188369 
L 403.819824 394.716302 
L 415.193845 604.61836 
L 426.567867 416.518566 
" style="fill:none;stroke:#ff7f0e;stroke-dasharray:5.55,2.4;stroke-dashoffset:0;stroke-opacity:0.5;stroke-width:1.5;"/>
   </g>
   <g id="patch_21">
    <path d="M 56.343467 684.224867 
L 56.343467 376.458382 
" style="fill:none;stroke:#000000;stroke-linecap:square;stroke-linejoin:miter;stroke-width:0.8;"/>
   </g>
   <g id="patch_22">
    <path d="M 444.1976 684.224867 
L 444.1976 376.458382 
" style="fill:none;stroke:#000000;stroke-linecap:square;stroke-linejoin:miter;stroke-width:0.8;"/>
   </g>
   <g id="patch_23">
    <path d="M 56.343467 684.224867 
L 444.1976 684.224867 
" style="fill:none;stroke:#000000;stroke-linecap:square;stroke-linejoin:miter;stroke-width:0.8;"/>
   </g>
   <g id="patch_24">
    <path d="M 56.343467 376.458382 
L 444.1976 376.458382 
" style="fill:none;stroke:#000000;stroke-linecap:square;stroke-linejoin:miter;stroke-width:0.8;"/>
   </g>
   <g id="text_66">
    <!-- rpy_x -->
    <defs>
     <path d="M 18.109375 8.203125 
L 18.109375 -20.796875 
L 9.078125 -20.796875 
L 9.078125 54.6875 
L 18.109375 54.6875 
L 18.109375 46.390625 
Q 20.953125 51.265625 25.265625 53.625 
Q 29.59375 56 35.59375 56 
Q 45.5625 56 51.78125 48.09375 
Q 58.015625 40.1875 58.015625 27.296875 
Q 58.015625 14.40625 51.78125 6.484375 
Q 45.5625 -1.421875 35.59375 -1.421875 
Q 29.59375 -1.421875 25.265625 0.953125 
Q 20.953125 3.328125 18.109375 8.203125 
z
M 48.6875 27.296875 
Q 48.6875 37.203125 44.609375 42.84375 
Q 40.53125 48.484375 33.40625 48.484375 
Q 26.265625 48.484375 22.1875 42.84375 
Q 18.109375 37.203125 18.109375 27.296875 
Q 18.109375 17.390625 22.1875 11.75 
Q 26.265625 6.109375 33.40625 6.109375 
Q 40.53125 6.109375 44.609375 11.75 
Q 48.6875 17.390625 48.6875 27.296875 
z
" id="DejaVuSans-112"/>
    </defs>
    <g transform="translate(233.892408 370.458382)scale(0.12 -0.12)">
     <use xlink:href="#DejaVuSans-114"/>
     <use x="41.113281" xlink:href="#DejaVuSans-112"/>
     <use x="104.589844" xlink:href="#DejaVuSans-121"/>
     <use x="163.769531" xlink:href="#DejaVuSans-95"/>
     <use x="213.769531" xlink:href="#DejaVuSans-120"/>
    </g>
   </g>
   <g id="legend_4">
    <g id="patch_25">
     <path d="M 210.602565 679.224867 
L 289.938502 679.224867 
Q 291.938502 679.224867 291.938502 677.224867 
L 291.938502 648.868617 
Q 291.938502 646.868617 289.938502 646.868617 
L 210.602565 646.868617 
Q 208.602565 646.868617 208.602565 648.868617 
L 208.602565 677.224867 
Q 208.602565 679.224867 210.602565 679.224867 
z
" style="fill:#ffffff;opacity:0.8;stroke:#cccccc;stroke-linejoin:miter;"/>
    </g>
    <g id="line2d_77">
     <path d="M 212.602565 654.967054 
L 232.602565 654.967054 
" style="fill:none;stroke:#1f77b4;stroke-linecap:square;stroke-opacity:0.5;stroke-width:1.5;"/>
    </g>
    <g id="line2d_78"/>
    <g id="text_67">
     <!-- True -->
     <g transform="translate(240.602565 658.467054)scale(0.1 -0.1)">
      <use xlink:href="#DejaVuSans-84"/>
      <use x="60.865234" xlink:href="#DejaVuSans-114"/>
      <use x="101.978516" xlink:href="#DejaVuSans-117"/>
      <use x="165.357422" xlink:href="#DejaVuSans-101"/>
     </g>
    </g>
    <g id="line2d_79">
     <path d="M 212.602565 669.645179 
L 232.602565 669.645179 
" style="fill:none;stroke:#ff7f0e;stroke-dasharray:5.55,2.4;stroke-dashoffset:0;stroke-opacity:0.5;stroke-width:1.5;"/>
    </g>
    <g id="line2d_80"/>
    <g id="text_68">
     <!-- Predicted -->
     <g transform="translate(240.602565 673.145179)scale(0.1 -0.1)">
      <use xlink:href="#DejaVuSans-80"/>
      <use x="60.287109" xlink:href="#DejaVuSans-114"/>
      <use x="101.369141" xlink:href="#DejaVuSans-101"/>
      <use x="162.892578" xlink:href="#DejaVuSans-100"/>
      <use x="226.369141" xlink:href="#DejaVuSans-105"/>
      <use x="254.152344" xlink:href="#DejaVuSans-99"/>
      <use x="309.132812" xlink:href="#DejaVuSans-116"/>
      <use x="348.341797" xlink:href="#DejaVuSans-101"/>
      <use x="409.865234" xlink:href="#DejaVuSans-100"/>
     </g>
    </g>
   </g>
  </g>
  <g id="axes_5">
   <g id="patch_26">
    <path d="M 493.980667 684.224867 
L 881.8348 684.224867 
L 881.8348 376.458382 
L 493.980667 376.458382 
z
" style="fill:#ffffff;"/>
   </g>
   <g id="matplotlib.axis_9">
    <g id="xtick_29">
     <g id="line2d_81">
      <g>
       <use style="stroke:#000000;stroke-width:0.8;" x="511.6104" xlink:href="#m641fe88e21" y="684.224867"/>
      </g>
     </g>
     <g id="text_69">
      <!-- 0 -->
      <g transform="translate(508.42915 698.823304)scale(0.1 -0.1)">
       <use xlink:href="#DejaVuSans-48"/>
      </g>
     </g>
    </g>
    <g id="xtick_30">
     <g id="line2d_82">
      <g>
       <use style="stroke:#000000;stroke-width:0.8;" x="568.480508" xlink:href="#m641fe88e21" y="684.224867"/>
      </g>
     </g>
     <g id="text_70">
      <!-- 5 -->
      <g transform="translate(565.299258 698.823304)scale(0.1 -0.1)">
       <use xlink:href="#DejaVuSans-53"/>
      </g>
     </g>
    </g>
    <g id="xtick_31">
     <g id="line2d_83">
      <g>
       <use style="stroke:#000000;stroke-width:0.8;" x="625.350615" xlink:href="#m641fe88e21" y="684.224867"/>
      </g>
     </g>
     <g id="text_71">
      <!-- 10 -->
      <g transform="translate(618.988115 698.823304)scale(0.1 -0.1)">
       <use xlink:href="#DejaVuSans-49"/>
       <use x="63.623047" xlink:href="#DejaVuSans-48"/>
      </g>
     </g>
    </g>
    <g id="xtick_32">
     <g id="line2d_84">
      <g>
       <use style="stroke:#000000;stroke-width:0.8;" x="682.220723" xlink:href="#m641fe88e21" y="684.224867"/>
      </g>
     </g>
     <g id="text_72">
      <!-- 15 -->
      <g transform="translate(675.858223 698.823304)scale(0.1 -0.1)">
       <use xlink:href="#DejaVuSans-49"/>
       <use x="63.623047" xlink:href="#DejaVuSans-53"/>
      </g>
     </g>
    </g>
    <g id="xtick_33">
     <g id="line2d_85">
      <g>
       <use style="stroke:#000000;stroke-width:0.8;" x="739.09083" xlink:href="#m641fe88e21" y="684.224867"/>
      </g>
     </g>
     <g id="text_73">
      <!-- 20 -->
      <g transform="translate(732.72833 698.823304)scale(0.1 -0.1)">
       <use xlink:href="#DejaVuSans-50"/>
       <use x="63.623047" xlink:href="#DejaVuSans-48"/>
      </g>
     </g>
    </g>
    <g id="xtick_34">
     <g id="line2d_86">
      <g>
       <use style="stroke:#000000;stroke-width:0.8;" x="795.960938" xlink:href="#m641fe88e21" y="684.224867"/>
      </g>
     </g>
     <g id="text_74">
      <!-- 25 -->
      <g transform="translate(789.598438 698.823304)scale(0.1 -0.1)">
       <use xlink:href="#DejaVuSans-50"/>
       <use x="63.623047" xlink:href="#DejaVuSans-53"/>
      </g>
     </g>
    </g>
    <g id="xtick_35">
     <g id="line2d_87">
      <g>
       <use style="stroke:#000000;stroke-width:0.8;" x="852.831045" xlink:href="#m641fe88e21" y="684.224867"/>
      </g>
     </g>
     <g id="text_75">
      <!-- 30 -->
      <g transform="translate(846.468545 698.823304)scale(0.1 -0.1)">
       <use xlink:href="#DejaVuSans-51"/>
       <use x="63.623047" xlink:href="#DejaVuSans-48"/>
      </g>
     </g>
    </g>
   </g>
   <g id="matplotlib.axis_10">
    <g id="ytick_29">
     <g id="line2d_88">
      <g>
       <use style="stroke:#000000;stroke-width:0.8;" x="493.980667" xlink:href="#m6b9e6b798b" y="650.974273"/>
      </g>
     </g>
     <g id="text_76">
      <!-- −40 -->
      <g transform="translate(465.875979 654.773492)scale(0.1 -0.1)">
       <use xlink:href="#DejaVuSans-8722"/>
       <use x="83.789062" xlink:href="#DejaVuSans-52"/>
       <use x="147.412109" xlink:href="#DejaVuSans-48"/>
      </g>
     </g>
    </g>
    <g id="ytick_30">
     <g id="line2d_89">
      <g>
       <use style="stroke:#000000;stroke-width:0.8;" x="493.980667" xlink:href="#m6b9e6b798b" y="608.192461"/>
      </g>
     </g>
     <g id="text_77">
      <!-- −20 -->
      <g transform="translate(465.875979 611.99168)scale(0.1 -0.1)">
       <use xlink:href="#DejaVuSans-8722"/>
       <use x="83.789062" xlink:href="#DejaVuSans-50"/>
       <use x="147.412109" xlink:href="#DejaVuSans-48"/>
      </g>
     </g>
    </g>
    <g id="ytick_31">
     <g id="line2d_90">
      <g>
       <use style="stroke:#000000;stroke-width:0.8;" x="493.980667" xlink:href="#m6b9e6b798b" y="565.410649"/>
      </g>
     </g>
     <g id="text_78">
      <!-- 0 -->
      <g transform="translate(480.618167 569.209868)scale(0.1 -0.1)">
       <use xlink:href="#DejaVuSans-48"/>
      </g>
     </g>
    </g>
    <g id="ytick_32">
     <g id="line2d_91">
      <g>
       <use style="stroke:#000000;stroke-width:0.8;" x="493.980667" xlink:href="#m6b9e6b798b" y="522.628837"/>
      </g>
     </g>
     <g id="text_79">
      <!-- 20 -->
      <g transform="translate(474.255667 526.428056)scale(0.1 -0.1)">
       <use xlink:href="#DejaVuSans-50"/>
       <use x="63.623047" xlink:href="#DejaVuSans-48"/>
      </g>
     </g>
    </g>
    <g id="ytick_33">
     <g id="line2d_92">
      <g>
       <use style="stroke:#000000;stroke-width:0.8;" x="493.980667" xlink:href="#m6b9e6b798b" y="479.847025"/>
      </g>
     </g>
     <g id="text_80">
      <!-- 40 -->
      <g transform="translate(474.255667 483.646244)scale(0.1 -0.1)">
       <use xlink:href="#DejaVuSans-52"/>
       <use x="63.623047" xlink:href="#DejaVuSans-48"/>
      </g>
     </g>
    </g>
    <g id="ytick_34">
     <g id="line2d_93">
      <g>
       <use style="stroke:#000000;stroke-width:0.8;" x="493.980667" xlink:href="#m6b9e6b798b" y="437.065213"/>
      </g>
     </g>
     <g id="text_81">
      <!-- 60 -->
      <defs>
       <path d="M 33.015625 40.375 
Q 26.375 40.375 22.484375 35.828125 
Q 18.609375 31.296875 18.609375 23.390625 
Q 18.609375 15.53125 22.484375 10.953125 
Q 26.375 6.390625 33.015625 6.390625 
Q 39.65625 6.390625 43.53125 10.953125 
Q 47.40625 15.53125 47.40625 23.390625 
Q 47.40625 31.296875 43.53125 35.828125 
Q 39.65625 40.375 33.015625 40.375 
z
M 52.59375 71.296875 
L 52.59375 62.3125 
Q 48.875 64.0625 45.09375 64.984375 
Q 41.3125 65.921875 37.59375 65.921875 
Q 27.828125 65.921875 22.671875 59.328125 
Q 17.53125 52.734375 16.796875 39.40625 
Q 19.671875 43.65625 24.015625 45.921875 
Q 28.375 48.1875 33.59375 48.1875 
Q 44.578125 48.1875 50.953125 41.515625 
Q 57.328125 34.859375 57.328125 23.390625 
Q 57.328125 12.15625 50.6875 5.359375 
Q 44.046875 -1.421875 33.015625 -1.421875 
Q 20.359375 -1.421875 13.671875 8.265625 
Q 6.984375 17.96875 6.984375 36.375 
Q 6.984375 53.65625 15.1875 63.9375 
Q 23.390625 74.21875 37.203125 74.21875 
Q 40.921875 74.21875 44.703125 73.484375 
Q 48.484375 72.75 52.59375 71.296875 
z
" id="DejaVuSans-54"/>
      </defs>
      <g transform="translate(474.255667 440.864431)scale(0.1 -0.1)">
       <use xlink:href="#DejaVuSans-54"/>
       <use x="63.623047" xlink:href="#DejaVuSans-48"/>
      </g>
     </g>
    </g>
    <g id="ytick_35">
     <g id="line2d_94">
      <g>
       <use style="stroke:#000000;stroke-width:0.8;" x="493.980667" xlink:href="#m6b9e6b798b" y="394.2834"/>
      </g>
     </g>
     <g id="text_82">
      <!-- 80 -->
      <defs>
       <path d="M 31.78125 34.625 
Q 24.75 34.625 20.71875 30.859375 
Q 16.703125 27.09375 16.703125 20.515625 
Q 16.703125 13.921875 20.71875 10.15625 
Q 24.75 6.390625 31.78125 6.390625 
Q 38.8125 6.390625 42.859375 10.171875 
Q 46.921875 13.96875 46.921875 20.515625 
Q 46.921875 27.09375 42.890625 30.859375 
Q 38.875 34.625 31.78125 34.625 
z
M 21.921875 38.8125 
Q 15.578125 40.375 12.03125 44.71875 
Q 8.5 49.078125 8.5 55.328125 
Q 8.5 64.0625 14.71875 69.140625 
Q 20.953125 74.21875 31.78125 74.21875 
Q 42.671875 74.21875 48.875 69.140625 
Q 55.078125 64.0625 55.078125 55.328125 
Q 55.078125 49.078125 51.53125 44.71875 
Q 48 40.375 41.703125 38.8125 
Q 48.828125 37.15625 52.796875 32.3125 
Q 56.78125 27.484375 56.78125 20.515625 
Q 56.78125 9.90625 50.3125 4.234375 
Q 43.84375 -1.421875 31.78125 -1.421875 
Q 19.734375 -1.421875 13.25 4.234375 
Q 6.78125 9.90625 6.78125 20.515625 
Q 6.78125 27.484375 10.78125 32.3125 
Q 14.796875 37.15625 21.921875 38.8125 
z
M 18.3125 54.390625 
Q 18.3125 48.734375 21.84375 45.5625 
Q 25.390625 42.390625 31.78125 42.390625 
Q 38.140625 42.390625 41.71875 45.5625 
Q 45.3125 48.734375 45.3125 54.390625 
Q 45.3125 60.0625 41.71875 63.234375 
Q 38.140625 66.40625 31.78125 66.40625 
Q 25.390625 66.40625 21.84375 63.234375 
Q 18.3125 60.0625 18.3125 54.390625 
z
" id="DejaVuSans-56"/>
      </defs>
      <g transform="translate(474.255667 398.082619)scale(0.1 -0.1)">
       <use xlink:href="#DejaVuSans-56"/>
       <use x="63.623047" xlink:href="#DejaVuSans-48"/>
      </g>
     </g>
    </g>
   </g>
   <g id="line2d_95">
    <path clip-path="url(#pd1e519108d)" d="M 511.6104 555.852699 
L 522.984422 409.082917 
L 534.358443 554.953513 
L 545.732465 619.611562 
L 557.106486 474.614599 
L 568.480508 560.264639 
L 579.854529 458.96287 
L 591.228551 460.432214 
L 602.602572 555.814942 
L 613.976594 669.302207 
L 625.350615 562.376157 
L 636.724637 393.977091 
L 648.098658 624.84336 
L 659.47268 561.231784 
L 670.846701 555.271231 
L 682.220723 560.476925 
L 693.594744 560.16472 
L 704.968766 523.003392 
L 716.342787 413.089208 
L 727.716809 555.078092 
L 739.09083 563.125333 
L 750.464852 643.533666 
L 761.838873 467.379762 
L 773.212895 558.513303 
L 784.586916 560.079885 
L 795.960938 478.076284 
L 807.334959 528.510051 
L 818.708981 497.878702 
L 830.083002 503.578736 
L 841.457024 454.631853 
L 852.831045 571.525477 
L 864.205067 502.531868 
" style="fill:none;stroke:#1f77b4;stroke-linecap:square;stroke-opacity:0.5;stroke-width:1.5;"/>
   </g>
   <g id="line2d_96">
    <path clip-path="url(#pd1e519108d)" d="M 511.6104 554.629187 
L 522.984422 407.848703 
L 534.358443 557.00251 
L 545.732465 619.61219 
L 557.106486 482.027176 
L 568.480508 559.177876 
L 579.854529 460.25657 
L 591.228551 457.391306 
L 602.602572 555.76158 
L 613.976594 670.235481 
L 625.350615 563.54015 
L 636.724637 390.447768 
L 648.098658 624.847913 
L 659.47268 561.895574 
L 670.846701 553.599103 
L 682.220723 562.062585 
L 693.594744 559.445209 
L 704.968766 527.011613 
L 716.342787 409.009608 
L 727.716809 557.538727 
L 739.09083 563.473609 
L 750.464852 641.483389 
L 761.838873 473.177895 
L 773.212895 556.307279 
L 784.586916 559.267734 
L 795.960938 482.834566 
L 807.334959 532.574549 
L 818.708981 501.166045 
L 830.083002 503.495631 
L 841.457024 453.93468 
L 852.831045 572.328578 
L 864.205067 504.573659 
" style="fill:none;stroke:#ff7f0e;stroke-dasharray:5.55,2.4;stroke-dashoffset:0;stroke-opacity:0.5;stroke-width:1.5;"/>
   </g>
   <g id="patch_27">
    <path d="M 493.980667 684.224867 
L 493.980667 376.458382 
" style="fill:none;stroke:#000000;stroke-linecap:square;stroke-linejoin:miter;stroke-width:0.8;"/>
   </g>
   <g id="patch_28">
    <path d="M 881.8348 684.224867 
L 881.8348 376.458382 
" style="fill:none;stroke:#000000;stroke-linecap:square;stroke-linejoin:miter;stroke-width:0.8;"/>
   </g>
   <g id="patch_29">
    <path d="M 493.980667 684.224867 
L 881.8348 684.224867 
" style="fill:none;stroke:#000000;stroke-linecap:square;stroke-linejoin:miter;stroke-width:0.8;"/>
   </g>
   <g id="patch_30">
    <path d="M 493.980667 376.458382 
L 881.8348 376.458382 
" style="fill:none;stroke:#000000;stroke-linecap:square;stroke-linejoin:miter;stroke-width:0.8;"/>
   </g>
   <g id="text_83">
    <!-- rpy_y -->
    <g transform="translate(671.529608 370.458382)scale(0.12 -0.12)">
     <use xlink:href="#DejaVuSans-114"/>
     <use x="41.113281" xlink:href="#DejaVuSans-112"/>
     <use x="104.589844" xlink:href="#DejaVuSans-121"/>
     <use x="163.769531" xlink:href="#DejaVuSans-95"/>
     <use x="213.769531" xlink:href="#DejaVuSans-121"/>
    </g>
   </g>
   <g id="legend_5">
    <g id="patch_31">
     <path d="M 795.498862 413.814632 
L 874.8348 413.814632 
Q 876.8348 413.814632 876.8348 411.814632 
L 876.8348 383.458382 
Q 876.8348 381.458382 874.8348 381.458382 
L 795.498862 381.458382 
Q 793.498862 381.458382 793.498862 383.458382 
L 793.498862 411.814632 
Q 793.498862 413.814632 795.498862 413.814632 
z
" style="fill:#ffffff;opacity:0.8;stroke:#cccccc;stroke-linejoin:miter;"/>
    </g>
    <g id="line2d_97">
     <path d="M 797.498862 389.55682 
L 817.498862 389.55682 
" style="fill:none;stroke:#1f77b4;stroke-linecap:square;stroke-opacity:0.5;stroke-width:1.5;"/>
    </g>
    <g id="line2d_98"/>
    <g id="text_84">
     <!-- True -->
     <g transform="translate(825.498862 393.05682)scale(0.1 -0.1)">
      <use xlink:href="#DejaVuSans-84"/>
      <use x="60.865234" xlink:href="#DejaVuSans-114"/>
      <use x="101.978516" xlink:href="#DejaVuSans-117"/>
      <use x="165.357422" xlink:href="#DejaVuSans-101"/>
     </g>
    </g>
    <g id="line2d_99">
     <path d="M 797.498862 404.234945 
L 817.498862 404.234945 
" style="fill:none;stroke:#ff7f0e;stroke-dasharray:5.55,2.4;stroke-dashoffset:0;stroke-opacity:0.5;stroke-width:1.5;"/>
    </g>
    <g id="line2d_100"/>
    <g id="text_85">
     <!-- Predicted -->
     <g transform="translate(825.498862 407.734945)scale(0.1 -0.1)">
      <use xlink:href="#DejaVuSans-80"/>
      <use x="60.287109" xlink:href="#DejaVuSans-114"/>
      <use x="101.369141" xlink:href="#DejaVuSans-101"/>
      <use x="162.892578" xlink:href="#DejaVuSans-100"/>
      <use x="226.369141" xlink:href="#DejaVuSans-105"/>
      <use x="254.152344" xlink:href="#DejaVuSans-99"/>
      <use x="309.132812" xlink:href="#DejaVuSans-116"/>
      <use x="348.341797" xlink:href="#DejaVuSans-101"/>
      <use x="409.865234" xlink:href="#DejaVuSans-100"/>
     </g>
    </g>
   </g>
  </g>
  <g id="axes_6">
   <g id="patch_32">
    <path d="M 931.617867 684.224867 
L 1319.472 684.224867 
L 1319.472 376.458382 
L 931.617867 376.458382 
z
" style="fill:#ffffff;"/>
   </g>
   <g id="matplotlib.axis_11">
    <g id="xtick_36">
     <g id="line2d_101">
      <g>
       <use style="stroke:#000000;stroke-width:0.8;" x="949.2476" xlink:href="#m641fe88e21" y="684.224867"/>
      </g>
     </g>
     <g id="text_86">
      <!-- 0 -->
      <g transform="translate(946.06635 698.823304)scale(0.1 -0.1)">
       <use xlink:href="#DejaVuSans-48"/>
      </g>
     </g>
    </g>
    <g id="xtick_37">
     <g id="line2d_102">
      <g>
       <use style="stroke:#000000;stroke-width:0.8;" x="1006.117708" xlink:href="#m641fe88e21" y="684.224867"/>
      </g>
     </g>
     <g id="text_87">
      <!-- 5 -->
      <g transform="translate(1002.936458 698.823304)scale(0.1 -0.1)">
       <use xlink:href="#DejaVuSans-53"/>
      </g>
     </g>
    </g>
    <g id="xtick_38">
     <g id="line2d_103">
      <g>
       <use style="stroke:#000000;stroke-width:0.8;" x="1062.987815" xlink:href="#m641fe88e21" y="684.224867"/>
      </g>
     </g>
     <g id="text_88">
      <!-- 10 -->
      <g transform="translate(1056.625315 698.823304)scale(0.1 -0.1)">
       <use xlink:href="#DejaVuSans-49"/>
       <use x="63.623047" xlink:href="#DejaVuSans-48"/>
      </g>
     </g>
    </g>
    <g id="xtick_39">
     <g id="line2d_104">
      <g>
       <use style="stroke:#000000;stroke-width:0.8;" x="1119.857923" xlink:href="#m641fe88e21" y="684.224867"/>
      </g>
     </g>
     <g id="text_89">
      <!-- 15 -->
      <g transform="translate(1113.495423 698.823304)scale(0.1 -0.1)">
       <use xlink:href="#DejaVuSans-49"/>
       <use x="63.623047" xlink:href="#DejaVuSans-53"/>
      </g>
     </g>
    </g>
    <g id="xtick_40">
     <g id="line2d_105">
      <g>
       <use style="stroke:#000000;stroke-width:0.8;" x="1176.72803" xlink:href="#m641fe88e21" y="684.224867"/>
      </g>
     </g>
     <g id="text_90">
      <!-- 20 -->
      <g transform="translate(1170.36553 698.823304)scale(0.1 -0.1)">
       <use xlink:href="#DejaVuSans-50"/>
       <use x="63.623047" xlink:href="#DejaVuSans-48"/>
      </g>
     </g>
    </g>
    <g id="xtick_41">
     <g id="line2d_106">
      <g>
       <use style="stroke:#000000;stroke-width:0.8;" x="1233.598138" xlink:href="#m641fe88e21" y="684.224867"/>
      </g>
     </g>
     <g id="text_91">
      <!-- 25 -->
      <g transform="translate(1227.235638 698.823304)scale(0.1 -0.1)">
       <use xlink:href="#DejaVuSans-50"/>
       <use x="63.623047" xlink:href="#DejaVuSans-53"/>
      </g>
     </g>
    </g>
    <g id="xtick_42">
     <g id="line2d_107">
      <g>
       <use style="stroke:#000000;stroke-width:0.8;" x="1290.468245" xlink:href="#m641fe88e21" y="684.224867"/>
      </g>
     </g>
     <g id="text_92">
      <!-- 30 -->
      <g transform="translate(1284.105745 698.823304)scale(0.1 -0.1)">
       <use xlink:href="#DejaVuSans-51"/>
       <use x="63.623047" xlink:href="#DejaVuSans-48"/>
      </g>
     </g>
    </g>
   </g>
   <g id="matplotlib.axis_12">
    <g id="ytick_36">
     <g id="line2d_108">
      <g>
       <use style="stroke:#000000;stroke-width:0.8;" x="931.617867" xlink:href="#m6b9e6b798b" y="654.308377"/>
      </g>
     </g>
     <g id="text_93">
      <!-- −60 -->
      <g transform="translate(903.513179 658.107596)scale(0.1 -0.1)">
       <use xlink:href="#DejaVuSans-8722"/>
       <use x="83.789062" xlink:href="#DejaVuSans-54"/>
       <use x="147.412109" xlink:href="#DejaVuSans-48"/>
      </g>
     </g>
    </g>
    <g id="ytick_37">
     <g id="line2d_109">
      <g>
       <use style="stroke:#000000;stroke-width:0.8;" x="931.617867" xlink:href="#m6b9e6b798b" y="613.45392"/>
      </g>
     </g>
     <g id="text_94">
      <!-- −40 -->
      <g transform="translate(903.513179 617.253139)scale(0.1 -0.1)">
       <use xlink:href="#DejaVuSans-8722"/>
       <use x="83.789062" xlink:href="#DejaVuSans-52"/>
       <use x="147.412109" xlink:href="#DejaVuSans-48"/>
      </g>
     </g>
    </g>
    <g id="ytick_38">
     <g id="line2d_110">
      <g>
       <use style="stroke:#000000;stroke-width:0.8;" x="931.617867" xlink:href="#m6b9e6b798b" y="572.599463"/>
      </g>
     </g>
     <g id="text_95">
      <!-- −20 -->
      <g transform="translate(903.513179 576.398682)scale(0.1 -0.1)">
       <use xlink:href="#DejaVuSans-8722"/>
       <use x="83.789062" xlink:href="#DejaVuSans-50"/>
       <use x="147.412109" xlink:href="#DejaVuSans-48"/>
      </g>
     </g>
    </g>
    <g id="ytick_39">
     <g id="line2d_111">
      <g>
       <use style="stroke:#000000;stroke-width:0.8;" x="931.617867" xlink:href="#m6b9e6b798b" y="531.745007"/>
      </g>
     </g>
     <g id="text_96">
      <!-- 0 -->
      <g transform="translate(918.255367 535.544225)scale(0.1 -0.1)">
       <use xlink:href="#DejaVuSans-48"/>
      </g>
     </g>
    </g>
    <g id="ytick_40">
     <g id="line2d_112">
      <g>
       <use style="stroke:#000000;stroke-width:0.8;" x="931.617867" xlink:href="#m6b9e6b798b" y="490.89055"/>
      </g>
     </g>
     <g id="text_97">
      <!-- 20 -->
      <g transform="translate(911.892867 494.689769)scale(0.1 -0.1)">
       <use xlink:href="#DejaVuSans-50"/>
       <use x="63.623047" xlink:href="#DejaVuSans-48"/>
      </g>
     </g>
    </g>
    <g id="ytick_41">
     <g id="line2d_113">
      <g>
       <use style="stroke:#000000;stroke-width:0.8;" x="931.617867" xlink:href="#m6b9e6b798b" y="450.036093"/>
      </g>
     </g>
     <g id="text_98">
      <!-- 40 -->
      <g transform="translate(911.892867 453.835312)scale(0.1 -0.1)">
       <use xlink:href="#DejaVuSans-52"/>
       <use x="63.623047" xlink:href="#DejaVuSans-48"/>
      </g>
     </g>
    </g>
    <g id="ytick_42">
     <g id="line2d_114">
      <g>
       <use style="stroke:#000000;stroke-width:0.8;" x="931.617867" xlink:href="#m6b9e6b798b" y="409.181636"/>
      </g>
     </g>
     <g id="text_99">
      <!-- 60 -->
      <g transform="translate(911.892867 412.980855)scale(0.1 -0.1)">
       <use xlink:href="#DejaVuSans-54"/>
       <use x="63.623047" xlink:href="#DejaVuSans-48"/>
      </g>
     </g>
    </g>
   </g>
   <g id="line2d_115">
    <path clip-path="url(#p31c7d29f18)" d="M 949.2476 530.195973 
L 960.621622 484.095433 
L 971.995643 534.575915 
L 983.369665 586.738986 
L 994.743686 633.592706 
L 1006.117708 533.64709 
L 1017.491729 638.950163 
L 1028.865751 616.387272 
L 1040.239772 530.412324 
L 1051.613794 472.501143 
L 1062.987815 530.704412 
L 1074.361837 494.359502 
L 1085.735858 472.103631 
L 1097.10988 529.839626 
L 1108.483901 531.553179 
L 1119.857923 531.998999 
L 1131.231944 530.578587 
L 1142.605966 669.156924 
L 1153.979987 483.696078 
L 1165.354009 530.968387 
L 1176.72803 529.563889 
L 1188.102052 568.820632 
L 1199.476073 630.349686 
L 1210.850095 534.344535 
L 1222.224116 530.141426 
L 1233.598138 627.377318 
L 1244.972159 670.235481 
L 1256.346181 660.229409 
L 1267.720202 391.417513 
L 1279.094224 454.627723 
L 1290.468245 527.882994 
L 1301.842267 397.629839 
" style="fill:none;stroke:#1f77b4;stroke-linecap:square;stroke-opacity:0.5;stroke-width:1.5;"/>
   </g>
   <g id="line2d_116">
    <path clip-path="url(#p31c7d29f18)" d="M 949.2476 529.028949 
L 960.621622 479.514942 
L 971.995643 532.324512 
L 983.369665 587.842892 
L 994.743686 626.104551 
L 1006.117708 531.735673 
L 1017.491729 638.593825 
L 1028.865751 616.286454 
L 1040.239772 528.264892 
L 1051.613794 468.950192 
L 1062.987815 529.700641 
L 1074.361837 487.70681 
L 1085.735858 469.374556 
L 1097.10988 529.157823 
L 1108.483901 532.270524 
L 1119.857923 530.18351 
L 1131.231944 527.559007 
L 1142.605966 667.496011 
L 1153.979987 482.657713 
L 1165.354009 528.511547 
L 1176.72803 529.169112 
L 1188.102052 562.913332 
L 1199.476073 631.982476 
L 1210.850095 533.286468 
L 1222.224116 529.140361 
L 1233.598138 621.712413 
L 1244.972159 667.349826 
L 1256.346181 663.208868 
L 1267.720202 390.447768 
L 1279.094224 445.267903 
L 1290.468245 526.403794 
L 1301.842267 393.302798 
" style="fill:none;stroke:#ff7f0e;stroke-dasharray:5.55,2.4;stroke-dashoffset:0;stroke-opacity:0.5;stroke-width:1.5;"/>
   </g>
   <g id="patch_33">
    <path d="M 931.617867 684.224867 
L 931.617867 376.458382 
" style="fill:none;stroke:#000000;stroke-linecap:square;stroke-linejoin:miter;stroke-width:0.8;"/>
   </g>
   <g id="patch_34">
    <path d="M 1319.472 684.224867 
L 1319.472 376.458382 
" style="fill:none;stroke:#000000;stroke-linecap:square;stroke-linejoin:miter;stroke-width:0.8;"/>
   </g>
   <g id="patch_35">
    <path d="M 931.617867 684.224867 
L 1319.472 684.224867 
" style="fill:none;stroke:#000000;stroke-linecap:square;stroke-linejoin:miter;stroke-width:0.8;"/>
   </g>
   <g id="patch_36">
    <path d="M 931.617867 376.458382 
L 1319.472 376.458382 
" style="fill:none;stroke:#000000;stroke-linecap:square;stroke-linejoin:miter;stroke-width:0.8;"/>
   </g>
   <g id="text_100">
    <!-- rpy_z -->
    <g transform="translate(1109.568996 370.458382)scale(0.12 -0.12)">
     <use xlink:href="#DejaVuSans-114"/>
     <use x="41.113281" xlink:href="#DejaVuSans-112"/>
     <use x="104.589844" xlink:href="#DejaVuSans-121"/>
     <use x="163.769531" xlink:href="#DejaVuSans-95"/>
     <use x="213.769531" xlink:href="#DejaVuSans-122"/>
    </g>
   </g>
   <g id="legend_6">
    <g id="patch_37">
     <path d="M 938.617867 413.814632 
L 1017.953804 413.814632 
Q 1019.953804 413.814632 1019.953804 411.814632 
L 1019.953804 383.458382 
Q 1019.953804 381.458382 1017.953804 381.458382 
L 938.617867 381.458382 
Q 936.617867 381.458382 936.617867 383.458382 
L 936.617867 411.814632 
Q 936.617867 413.814632 938.617867 413.814632 
z
" style="fill:#ffffff;opacity:0.8;stroke:#cccccc;stroke-linejoin:miter;"/>
    </g>
    <g id="line2d_117">
     <path d="M 940.617867 389.55682 
L 960.617867 389.55682 
" style="fill:none;stroke:#1f77b4;stroke-linecap:square;stroke-opacity:0.5;stroke-width:1.5;"/>
    </g>
    <g id="line2d_118"/>
    <g id="text_101">
     <!-- True -->
     <g transform="translate(968.617867 393.05682)scale(0.1 -0.1)">
      <use xlink:href="#DejaVuSans-84"/>
      <use x="60.865234" xlink:href="#DejaVuSans-114"/>
      <use x="101.978516" xlink:href="#DejaVuSans-117"/>
      <use x="165.357422" xlink:href="#DejaVuSans-101"/>
     </g>
    </g>
    <g id="line2d_119">
     <path d="M 940.617867 404.234945 
L 960.617867 404.234945 
" style="fill:none;stroke:#ff7f0e;stroke-dasharray:5.55,2.4;stroke-dashoffset:0;stroke-opacity:0.5;stroke-width:1.5;"/>
    </g>
    <g id="line2d_120"/>
    <g id="text_102">
     <!-- Predicted -->
     <g transform="translate(968.617867 407.734945)scale(0.1 -0.1)">
      <use xlink:href="#DejaVuSans-80"/>
      <use x="60.287109" xlink:href="#DejaVuSans-114"/>
      <use x="101.369141" xlink:href="#DejaVuSans-101"/>
      <use x="162.892578" xlink:href="#DejaVuSans-100"/>
      <use x="226.369141" xlink:href="#DejaVuSans-105"/>
      <use x="254.152344" xlink:href="#DejaVuSans-99"/>
      <use x="309.132812" xlink:href="#DejaVuSans-116"/>
      <use x="348.341797" xlink:href="#DejaVuSans-101"/>
      <use x="409.865234" xlink:href="#DejaVuSans-100"/>
     </g>
    </g>
   </g>
  </g>
  <g id="text_103">
   <!-- Sample 2 -->
   <defs>
    <path d="M 53.515625 70.515625 
L 53.515625 60.890625 
Q 47.90625 63.578125 42.921875 64.890625 
Q 37.9375 66.21875 33.296875 66.21875 
Q 25.25 66.21875 20.875 63.09375 
Q 16.5 59.96875 16.5 54.203125 
Q 16.5 49.359375 19.40625 46.890625 
Q 22.3125 44.4375 30.421875 42.921875 
L 36.375 41.703125 
Q 47.40625 39.59375 52.65625 34.296875 
Q 57.90625 29 57.90625 20.125 
Q 57.90625 9.515625 50.796875 4.046875 
Q 43.703125 -1.421875 29.984375 -1.421875 
Q 24.8125 -1.421875 18.96875 -0.25 
Q 13.140625 0.921875 6.890625 3.21875 
L 6.890625 13.375 
Q 12.890625 10.015625 18.65625 8.296875 
Q 24.421875 6.59375 29.984375 6.59375 
Q 38.421875 6.59375 43.015625 9.90625 
Q 47.609375 13.234375 47.609375 19.390625 
Q 47.609375 24.75 44.3125 27.78125 
Q 41.015625 30.8125 33.5 32.328125 
L 27.484375 33.5 
Q 16.453125 35.6875 11.515625 40.375 
Q 6.59375 45.0625 6.59375 53.421875 
Q 6.59375 63.09375 13.40625 68.65625 
Q 20.21875 74.21875 32.171875 74.21875 
Q 37.3125 74.21875 42.625 73.28125 
Q 47.953125 72.359375 53.515625 70.515625 
z
" id="DejaVuSans-83"/>
    <path d="M 52 44.1875 
Q 55.375 50.25 60.0625 53.125 
Q 64.75 56 71.09375 56 
Q 79.640625 56 84.28125 50.015625 
Q 88.921875 44.046875 88.921875 33.015625 
L 88.921875 0 
L 79.890625 0 
L 79.890625 32.71875 
Q 79.890625 40.578125 77.09375 44.375 
Q 74.3125 48.1875 68.609375 48.1875 
Q 61.625 48.1875 57.5625 43.546875 
Q 53.515625 38.921875 53.515625 30.90625 
L 53.515625 0 
L 44.484375 0 
L 44.484375 32.71875 
Q 44.484375 40.625 41.703125 44.40625 
Q 38.921875 48.1875 33.109375 48.1875 
Q 26.21875 48.1875 22.15625 43.53125 
Q 18.109375 38.875 18.109375 30.90625 
L 18.109375 0 
L 9.078125 0 
L 9.078125 54.6875 
L 18.109375 54.6875 
L 18.109375 46.1875 
Q 21.1875 51.21875 25.484375 53.609375 
Q 29.78125 56 35.6875 56 
Q 41.65625 56 45.828125 52.96875 
Q 50 49.953125 52 44.1875 
z
" id="DejaVuSans-109"/>
    <path id="DejaVuSans-32"/>
   </defs>
   <g transform="translate(637.0575 23.258925)scale(0.12 -0.12)">
    <use xlink:href="#DejaVuSans-83"/>
    <use x="63.476562" xlink:href="#DejaVuSans-97"/>
    <use x="124.755859" xlink:href="#DejaVuSans-109"/>
    <use x="222.167969" xlink:href="#DejaVuSans-112"/>
    <use x="285.644531" xlink:href="#DejaVuSans-108"/>
    <use x="313.427734" xlink:href="#DejaVuSans-101"/>
    <use x="374.951172" xlink:href="#DejaVuSans-32"/>
    <use x="406.738281" xlink:href="#DejaVuSans-50"/>
   </g>
  </g>
 </g>
 <defs>
  <clipPath id="pa47a01c379">
   <rect height="307.766485" width="387.854133" x="56.343467" y="35.352"/>
  </clipPath>
  <clipPath id="p237d560ece">
   <rect height="307.766485" width="387.854133" x="493.980667" y="35.352"/>
  </clipPath>
  <clipPath id="pfb35075afd">
   <rect height="307.766485" width="387.854133" x="931.617867" y="35.352"/>
  </clipPath>
  <clipPath id="p859fd044ad">
   <rect height="307.766485" width="387.854133" x="56.343467" y="376.458382"/>
  </clipPath>
  <clipPath id="pd1e519108d">
   <rect height="307.766485" width="387.854133" x="493.980667" y="376.458382"/>
  </clipPath>
  <clipPath id="p31c7d29f18">
   <rect height="307.766485" width="387.854133" x="931.617867" y="376.458382"/>
  </clipPath>
 </defs>
</svg>
