<?xml version="1.0" encoding="utf-8" standalone="no"?>
<!DOCTYPE svg PUBLIC "-//W3C//DTD SVG 1.1//EN"
  "http://www.w3.org/Graphics/SVG/1.1/DTD/svg11.dtd">
<!-- Created with matplotlib (https://matplotlib.org/) -->
<svg height="707.04pt" version="1.1" viewBox="0 0 1330.56 707.04" width="1330.56pt" xmlns="http://www.w3.org/2000/svg" xmlns:xlink="http://www.w3.org/1999/xlink">
 <defs>
  <style type="text/css">
*{stroke-linecap:butt;stroke-linejoin:round;}
  </style>
 </defs>
 <g id="figure_1">
  <g id="patch_1">
   <path d="M 0 707.04 
L 1330.56 707.04 
L 1330.56 0 
L 0 0 
z
" style="fill:#ffffff;"/>
  </g>
  <g id="axes_1">
   <g id="patch_2">
    <path d="M 49.783067 343.118485 
L 439.824 343.118485 
L 439.824 35.352 
L 49.783067 35.352 
z
" style="fill:#ffffff;"/>
   </g>
   <g id="matplotlib.axis_1">
    <g id="xtick_1">
     <g id="line2d_1">
      <defs>
       <path d="M 0 0 
L 0 3.5 
" id="me32c0f53c0" style="stroke:#000000;stroke-width:0.8;"/>
      </defs>
      <g>
       <use style="stroke:#000000;stroke-width:0.8;" x="67.5122" xlink:href="#me32c0f53c0" y="343.118485"/>
      </g>
     </g>
     <g id="text_1">
      <!-- 0 -->
      <defs>
       <path d="M 31.78125 66.40625 
Q 24.171875 66.40625 20.328125 58.90625 
Q 16.5 51.421875 16.5 36.375 
Q 16.5 21.390625 20.328125 13.890625 
Q 24.171875 6.390625 31.78125 6.390625 
Q 39.453125 6.390625 43.28125 13.890625 
Q 47.125 21.390625 47.125 36.375 
Q 47.125 51.421875 43.28125 58.90625 
Q 39.453125 66.40625 31.78125 66.40625 
z
M 31.78125 74.21875 
Q 44.046875 74.21875 50.515625 64.515625 
Q 56.984375 54.828125 56.984375 36.375 
Q 56.984375 17.96875 50.515625 8.265625 
Q 44.046875 -1.421875 31.78125 -1.421875 
Q 19.53125 -1.421875 13.0625 8.265625 
Q 6.59375 17.96875 6.59375 36.375 
Q 6.59375 54.828125 13.0625 64.515625 
Q 19.53125 74.21875 31.78125 74.21875 
z
" id="DejaVuSans-48"/>
      </defs>
      <g transform="translate(64.33095 357.716922)scale(0.1 -0.1)">
       <use xlink:href="#DejaVuSans-48"/>
      </g>
     </g>
    </g>
    <g id="xtick_2">
     <g id="line2d_2">
      <g>
       <use style="stroke:#000000;stroke-width:0.8;" x="124.702953" xlink:href="#me32c0f53c0" y="343.118485"/>
      </g>
     </g>
     <g id="text_2">
      <!-- 5 -->
      <defs>
       <path d="M 10.796875 72.90625 
L 49.515625 72.90625 
L 49.515625 64.59375 
L 19.828125 64.59375 
L 19.828125 46.734375 
Q 21.96875 47.46875 24.109375 47.828125 
Q 26.265625 48.1875 28.421875 48.1875 
Q 40.625 48.1875 47.75 41.5 
Q 54.890625 34.8125 54.890625 23.390625 
Q 54.890625 11.625 47.5625 5.09375 
Q 40.234375 -1.421875 26.90625 -1.421875 
Q 22.3125 -1.421875 17.546875 -0.640625 
Q 12.796875 0.140625 7.71875 1.703125 
L 7.71875 11.625 
Q 12.109375 9.234375 16.796875 8.0625 
Q 21.484375 6.890625 26.703125 6.890625 
Q 35.15625 6.890625 40.078125 11.328125 
Q 45.015625 15.765625 45.015625 23.390625 
Q 45.015625 31 40.078125 35.4375 
Q 35.15625 39.890625 26.703125 39.890625 
Q 22.75 39.890625 18.8125 39.015625 
Q 14.890625 38.140625 10.796875 36.28125 
z
" id="DejaVuSans-53"/>
      </defs>
      <g transform="translate(121.521703 357.716922)scale(0.1 -0.1)">
       <use xlink:href="#DejaVuSans-53"/>
      </g>
     </g>
    </g>
    <g id="xtick_3">
     <g id="line2d_3">
      <g>
       <use style="stroke:#000000;stroke-width:0.8;" x="181.893705" xlink:href="#me32c0f53c0" y="343.118485"/>
      </g>
     </g>
     <g id="text_3">
      <!-- 10 -->
      <defs>
       <path d="M 12.40625 8.296875 
L 28.515625 8.296875 
L 28.515625 63.921875 
L 10.984375 60.40625 
L 10.984375 69.390625 
L 28.421875 72.90625 
L 38.28125 72.90625 
L 38.28125 8.296875 
L 54.390625 8.296875 
L 54.390625 0 
L 12.40625 0 
z
" id="DejaVuSans-49"/>
      </defs>
      <g transform="translate(175.531205 357.716922)scale(0.1 -0.1)">
       <use xlink:href="#DejaVuSans-49"/>
       <use x="63.623047" xlink:href="#DejaVuSans-48"/>
      </g>
     </g>
    </g>
    <g id="xtick_4">
     <g id="line2d_4">
      <g>
       <use style="stroke:#000000;stroke-width:0.8;" x="239.084458" xlink:href="#me32c0f53c0" y="343.118485"/>
      </g>
     </g>
     <g id="text_4">
      <!-- 15 -->
      <g transform="translate(232.721958 357.716922)scale(0.1 -0.1)">
       <use xlink:href="#DejaVuSans-49"/>
       <use x="63.623047" xlink:href="#DejaVuSans-53"/>
      </g>
     </g>
    </g>
    <g id="xtick_5">
     <g id="line2d_5">
      <g>
       <use style="stroke:#000000;stroke-width:0.8;" x="296.275211" xlink:href="#me32c0f53c0" y="343.118485"/>
      </g>
     </g>
     <g id="text_5">
      <!-- 20 -->
      <defs>
       <path d="M 19.1875 8.296875 
L 53.609375 8.296875 
L 53.609375 0 
L 7.328125 0 
L 7.328125 8.296875 
Q 12.9375 14.109375 22.625 23.890625 
Q 32.328125 33.6875 34.8125 36.53125 
Q 39.546875 41.84375 41.421875 45.53125 
Q 43.3125 49.21875 43.3125 52.78125 
Q 43.3125 58.59375 39.234375 62.25 
Q 35.15625 65.921875 28.609375 65.921875 
Q 23.96875 65.921875 18.8125 64.3125 
Q 13.671875 62.703125 7.8125 59.421875 
L 7.8125 69.390625 
Q 13.765625 71.78125 18.9375 73 
Q 24.125 74.21875 28.421875 74.21875 
Q 39.75 74.21875 46.484375 68.546875 
Q 53.21875 62.890625 53.21875 53.421875 
Q 53.21875 48.921875 51.53125 44.890625 
Q 49.859375 40.875 45.40625 35.40625 
Q 44.1875 33.984375 37.640625 27.21875 
Q 31.109375 20.453125 19.1875 8.296875 
z
" id="DejaVuSans-50"/>
      </defs>
      <g transform="translate(289.912711 357.716922)scale(0.1 -0.1)">
       <use xlink:href="#DejaVuSans-50"/>
       <use x="63.623047" xlink:href="#DejaVuSans-48"/>
      </g>
     </g>
    </g>
    <g id="xtick_6">
     <g id="line2d_6">
      <g>
       <use style="stroke:#000000;stroke-width:0.8;" x="353.465963" xlink:href="#me32c0f53c0" y="343.118485"/>
      </g>
     </g>
     <g id="text_6">
      <!-- 25 -->
      <g transform="translate(347.103463 357.716922)scale(0.1 -0.1)">
       <use xlink:href="#DejaVuSans-50"/>
       <use x="63.623047" xlink:href="#DejaVuSans-53"/>
      </g>
     </g>
    </g>
    <g id="xtick_7">
     <g id="line2d_7">
      <g>
       <use style="stroke:#000000;stroke-width:0.8;" x="410.656716" xlink:href="#me32c0f53c0" y="343.118485"/>
      </g>
     </g>
     <g id="text_7">
      <!-- 30 -->
      <defs>
       <path d="M 40.578125 39.3125 
Q 47.65625 37.796875 51.625 33 
Q 55.609375 28.21875 55.609375 21.1875 
Q 55.609375 10.40625 48.1875 4.484375 
Q 40.765625 -1.421875 27.09375 -1.421875 
Q 22.515625 -1.421875 17.65625 -0.515625 
Q 12.796875 0.390625 7.625 2.203125 
L 7.625 11.71875 
Q 11.71875 9.328125 16.59375 8.109375 
Q 21.484375 6.890625 26.8125 6.890625 
Q 36.078125 6.890625 40.9375 10.546875 
Q 45.796875 14.203125 45.796875 21.1875 
Q 45.796875 27.640625 41.28125 31.265625 
Q 36.765625 34.90625 28.71875 34.90625 
L 20.21875 34.90625 
L 20.21875 43.015625 
L 29.109375 43.015625 
Q 36.375 43.015625 40.234375 45.921875 
Q 44.09375 48.828125 44.09375 54.296875 
Q 44.09375 59.90625 40.109375 62.90625 
Q 36.140625 65.921875 28.71875 65.921875 
Q 24.65625 65.921875 20.015625 65.03125 
Q 15.375 64.15625 9.8125 62.3125 
L 9.8125 71.09375 
Q 15.4375 72.65625 20.34375 73.4375 
Q 25.25 74.21875 29.59375 74.21875 
Q 40.828125 74.21875 47.359375 69.109375 
Q 53.90625 64.015625 53.90625 55.328125 
Q 53.90625 49.265625 50.4375 45.09375 
Q 46.96875 40.921875 40.578125 39.3125 
z
" id="DejaVuSans-51"/>
      </defs>
      <g transform="translate(404.294216 357.716922)scale(0.1 -0.1)">
       <use xlink:href="#DejaVuSans-51"/>
       <use x="63.623047" xlink:href="#DejaVuSans-48"/>
      </g>
     </g>
    </g>
   </g>
   <g id="matplotlib.axis_2">
    <g id="ytick_1">
     <g id="line2d_8">
      <defs>
       <path d="M 0 0 
L -3.5 0 
" id="m9604d557ac" style="stroke:#000000;stroke-width:0.8;"/>
      </defs>
      <g>
       <use style="stroke:#000000;stroke-width:0.8;" x="49.783067" xlink:href="#m9604d557ac" y="340.544205"/>
      </g>
     </g>
     <g id="text_8">
      <!-- −0.03 -->
      <defs>
       <path d="M 10.59375 35.5 
L 73.1875 35.5 
L 73.1875 27.203125 
L 10.59375 27.203125 
z
" id="DejaVuSans-8722"/>
       <path d="M 10.6875 12.40625 
L 21 12.40625 
L 21 0 
L 10.6875 0 
z
" id="DejaVuSans-46"/>
      </defs>
      <g transform="translate(12.137754 344.343423)scale(0.1 -0.1)">
       <use xlink:href="#DejaVuSans-8722"/>
       <use x="83.789062" xlink:href="#DejaVuSans-48"/>
       <use x="147.412109" xlink:href="#DejaVuSans-46"/>
       <use x="179.199219" xlink:href="#DejaVuSans-48"/>
       <use x="242.822266" xlink:href="#DejaVuSans-51"/>
      </g>
     </g>
    </g>
    <g id="ytick_2">
     <g id="line2d_9">
      <g>
       <use style="stroke:#000000;stroke-width:0.8;" x="49.783067" xlink:href="#m9604d557ac" y="276.992775"/>
      </g>
     </g>
     <g id="text_9">
      <!-- −0.02 -->
      <g transform="translate(12.137754 280.791994)scale(0.1 -0.1)">
       <use xlink:href="#DejaVuSans-8722"/>
       <use x="83.789062" xlink:href="#DejaVuSans-48"/>
       <use x="147.412109" xlink:href="#DejaVuSans-46"/>
       <use x="179.199219" xlink:href="#DejaVuSans-48"/>
       <use x="242.822266" xlink:href="#DejaVuSans-50"/>
      </g>
     </g>
    </g>
    <g id="ytick_3">
     <g id="line2d_10">
      <g>
       <use style="stroke:#000000;stroke-width:0.8;" x="49.783067" xlink:href="#m9604d557ac" y="213.441346"/>
      </g>
     </g>
     <g id="text_10">
      <!-- −0.01 -->
      <g transform="translate(12.137754 217.240565)scale(0.1 -0.1)">
       <use xlink:href="#DejaVuSans-8722"/>
       <use x="83.789062" xlink:href="#DejaVuSans-48"/>
       <use x="147.412109" xlink:href="#DejaVuSans-46"/>
       <use x="179.199219" xlink:href="#DejaVuSans-48"/>
       <use x="242.822266" xlink:href="#DejaVuSans-49"/>
      </g>
     </g>
    </g>
    <g id="ytick_4">
     <g id="line2d_11">
      <g>
       <use style="stroke:#000000;stroke-width:0.8;" x="49.783067" xlink:href="#m9604d557ac" y="149.889917"/>
      </g>
     </g>
     <g id="text_11">
      <!-- 0.00 -->
      <g transform="translate(20.517442 153.689136)scale(0.1 -0.1)">
       <use xlink:href="#DejaVuSans-48"/>
       <use x="63.623047" xlink:href="#DejaVuSans-46"/>
       <use x="95.410156" xlink:href="#DejaVuSans-48"/>
       <use x="159.033203" xlink:href="#DejaVuSans-48"/>
      </g>
     </g>
    </g>
    <g id="ytick_5">
     <g id="line2d_12">
      <g>
       <use style="stroke:#000000;stroke-width:0.8;" x="49.783067" xlink:href="#m9604d557ac" y="86.338488"/>
      </g>
     </g>
     <g id="text_12">
      <!-- 0.01 -->
      <g transform="translate(20.517442 90.137707)scale(0.1 -0.1)">
       <use xlink:href="#DejaVuSans-48"/>
       <use x="63.623047" xlink:href="#DejaVuSans-46"/>
       <use x="95.410156" xlink:href="#DejaVuSans-48"/>
       <use x="159.033203" xlink:href="#DejaVuSans-49"/>
      </g>
     </g>
    </g>
   </g>
   <g id="line2d_13">
    <path clip-path="url(#p3f7ce422c3)" d="M 67.5122 236.171155 
L 78.950351 56.492197 
L 90.388501 106.461031 
L 101.826652 131.586343 
L 113.264802 259.71759 
L 124.702953 60.806068 
L 136.141103 109.841588 
L 147.579254 78.991308 
L 159.017404 49.888568 
L 170.455555 166.369757 
L 181.893705 256.144099 
L 193.331856 80.266785 
L 204.770006 329.129099 
L 216.208157 153.988006 
L 227.646308 60.342143 
L 239.084458 213.466766 
L 250.522609 236.808574 
L 261.960759 222.912418 
L 273.39891 106.785272 
L 284.83706 105.463274 
L 296.275211 58.030777 
L 307.713361 250.589067 
L 319.151512 139.973226 
L 330.589662 111.587787 
L 342.027813 131.319936 
L 353.465963 95.920774 
L 364.904114 140.006717 
L 376.342265 49.341386 
L 387.780415 87.864996 
L 399.218566 221.460895 
L 410.656716 319.87729 
L 422.094867 126.332293 
" style="fill:none;stroke:#1f77b4;stroke-linecap:square;stroke-opacity:0.5;stroke-width:1.5;"/>
   </g>
   <g id="line2d_14">
    <path clip-path="url(#p3f7ce422c3)" d="M 67.5122 241.257439 
L 78.950351 55.680289 
L 90.388501 111.858245 
L 101.826652 119.160669 
L 113.264802 219.148605 
L 124.702953 64.782402 
L 136.141103 116.252841 
L 147.579254 62.200156 
L 159.017404 53.731401 
L 170.455555 170.53519 
L 181.893705 249.432887 
L 193.331856 84.938181 
L 204.770006 208.282297 
L 216.208157 164.043126 
L 227.646308 87.904799 
L 239.084458 181.181163 
L 250.522609 228.461152 
L 261.960759 191.688681 
L 273.39891 120.759433 
L 284.83706 111.0653 
L 296.275211 84.048632 
L 307.713361 268.453739 
L 319.151512 114.940117 
L 330.589662 116.291152 
L 342.027813 114.365836 
L 353.465963 94.76215 
L 364.904114 120.438966 
L 376.342265 57.326761 
L 387.780415 119.911797 
L 399.218566 219.680127 
L 410.656716 208.19138 
L 422.094867 115.03431 
" style="fill:none;stroke:#ff7f0e;stroke-dasharray:5.55,2.4;stroke-dashoffset:0;stroke-opacity:0.5;stroke-width:1.5;"/>
   </g>
   <g id="patch_3">
    <path d="M 49.783067 343.118485 
L 49.783067 35.352 
" style="fill:none;stroke:#000000;stroke-linecap:square;stroke-linejoin:miter;stroke-width:0.8;"/>
   </g>
   <g id="patch_4">
    <path d="M 439.824 343.118485 
L 439.824 35.352 
" style="fill:none;stroke:#000000;stroke-linecap:square;stroke-linejoin:miter;stroke-width:0.8;"/>
   </g>
   <g id="patch_5">
    <path d="M 49.783067 343.118485 
L 439.824 343.118485 
" style="fill:none;stroke:#000000;stroke-linecap:square;stroke-linejoin:miter;stroke-width:0.8;"/>
   </g>
   <g id="patch_6">
    <path d="M 49.783067 35.352 
L 439.824 35.352 
" style="fill:none;stroke:#000000;stroke-linecap:square;stroke-linejoin:miter;stroke-width:0.8;"/>
   </g>
   <g id="text_13">
    <!-- translation_x -->
    <defs>
     <path d="M 18.3125 70.21875 
L 18.3125 54.6875 
L 36.8125 54.6875 
L 36.8125 47.703125 
L 18.3125 47.703125 
L 18.3125 18.015625 
Q 18.3125 11.328125 20.140625 9.421875 
Q 21.96875 7.515625 27.59375 7.515625 
L 36.8125 7.515625 
L 36.8125 0 
L 27.59375 0 
Q 17.1875 0 13.234375 3.875 
Q 9.28125 7.765625 9.28125 18.015625 
L 9.28125 47.703125 
L 2.6875 47.703125 
L 2.6875 54.6875 
L 9.28125 54.6875 
L 9.28125 70.21875 
z
" id="DejaVuSans-116"/>
     <path d="M 41.109375 46.296875 
Q 39.59375 47.171875 37.8125 47.578125 
Q 36.03125 48 33.890625 48 
Q 26.265625 48 22.1875 43.046875 
Q 18.109375 38.09375 18.109375 28.8125 
L 18.109375 0 
L 9.078125 0 
L 9.078125 54.6875 
L 18.109375 54.6875 
L 18.109375 46.1875 
Q 20.953125 51.171875 25.484375 53.578125 
Q 30.03125 56 36.53125 56 
Q 37.453125 56 38.578125 55.875 
Q 39.703125 55.765625 41.0625 55.515625 
z
" id="DejaVuSans-114"/>
     <path d="M 34.28125 27.484375 
Q 23.390625 27.484375 19.1875 25 
Q 14.984375 22.515625 14.984375 16.5 
Q 14.984375 11.71875 18.140625 8.90625 
Q 21.296875 6.109375 26.703125 6.109375 
Q 34.1875 6.109375 38.703125 11.40625 
Q 43.21875 16.703125 43.21875 25.484375 
L 43.21875 27.484375 
z
M 52.203125 31.203125 
L 52.203125 0 
L 43.21875 0 
L 43.21875 8.296875 
Q 40.140625 3.328125 35.546875 0.953125 
Q 30.953125 -1.421875 24.3125 -1.421875 
Q 15.921875 -1.421875 10.953125 3.296875 
Q 6 8.015625 6 15.921875 
Q 6 25.140625 12.171875 29.828125 
Q 18.359375 34.515625 30.609375 34.515625 
L 43.21875 34.515625 
L 43.21875 35.40625 
Q 43.21875 41.609375 39.140625 45 
Q 35.0625 48.390625 27.6875 48.390625 
Q 23 48.390625 18.546875 47.265625 
Q 14.109375 46.140625 10.015625 43.890625 
L 10.015625 52.203125 
Q 14.9375 54.109375 19.578125 55.046875 
Q 24.21875 56 28.609375 56 
Q 40.484375 56 46.34375 49.84375 
Q 52.203125 43.703125 52.203125 31.203125 
z
" id="DejaVuSans-97"/>
     <path d="M 54.890625 33.015625 
L 54.890625 0 
L 45.90625 0 
L 45.90625 32.71875 
Q 45.90625 40.484375 42.875 44.328125 
Q 39.84375 48.1875 33.796875 48.1875 
Q 26.515625 48.1875 22.3125 43.546875 
Q 18.109375 38.921875 18.109375 30.90625 
L 18.109375 0 
L 9.078125 0 
L 9.078125 54.6875 
L 18.109375 54.6875 
L 18.109375 46.1875 
Q 21.34375 51.125 25.703125 53.5625 
Q 30.078125 56 35.796875 56 
Q 45.21875 56 50.046875 50.171875 
Q 54.890625 44.34375 54.890625 33.015625 
z
" id="DejaVuSans-110"/>
     <path d="M 44.28125 53.078125 
L 44.28125 44.578125 
Q 40.484375 46.53125 36.375 47.5 
Q 32.28125 48.484375 27.875 48.484375 
Q 21.1875 48.484375 17.84375 46.4375 
Q 14.5 44.390625 14.5 40.28125 
Q 14.5 37.15625 16.890625 35.375 
Q 19.28125 33.59375 26.515625 31.984375 
L 29.59375 31.296875 
Q 39.15625 29.25 43.1875 25.515625 
Q 47.21875 21.78125 47.21875 15.09375 
Q 47.21875 7.46875 41.1875 3.015625 
Q 35.15625 -1.421875 24.609375 -1.421875 
Q 20.21875 -1.421875 15.453125 -0.5625 
Q 10.6875 0.296875 5.421875 2 
L 5.421875 11.28125 
Q 10.40625 8.6875 15.234375 7.390625 
Q 20.0625 6.109375 24.8125 6.109375 
Q 31.15625 6.109375 34.5625 8.28125 
Q 37.984375 10.453125 37.984375 14.40625 
Q 37.984375 18.0625 35.515625 20.015625 
Q 33.0625 21.96875 24.703125 23.78125 
L 21.578125 24.515625 
Q 13.234375 26.265625 9.515625 29.90625 
Q 5.8125 33.546875 5.8125 39.890625 
Q 5.8125 47.609375 11.28125 51.796875 
Q 16.75 56 26.8125 56 
Q 31.78125 56 36.171875 55.265625 
Q 40.578125 54.546875 44.28125 53.078125 
z
" id="DejaVuSans-115"/>
     <path d="M 9.421875 75.984375 
L 18.40625 75.984375 
L 18.40625 0 
L 9.421875 0 
z
" id="DejaVuSans-108"/>
     <path d="M 9.421875 54.6875 
L 18.40625 54.6875 
L 18.40625 0 
L 9.421875 0 
z
M 9.421875 75.984375 
L 18.40625 75.984375 
L 18.40625 64.59375 
L 9.421875 64.59375 
z
" id="DejaVuSans-105"/>
     <path d="M 30.609375 48.390625 
Q 23.390625 48.390625 19.1875 42.75 
Q 14.984375 37.109375 14.984375 27.296875 
Q 14.984375 17.484375 19.15625 11.84375 
Q 23.34375 6.203125 30.609375 6.203125 
Q 37.796875 6.203125 41.984375 11.859375 
Q 46.1875 17.53125 46.1875 27.296875 
Q 46.1875 37.015625 41.984375 42.703125 
Q 37.796875 48.390625 30.609375 48.390625 
z
M 30.609375 56 
Q 42.328125 56 49.015625 48.375 
Q 55.71875 40.765625 55.71875 27.296875 
Q 55.71875 13.875 49.015625 6.21875 
Q 42.328125 -1.421875 30.609375 -1.421875 
Q 18.84375 -1.421875 12.171875 6.21875 
Q 5.515625 13.875 5.515625 27.296875 
Q 5.515625 40.765625 12.171875 48.375 
Q 18.84375 56 30.609375 56 
z
" id="DejaVuSans-111"/>
     <path d="M 50.984375 -16.609375 
L 50.984375 -23.578125 
L -0.984375 -23.578125 
L -0.984375 -16.609375 
z
" id="DejaVuSans-95"/>
     <path d="M 54.890625 54.6875 
L 35.109375 28.078125 
L 55.90625 0 
L 45.3125 0 
L 29.390625 21.484375 
L 13.484375 0 
L 2.875 0 
L 24.125 28.609375 
L 4.6875 54.6875 
L 15.28125 54.6875 
L 29.78125 35.203125 
L 44.28125 54.6875 
z
" id="DejaVuSans-120"/>
    </defs>
    <g transform="translate(205.991971 29.352)scale(0.12 -0.12)">
     <use xlink:href="#DejaVuSans-116"/>
     <use x="39.208984" xlink:href="#DejaVuSans-114"/>
     <use x="80.322266" xlink:href="#DejaVuSans-97"/>
     <use x="141.601562" xlink:href="#DejaVuSans-110"/>
     <use x="204.980469" xlink:href="#DejaVuSans-115"/>
     <use x="257.080078" xlink:href="#DejaVuSans-108"/>
     <use x="284.863281" xlink:href="#DejaVuSans-97"/>
     <use x="346.142578" xlink:href="#DejaVuSans-116"/>
     <use x="385.351562" xlink:href="#DejaVuSans-105"/>
     <use x="413.134766" xlink:href="#DejaVuSans-111"/>
     <use x="474.316406" xlink:href="#DejaVuSans-110"/>
     <use x="537.695312" xlink:href="#DejaVuSans-95"/>
     <use x="587.695312" xlink:href="#DejaVuSans-120"/>
    </g>
   </g>
   <g id="legend_1">
    <g id="patch_7">
     <path d="M 56.783067 338.118485 
L 136.119004 338.118485 
Q 138.119004 338.118485 138.119004 336.118485 
L 138.119004 307.762235 
Q 138.119004 305.762235 136.119004 305.762235 
L 56.783067 305.762235 
Q 54.783067 305.762235 54.783067 307.762235 
L 54.783067 336.118485 
Q 54.783067 338.118485 56.783067 338.118485 
z
" style="fill:#ffffff;opacity:0.8;stroke:#cccccc;stroke-linejoin:miter;"/>
    </g>
    <g id="line2d_15">
     <path d="M 58.783067 313.860672 
L 78.783067 313.860672 
" style="fill:none;stroke:#1f77b4;stroke-linecap:square;stroke-opacity:0.5;stroke-width:1.5;"/>
    </g>
    <g id="line2d_16"/>
    <g id="text_14">
     <!-- True -->
     <defs>
      <path d="M -0.296875 72.90625 
L 61.375 72.90625 
L 61.375 64.59375 
L 35.5 64.59375 
L 35.5 0 
L 25.59375 0 
L 25.59375 64.59375 
L -0.296875 64.59375 
z
" id="DejaVuSans-84"/>
      <path d="M 8.5 21.578125 
L 8.5 54.6875 
L 17.484375 54.6875 
L 17.484375 21.921875 
Q 17.484375 14.15625 20.5 10.265625 
Q 23.53125 6.390625 29.59375 6.390625 
Q 36.859375 6.390625 41.078125 11.03125 
Q 45.3125 15.671875 45.3125 23.6875 
L 45.3125 54.6875 
L 54.296875 54.6875 
L 54.296875 0 
L 45.3125 0 
L 45.3125 8.40625 
Q 42.046875 3.421875 37.71875 1 
Q 33.40625 -1.421875 27.6875 -1.421875 
Q 18.265625 -1.421875 13.375 4.4375 
Q 8.5 10.296875 8.5 21.578125 
z
M 31.109375 56 
z
" id="DejaVuSans-117"/>
      <path d="M 56.203125 29.59375 
L 56.203125 25.203125 
L 14.890625 25.203125 
Q 15.484375 15.921875 20.484375 11.0625 
Q 25.484375 6.203125 34.421875 6.203125 
Q 39.59375 6.203125 44.453125 7.46875 
Q 49.3125 8.734375 54.109375 11.28125 
L 54.109375 2.78125 
Q 49.265625 0.734375 44.1875 -0.34375 
Q 39.109375 -1.421875 33.890625 -1.421875 
Q 20.796875 -1.421875 13.15625 6.1875 
Q 5.515625 13.8125 5.515625 26.8125 
Q 5.515625 40.234375 12.765625 48.109375 
Q 20.015625 56 32.328125 56 
Q 43.359375 56 49.78125 48.890625 
Q 56.203125 41.796875 56.203125 29.59375 
z
M 47.21875 32.234375 
Q 47.125 39.59375 43.09375 43.984375 
Q 39.0625 48.390625 32.421875 48.390625 
Q 24.90625 48.390625 20.390625 44.140625 
Q 15.875 39.890625 15.1875 32.171875 
z
" id="DejaVuSans-101"/>
     </defs>
     <g transform="translate(86.783067 317.360672)scale(0.1 -0.1)">
      <use xlink:href="#DejaVuSans-84"/>
      <use x="60.865234" xlink:href="#DejaVuSans-114"/>
      <use x="101.978516" xlink:href="#DejaVuSans-117"/>
      <use x="165.357422" xlink:href="#DejaVuSans-101"/>
     </g>
    </g>
    <g id="line2d_17">
     <path d="M 58.783067 328.538797 
L 78.783067 328.538797 
" style="fill:none;stroke:#ff7f0e;stroke-dasharray:5.55,2.4;stroke-dashoffset:0;stroke-opacity:0.5;stroke-width:1.5;"/>
    </g>
    <g id="line2d_18"/>
    <g id="text_15">
     <!-- Predicted -->
     <defs>
      <path d="M 19.671875 64.796875 
L 19.671875 37.40625 
L 32.078125 37.40625 
Q 38.96875 37.40625 42.71875 40.96875 
Q 46.484375 44.53125 46.484375 51.125 
Q 46.484375 57.671875 42.71875 61.234375 
Q 38.96875 64.796875 32.078125 64.796875 
z
M 9.8125 72.90625 
L 32.078125 72.90625 
Q 44.34375 72.90625 50.609375 67.359375 
Q 56.890625 61.8125 56.890625 51.125 
Q 56.890625 40.328125 50.609375 34.8125 
Q 44.34375 29.296875 32.078125 29.296875 
L 19.671875 29.296875 
L 19.671875 0 
L 9.8125 0 
z
" id="DejaVuSans-80"/>
      <path d="M 45.40625 46.390625 
L 45.40625 75.984375 
L 54.390625 75.984375 
L 54.390625 0 
L 45.40625 0 
L 45.40625 8.203125 
Q 42.578125 3.328125 38.25 0.953125 
Q 33.9375 -1.421875 27.875 -1.421875 
Q 17.96875 -1.421875 11.734375 6.484375 
Q 5.515625 14.40625 5.515625 27.296875 
Q 5.515625 40.1875 11.734375 48.09375 
Q 17.96875 56 27.875 56 
Q 33.9375 56 38.25 53.625 
Q 42.578125 51.265625 45.40625 46.390625 
z
M 14.796875 27.296875 
Q 14.796875 17.390625 18.875 11.75 
Q 22.953125 6.109375 30.078125 6.109375 
Q 37.203125 6.109375 41.296875 11.75 
Q 45.40625 17.390625 45.40625 27.296875 
Q 45.40625 37.203125 41.296875 42.84375 
Q 37.203125 48.484375 30.078125 48.484375 
Q 22.953125 48.484375 18.875 42.84375 
Q 14.796875 37.203125 14.796875 27.296875 
z
" id="DejaVuSans-100"/>
      <path d="M 48.78125 52.59375 
L 48.78125 44.1875 
Q 44.96875 46.296875 41.140625 47.34375 
Q 37.3125 48.390625 33.40625 48.390625 
Q 24.65625 48.390625 19.8125 42.84375 
Q 14.984375 37.3125 14.984375 27.296875 
Q 14.984375 17.28125 19.8125 11.734375 
Q 24.65625 6.203125 33.40625 6.203125 
Q 37.3125 6.203125 41.140625 7.25 
Q 44.96875 8.296875 48.78125 10.40625 
L 48.78125 2.09375 
Q 45.015625 0.34375 40.984375 -0.53125 
Q 36.96875 -1.421875 32.421875 -1.421875 
Q 20.0625 -1.421875 12.78125 6.34375 
Q 5.515625 14.109375 5.515625 27.296875 
Q 5.515625 40.671875 12.859375 48.328125 
Q 20.21875 56 33.015625 56 
Q 37.15625 56 41.109375 55.140625 
Q 45.0625 54.296875 48.78125 52.59375 
z
" id="DejaVuSans-99"/>
     </defs>
     <g transform="translate(86.783067 332.038797)scale(0.1 -0.1)">
      <use xlink:href="#DejaVuSans-80"/>
      <use x="60.287109" xlink:href="#DejaVuSans-114"/>
      <use x="101.369141" xlink:href="#DejaVuSans-101"/>
      <use x="162.892578" xlink:href="#DejaVuSans-100"/>
      <use x="226.369141" xlink:href="#DejaVuSans-105"/>
      <use x="254.152344" xlink:href="#DejaVuSans-99"/>
      <use x="309.132812" xlink:href="#DejaVuSans-116"/>
      <use x="348.341797" xlink:href="#DejaVuSans-101"/>
      <use x="409.865234" xlink:href="#DejaVuSans-100"/>
     </g>
    </g>
   </g>
  </g>
  <g id="axes_2">
   <g id="patch_8">
    <path d="M 489.607067 343.118485 
L 879.648 343.118485 
L 879.648 35.352 
L 489.607067 35.352 
z
" style="fill:#ffffff;"/>
   </g>
   <g id="matplotlib.axis_3">
    <g id="xtick_8">
     <g id="line2d_19">
      <g>
       <use style="stroke:#000000;stroke-width:0.8;" x="507.3362" xlink:href="#me32c0f53c0" y="343.118485"/>
      </g>
     </g>
     <g id="text_16">
      <!-- 0 -->
      <g transform="translate(504.15495 357.716922)scale(0.1 -0.1)">
       <use xlink:href="#DejaVuSans-48"/>
      </g>
     </g>
    </g>
    <g id="xtick_9">
     <g id="line2d_20">
      <g>
       <use style="stroke:#000000;stroke-width:0.8;" x="564.526953" xlink:href="#me32c0f53c0" y="343.118485"/>
      </g>
     </g>
     <g id="text_17">
      <!-- 5 -->
      <g transform="translate(561.345703 357.716922)scale(0.1 -0.1)">
       <use xlink:href="#DejaVuSans-53"/>
      </g>
     </g>
    </g>
    <g id="xtick_10">
     <g id="line2d_21">
      <g>
       <use style="stroke:#000000;stroke-width:0.8;" x="621.717705" xlink:href="#me32c0f53c0" y="343.118485"/>
      </g>
     </g>
     <g id="text_18">
      <!-- 10 -->
      <g transform="translate(615.355205 357.716922)scale(0.1 -0.1)">
       <use xlink:href="#DejaVuSans-49"/>
       <use x="63.623047" xlink:href="#DejaVuSans-48"/>
      </g>
     </g>
    </g>
    <g id="xtick_11">
     <g id="line2d_22">
      <g>
       <use style="stroke:#000000;stroke-width:0.8;" x="678.908458" xlink:href="#me32c0f53c0" y="343.118485"/>
      </g>
     </g>
     <g id="text_19">
      <!-- 15 -->
      <g transform="translate(672.545958 357.716922)scale(0.1 -0.1)">
       <use xlink:href="#DejaVuSans-49"/>
       <use x="63.623047" xlink:href="#DejaVuSans-53"/>
      </g>
     </g>
    </g>
    <g id="xtick_12">
     <g id="line2d_23">
      <g>
       <use style="stroke:#000000;stroke-width:0.8;" x="736.099211" xlink:href="#me32c0f53c0" y="343.118485"/>
      </g>
     </g>
     <g id="text_20">
      <!-- 20 -->
      <g transform="translate(729.736711 357.716922)scale(0.1 -0.1)">
       <use xlink:href="#DejaVuSans-50"/>
       <use x="63.623047" xlink:href="#DejaVuSans-48"/>
      </g>
     </g>
    </g>
    <g id="xtick_13">
     <g id="line2d_24">
      <g>
       <use style="stroke:#000000;stroke-width:0.8;" x="793.289963" xlink:href="#me32c0f53c0" y="343.118485"/>
      </g>
     </g>
     <g id="text_21">
      <!-- 25 -->
      <g transform="translate(786.927463 357.716922)scale(0.1 -0.1)">
       <use xlink:href="#DejaVuSans-50"/>
       <use x="63.623047" xlink:href="#DejaVuSans-53"/>
      </g>
     </g>
    </g>
    <g id="xtick_14">
     <g id="line2d_25">
      <g>
       <use style="stroke:#000000;stroke-width:0.8;" x="850.480716" xlink:href="#me32c0f53c0" y="343.118485"/>
      </g>
     </g>
     <g id="text_22">
      <!-- 30 -->
      <g transform="translate(844.118216 357.716922)scale(0.1 -0.1)">
       <use xlink:href="#DejaVuSans-51"/>
       <use x="63.623047" xlink:href="#DejaVuSans-48"/>
      </g>
     </g>
    </g>
   </g>
   <g id="matplotlib.axis_4">
    <g id="ytick_6">
     <g id="line2d_26">
      <g>
       <use style="stroke:#000000;stroke-width:0.8;" x="489.607067" xlink:href="#m9604d557ac" y="340.078986"/>
      </g>
     </g>
     <g id="text_23">
      <!-- −0.02 -->
      <g transform="translate(451.961754 343.878205)scale(0.1 -0.1)">
       <use xlink:href="#DejaVuSans-8722"/>
       <use x="83.789062" xlink:href="#DejaVuSans-48"/>
       <use x="147.412109" xlink:href="#DejaVuSans-46"/>
       <use x="179.199219" xlink:href="#DejaVuSans-48"/>
       <use x="242.822266" xlink:href="#DejaVuSans-50"/>
      </g>
     </g>
    </g>
    <g id="ytick_7">
     <g id="line2d_27">
      <g>
       <use style="stroke:#000000;stroke-width:0.8;" x="489.607067" xlink:href="#m9604d557ac" y="291.860757"/>
      </g>
     </g>
     <g id="text_24">
      <!-- −0.01 -->
      <g transform="translate(451.961754 295.659976)scale(0.1 -0.1)">
       <use xlink:href="#DejaVuSans-8722"/>
       <use x="83.789062" xlink:href="#DejaVuSans-48"/>
       <use x="147.412109" xlink:href="#DejaVuSans-46"/>
       <use x="179.199219" xlink:href="#DejaVuSans-48"/>
       <use x="242.822266" xlink:href="#DejaVuSans-49"/>
      </g>
     </g>
    </g>
    <g id="ytick_8">
     <g id="line2d_28">
      <g>
       <use style="stroke:#000000;stroke-width:0.8;" x="489.607067" xlink:href="#m9604d557ac" y="243.642528"/>
      </g>
     </g>
     <g id="text_25">
      <!-- 0.00 -->
      <g transform="translate(460.341442 247.441747)scale(0.1 -0.1)">
       <use xlink:href="#DejaVuSans-48"/>
       <use x="63.623047" xlink:href="#DejaVuSans-46"/>
       <use x="95.410156" xlink:href="#DejaVuSans-48"/>
       <use x="159.033203" xlink:href="#DejaVuSans-48"/>
      </g>
     </g>
    </g>
    <g id="ytick_9">
     <g id="line2d_29">
      <g>
       <use style="stroke:#000000;stroke-width:0.8;" x="489.607067" xlink:href="#m9604d557ac" y="195.4243"/>
      </g>
     </g>
     <g id="text_26">
      <!-- 0.01 -->
      <g transform="translate(460.341442 199.223518)scale(0.1 -0.1)">
       <use xlink:href="#DejaVuSans-48"/>
       <use x="63.623047" xlink:href="#DejaVuSans-46"/>
       <use x="95.410156" xlink:href="#DejaVuSans-48"/>
       <use x="159.033203" xlink:href="#DejaVuSans-49"/>
      </g>
     </g>
    </g>
    <g id="ytick_10">
     <g id="line2d_30">
      <g>
       <use style="stroke:#000000;stroke-width:0.8;" x="489.607067" xlink:href="#m9604d557ac" y="147.206071"/>
      </g>
     </g>
     <g id="text_27">
      <!-- 0.02 -->
      <g transform="translate(460.341442 151.005289)scale(0.1 -0.1)">
       <use xlink:href="#DejaVuSans-48"/>
       <use x="63.623047" xlink:href="#DejaVuSans-46"/>
       <use x="95.410156" xlink:href="#DejaVuSans-48"/>
       <use x="159.033203" xlink:href="#DejaVuSans-50"/>
      </g>
     </g>
    </g>
    <g id="ytick_11">
     <g id="line2d_31">
      <g>
       <use style="stroke:#000000;stroke-width:0.8;" x="489.607067" xlink:href="#m9604d557ac" y="98.987842"/>
      </g>
     </g>
     <g id="text_28">
      <!-- 0.03 -->
      <g transform="translate(460.341442 102.78706)scale(0.1 -0.1)">
       <use xlink:href="#DejaVuSans-48"/>
       <use x="63.623047" xlink:href="#DejaVuSans-46"/>
       <use x="95.410156" xlink:href="#DejaVuSans-48"/>
       <use x="159.033203" xlink:href="#DejaVuSans-51"/>
      </g>
     </g>
    </g>
    <g id="ytick_12">
     <g id="line2d_32">
      <g>
       <use style="stroke:#000000;stroke-width:0.8;" x="489.607067" xlink:href="#m9604d557ac" y="50.769613"/>
      </g>
     </g>
     <g id="text_29">
      <!-- 0.04 -->
      <defs>
       <path d="M 37.796875 64.3125 
L 12.890625 25.390625 
L 37.796875 25.390625 
z
M 35.203125 72.90625 
L 47.609375 72.90625 
L 47.609375 25.390625 
L 58.015625 25.390625 
L 58.015625 17.1875 
L 47.609375 17.1875 
L 47.609375 0 
L 37.796875 0 
L 37.796875 17.1875 
L 4.890625 17.1875 
L 4.890625 26.703125 
z
" id="DejaVuSans-52"/>
      </defs>
      <g transform="translate(460.341442 54.568832)scale(0.1 -0.1)">
       <use xlink:href="#DejaVuSans-48"/>
       <use x="63.623047" xlink:href="#DejaVuSans-46"/>
       <use x="95.410156" xlink:href="#DejaVuSans-48"/>
       <use x="159.033203" xlink:href="#DejaVuSans-52"/>
      </g>
     </g>
    </g>
   </g>
   <g id="line2d_33">
    <path clip-path="url(#p9bdf460101)" d="M 507.3362 240.661939 
L 518.774351 59.256988 
L 530.212501 63.848809 
L 541.650652 75.345487 
L 553.088802 209.594721 
L 564.526953 86.704248 
L 575.965103 70.698683 
L 587.403254 201.591072 
L 598.841404 58.359159 
L 610.279555 273.1788 
L 621.717705 211.509369 
L 633.155856 71.936923 
L 644.594006 286.530279 
L 656.032157 306.729809 
L 667.470308 177.967853 
L 678.908458 329.129099 
L 690.346609 231.182506 
L 701.784759 265.851791 
L 713.22291 136.529104 
L 724.66106 53.436089 
L 736.099211 172.931461 
L 747.537361 209.381886 
L 758.975512 66.286238 
L 770.413662 81.23292 
L 781.851813 49.341386 
L 793.289963 88.557746 
L 804.728114 69.874159 
L 816.166265 65.176251 
L 827.604415 207.821206 
L 839.042566 252.445724 
L 850.480716 283.625613 
L 861.918867 55.754892 
" style="fill:none;stroke:#1f77b4;stroke-linecap:square;stroke-opacity:0.5;stroke-width:1.5;"/>
   </g>
   <g id="line2d_34">
    <path clip-path="url(#p9bdf460101)" d="M 507.3362 220.426088 
L 518.774351 72.924673 
L 530.212501 73.934949 
L 541.650652 80.682184 
L 553.088802 196.621307 
L 564.526953 82.731853 
L 575.965103 76.970087 
L 587.403254 186.748672 
L 598.841404 71.568311 
L 610.279555 267.396421 
L 621.717705 220.405782 
L 633.155856 84.483574 
L 644.594006 257.975466 
L 656.032157 305.915398 
L 667.470308 214.43995 
L 678.908458 284.847031 
L 690.346609 207.053602 
L 701.784759 242.586848 
L 713.22291 90.224522 
L 724.66106 72.763099 
L 736.099211 217.79552 
L 747.537361 230.458547 
L 758.975512 73.491809 
L 770.413662 76.735171 
L 781.851813 77.357057 
L 793.289963 95.230571 
L 804.728114 81.846795 
L 816.166265 74.064496 
L 827.604415 191.587915 
L 839.042566 257.95471 
L 850.480716 260.26967 
L 861.918867 78.265322 
" style="fill:none;stroke:#ff7f0e;stroke-dasharray:5.55,2.4;stroke-dashoffset:0;stroke-opacity:0.5;stroke-width:1.5;"/>
   </g>
   <g id="patch_9">
    <path d="M 489.607067 343.118485 
L 489.607067 35.352 
" style="fill:none;stroke:#000000;stroke-linecap:square;stroke-linejoin:miter;stroke-width:0.8;"/>
   </g>
   <g id="patch_10">
    <path d="M 879.648 343.118485 
L 879.648 35.352 
" style="fill:none;stroke:#000000;stroke-linecap:square;stroke-linejoin:miter;stroke-width:0.8;"/>
   </g>
   <g id="patch_11">
    <path d="M 489.607067 343.118485 
L 879.648 343.118485 
" style="fill:none;stroke:#000000;stroke-linecap:square;stroke-linejoin:miter;stroke-width:0.8;"/>
   </g>
   <g id="patch_12">
    <path d="M 489.607067 35.352 
L 879.648 35.352 
" style="fill:none;stroke:#000000;stroke-linecap:square;stroke-linejoin:miter;stroke-width:0.8;"/>
   </g>
   <g id="text_30">
    <!-- translation_y -->
    <defs>
     <path d="M 32.171875 -5.078125 
Q 28.375 -14.84375 24.75 -17.8125 
Q 21.140625 -20.796875 15.09375 -20.796875 
L 7.90625 -20.796875 
L 7.90625 -13.28125 
L 13.1875 -13.28125 
Q 16.890625 -13.28125 18.9375 -11.515625 
Q 21 -9.765625 23.484375 -3.21875 
L 25.09375 0.875 
L 2.984375 54.6875 
L 12.5 54.6875 
L 29.59375 11.921875 
L 46.6875 54.6875 
L 56.203125 54.6875 
z
" id="DejaVuSans-121"/>
    </defs>
    <g transform="translate(645.815971 29.352)scale(0.12 -0.12)">
     <use xlink:href="#DejaVuSans-116"/>
     <use x="39.208984" xlink:href="#DejaVuSans-114"/>
     <use x="80.322266" xlink:href="#DejaVuSans-97"/>
     <use x="141.601562" xlink:href="#DejaVuSans-110"/>
     <use x="204.980469" xlink:href="#DejaVuSans-115"/>
     <use x="257.080078" xlink:href="#DejaVuSans-108"/>
     <use x="284.863281" xlink:href="#DejaVuSans-97"/>
     <use x="346.142578" xlink:href="#DejaVuSans-116"/>
     <use x="385.351562" xlink:href="#DejaVuSans-105"/>
     <use x="413.134766" xlink:href="#DejaVuSans-111"/>
     <use x="474.316406" xlink:href="#DejaVuSans-110"/>
     <use x="537.695312" xlink:href="#DejaVuSans-95"/>
     <use x="587.695312" xlink:href="#DejaVuSans-121"/>
    </g>
   </g>
   <g id="legend_2">
    <g id="patch_13">
     <path d="M 496.607067 338.118485 
L 575.943004 338.118485 
Q 577.943004 338.118485 577.943004 336.118485 
L 577.943004 307.762235 
Q 577.943004 305.762235 575.943004 305.762235 
L 496.607067 305.762235 
Q 494.607067 305.762235 494.607067 307.762235 
L 494.607067 336.118485 
Q 494.607067 338.118485 496.607067 338.118485 
z
" style="fill:#ffffff;opacity:0.8;stroke:#cccccc;stroke-linejoin:miter;"/>
    </g>
    <g id="line2d_35">
     <path d="M 498.607067 313.860672 
L 518.607067 313.860672 
" style="fill:none;stroke:#1f77b4;stroke-linecap:square;stroke-opacity:0.5;stroke-width:1.5;"/>
    </g>
    <g id="line2d_36"/>
    <g id="text_31">
     <!-- True -->
     <g transform="translate(526.607067 317.360672)scale(0.1 -0.1)">
      <use xlink:href="#DejaVuSans-84"/>
      <use x="60.865234" xlink:href="#DejaVuSans-114"/>
      <use x="101.978516" xlink:href="#DejaVuSans-117"/>
      <use x="165.357422" xlink:href="#DejaVuSans-101"/>
     </g>
    </g>
    <g id="line2d_37">
     <path d="M 498.607067 328.538797 
L 518.607067 328.538797 
" style="fill:none;stroke:#ff7f0e;stroke-dasharray:5.55,2.4;stroke-dashoffset:0;stroke-opacity:0.5;stroke-width:1.5;"/>
    </g>
    <g id="line2d_38"/>
    <g id="text_32">
     <!-- Predicted -->
     <g transform="translate(526.607067 332.038797)scale(0.1 -0.1)">
      <use xlink:href="#DejaVuSans-80"/>
      <use x="60.287109" xlink:href="#DejaVuSans-114"/>
      <use x="101.369141" xlink:href="#DejaVuSans-101"/>
      <use x="162.892578" xlink:href="#DejaVuSans-100"/>
      <use x="226.369141" xlink:href="#DejaVuSans-105"/>
      <use x="254.152344" xlink:href="#DejaVuSans-99"/>
      <use x="309.132812" xlink:href="#DejaVuSans-116"/>
      <use x="348.341797" xlink:href="#DejaVuSans-101"/>
      <use x="409.865234" xlink:href="#DejaVuSans-100"/>
     </g>
    </g>
   </g>
  </g>
  <g id="axes_3">
   <g id="patch_14">
    <path d="M 929.431067 343.118485 
L 1319.472 343.118485 
L 1319.472 35.352 
L 929.431067 35.352 
z
" style="fill:#ffffff;"/>
   </g>
   <g id="matplotlib.axis_5">
    <g id="xtick_15">
     <g id="line2d_39">
      <g>
       <use style="stroke:#000000;stroke-width:0.8;" x="947.1602" xlink:href="#me32c0f53c0" y="343.118485"/>
      </g>
     </g>
     <g id="text_33">
      <!-- 0 -->
      <g transform="translate(943.97895 357.716922)scale(0.1 -0.1)">
       <use xlink:href="#DejaVuSans-48"/>
      </g>
     </g>
    </g>
    <g id="xtick_16">
     <g id="line2d_40">
      <g>
       <use style="stroke:#000000;stroke-width:0.8;" x="1004.350953" xlink:href="#me32c0f53c0" y="343.118485"/>
      </g>
     </g>
     <g id="text_34">
      <!-- 5 -->
      <g transform="translate(1001.169703 357.716922)scale(0.1 -0.1)">
       <use xlink:href="#DejaVuSans-53"/>
      </g>
     </g>
    </g>
    <g id="xtick_17">
     <g id="line2d_41">
      <g>
       <use style="stroke:#000000;stroke-width:0.8;" x="1061.541705" xlink:href="#me32c0f53c0" y="343.118485"/>
      </g>
     </g>
     <g id="text_35">
      <!-- 10 -->
      <g transform="translate(1055.179205 357.716922)scale(0.1 -0.1)">
       <use xlink:href="#DejaVuSans-49"/>
       <use x="63.623047" xlink:href="#DejaVuSans-48"/>
      </g>
     </g>
    </g>
    <g id="xtick_18">
     <g id="line2d_42">
      <g>
       <use style="stroke:#000000;stroke-width:0.8;" x="1118.732458" xlink:href="#me32c0f53c0" y="343.118485"/>
      </g>
     </g>
     <g id="text_36">
      <!-- 15 -->
      <g transform="translate(1112.369958 357.716922)scale(0.1 -0.1)">
       <use xlink:href="#DejaVuSans-49"/>
       <use x="63.623047" xlink:href="#DejaVuSans-53"/>
      </g>
     </g>
    </g>
    <g id="xtick_19">
     <g id="line2d_43">
      <g>
       <use style="stroke:#000000;stroke-width:0.8;" x="1175.923211" xlink:href="#me32c0f53c0" y="343.118485"/>
      </g>
     </g>
     <g id="text_37">
      <!-- 20 -->
      <g transform="translate(1169.560711 357.716922)scale(0.1 -0.1)">
       <use xlink:href="#DejaVuSans-50"/>
       <use x="63.623047" xlink:href="#DejaVuSans-48"/>
      </g>
     </g>
    </g>
    <g id="xtick_20">
     <g id="line2d_44">
      <g>
       <use style="stroke:#000000;stroke-width:0.8;" x="1233.113963" xlink:href="#me32c0f53c0" y="343.118485"/>
      </g>
     </g>
     <g id="text_38">
      <!-- 25 -->
      <g transform="translate(1226.751463 357.716922)scale(0.1 -0.1)">
       <use xlink:href="#DejaVuSans-50"/>
       <use x="63.623047" xlink:href="#DejaVuSans-53"/>
      </g>
     </g>
    </g>
    <g id="xtick_21">
     <g id="line2d_45">
      <g>
       <use style="stroke:#000000;stroke-width:0.8;" x="1290.304716" xlink:href="#me32c0f53c0" y="343.118485"/>
      </g>
     </g>
     <g id="text_39">
      <!-- 30 -->
      <g transform="translate(1283.942216 357.716922)scale(0.1 -0.1)">
       <use xlink:href="#DejaVuSans-51"/>
       <use x="63.623047" xlink:href="#DejaVuSans-48"/>
      </g>
     </g>
    </g>
   </g>
   <g id="matplotlib.axis_6">
    <g id="ytick_13">
     <g id="line2d_46">
      <g>
       <use style="stroke:#000000;stroke-width:0.8;" x="929.431067" xlink:href="#m9604d557ac" y="309.401118"/>
      </g>
     </g>
     <g id="text_40">
      <!-- −0.04 -->
      <g transform="translate(891.785754 313.200337)scale(0.1 -0.1)">
       <use xlink:href="#DejaVuSans-8722"/>
       <use x="83.789062" xlink:href="#DejaVuSans-48"/>
       <use x="147.412109" xlink:href="#DejaVuSans-46"/>
       <use x="179.199219" xlink:href="#DejaVuSans-48"/>
       <use x="242.822266" xlink:href="#DejaVuSans-52"/>
      </g>
     </g>
    </g>
    <g id="ytick_14">
     <g id="line2d_47">
      <g>
       <use style="stroke:#000000;stroke-width:0.8;" x="929.431067" xlink:href="#m9604d557ac" y="264.882495"/>
      </g>
     </g>
     <g id="text_41">
      <!-- −0.03 -->
      <g transform="translate(891.785754 268.681714)scale(0.1 -0.1)">
       <use xlink:href="#DejaVuSans-8722"/>
       <use x="83.789062" xlink:href="#DejaVuSans-48"/>
       <use x="147.412109" xlink:href="#DejaVuSans-46"/>
       <use x="179.199219" xlink:href="#DejaVuSans-48"/>
       <use x="242.822266" xlink:href="#DejaVuSans-51"/>
      </g>
     </g>
    </g>
    <g id="ytick_15">
     <g id="line2d_48">
      <g>
       <use style="stroke:#000000;stroke-width:0.8;" x="929.431067" xlink:href="#m9604d557ac" y="220.363873"/>
      </g>
     </g>
     <g id="text_42">
      <!-- −0.02 -->
      <g transform="translate(891.785754 224.163091)scale(0.1 -0.1)">
       <use xlink:href="#DejaVuSans-8722"/>
       <use x="83.789062" xlink:href="#DejaVuSans-48"/>
       <use x="147.412109" xlink:href="#DejaVuSans-46"/>
       <use x="179.199219" xlink:href="#DejaVuSans-48"/>
       <use x="242.822266" xlink:href="#DejaVuSans-50"/>
      </g>
     </g>
    </g>
    <g id="ytick_16">
     <g id="line2d_49">
      <g>
       <use style="stroke:#000000;stroke-width:0.8;" x="929.431067" xlink:href="#m9604d557ac" y="175.84525"/>
      </g>
     </g>
     <g id="text_43">
      <!-- −0.01 -->
      <g transform="translate(891.785754 179.644468)scale(0.1 -0.1)">
       <use xlink:href="#DejaVuSans-8722"/>
       <use x="83.789062" xlink:href="#DejaVuSans-48"/>
       <use x="147.412109" xlink:href="#DejaVuSans-46"/>
       <use x="179.199219" xlink:href="#DejaVuSans-48"/>
       <use x="242.822266" xlink:href="#DejaVuSans-49"/>
      </g>
     </g>
    </g>
    <g id="ytick_17">
     <g id="line2d_50">
      <g>
       <use style="stroke:#000000;stroke-width:0.8;" x="929.431067" xlink:href="#m9604d557ac" y="131.326627"/>
      </g>
     </g>
     <g id="text_44">
      <!-- 0.00 -->
      <g transform="translate(900.165442 135.125846)scale(0.1 -0.1)">
       <use xlink:href="#DejaVuSans-48"/>
       <use x="63.623047" xlink:href="#DejaVuSans-46"/>
       <use x="95.410156" xlink:href="#DejaVuSans-48"/>
       <use x="159.033203" xlink:href="#DejaVuSans-48"/>
      </g>
     </g>
    </g>
    <g id="ytick_18">
     <g id="line2d_51">
      <g>
       <use style="stroke:#000000;stroke-width:0.8;" x="929.431067" xlink:href="#m9604d557ac" y="86.808004"/>
      </g>
     </g>
     <g id="text_45">
      <!-- 0.01 -->
      <g transform="translate(900.165442 90.607223)scale(0.1 -0.1)">
       <use xlink:href="#DejaVuSans-48"/>
       <use x="63.623047" xlink:href="#DejaVuSans-46"/>
       <use x="95.410156" xlink:href="#DejaVuSans-48"/>
       <use x="159.033203" xlink:href="#DejaVuSans-49"/>
      </g>
     </g>
    </g>
    <g id="ytick_19">
     <g id="line2d_52">
      <g>
       <use style="stroke:#000000;stroke-width:0.8;" x="929.431067" xlink:href="#m9604d557ac" y="42.289381"/>
      </g>
     </g>
     <g id="text_46">
      <!-- 0.02 -->
      <g transform="translate(900.165442 46.0886)scale(0.1 -0.1)">
       <use xlink:href="#DejaVuSans-48"/>
       <use x="63.623047" xlink:href="#DejaVuSans-46"/>
       <use x="95.410156" xlink:href="#DejaVuSans-48"/>
       <use x="159.033203" xlink:href="#DejaVuSans-50"/>
      </g>
     </g>
    </g>
   </g>
   <g id="line2d_53">
    <path clip-path="url(#p40da6f915d)" d="M 947.1602 288.774301 
L 958.598351 61.135007 
L 970.036501 226.126811 
L 981.474652 186.476742 
L 992.912802 329.129099 
L 1004.350953 79.983297 
L 1015.789103 203.786473 
L 1027.227254 56.701843 
L 1038.665404 57.347361 
L 1050.103555 100.206554 
L 1061.541705 220.782795 
L 1072.979856 120.5216 
L 1084.418006 269.913991 
L 1095.856157 157.719225 
L 1107.294308 66.121533 
L 1118.732458 155.959359 
L 1130.170609 308.891374 
L 1141.608759 218.485629 
L 1153.04691 139.446423 
L 1164.48506 221.408278 
L 1175.923211 69.38341 
L 1187.361361 219.087081 
L 1198.799512 203.679179 
L 1210.237662 212.972002 
L 1221.675813 220.940836 
L 1233.113963 134.320915 
L 1244.552114 177.798726 
L 1255.990265 57.801891 
L 1267.428415 54.523107 
L 1278.866566 228.069608 
L 1290.304716 264.606925 
L 1301.742867 226.681512 
" style="fill:none;stroke:#1f77b4;stroke-linecap:square;stroke-opacity:0.5;stroke-width:1.5;"/>
   </g>
   <g id="line2d_54">
    <path clip-path="url(#p40da6f915d)" d="M 947.1602 319.927366 
L 958.598351 73.00381 
L 970.036501 214.314557 
L 981.474652 182.308502 
L 992.912802 296.682112 
L 1004.350953 85.721477 
L 1015.789103 181.372715 
L 1027.227254 49.341386 
L 1038.665404 70.076931 
L 1050.103555 133.440287 
L 1061.541705 211.903755 
L 1072.979856 127.669591 
L 1084.418006 214.138845 
L 1095.856157 149.812193 
L 1107.294308 96.050523 
L 1118.732458 152.213866 
L 1130.170609 306.460918 
L 1141.608759 168.99505 
L 1153.04691 190.070723 
L 1164.48506 214.374303 
L 1175.923211 91.4393 
L 1187.361361 224.103447 
L 1198.799512 183.811744 
L 1210.237662 182.268409 
L 1221.675813 220.833186 
L 1233.113963 142.422209 
L 1244.552114 183.2472 
L 1255.990265 72.692436 
L 1267.428415 93.552656 
L 1278.866566 214.665626 
L 1290.304716 215.180947 
L 1301.742867 223.589419 
" style="fill:none;stroke:#ff7f0e;stroke-dasharray:5.55,2.4;stroke-dashoffset:0;stroke-opacity:0.5;stroke-width:1.5;"/>
   </g>
   <g id="patch_15">
    <path d="M 929.431067 343.118485 
L 929.431067 35.352 
" style="fill:none;stroke:#000000;stroke-linecap:square;stroke-linejoin:miter;stroke-width:0.8;"/>
   </g>
   <g id="patch_16">
    <path d="M 1319.472 343.118485 
L 1319.472 35.352 
" style="fill:none;stroke:#000000;stroke-linecap:square;stroke-linejoin:miter;stroke-width:0.8;"/>
   </g>
   <g id="patch_17">
    <path d="M 929.431067 343.118485 
L 1319.472 343.118485 
" style="fill:none;stroke:#000000;stroke-linecap:square;stroke-linejoin:miter;stroke-width:0.8;"/>
   </g>
   <g id="patch_18">
    <path d="M 929.431067 35.352 
L 1319.472 35.352 
" style="fill:none;stroke:#000000;stroke-linecap:square;stroke-linejoin:miter;stroke-width:0.8;"/>
   </g>
   <g id="text_47">
    <!-- translation_z -->
    <defs>
     <path d="M 5.515625 54.6875 
L 48.1875 54.6875 
L 48.1875 46.484375 
L 14.40625 7.171875 
L 48.1875 7.171875 
L 48.1875 0 
L 4.296875 0 
L 4.296875 8.203125 
L 38.09375 47.515625 
L 5.515625 47.515625 
z
" id="DejaVuSans-122"/>
    </defs>
    <g transform="translate(1086.042158 29.352)scale(0.12 -0.12)">
     <use xlink:href="#DejaVuSans-116"/>
     <use x="39.208984" xlink:href="#DejaVuSans-114"/>
     <use x="80.322266" xlink:href="#DejaVuSans-97"/>
     <use x="141.601562" xlink:href="#DejaVuSans-110"/>
     <use x="204.980469" xlink:href="#DejaVuSans-115"/>
     <use x="257.080078" xlink:href="#DejaVuSans-108"/>
     <use x="284.863281" xlink:href="#DejaVuSans-97"/>
     <use x="346.142578" xlink:href="#DejaVuSans-116"/>
     <use x="385.351562" xlink:href="#DejaVuSans-105"/>
     <use x="413.134766" xlink:href="#DejaVuSans-111"/>
     <use x="474.316406" xlink:href="#DejaVuSans-110"/>
     <use x="537.695312" xlink:href="#DejaVuSans-95"/>
     <use x="587.695312" xlink:href="#DejaVuSans-122"/>
    </g>
   </g>
   <g id="legend_3">
    <g id="patch_19">
     <path d="M 1233.136062 338.118485 
L 1312.472 338.118485 
Q 1314.472 338.118485 1314.472 336.118485 
L 1314.472 307.762235 
Q 1314.472 305.762235 1312.472 305.762235 
L 1233.136062 305.762235 
Q 1231.136062 305.762235 1231.136062 307.762235 
L 1231.136062 336.118485 
Q 1231.136062 338.118485 1233.136062 338.118485 
z
" style="fill:#ffffff;opacity:0.8;stroke:#cccccc;stroke-linejoin:miter;"/>
    </g>
    <g id="line2d_55">
     <path d="M 1235.136062 313.860672 
L 1255.136062 313.860672 
" style="fill:none;stroke:#1f77b4;stroke-linecap:square;stroke-opacity:0.5;stroke-width:1.5;"/>
    </g>
    <g id="line2d_56"/>
    <g id="text_48">
     <!-- True -->
     <g transform="translate(1263.136062 317.360672)scale(0.1 -0.1)">
      <use xlink:href="#DejaVuSans-84"/>
      <use x="60.865234" xlink:href="#DejaVuSans-114"/>
      <use x="101.978516" xlink:href="#DejaVuSans-117"/>
      <use x="165.357422" xlink:href="#DejaVuSans-101"/>
     </g>
    </g>
    <g id="line2d_57">
     <path d="M 1235.136062 328.538797 
L 1255.136062 328.538797 
" style="fill:none;stroke:#ff7f0e;stroke-dasharray:5.55,2.4;stroke-dashoffset:0;stroke-opacity:0.5;stroke-width:1.5;"/>
    </g>
    <g id="line2d_58"/>
    <g id="text_49">
     <!-- Predicted -->
     <g transform="translate(1263.136062 332.038797)scale(0.1 -0.1)">
      <use xlink:href="#DejaVuSans-80"/>
      <use x="60.287109" xlink:href="#DejaVuSans-114"/>
      <use x="101.369141" xlink:href="#DejaVuSans-101"/>
      <use x="162.892578" xlink:href="#DejaVuSans-100"/>
      <use x="226.369141" xlink:href="#DejaVuSans-105"/>
      <use x="254.152344" xlink:href="#DejaVuSans-99"/>
      <use x="309.132812" xlink:href="#DejaVuSans-116"/>
      <use x="348.341797" xlink:href="#DejaVuSans-101"/>
      <use x="409.865234" xlink:href="#DejaVuSans-100"/>
     </g>
    </g>
   </g>
  </g>
  <g id="axes_4">
   <g id="patch_20">
    <path d="M 49.783067 684.224867 
L 439.824 684.224867 
L 439.824 376.458382 
L 49.783067 376.458382 
z
" style="fill:#ffffff;"/>
   </g>
   <g id="matplotlib.axis_7">
    <g id="xtick_22">
     <g id="line2d_59">
      <g>
       <use style="stroke:#000000;stroke-width:0.8;" x="67.5122" xlink:href="#me32c0f53c0" y="684.224867"/>
      </g>
     </g>
     <g id="text_50">
      <!-- 0 -->
      <g transform="translate(64.33095 698.823304)scale(0.1 -0.1)">
       <use xlink:href="#DejaVuSans-48"/>
      </g>
     </g>
    </g>
    <g id="xtick_23">
     <g id="line2d_60">
      <g>
       <use style="stroke:#000000;stroke-width:0.8;" x="124.702953" xlink:href="#me32c0f53c0" y="684.224867"/>
      </g>
     </g>
     <g id="text_51">
      <!-- 5 -->
      <g transform="translate(121.521703 698.823304)scale(0.1 -0.1)">
       <use xlink:href="#DejaVuSans-53"/>
      </g>
     </g>
    </g>
    <g id="xtick_24">
     <g id="line2d_61">
      <g>
       <use style="stroke:#000000;stroke-width:0.8;" x="181.893705" xlink:href="#me32c0f53c0" y="684.224867"/>
      </g>
     </g>
     <g id="text_52">
      <!-- 10 -->
      <g transform="translate(175.531205 698.823304)scale(0.1 -0.1)">
       <use xlink:href="#DejaVuSans-49"/>
       <use x="63.623047" xlink:href="#DejaVuSans-48"/>
      </g>
     </g>
    </g>
    <g id="xtick_25">
     <g id="line2d_62">
      <g>
       <use style="stroke:#000000;stroke-width:0.8;" x="239.084458" xlink:href="#me32c0f53c0" y="684.224867"/>
      </g>
     </g>
     <g id="text_53">
      <!-- 15 -->
      <g transform="translate(232.721958 698.823304)scale(0.1 -0.1)">
       <use xlink:href="#DejaVuSans-49"/>
       <use x="63.623047" xlink:href="#DejaVuSans-53"/>
      </g>
     </g>
    </g>
    <g id="xtick_26">
     <g id="line2d_63">
      <g>
       <use style="stroke:#000000;stroke-width:0.8;" x="296.275211" xlink:href="#me32c0f53c0" y="684.224867"/>
      </g>
     </g>
     <g id="text_54">
      <!-- 20 -->
      <g transform="translate(289.912711 698.823304)scale(0.1 -0.1)">
       <use xlink:href="#DejaVuSans-50"/>
       <use x="63.623047" xlink:href="#DejaVuSans-48"/>
      </g>
     </g>
    </g>
    <g id="xtick_27">
     <g id="line2d_64">
      <g>
       <use style="stroke:#000000;stroke-width:0.8;" x="353.465963" xlink:href="#me32c0f53c0" y="684.224867"/>
      </g>
     </g>
     <g id="text_55">
      <!-- 25 -->
      <g transform="translate(347.103463 698.823304)scale(0.1 -0.1)">
       <use xlink:href="#DejaVuSans-50"/>
       <use x="63.623047" xlink:href="#DejaVuSans-53"/>
      </g>
     </g>
    </g>
    <g id="xtick_28">
     <g id="line2d_65">
      <g>
       <use style="stroke:#000000;stroke-width:0.8;" x="410.656716" xlink:href="#me32c0f53c0" y="684.224867"/>
      </g>
     </g>
     <g id="text_56">
      <!-- 30 -->
      <g transform="translate(404.294216 698.823304)scale(0.1 -0.1)">
       <use xlink:href="#DejaVuSans-51"/>
       <use x="63.623047" xlink:href="#DejaVuSans-48"/>
      </g>
     </g>
    </g>
   </g>
   <g id="matplotlib.axis_8">
    <g id="ytick_20">
     <g id="line2d_66">
      <g>
       <use style="stroke:#000000;stroke-width:0.8;" x="49.783067" xlink:href="#m9604d557ac" y="682.26493"/>
      </g>
     </g>
     <g id="text_57">
      <!-- −5 -->
      <g transform="translate(28.040879 686.064149)scale(0.1 -0.1)">
       <use xlink:href="#DejaVuSans-8722"/>
       <use x="83.789062" xlink:href="#DejaVuSans-53"/>
      </g>
     </g>
    </g>
    <g id="ytick_21">
     <g id="line2d_67">
      <g>
       <use style="stroke:#000000;stroke-width:0.8;" x="49.783067" xlink:href="#m9604d557ac" y="636.571544"/>
      </g>
     </g>
     <g id="text_58">
      <!-- 0 -->
      <g transform="translate(36.420567 640.370762)scale(0.1 -0.1)">
       <use xlink:href="#DejaVuSans-48"/>
      </g>
     </g>
    </g>
    <g id="ytick_22">
     <g id="line2d_68">
      <g>
       <use style="stroke:#000000;stroke-width:0.8;" x="49.783067" xlink:href="#m9604d557ac" y="590.878157"/>
      </g>
     </g>
     <g id="text_59">
      <!-- 5 -->
      <g transform="translate(36.420567 594.677375)scale(0.1 -0.1)">
       <use xlink:href="#DejaVuSans-53"/>
      </g>
     </g>
    </g>
    <g id="ytick_23">
     <g id="line2d_69">
      <g>
       <use style="stroke:#000000;stroke-width:0.8;" x="49.783067" xlink:href="#m9604d557ac" y="545.18477"/>
      </g>
     </g>
     <g id="text_60">
      <!-- 10 -->
      <g transform="translate(30.058067 548.983988)scale(0.1 -0.1)">
       <use xlink:href="#DejaVuSans-49"/>
       <use x="63.623047" xlink:href="#DejaVuSans-48"/>
      </g>
     </g>
    </g>
    <g id="ytick_24">
     <g id="line2d_70">
      <g>
       <use style="stroke:#000000;stroke-width:0.8;" x="49.783067" xlink:href="#m9604d557ac" y="499.491383"/>
      </g>
     </g>
     <g id="text_61">
      <!-- 15 -->
      <g transform="translate(30.058067 503.290602)scale(0.1 -0.1)">
       <use xlink:href="#DejaVuSans-49"/>
       <use x="63.623047" xlink:href="#DejaVuSans-53"/>
      </g>
     </g>
    </g>
    <g id="ytick_25">
     <g id="line2d_71">
      <g>
       <use style="stroke:#000000;stroke-width:0.8;" x="49.783067" xlink:href="#m9604d557ac" y="453.797996"/>
      </g>
     </g>
     <g id="text_62">
      <!-- 20 -->
      <g transform="translate(30.058067 457.597215)scale(0.1 -0.1)">
       <use xlink:href="#DejaVuSans-50"/>
       <use x="63.623047" xlink:href="#DejaVuSans-48"/>
      </g>
     </g>
    </g>
    <g id="ytick_26">
     <g id="line2d_72">
      <g>
       <use style="stroke:#000000;stroke-width:0.8;" x="49.783067" xlink:href="#m9604d557ac" y="408.104609"/>
      </g>
     </g>
     <g id="text_63">
      <!-- 25 -->
      <g transform="translate(30.058067 411.903828)scale(0.1 -0.1)">
       <use xlink:href="#DejaVuSans-50"/>
       <use x="63.623047" xlink:href="#DejaVuSans-53"/>
      </g>
     </g>
    </g>
   </g>
   <g id="line2d_73">
    <path clip-path="url(#pc3495bf3b0)" d="M 67.5122 630.216444 
L 78.950351 425.498248 
L 90.388501 646.620615 
L 101.826652 620.268784 
L 113.264802 630.439746 
L 124.702953 485.895777 
L 136.141103 621.652651 
L 147.579254 664.246015 
L 159.017404 419.330554 
L 170.455555 624.209108 
L 181.893705 646.520458 
L 193.331856 580.922117 
L 204.770006 390.447768 
L 216.208157 488.147537 
L 227.646308 662.184968 
L 239.084458 647.051047 
L 250.522609 630.664715 
L 261.960759 633.369314 
L 273.39891 614.136366 
L 284.83706 646.469552 
L 296.275211 661.735802 
L 307.713361 647.038161 
L 319.151512 622.614681 
L 330.589662 622.089847 
L 342.027813 646.767564 
L 353.465963 584.532805 
L 364.904114 620.05503 
L 376.342265 412.408932 
L 387.780415 666.411612 
L 399.218566 629.948908 
L 410.656716 397.898549 
L 422.094867 646.863615 
" style="fill:none;stroke:#1f77b4;stroke-linecap:square;stroke-opacity:0.5;stroke-width:1.5;"/>
   </g>
   <g id="line2d_74">
    <path clip-path="url(#pc3495bf3b0)" d="M 67.5122 627.525283 
L 78.950351 453.231918 
L 90.388501 639.779871 
L 101.826652 619.1882 
L 113.264802 626.517383 
L 124.702953 471.781644 
L 136.141103 619.636897 
L 147.579254 669.366054 
L 159.017404 444.718897 
L 170.455555 620.110588 
L 181.893705 656.004546 
L 193.331856 577.491322 
L 204.770006 411.975711 
L 216.208157 482.480033 
L 227.646308 669.966997 
L 239.084458 652.907342 
L 250.522609 627.079817 
L 261.960759 625.051598 
L 273.39891 622.309013 
L 284.83706 640.141087 
L 296.275211 670.235481 
L 307.713361 649.618324 
L 319.151512 621.073135 
L 330.589662 619.91167 
L 342.027813 642.845033 
L 353.465963 596.862637 
L 364.904114 619.03332 
L 376.342265 442.4047 
L 387.780415 652.082799 
L 399.218566 633.552397 
L 410.656716 413.64595 
L 422.094867 644.122734 
" style="fill:none;stroke:#ff7f0e;stroke-dasharray:5.55,2.4;stroke-dashoffset:0;stroke-opacity:0.5;stroke-width:1.5;"/>
   </g>
   <g id="patch_21">
    <path d="M 49.783067 684.224867 
L 49.783067 376.458382 
" style="fill:none;stroke:#000000;stroke-linecap:square;stroke-linejoin:miter;stroke-width:0.8;"/>
   </g>
   <g id="patch_22">
    <path d="M 439.824 684.224867 
L 439.824 376.458382 
" style="fill:none;stroke:#000000;stroke-linecap:square;stroke-linejoin:miter;stroke-width:0.8;"/>
   </g>
   <g id="patch_23">
    <path d="M 49.783067 684.224867 
L 439.824 684.224867 
" style="fill:none;stroke:#000000;stroke-linecap:square;stroke-linejoin:miter;stroke-width:0.8;"/>
   </g>
   <g id="patch_24">
    <path d="M 49.783067 376.458382 
L 439.824 376.458382 
" style="fill:none;stroke:#000000;stroke-linecap:square;stroke-linejoin:miter;stroke-width:0.8;"/>
   </g>
   <g id="text_64">
    <!-- rpy_x -->
    <defs>
     <path d="M 18.109375 8.203125 
L 18.109375 -20.796875 
L 9.078125 -20.796875 
L 9.078125 54.6875 
L 18.109375 54.6875 
L 18.109375 46.390625 
Q 20.953125 51.265625 25.265625 53.625 
Q 29.59375 56 35.59375 56 
Q 45.5625 56 51.78125 48.09375 
Q 58.015625 40.1875 58.015625 27.296875 
Q 58.015625 14.40625 51.78125 6.484375 
Q 45.5625 -1.421875 35.59375 -1.421875 
Q 29.59375 -1.421875 25.265625 0.953125 
Q 20.953125 3.328125 18.109375 8.203125 
z
M 48.6875 27.296875 
Q 48.6875 37.203125 44.609375 42.84375 
Q 40.53125 48.484375 33.40625 48.484375 
Q 26.265625 48.484375 22.1875 42.84375 
Q 18.109375 37.203125 18.109375 27.296875 
Q 18.109375 17.390625 22.1875 11.75 
Q 26.265625 6.109375 33.40625 6.109375 
Q 40.53125 6.109375 44.609375 11.75 
Q 48.6875 17.390625 48.6875 27.296875 
z
" id="DejaVuSans-112"/>
    </defs>
    <g transform="translate(228.425408 370.458382)scale(0.12 -0.12)">
     <use xlink:href="#DejaVuSans-114"/>
     <use x="41.113281" xlink:href="#DejaVuSans-112"/>
     <use x="104.589844" xlink:href="#DejaVuSans-121"/>
     <use x="163.769531" xlink:href="#DejaVuSans-95"/>
     <use x="213.769531" xlink:href="#DejaVuSans-120"/>
    </g>
   </g>
   <g id="legend_4">
    <g id="patch_25">
     <path d="M 56.783067 413.814632 
L 136.119004 413.814632 
Q 138.119004 413.814632 138.119004 411.814632 
L 138.119004 383.458382 
Q 138.119004 381.458382 136.119004 381.458382 
L 56.783067 381.458382 
Q 54.783067 381.458382 54.783067 383.458382 
L 54.783067 411.814632 
Q 54.783067 413.814632 56.783067 413.814632 
z
" style="fill:#ffffff;opacity:0.8;stroke:#cccccc;stroke-linejoin:miter;"/>
    </g>
    <g id="line2d_75">
     <path d="M 58.783067 389.55682 
L 78.783067 389.55682 
" style="fill:none;stroke:#1f77b4;stroke-linecap:square;stroke-opacity:0.5;stroke-width:1.5;"/>
    </g>
    <g id="line2d_76"/>
    <g id="text_65">
     <!-- True -->
     <g transform="translate(86.783067 393.05682)scale(0.1 -0.1)">
      <use xlink:href="#DejaVuSans-84"/>
      <use x="60.865234" xlink:href="#DejaVuSans-114"/>
      <use x="101.978516" xlink:href="#DejaVuSans-117"/>
      <use x="165.357422" xlink:href="#DejaVuSans-101"/>
     </g>
    </g>
    <g id="line2d_77">
     <path d="M 58.783067 404.234945 
L 78.783067 404.234945 
" style="fill:none;stroke:#ff7f0e;stroke-dasharray:5.55,2.4;stroke-dashoffset:0;stroke-opacity:0.5;stroke-width:1.5;"/>
    </g>
    <g id="line2d_78"/>
    <g id="text_66">
     <!-- Predicted -->
     <g transform="translate(86.783067 407.734945)scale(0.1 -0.1)">
      <use xlink:href="#DejaVuSans-80"/>
      <use x="60.287109" xlink:href="#DejaVuSans-114"/>
      <use x="101.369141" xlink:href="#DejaVuSans-101"/>
      <use x="162.892578" xlink:href="#DejaVuSans-100"/>
      <use x="226.369141" xlink:href="#DejaVuSans-105"/>
      <use x="254.152344" xlink:href="#DejaVuSans-99"/>
      <use x="309.132812" xlink:href="#DejaVuSans-116"/>
      <use x="348.341797" xlink:href="#DejaVuSans-101"/>
      <use x="409.865234" xlink:href="#DejaVuSans-100"/>
     </g>
    </g>
   </g>
  </g>
  <g id="axes_5">
   <g id="patch_26">
    <path d="M 489.607067 684.224867 
L 879.648 684.224867 
L 879.648 376.458382 
L 489.607067 376.458382 
z
" style="fill:#ffffff;"/>
   </g>
   <g id="matplotlib.axis_9">
    <g id="xtick_29">
     <g id="line2d_79">
      <g>
       <use style="stroke:#000000;stroke-width:0.8;" x="507.3362" xlink:href="#me32c0f53c0" y="684.224867"/>
      </g>
     </g>
     <g id="text_67">
      <!-- 0 -->
      <g transform="translate(504.15495 698.823304)scale(0.1 -0.1)">
       <use xlink:href="#DejaVuSans-48"/>
      </g>
     </g>
    </g>
    <g id="xtick_30">
     <g id="line2d_80">
      <g>
       <use style="stroke:#000000;stroke-width:0.8;" x="564.526953" xlink:href="#me32c0f53c0" y="684.224867"/>
      </g>
     </g>
     <g id="text_68">
      <!-- 5 -->
      <g transform="translate(561.345703 698.823304)scale(0.1 -0.1)">
       <use xlink:href="#DejaVuSans-53"/>
      </g>
     </g>
    </g>
    <g id="xtick_31">
     <g id="line2d_81">
      <g>
       <use style="stroke:#000000;stroke-width:0.8;" x="621.717705" xlink:href="#me32c0f53c0" y="684.224867"/>
      </g>
     </g>
     <g id="text_69">
      <!-- 10 -->
      <g transform="translate(615.355205 698.823304)scale(0.1 -0.1)">
       <use xlink:href="#DejaVuSans-49"/>
       <use x="63.623047" xlink:href="#DejaVuSans-48"/>
      </g>
     </g>
    </g>
    <g id="xtick_32">
     <g id="line2d_82">
      <g>
       <use style="stroke:#000000;stroke-width:0.8;" x="678.908458" xlink:href="#me32c0f53c0" y="684.224867"/>
      </g>
     </g>
     <g id="text_70">
      <!-- 15 -->
      <g transform="translate(672.545958 698.823304)scale(0.1 -0.1)">
       <use xlink:href="#DejaVuSans-49"/>
       <use x="63.623047" xlink:href="#DejaVuSans-53"/>
      </g>
     </g>
    </g>
    <g id="xtick_33">
     <g id="line2d_83">
      <g>
       <use style="stroke:#000000;stroke-width:0.8;" x="736.099211" xlink:href="#me32c0f53c0" y="684.224867"/>
      </g>
     </g>
     <g id="text_71">
      <!-- 20 -->
      <g transform="translate(729.736711 698.823304)scale(0.1 -0.1)">
       <use xlink:href="#DejaVuSans-50"/>
       <use x="63.623047" xlink:href="#DejaVuSans-48"/>
      </g>
     </g>
    </g>
    <g id="xtick_34">
     <g id="line2d_84">
      <g>
       <use style="stroke:#000000;stroke-width:0.8;" x="793.289963" xlink:href="#me32c0f53c0" y="684.224867"/>
      </g>
     </g>
     <g id="text_72">
      <!-- 25 -->
      <g transform="translate(786.927463 698.823304)scale(0.1 -0.1)">
       <use xlink:href="#DejaVuSans-50"/>
       <use x="63.623047" xlink:href="#DejaVuSans-53"/>
      </g>
     </g>
    </g>
    <g id="xtick_35">
     <g id="line2d_85">
      <g>
       <use style="stroke:#000000;stroke-width:0.8;" x="850.480716" xlink:href="#me32c0f53c0" y="684.224867"/>
      </g>
     </g>
     <g id="text_73">
      <!-- 30 -->
      <g transform="translate(844.118216 698.823304)scale(0.1 -0.1)">
       <use xlink:href="#DejaVuSans-51"/>
       <use x="63.623047" xlink:href="#DejaVuSans-48"/>
      </g>
     </g>
    </g>
   </g>
   <g id="matplotlib.axis_10">
    <g id="ytick_27">
     <g id="line2d_86">
      <g>
       <use style="stroke:#000000;stroke-width:0.8;" x="489.607067" xlink:href="#m9604d557ac" y="662.134872"/>
      </g>
     </g>
     <g id="text_74">
      <!-- 0 -->
      <g transform="translate(476.244567 665.934091)scale(0.1 -0.1)">
       <use xlink:href="#DejaVuSans-48"/>
      </g>
     </g>
    </g>
    <g id="ytick_28">
     <g id="line2d_87">
      <g>
       <use style="stroke:#000000;stroke-width:0.8;" x="489.607067" xlink:href="#m9604d557ac" y="596.154404"/>
      </g>
     </g>
     <g id="text_75">
      <!-- 20 -->
      <g transform="translate(469.882067 599.953623)scale(0.1 -0.1)">
       <use xlink:href="#DejaVuSans-50"/>
       <use x="63.623047" xlink:href="#DejaVuSans-48"/>
      </g>
     </g>
    </g>
    <g id="ytick_29">
     <g id="line2d_88">
      <g>
       <use style="stroke:#000000;stroke-width:0.8;" x="489.607067" xlink:href="#m9604d557ac" y="530.173937"/>
      </g>
     </g>
     <g id="text_76">
      <!-- 40 -->
      <g transform="translate(469.882067 533.973156)scale(0.1 -0.1)">
       <use xlink:href="#DejaVuSans-52"/>
       <use x="63.623047" xlink:href="#DejaVuSans-48"/>
      </g>
     </g>
    </g>
    <g id="ytick_30">
     <g id="line2d_89">
      <g>
       <use style="stroke:#000000;stroke-width:0.8;" x="489.607067" xlink:href="#m9604d557ac" y="464.19347"/>
      </g>
     </g>
     <g id="text_77">
      <!-- 60 -->
      <defs>
       <path d="M 33.015625 40.375 
Q 26.375 40.375 22.484375 35.828125 
Q 18.609375 31.296875 18.609375 23.390625 
Q 18.609375 15.53125 22.484375 10.953125 
Q 26.375 6.390625 33.015625 6.390625 
Q 39.65625 6.390625 43.53125 10.953125 
Q 47.40625 15.53125 47.40625 23.390625 
Q 47.40625 31.296875 43.53125 35.828125 
Q 39.65625 40.375 33.015625 40.375 
z
M 52.59375 71.296875 
L 52.59375 62.3125 
Q 48.875 64.0625 45.09375 64.984375 
Q 41.3125 65.921875 37.59375 65.921875 
Q 27.828125 65.921875 22.671875 59.328125 
Q 17.53125 52.734375 16.796875 39.40625 
Q 19.671875 43.65625 24.015625 45.921875 
Q 28.375 48.1875 33.59375 48.1875 
Q 44.578125 48.1875 50.953125 41.515625 
Q 57.328125 34.859375 57.328125 23.390625 
Q 57.328125 12.15625 50.6875 5.359375 
Q 44.046875 -1.421875 33.015625 -1.421875 
Q 20.359375 -1.421875 13.671875 8.265625 
Q 6.984375 17.96875 6.984375 36.375 
Q 6.984375 53.65625 15.1875 63.9375 
Q 23.390625 74.21875 37.203125 74.21875 
Q 40.921875 74.21875 44.703125 73.484375 
Q 48.484375 72.75 52.59375 71.296875 
z
" id="DejaVuSans-54"/>
      </defs>
      <g transform="translate(469.882067 467.992688)scale(0.1 -0.1)">
       <use xlink:href="#DejaVuSans-54"/>
       <use x="63.623047" xlink:href="#DejaVuSans-48"/>
      </g>
     </g>
    </g>
    <g id="ytick_31">
     <g id="line2d_90">
      <g>
       <use style="stroke:#000000;stroke-width:0.8;" x="489.607067" xlink:href="#m9604d557ac" y="398.213002"/>
      </g>
     </g>
     <g id="text_78">
      <!-- 80 -->
      <defs>
       <path d="M 31.78125 34.625 
Q 24.75 34.625 20.71875 30.859375 
Q 16.703125 27.09375 16.703125 20.515625 
Q 16.703125 13.921875 20.71875 10.15625 
Q 24.75 6.390625 31.78125 6.390625 
Q 38.8125 6.390625 42.859375 10.171875 
Q 46.921875 13.96875 46.921875 20.515625 
Q 46.921875 27.09375 42.890625 30.859375 
Q 38.875 34.625 31.78125 34.625 
z
M 21.921875 38.8125 
Q 15.578125 40.375 12.03125 44.71875 
Q 8.5 49.078125 8.5 55.328125 
Q 8.5 64.0625 14.71875 69.140625 
Q 20.953125 74.21875 31.78125 74.21875 
Q 42.671875 74.21875 48.875 69.140625 
Q 55.078125 64.0625 55.078125 55.328125 
Q 55.078125 49.078125 51.53125 44.71875 
Q 48 40.375 41.703125 38.8125 
Q 48.828125 37.15625 52.796875 32.3125 
Q 56.78125 27.484375 56.78125 20.515625 
Q 56.78125 9.90625 50.3125 4.234375 
Q 43.84375 -1.421875 31.78125 -1.421875 
Q 19.734375 -1.421875 13.25 4.234375 
Q 6.78125 9.90625 6.78125 20.515625 
Q 6.78125 27.484375 10.78125 32.3125 
Q 14.796875 37.15625 21.921875 38.8125 
z
M 18.3125 54.390625 
Q 18.3125 48.734375 21.84375 45.5625 
Q 25.390625 42.390625 31.78125 42.390625 
Q 38.140625 42.390625 41.71875 45.5625 
Q 45.3125 48.734375 45.3125 54.390625 
Q 45.3125 60.0625 41.71875 63.234375 
Q 38.140625 66.40625 31.78125 66.40625 
Q 25.390625 66.40625 21.84375 63.234375 
Q 18.3125 60.0625 18.3125 54.390625 
z
" id="DejaVuSans-56"/>
      </defs>
      <g transform="translate(469.882067 402.012221)scale(0.1 -0.1)">
       <use xlink:href="#DejaVuSans-56"/>
       <use x="63.623047" xlink:href="#DejaVuSans-48"/>
      </g>
     </g>
    </g>
   </g>
   <g id="line2d_91">
    <path clip-path="url(#p97561b4364)" d="M 507.3362 659.223796 
L 518.774351 391.405142 
L 530.212501 648.817672 
L 541.650652 663.324558 
L 553.088802 659.834095 
L 564.526953 403.962206 
L 575.965103 662.202902 
L 587.403254 669.247337 
L 598.841404 392.042511 
L 610.279555 655.441549 
L 621.717705 666.159719 
L 633.155856 418.657725 
L 644.594006 411.432528 
L 656.032157 430.416083 
L 667.470308 666.533858 
L 678.908458 659.393502 
L 690.346609 659.406766 
L 701.784759 653.599478 
L 713.22291 664.445113 
L 724.66106 648.897906 
L 736.099211 666.544605 
L 747.537361 666.157076 
L 758.975512 660.175155 
L 770.413662 661.75433 
L 781.851813 648.248821 
L 793.289963 425.186807 
L 804.728114 663.264466 
L 816.166265 390.447768 
L 827.604415 668.862306 
L 839.042566 649.193428 
L 850.480716 413.360793 
L 861.918867 648.019074 
" style="fill:none;stroke:#1f77b4;stroke-linecap:square;stroke-opacity:0.5;stroke-width:1.5;"/>
   </g>
   <g id="line2d_92">
    <path clip-path="url(#p97561b4364)" d="M 507.3362 643.455161 
L 518.774351 395.770574 
L 530.212501 657.628902 
L 541.650652 656.69089 
L 553.088802 643.15334 
L 564.526953 403.837516 
L 575.965103 656.839522 
L 587.403254 670.235481 
L 598.841404 395.934956 
L 610.279555 659.370805 
L 621.717705 668.059611 
L 633.155856 413.037566 
L 644.594006 395.505237 
L 656.032157 434.374725 
L 667.470308 662.098323 
L 678.908458 655.083348 
L 690.346609 642.739767 
L 701.784759 653.875833 
L 713.22291 648.522521 
L 724.66106 657.94916 
L 736.099211 663.037896 
L 747.537361 665.198292 
L 758.975512 658.984314 
L 770.413662 657.324452 
L 781.851813 657.65983 
L 793.289963 419.205188 
L 804.728114 656.899181 
L 816.166265 393.882505 
L 827.604415 667.114557 
L 839.042566 652.995962 
L 850.480716 397.259756 
L 861.918867 657.685314 
" style="fill:none;stroke:#ff7f0e;stroke-dasharray:5.55,2.4;stroke-dashoffset:0;stroke-opacity:0.5;stroke-width:1.5;"/>
   </g>
   <g id="patch_27">
    <path d="M 489.607067 684.224867 
L 489.607067 376.458382 
" style="fill:none;stroke:#000000;stroke-linecap:square;stroke-linejoin:miter;stroke-width:0.8;"/>
   </g>
   <g id="patch_28">
    <path d="M 879.648 684.224867 
L 879.648 376.458382 
" style="fill:none;stroke:#000000;stroke-linecap:square;stroke-linejoin:miter;stroke-width:0.8;"/>
   </g>
   <g id="patch_29">
    <path d="M 489.607067 684.224867 
L 879.648 684.224867 
" style="fill:none;stroke:#000000;stroke-linecap:square;stroke-linejoin:miter;stroke-width:0.8;"/>
   </g>
   <g id="patch_30">
    <path d="M 489.607067 376.458382 
L 879.648 376.458382 
" style="fill:none;stroke:#000000;stroke-linecap:square;stroke-linejoin:miter;stroke-width:0.8;"/>
   </g>
   <g id="text_79">
    <!-- rpy_y -->
    <g transform="translate(668.249408 370.458382)scale(0.12 -0.12)">
     <use xlink:href="#DejaVuSans-114"/>
     <use x="41.113281" xlink:href="#DejaVuSans-112"/>
     <use x="104.589844" xlink:href="#DejaVuSans-121"/>
     <use x="163.769531" xlink:href="#DejaVuSans-95"/>
     <use x="213.769531" xlink:href="#DejaVuSans-121"/>
    </g>
   </g>
   <g id="legend_5">
    <g id="patch_31">
     <path d="M 793.312062 546.519749 
L 872.648 546.519749 
Q 874.648 546.519749 874.648 544.519749 
L 874.648 516.163499 
Q 874.648 514.163499 872.648 514.163499 
L 793.312062 514.163499 
Q 791.312062 514.163499 791.312062 516.163499 
L 791.312062 544.519749 
Q 791.312062 546.519749 793.312062 546.519749 
z
" style="fill:#ffffff;opacity:0.8;stroke:#cccccc;stroke-linejoin:miter;"/>
    </g>
    <g id="line2d_93">
     <path d="M 795.312062 522.261937 
L 815.312062 522.261937 
" style="fill:none;stroke:#1f77b4;stroke-linecap:square;stroke-opacity:0.5;stroke-width:1.5;"/>
    </g>
    <g id="line2d_94"/>
    <g id="text_80">
     <!-- True -->
     <g transform="translate(823.312062 525.761937)scale(0.1 -0.1)">
      <use xlink:href="#DejaVuSans-84"/>
      <use x="60.865234" xlink:href="#DejaVuSans-114"/>
      <use x="101.978516" xlink:href="#DejaVuSans-117"/>
      <use x="165.357422" xlink:href="#DejaVuSans-101"/>
     </g>
    </g>
    <g id="line2d_95">
     <path d="M 795.312062 536.940062 
L 815.312062 536.940062 
" style="fill:none;stroke:#ff7f0e;stroke-dasharray:5.55,2.4;stroke-dashoffset:0;stroke-opacity:0.5;stroke-width:1.5;"/>
    </g>
    <g id="line2d_96"/>
    <g id="text_81">
     <!-- Predicted -->
     <g transform="translate(823.312062 540.440062)scale(0.1 -0.1)">
      <use xlink:href="#DejaVuSans-80"/>
      <use x="60.287109" xlink:href="#DejaVuSans-114"/>
      <use x="101.369141" xlink:href="#DejaVuSans-101"/>
      <use x="162.892578" xlink:href="#DejaVuSans-100"/>
      <use x="226.369141" xlink:href="#DejaVuSans-105"/>
      <use x="254.152344" xlink:href="#DejaVuSans-99"/>
      <use x="309.132812" xlink:href="#DejaVuSans-116"/>
      <use x="348.341797" xlink:href="#DejaVuSans-101"/>
      <use x="409.865234" xlink:href="#DejaVuSans-100"/>
     </g>
    </g>
   </g>
  </g>
  <g id="axes_6">
   <g id="patch_32">
    <path d="M 929.431067 684.224867 
L 1319.472 684.224867 
L 1319.472 376.458382 
L 929.431067 376.458382 
z
" style="fill:#ffffff;"/>
   </g>
   <g id="matplotlib.axis_11">
    <g id="xtick_36">
     <g id="line2d_97">
      <g>
       <use style="stroke:#000000;stroke-width:0.8;" x="947.1602" xlink:href="#me32c0f53c0" y="684.224867"/>
      </g>
     </g>
     <g id="text_82">
      <!-- 0 -->
      <g transform="translate(943.97895 698.823304)scale(0.1 -0.1)">
       <use xlink:href="#DejaVuSans-48"/>
      </g>
     </g>
    </g>
    <g id="xtick_37">
     <g id="line2d_98">
      <g>
       <use style="stroke:#000000;stroke-width:0.8;" x="1004.350953" xlink:href="#me32c0f53c0" y="684.224867"/>
      </g>
     </g>
     <g id="text_83">
      <!-- 5 -->
      <g transform="translate(1001.169703 698.823304)scale(0.1 -0.1)">
       <use xlink:href="#DejaVuSans-53"/>
      </g>
     </g>
    </g>
    <g id="xtick_38">
     <g id="line2d_99">
      <g>
       <use style="stroke:#000000;stroke-width:0.8;" x="1061.541705" xlink:href="#me32c0f53c0" y="684.224867"/>
      </g>
     </g>
     <g id="text_84">
      <!-- 10 -->
      <g transform="translate(1055.179205 698.823304)scale(0.1 -0.1)">
       <use xlink:href="#DejaVuSans-49"/>
       <use x="63.623047" xlink:href="#DejaVuSans-48"/>
      </g>
     </g>
    </g>
    <g id="xtick_39">
     <g id="line2d_100">
      <g>
       <use style="stroke:#000000;stroke-width:0.8;" x="1118.732458" xlink:href="#me32c0f53c0" y="684.224867"/>
      </g>
     </g>
     <g id="text_85">
      <!-- 15 -->
      <g transform="translate(1112.369958 698.823304)scale(0.1 -0.1)">
       <use xlink:href="#DejaVuSans-49"/>
       <use x="63.623047" xlink:href="#DejaVuSans-53"/>
      </g>
     </g>
    </g>
    <g id="xtick_40">
     <g id="line2d_101">
      <g>
       <use style="stroke:#000000;stroke-width:0.8;" x="1175.923211" xlink:href="#me32c0f53c0" y="684.224867"/>
      </g>
     </g>
     <g id="text_86">
      <!-- 20 -->
      <g transform="translate(1169.560711 698.823304)scale(0.1 -0.1)">
       <use xlink:href="#DejaVuSans-50"/>
       <use x="63.623047" xlink:href="#DejaVuSans-48"/>
      </g>
     </g>
    </g>
    <g id="xtick_41">
     <g id="line2d_102">
      <g>
       <use style="stroke:#000000;stroke-width:0.8;" x="1233.113963" xlink:href="#me32c0f53c0" y="684.224867"/>
      </g>
     </g>
     <g id="text_87">
      <!-- 25 -->
      <g transform="translate(1226.751463 698.823304)scale(0.1 -0.1)">
       <use xlink:href="#DejaVuSans-50"/>
       <use x="63.623047" xlink:href="#DejaVuSans-53"/>
      </g>
     </g>
    </g>
    <g id="xtick_42">
     <g id="line2d_103">
      <g>
       <use style="stroke:#000000;stroke-width:0.8;" x="1290.304716" xlink:href="#me32c0f53c0" y="684.224867"/>
      </g>
     </g>
     <g id="text_88">
      <!-- 30 -->
      <g transform="translate(1283.942216 698.823304)scale(0.1 -0.1)">
       <use xlink:href="#DejaVuSans-51"/>
       <use x="63.623047" xlink:href="#DejaVuSans-48"/>
      </g>
     </g>
    </g>
   </g>
   <g id="matplotlib.axis_12">
    <g id="ytick_32">
     <g id="line2d_104">
      <g>
       <use style="stroke:#000000;stroke-width:0.8;" x="929.431067" xlink:href="#m9604d557ac" y="668.805502"/>
      </g>
     </g>
     <g id="text_89">
      <!-- −80 -->
      <g transform="translate(901.326379 672.604721)scale(0.1 -0.1)">
       <use xlink:href="#DejaVuSans-8722"/>
       <use x="83.789062" xlink:href="#DejaVuSans-56"/>
       <use x="147.412109" xlink:href="#DejaVuSans-48"/>
      </g>
     </g>
    </g>
    <g id="ytick_33">
     <g id="line2d_105">
      <g>
       <use style="stroke:#000000;stroke-width:0.8;" x="929.431067" xlink:href="#m9604d557ac" y="632.991276"/>
      </g>
     </g>
     <g id="text_90">
      <!-- −60 -->
      <g transform="translate(901.326379 636.790495)scale(0.1 -0.1)">
       <use xlink:href="#DejaVuSans-8722"/>
       <use x="83.789062" xlink:href="#DejaVuSans-54"/>
       <use x="147.412109" xlink:href="#DejaVuSans-48"/>
      </g>
     </g>
    </g>
    <g id="ytick_34">
     <g id="line2d_106">
      <g>
       <use style="stroke:#000000;stroke-width:0.8;" x="929.431067" xlink:href="#m9604d557ac" y="597.17705"/>
      </g>
     </g>
     <g id="text_91">
      <!-- −40 -->
      <g transform="translate(901.326379 600.976268)scale(0.1 -0.1)">
       <use xlink:href="#DejaVuSans-8722"/>
       <use x="83.789062" xlink:href="#DejaVuSans-52"/>
       <use x="147.412109" xlink:href="#DejaVuSans-48"/>
      </g>
     </g>
    </g>
    <g id="ytick_35">
     <g id="line2d_107">
      <g>
       <use style="stroke:#000000;stroke-width:0.8;" x="929.431067" xlink:href="#m9604d557ac" y="561.362823"/>
      </g>
     </g>
     <g id="text_92">
      <!-- −20 -->
      <g transform="translate(901.326379 565.162042)scale(0.1 -0.1)">
       <use xlink:href="#DejaVuSans-8722"/>
       <use x="83.789062" xlink:href="#DejaVuSans-50"/>
       <use x="147.412109" xlink:href="#DejaVuSans-48"/>
      </g>
     </g>
    </g>
    <g id="ytick_36">
     <g id="line2d_108">
      <g>
       <use style="stroke:#000000;stroke-width:0.8;" x="929.431067" xlink:href="#m9604d557ac" y="525.548597"/>
      </g>
     </g>
     <g id="text_93">
      <!-- 0 -->
      <g transform="translate(916.068567 529.347816)scale(0.1 -0.1)">
       <use xlink:href="#DejaVuSans-48"/>
      </g>
     </g>
    </g>
    <g id="ytick_37">
     <g id="line2d_109">
      <g>
       <use style="stroke:#000000;stroke-width:0.8;" x="929.431067" xlink:href="#m9604d557ac" y="489.734371"/>
      </g>
     </g>
     <g id="text_94">
      <!-- 20 -->
      <g transform="translate(909.706067 493.53359)scale(0.1 -0.1)">
       <use xlink:href="#DejaVuSans-50"/>
       <use x="63.623047" xlink:href="#DejaVuSans-48"/>
      </g>
     </g>
    </g>
    <g id="ytick_38">
     <g id="line2d_110">
      <g>
       <use style="stroke:#000000;stroke-width:0.8;" x="929.431067" xlink:href="#m9604d557ac" y="453.920145"/>
      </g>
     </g>
     <g id="text_95">
      <!-- 40 -->
      <g transform="translate(909.706067 457.719363)scale(0.1 -0.1)">
       <use xlink:href="#DejaVuSans-52"/>
       <use x="63.623047" xlink:href="#DejaVuSans-48"/>
      </g>
     </g>
    </g>
    <g id="ytick_39">
     <g id="line2d_111">
      <g>
       <use style="stroke:#000000;stroke-width:0.8;" x="929.431067" xlink:href="#m9604d557ac" y="418.105918"/>
      </g>
     </g>
     <g id="text_96">
      <!-- 60 -->
      <g transform="translate(909.706067 421.905137)scale(0.1 -0.1)">
       <use xlink:href="#DejaVuSans-54"/>
       <use x="63.623047" xlink:href="#DejaVuSans-48"/>
      </g>
     </g>
    </g>
    <g id="ytick_40">
     <g id="line2d_112">
      <g>
       <use style="stroke:#000000;stroke-width:0.8;" x="929.431067" xlink:href="#m9604d557ac" y="382.291692"/>
      </g>
     </g>
     <g id="text_97">
      <!-- 80 -->
      <g transform="translate(909.706067 386.090911)scale(0.1 -0.1)">
       <use xlink:href="#DejaVuSans-56"/>
       <use x="63.623047" xlink:href="#DejaVuSans-48"/>
      </g>
     </g>
    </g>
   </g>
   <g id="line2d_113">
    <path clip-path="url(#p7a3fa812ad)" d="M 947.1602 651.662302 
L 958.598351 488.863904 
L 970.036501 663.232099 
L 981.474652 664.791266 
L 992.912802 654.335664 
L 1004.350953 500.557788 
L 1015.789103 665.240378 
L 1027.227254 394.158201 
L 1038.665404 487.576024 
L 1050.103555 397.449169 
L 1061.541705 398.217385 
L 1072.979856 522.295161 
L 1084.418006 474.97837 
L 1095.856157 504.388478 
L 1107.294308 398.65289 
L 1118.732458 393.944745 
L 1130.170609 652.560896 
L 1141.608759 395.43731 
L 1153.04691 654.632389 
L 1164.48506 663.928317 
L 1175.923211 400.133624 
L 1187.361361 398.822108 
L 1198.799512 666.597019 
L 1210.237662 665.44882 
L 1221.675813 661.479341 
L 1233.113963 522.891808 
L 1244.552114 664.638169 
L 1255.990265 486.271135 
L 1267.428415 395.479211 
L 1278.866566 396.304549 
L 1290.304716 476.227932 
L 1301.742867 660.688746 
" style="fill:none;stroke:#1f77b4;stroke-linecap:square;stroke-opacity:0.5;stroke-width:1.5;"/>
   </g>
   <g id="line2d_114">
    <path clip-path="url(#p7a3fa812ad)" d="M 947.1602 638.95348 
L 958.598351 496.146125 
L 970.036501 669.028945 
L 981.474652 662.618127 
L 992.912802 645.098606 
L 1004.350953 498.420013 
L 1015.789103 662.611569 
L 1027.227254 393.561511 
L 1038.665404 495.096859 
L 1050.103555 390.447768 
L 1061.541705 399.79501 
L 1072.979856 521.959738 
L 1084.418006 470.07049 
L 1095.856157 507.545564 
L 1107.294308 399.553123 
L 1118.732458 391.756018 
L 1130.170609 641.316665 
L 1141.608759 395.937423 
L 1153.04691 654.140556 
L 1164.48506 669.390156 
L 1175.923211 402.298552 
L 1187.361361 399.26663 
L 1198.799512 666.516932 
L 1210.237662 663.657358 
L 1221.675813 669.794539 
L 1233.113963 524.331677 
L 1244.552114 663.374225 
L 1255.990265 496.015574 
L 1267.428415 391.817374 
L 1278.866566 394.295669 
L 1290.304716 470.531092 
L 1301.742867 670.235481 
" style="fill:none;stroke:#ff7f0e;stroke-dasharray:5.55,2.4;stroke-dashoffset:0;stroke-opacity:0.5;stroke-width:1.5;"/>
   </g>
   <g id="patch_33">
    <path d="M 929.431067 684.224867 
L 929.431067 376.458382 
" style="fill:none;stroke:#000000;stroke-linecap:square;stroke-linejoin:miter;stroke-width:0.8;"/>
   </g>
   <g id="patch_34">
    <path d="M 1319.472 684.224867 
L 1319.472 376.458382 
" style="fill:none;stroke:#000000;stroke-linecap:square;stroke-linejoin:miter;stroke-width:0.8;"/>
   </g>
   <g id="patch_35">
    <path d="M 929.431067 684.224867 
L 1319.472 684.224867 
" style="fill:none;stroke:#000000;stroke-linecap:square;stroke-linejoin:miter;stroke-width:0.8;"/>
   </g>
   <g id="patch_36">
    <path d="M 929.431067 376.458382 
L 1319.472 376.458382 
" style="fill:none;stroke:#000000;stroke-linecap:square;stroke-linejoin:miter;stroke-width:0.8;"/>
   </g>
   <g id="text_98">
    <!-- rpy_z -->
    <g transform="translate(1108.475596 370.458382)scale(0.12 -0.12)">
     <use xlink:href="#DejaVuSans-114"/>
     <use x="41.113281" xlink:href="#DejaVuSans-112"/>
     <use x="104.589844" xlink:href="#DejaVuSans-121"/>
     <use x="163.769531" xlink:href="#DejaVuSans-95"/>
     <use x="213.769531" xlink:href="#DejaVuSans-122"/>
    </g>
   </g>
   <g id="legend_6">
    <g id="patch_37">
     <path d="M 936.431067 413.814632 
L 1015.767004 413.814632 
Q 1017.767004 413.814632 1017.767004 411.814632 
L 1017.767004 383.458382 
Q 1017.767004 381.458382 1015.767004 381.458382 
L 936.431067 381.458382 
Q 934.431067 381.458382 934.431067 383.458382 
L 934.431067 411.814632 
Q 934.431067 413.814632 936.431067 413.814632 
z
" style="fill:#ffffff;opacity:0.8;stroke:#cccccc;stroke-linejoin:miter;"/>
    </g>
    <g id="line2d_115">
     <path d="M 938.431067 389.55682 
L 958.431067 389.55682 
" style="fill:none;stroke:#1f77b4;stroke-linecap:square;stroke-opacity:0.5;stroke-width:1.5;"/>
    </g>
    <g id="line2d_116"/>
    <g id="text_99">
     <!-- True -->
     <g transform="translate(966.431067 393.05682)scale(0.1 -0.1)">
      <use xlink:href="#DejaVuSans-84"/>
      <use x="60.865234" xlink:href="#DejaVuSans-114"/>
      <use x="101.978516" xlink:href="#DejaVuSans-117"/>
      <use x="165.357422" xlink:href="#DejaVuSans-101"/>
     </g>
    </g>
    <g id="line2d_117">
     <path d="M 938.431067 404.234945 
L 958.431067 404.234945 
" style="fill:none;stroke:#ff7f0e;stroke-dasharray:5.55,2.4;stroke-dashoffset:0;stroke-opacity:0.5;stroke-width:1.5;"/>
    </g>
    <g id="line2d_118"/>
    <g id="text_100">
     <!-- Predicted -->
     <g transform="translate(966.431067 407.734945)scale(0.1 -0.1)">
      <use xlink:href="#DejaVuSans-80"/>
      <use x="60.287109" xlink:href="#DejaVuSans-114"/>
      <use x="101.369141" xlink:href="#DejaVuSans-101"/>
      <use x="162.892578" xlink:href="#DejaVuSans-100"/>
      <use x="226.369141" xlink:href="#DejaVuSans-105"/>
      <use x="254.152344" xlink:href="#DejaVuSans-99"/>
      <use x="309.132812" xlink:href="#DejaVuSans-116"/>
      <use x="348.341797" xlink:href="#DejaVuSans-101"/>
      <use x="409.865234" xlink:href="#DejaVuSans-100"/>
     </g>
    </g>
   </g>
  </g>
  <g id="text_101">
   <!-- Sample 1 -->
   <defs>
    <path d="M 53.515625 70.515625 
L 53.515625 60.890625 
Q 47.90625 63.578125 42.921875 64.890625 
Q 37.9375 66.21875 33.296875 66.21875 
Q 25.25 66.21875 20.875 63.09375 
Q 16.5 59.96875 16.5 54.203125 
Q 16.5 49.359375 19.40625 46.890625 
Q 22.3125 44.4375 30.421875 42.921875 
L 36.375 41.703125 
Q 47.40625 39.59375 52.65625 34.296875 
Q 57.90625 29 57.90625 20.125 
Q 57.90625 9.515625 50.796875 4.046875 
Q 43.703125 -1.421875 29.984375 -1.421875 
Q 24.8125 -1.421875 18.96875 -0.25 
Q 13.140625 0.921875 6.890625 3.21875 
L 6.890625 13.375 
Q 12.890625 10.015625 18.65625 8.296875 
Q 24.421875 6.59375 29.984375 6.59375 
Q 38.421875 6.59375 43.015625 9.90625 
Q 47.609375 13.234375 47.609375 19.390625 
Q 47.609375 24.75 44.3125 27.78125 
Q 41.015625 30.8125 33.5 32.328125 
L 27.484375 33.5 
Q 16.453125 35.6875 11.515625 40.375 
Q 6.59375 45.0625 6.59375 53.421875 
Q 6.59375 63.09375 13.40625 68.65625 
Q 20.21875 74.21875 32.171875 74.21875 
Q 37.3125 74.21875 42.625 73.28125 
Q 47.953125 72.359375 53.515625 70.515625 
z
" id="DejaVuSans-83"/>
    <path d="M 52 44.1875 
Q 55.375 50.25 60.0625 53.125 
Q 64.75 56 71.09375 56 
Q 79.640625 56 84.28125 50.015625 
Q 88.921875 44.046875 88.921875 33.015625 
L 88.921875 0 
L 79.890625 0 
L 79.890625 32.71875 
Q 79.890625 40.578125 77.09375 44.375 
Q 74.3125 48.1875 68.609375 48.1875 
Q 61.625 48.1875 57.5625 43.546875 
Q 53.515625 38.921875 53.515625 30.90625 
L 53.515625 0 
L 44.484375 0 
L 44.484375 32.71875 
Q 44.484375 40.625 41.703125 44.40625 
Q 38.921875 48.1875 33.109375 48.1875 
Q 26.21875 48.1875 22.15625 43.53125 
Q 18.109375 38.875 18.109375 30.90625 
L 18.109375 0 
L 9.078125 0 
L 9.078125 54.6875 
L 18.109375 54.6875 
L 18.109375 46.1875 
Q 21.1875 51.21875 25.484375 53.609375 
Q 29.78125 56 35.6875 56 
Q 41.65625 56 45.828125 52.96875 
Q 50 49.953125 52 44.1875 
z
" id="DejaVuSans-109"/>
    <path id="DejaVuSans-32"/>
   </defs>
   <g transform="translate(637.0575 23.258925)scale(0.12 -0.12)">
    <use xlink:href="#DejaVuSans-83"/>
    <use x="63.476562" xlink:href="#DejaVuSans-97"/>
    <use x="124.755859" xlink:href="#DejaVuSans-109"/>
    <use x="222.167969" xlink:href="#DejaVuSans-112"/>
    <use x="285.644531" xlink:href="#DejaVuSans-108"/>
    <use x="313.427734" xlink:href="#DejaVuSans-101"/>
    <use x="374.951172" xlink:href="#DejaVuSans-32"/>
    <use x="406.738281" xlink:href="#DejaVuSans-49"/>
   </g>
  </g>
 </g>
 <defs>
  <clipPath id="p3f7ce422c3">
   <rect height="307.766485" width="390.040933" x="49.783067" y="35.352"/>
  </clipPath>
  <clipPath id="p9bdf460101">
   <rect height="307.766485" width="390.040933" x="489.607067" y="35.352"/>
  </clipPath>
  <clipPath id="p40da6f915d">
   <rect height="307.766485" width="390.040933" x="929.431067" y="35.352"/>
  </clipPath>
  <clipPath id="pc3495bf3b0">
   <rect height="307.766485" width="390.040933" x="49.783067" y="376.458382"/>
  </clipPath>
  <clipPath id="p97561b4364">
   <rect height="307.766485" width="390.040933" x="489.607067" y="376.458382"/>
  </clipPath>
  <clipPath id="p7a3fa812ad">
   <rect height="307.766485" width="390.040933" x="929.431067" y="376.458382"/>
  </clipPath>
 </defs>
</svg>
