<?xml version="1.0" encoding="utf-8" standalone="no"?>
<!DOCTYPE svg PUBLIC "-//W3C//DTD SVG 1.1//EN"
  "http://www.w3.org/Graphics/SVG/1.1/DTD/svg11.dtd">
<svg xmlns:xlink="http://www.w3.org/1999/xlink" width="1330.56pt" height="703.44pt" viewBox="0 0 1330.56 703.44" xmlns="http://www.w3.org/2000/svg" version="1.1">
 <metadata>
  <rdf:RDF xmlns:dc="http://purl.org/dc/elements/1.1/" xmlns:cc="http://creativecommons.org/ns#" xmlns:rdf="http://www.w3.org/1999/02/22-rdf-syntax-ns#">
   <cc:Work>
    <dc:type rdf:resource="http://purl.org/dc/dcmitype/StillImage"/>
    <dc:date>2025-11-11T17:43:25.935736</dc:date>
    <dc:format>image/svg+xml</dc:format>
    <dc:creator>
     <cc:Agent>
      <dc:title>Matplotlib v3.7.5, https://matplotlib.org/</dc:title>
     </cc:Agent>
    </dc:creator>
   </cc:Work>
  </rdf:RDF>
 </metadata>
 <defs>
  <style type="text/css">*{stroke-linejoin: round; stroke-linecap: butt}</style>
 </defs>
 <g id="figure_1">
  <g id="patch_1">
   <path d="M 0 703.44 
L 1330.56 703.44 
L 1330.56 0 
L 0 0 
z
" style="fill: #ffffff"/>
  </g>
  <g id="axes_1">
   <g id="patch_2">
    <path d="M 49.598267 340.498315 
L 439.824 340.498315 
L 439.824 35.172 
L 49.598267 35.172 
z
" style="fill: #ffffff"/>
   </g>
   <g id="matplotlib.axis_1">
    <g id="xtick_1">
     <g id="line2d_1">
      <defs>
       <path id="m041b136c18" d="M 0 0 
L 0 3.5 
" style="stroke: #000000; stroke-width: 0.8"/>
      </defs>
      <g>
       <use xlink:href="#m041b136c18" x="67.3358" y="340.498315" style="stroke: #000000; stroke-width: 0.8"/>
      </g>
     </g>
     <g id="text_1">
      <!-- 0 -->
      <g transform="translate(64.15455 355.096753) scale(0.1 -0.1)">
       <defs>
        <path id="DejaVuSans-30" d="M 2034 4250 
Q 1547 4250 1301 3770 
Q 1056 3291 1056 2328 
Q 1056 1369 1301 889 
Q 1547 409 2034 409 
Q 2525 409 2770 889 
Q 3016 1369 3016 2328 
Q 3016 3291 2770 3770 
Q 2525 4250 2034 4250 
z
M 2034 4750 
Q 2819 4750 3233 4129 
Q 3647 3509 3647 2328 
Q 3647 1150 3233 529 
Q 2819 -91 2034 -91 
Q 1250 -91 836 529 
Q 422 1150 422 2328 
Q 422 3509 836 4129 
Q 1250 4750 2034 4750 
z
" transform="scale(0.015625)"/>
       </defs>
       <use xlink:href="#DejaVuSans-30"/>
      </g>
     </g>
    </g>
    <g id="xtick_2">
     <g id="line2d_2">
      <g>
       <use xlink:href="#m041b136c18" x="124.553649" y="340.498315" style="stroke: #000000; stroke-width: 0.8"/>
      </g>
     </g>
     <g id="text_2">
      <!-- 5 -->
      <g transform="translate(121.372399 355.096753) scale(0.1 -0.1)">
       <defs>
        <path id="DejaVuSans-35" d="M 691 4666 
L 3169 4666 
L 3169 4134 
L 1269 4134 
L 1269 2991 
Q 1406 3038 1543 3061 
Q 1681 3084 1819 3084 
Q 2600 3084 3056 2656 
Q 3513 2228 3513 1497 
Q 3513 744 3044 326 
Q 2575 -91 1722 -91 
Q 1428 -91 1123 -41 
Q 819 9 494 109 
L 494 744 
Q 775 591 1075 516 
Q 1375 441 1709 441 
Q 2250 441 2565 725 
Q 2881 1009 2881 1497 
Q 2881 1984 2565 2268 
Q 2250 2553 1709 2553 
Q 1456 2553 1204 2497 
Q 953 2441 691 2322 
L 691 4666 
z
" transform="scale(0.015625)"/>
       </defs>
       <use xlink:href="#DejaVuSans-35"/>
      </g>
     </g>
    </g>
    <g id="xtick_3">
     <g id="line2d_3">
      <g>
       <use xlink:href="#m041b136c18" x="181.771499" y="340.498315" style="stroke: #000000; stroke-width: 0.8"/>
      </g>
     </g>
     <g id="text_3">
      <!-- 10 -->
      <g transform="translate(175.408999 355.096753) scale(0.1 -0.1)">
       <defs>
        <path id="DejaVuSans-31" d="M 794 531 
L 1825 531 
L 1825 4091 
L 703 3866 
L 703 4441 
L 1819 4666 
L 2450 4666 
L 2450 531 
L 3481 531 
L 3481 0 
L 794 0 
L 794 531 
z
" transform="scale(0.015625)"/>
       </defs>
       <use xlink:href="#DejaVuSans-31"/>
       <use xlink:href="#DejaVuSans-30" x="63.623047"/>
      </g>
     </g>
    </g>
    <g id="xtick_4">
     <g id="line2d_4">
      <g>
       <use xlink:href="#m041b136c18" x="238.989348" y="340.498315" style="stroke: #000000; stroke-width: 0.8"/>
      </g>
     </g>
     <g id="text_4">
      <!-- 15 -->
      <g transform="translate(232.626848 355.096753) scale(0.1 -0.1)">
       <use xlink:href="#DejaVuSans-31"/>
       <use xlink:href="#DejaVuSans-35" x="63.623047"/>
      </g>
     </g>
    </g>
    <g id="xtick_5">
     <g id="line2d_5">
      <g>
       <use xlink:href="#m041b136c18" x="296.207198" y="340.498315" style="stroke: #000000; stroke-width: 0.8"/>
      </g>
     </g>
     <g id="text_5">
      <!-- 20 -->
      <g transform="translate(289.844698 355.096753) scale(0.1 -0.1)">
       <defs>
        <path id="DejaVuSans-32" d="M 1228 531 
L 3431 531 
L 3431 0 
L 469 0 
L 469 531 
Q 828 903 1448 1529 
Q 2069 2156 2228 2338 
Q 2531 2678 2651 2914 
Q 2772 3150 2772 3378 
Q 2772 3750 2511 3984 
Q 2250 4219 1831 4219 
Q 1534 4219 1204 4116 
Q 875 4013 500 3803 
L 500 4441 
Q 881 4594 1212 4672 
Q 1544 4750 1819 4750 
Q 2544 4750 2975 4387 
Q 3406 4025 3406 3419 
Q 3406 3131 3298 2873 
Q 3191 2616 2906 2266 
Q 2828 2175 2409 1742 
Q 1991 1309 1228 531 
z
" transform="scale(0.015625)"/>
       </defs>
       <use xlink:href="#DejaVuSans-32"/>
       <use xlink:href="#DejaVuSans-30" x="63.623047"/>
      </g>
     </g>
    </g>
    <g id="xtick_6">
     <g id="line2d_6">
      <g>
       <use xlink:href="#m041b136c18" x="353.425047" y="340.498315" style="stroke: #000000; stroke-width: 0.8"/>
      </g>
     </g>
     <g id="text_6">
      <!-- 25 -->
      <g transform="translate(347.062547 355.096753) scale(0.1 -0.1)">
       <use xlink:href="#DejaVuSans-32"/>
       <use xlink:href="#DejaVuSans-35" x="63.623047"/>
      </g>
     </g>
    </g>
    <g id="xtick_7">
     <g id="line2d_7">
      <g>
       <use xlink:href="#m041b136c18" x="410.642897" y="340.498315" style="stroke: #000000; stroke-width: 0.8"/>
      </g>
     </g>
     <g id="text_7">
      <!-- 30 -->
      <g transform="translate(404.280397 355.096753) scale(0.1 -0.1)">
       <defs>
        <path id="DejaVuSans-33" d="M 2597 2516 
Q 3050 2419 3304 2112 
Q 3559 1806 3559 1356 
Q 3559 666 3084 287 
Q 2609 -91 1734 -91 
Q 1441 -91 1130 -33 
Q 819 25 488 141 
L 488 750 
Q 750 597 1062 519 
Q 1375 441 1716 441 
Q 2309 441 2620 675 
Q 2931 909 2931 1356 
Q 2931 1769 2642 2001 
Q 2353 2234 1838 2234 
L 1294 2234 
L 1294 2753 
L 1863 2753 
Q 2328 2753 2575 2939 
Q 2822 3125 2822 3475 
Q 2822 3834 2567 4026 
Q 2313 4219 1838 4219 
Q 1578 4219 1281 4162 
Q 984 4106 628 3988 
L 628 4550 
Q 988 4650 1302 4700 
Q 1616 4750 1894 4750 
Q 2613 4750 3031 4423 
Q 3450 4097 3450 3541 
Q 3450 3153 3228 2886 
Q 3006 2619 2597 2516 
z
" transform="scale(0.015625)"/>
       </defs>
       <use xlink:href="#DejaVuSans-33"/>
       <use xlink:href="#DejaVuSans-30" x="63.623047"/>
      </g>
     </g>
    </g>
   </g>
   <g id="matplotlib.axis_2">
    <g id="ytick_1">
     <g id="line2d_8">
      <defs>
       <path id="mc294432ff3" d="M 0 0 
L -3.5 0 
" style="stroke: #000000; stroke-width: 0.8"/>
      </defs>
      <g>
       <use xlink:href="#mc294432ff3" x="49.598267" y="337.707908" style="stroke: #000000; stroke-width: 0.8"/>
      </g>
     </g>
     <g id="text_8">
      <!-- −0.03 -->
      <g transform="translate(11.952954 341.507127) scale(0.1 -0.1)">
       <defs>
        <path id="DejaVuSans-2212" d="M 678 2272 
L 4684 2272 
L 4684 1741 
L 678 1741 
L 678 2272 
z
" transform="scale(0.015625)"/>
        <path id="DejaVuSans-2e" d="M 684 794 
L 1344 794 
L 1344 0 
L 684 0 
L 684 794 
z
" transform="scale(0.015625)"/>
       </defs>
       <use xlink:href="#DejaVuSans-2212"/>
       <use xlink:href="#DejaVuSans-30" x="83.789062"/>
       <use xlink:href="#DejaVuSans-2e" x="147.412109"/>
       <use xlink:href="#DejaVuSans-30" x="179.199219"/>
       <use xlink:href="#DejaVuSans-33" x="242.822266"/>
      </g>
     </g>
    </g>
    <g id="ytick_2">
     <g id="line2d_9">
      <g>
       <use xlink:href="#mc294432ff3" x="49.598267" y="275.977233" style="stroke: #000000; stroke-width: 0.8"/>
      </g>
     </g>
     <g id="text_9">
      <!-- −0.02 -->
      <g transform="translate(11.952954 279.776452) scale(0.1 -0.1)">
       <use xlink:href="#DejaVuSans-2212"/>
       <use xlink:href="#DejaVuSans-30" x="83.789062"/>
       <use xlink:href="#DejaVuSans-2e" x="147.412109"/>
       <use xlink:href="#DejaVuSans-30" x="179.199219"/>
       <use xlink:href="#DejaVuSans-32" x="242.822266"/>
      </g>
     </g>
    </g>
    <g id="ytick_3">
     <g id="line2d_10">
      <g>
       <use xlink:href="#mc294432ff3" x="49.598267" y="214.246557" style="stroke: #000000; stroke-width: 0.8"/>
      </g>
     </g>
     <g id="text_10">
      <!-- −0.01 -->
      <g transform="translate(11.952954 218.045776) scale(0.1 -0.1)">
       <use xlink:href="#DejaVuSans-2212"/>
       <use xlink:href="#DejaVuSans-30" x="83.789062"/>
       <use xlink:href="#DejaVuSans-2e" x="147.412109"/>
       <use xlink:href="#DejaVuSans-30" x="179.199219"/>
       <use xlink:href="#DejaVuSans-31" x="242.822266"/>
      </g>
     </g>
    </g>
    <g id="ytick_4">
     <g id="line2d_11">
      <g>
       <use xlink:href="#mc294432ff3" x="49.598267" y="152.515882" style="stroke: #000000; stroke-width: 0.8"/>
      </g>
     </g>
     <g id="text_11">
      <!-- 0.00 -->
      <g transform="translate(20.332642 156.315101) scale(0.1 -0.1)">
       <use xlink:href="#DejaVuSans-30"/>
       <use xlink:href="#DejaVuSans-2e" x="63.623047"/>
       <use xlink:href="#DejaVuSans-30" x="95.410156"/>
       <use xlink:href="#DejaVuSans-30" x="159.033203"/>
      </g>
     </g>
    </g>
    <g id="ytick_5">
     <g id="line2d_12">
      <g>
       <use xlink:href="#mc294432ff3" x="49.598267" y="90.785206" style="stroke: #000000; stroke-width: 0.8"/>
      </g>
     </g>
     <g id="text_12">
      <!-- 0.01 -->
      <g transform="translate(20.332642 94.584425) scale(0.1 -0.1)">
       <use xlink:href="#DejaVuSans-30"/>
       <use xlink:href="#DejaVuSans-2e" x="63.623047"/>
       <use xlink:href="#DejaVuSans-30" x="95.410156"/>
       <use xlink:href="#DejaVuSans-31" x="159.033203"/>
      </g>
     </g>
    </g>
   </g>
   <g id="line2d_13">
    <path d="M 67.3358 236.325155 
L 78.77937 61.794014 
L 90.22294 110.331237 
L 101.66651 134.736707 
L 113.11008 259.196983 
L 124.553649 65.984292 
L 135.997219 113.61494 
L 147.440789 83.648524 
L 158.884359 55.37958 
L 170.327929 168.523573 
L 181.771499 255.725873 
L 193.215069 84.887459 
L 204.658639 326.619846 
L 216.102209 156.49656 
L 227.545778 65.533659 
L 238.989348 214.271248 
L 250.432918 236.944312 
L 261.876488 223.446282 
L 273.320058 110.646188 
L 284.763628 109.362065 
L 296.207198 63.288514 
L 307.650768 250.329993 
L 319.094338 142.883305 
L 330.537908 115.311111 
L 341.981477 134.477932 
L 353.425047 100.092959 
L 364.868617 142.915836 
L 376.312187 54.848074 
L 387.755757 92.26798 
L 399.199327 222.036345 
L 410.642897 317.633102 
L 422.086467 129.633185 
" clip-path="url(#pa3511b3040)" style="fill: none; stroke: #1f77b4; stroke-opacity: 0.5; stroke-width: 1.5; stroke-linecap: square"/>
   </g>
   <g id="line2d_14">
    <path d="M 67.3358 245.878544 
L 78.77937 49.842226 
L 90.22294 115.724956 
L 101.66651 116.537861 
L 113.11008 226.434155 
L 124.553649 58.884702 
L 135.997219 112.831431 
L 147.440789 77.488391 
L 158.884359 49.050469 
L 170.327929 182.462303 
L 181.771499 240.609317 
L 193.215069 80.559977 
L 204.658639 201.245773 
L 216.102209 166.906266 
L 227.545778 96.675328 
L 238.989348 178.39816 
L 250.432918 233.857887 
L 261.876488 197.970943 
L 273.320058 112.421665 
L 284.763628 115.219036 
L 296.207198 104.727406 
L 307.650768 251.662604 
L 319.094338 112.58137 
L 330.537908 114.02311 
L 341.981477 119.180465 
L 353.425047 87.225188 
L 364.868617 117.130089 
L 376.312187 51.760614 
L 387.755757 131.842646 
L 399.199327 223.479144 
L 410.642897 203.021008 
L 422.086467 120.530289 
" clip-path="url(#pa3511b3040)" style="fill: none; stroke-dasharray: 5.55,2.4; stroke-dashoffset: 0; stroke: #ff7f0e; stroke-opacity: 0.5; stroke-width: 1.5"/>
   </g>
   <g id="patch_3">
    <path d="M 49.598267 340.498315 
L 49.598267 35.172 
" style="fill: none; stroke: #000000; stroke-width: 0.8; stroke-linejoin: miter; stroke-linecap: square"/>
   </g>
   <g id="patch_4">
    <path d="M 439.824 340.498315 
L 439.824 35.172 
" style="fill: none; stroke: #000000; stroke-width: 0.8; stroke-linejoin: miter; stroke-linecap: square"/>
   </g>
   <g id="patch_5">
    <path d="M 49.598267 340.498315 
L 439.824 340.498315 
" style="fill: none; stroke: #000000; stroke-width: 0.8; stroke-linejoin: miter; stroke-linecap: square"/>
   </g>
   <g id="patch_6">
    <path d="M 49.598267 35.172 
L 439.824 35.172 
" style="fill: none; stroke: #000000; stroke-width: 0.8; stroke-linejoin: miter; stroke-linecap: square"/>
   </g>
   <g id="text_13">
    <!-- translation_x -->
    <g transform="translate(205.899571 29.172) scale(0.12 -0.12)">
     <defs>
      <path id="DejaVuSans-74" d="M 1172 4494 
L 1172 3500 
L 2356 3500 
L 2356 3053 
L 1172 3053 
L 1172 1153 
Q 1172 725 1289 603 
Q 1406 481 1766 481 
L 2356 481 
L 2356 0 
L 1766 0 
Q 1100 0 847 248 
Q 594 497 594 1153 
L 594 3053 
L 172 3053 
L 172 3500 
L 594 3500 
L 594 4494 
L 1172 4494 
z
" transform="scale(0.015625)"/>
      <path id="DejaVuSans-72" d="M 2631 2963 
Q 2534 3019 2420 3045 
Q 2306 3072 2169 3072 
Q 1681 3072 1420 2755 
Q 1159 2438 1159 1844 
L 1159 0 
L 581 0 
L 581 3500 
L 1159 3500 
L 1159 2956 
Q 1341 3275 1631 3429 
Q 1922 3584 2338 3584 
Q 2397 3584 2469 3576 
Q 2541 3569 2628 3553 
L 2631 2963 
z
" transform="scale(0.015625)"/>
      <path id="DejaVuSans-61" d="M 2194 1759 
Q 1497 1759 1228 1600 
Q 959 1441 959 1056 
Q 959 750 1161 570 
Q 1363 391 1709 391 
Q 2188 391 2477 730 
Q 2766 1069 2766 1631 
L 2766 1759 
L 2194 1759 
z
M 3341 1997 
L 3341 0 
L 2766 0 
L 2766 531 
Q 2569 213 2275 61 
Q 1981 -91 1556 -91 
Q 1019 -91 701 211 
Q 384 513 384 1019 
Q 384 1609 779 1909 
Q 1175 2209 1959 2209 
L 2766 2209 
L 2766 2266 
Q 2766 2663 2505 2880 
Q 2244 3097 1772 3097 
Q 1472 3097 1187 3025 
Q 903 2953 641 2809 
L 641 3341 
Q 956 3463 1253 3523 
Q 1550 3584 1831 3584 
Q 2591 3584 2966 3190 
Q 3341 2797 3341 1997 
z
" transform="scale(0.015625)"/>
      <path id="DejaVuSans-6e" d="M 3513 2113 
L 3513 0 
L 2938 0 
L 2938 2094 
Q 2938 2591 2744 2837 
Q 2550 3084 2163 3084 
Q 1697 3084 1428 2787 
Q 1159 2491 1159 1978 
L 1159 0 
L 581 0 
L 581 3500 
L 1159 3500 
L 1159 2956 
Q 1366 3272 1645 3428 
Q 1925 3584 2291 3584 
Q 2894 3584 3203 3211 
Q 3513 2838 3513 2113 
z
" transform="scale(0.015625)"/>
      <path id="DejaVuSans-73" d="M 2834 3397 
L 2834 2853 
Q 2591 2978 2328 3040 
Q 2066 3103 1784 3103 
Q 1356 3103 1142 2972 
Q 928 2841 928 2578 
Q 928 2378 1081 2264 
Q 1234 2150 1697 2047 
L 1894 2003 
Q 2506 1872 2764 1633 
Q 3022 1394 3022 966 
Q 3022 478 2636 193 
Q 2250 -91 1575 -91 
Q 1294 -91 989 -36 
Q 684 19 347 128 
L 347 722 
Q 666 556 975 473 
Q 1284 391 1588 391 
Q 1994 391 2212 530 
Q 2431 669 2431 922 
Q 2431 1156 2273 1281 
Q 2116 1406 1581 1522 
L 1381 1569 
Q 847 1681 609 1914 
Q 372 2147 372 2553 
Q 372 3047 722 3315 
Q 1072 3584 1716 3584 
Q 2034 3584 2315 3537 
Q 2597 3491 2834 3397 
z
" transform="scale(0.015625)"/>
      <path id="DejaVuSans-6c" d="M 603 4863 
L 1178 4863 
L 1178 0 
L 603 0 
L 603 4863 
z
" transform="scale(0.015625)"/>
      <path id="DejaVuSans-69" d="M 603 3500 
L 1178 3500 
L 1178 0 
L 603 0 
L 603 3500 
z
M 603 4863 
L 1178 4863 
L 1178 4134 
L 603 4134 
L 603 4863 
z
" transform="scale(0.015625)"/>
      <path id="DejaVuSans-6f" d="M 1959 3097 
Q 1497 3097 1228 2736 
Q 959 2375 959 1747 
Q 959 1119 1226 758 
Q 1494 397 1959 397 
Q 2419 397 2687 759 
Q 2956 1122 2956 1747 
Q 2956 2369 2687 2733 
Q 2419 3097 1959 3097 
z
M 1959 3584 
Q 2709 3584 3137 3096 
Q 3566 2609 3566 1747 
Q 3566 888 3137 398 
Q 2709 -91 1959 -91 
Q 1206 -91 779 398 
Q 353 888 353 1747 
Q 353 2609 779 3096 
Q 1206 3584 1959 3584 
z
" transform="scale(0.015625)"/>
      <path id="DejaVuSans-5f" d="M 3263 -1063 
L 3263 -1509 
L -63 -1509 
L -63 -1063 
L 3263 -1063 
z
" transform="scale(0.015625)"/>
      <path id="DejaVuSans-78" d="M 3513 3500 
L 2247 1797 
L 3578 0 
L 2900 0 
L 1881 1375 
L 863 0 
L 184 0 
L 1544 1831 
L 300 3500 
L 978 3500 
L 1906 2253 
L 2834 3500 
L 3513 3500 
z
" transform="scale(0.015625)"/>
     </defs>
     <use xlink:href="#DejaVuSans-74"/>
     <use xlink:href="#DejaVuSans-72" x="39.208984"/>
     <use xlink:href="#DejaVuSans-61" x="80.322266"/>
     <use xlink:href="#DejaVuSans-6e" x="141.601562"/>
     <use xlink:href="#DejaVuSans-73" x="204.980469"/>
     <use xlink:href="#DejaVuSans-6c" x="257.080078"/>
     <use xlink:href="#DejaVuSans-61" x="284.863281"/>
     <use xlink:href="#DejaVuSans-74" x="346.142578"/>
     <use xlink:href="#DejaVuSans-69" x="385.351562"/>
     <use xlink:href="#DejaVuSans-6f" x="413.134766"/>
     <use xlink:href="#DejaVuSans-6e" x="474.316406"/>
     <use xlink:href="#DejaVuSans-5f" x="537.695312"/>
     <use xlink:href="#DejaVuSans-78" x="587.695312"/>
    </g>
   </g>
   <g id="legend_1">
    <g id="patch_7">
     <path d="M 56.598267 335.498315 
L 135.538892 335.498315 
Q 137.538892 335.498315 137.538892 333.498315 
L 137.538892 305.142065 
Q 137.538892 303.142065 135.538892 303.142065 
L 56.598267 303.142065 
Q 54.598267 303.142065 54.598267 305.142065 
L 54.598267 333.498315 
Q 54.598267 335.498315 56.598267 335.498315 
z
" style="fill: #ffffff; opacity: 0.8; stroke: #cccccc; stroke-linejoin: miter"/>
    </g>
    <g id="line2d_15">
     <path d="M 58.598267 311.240503 
L 68.598267 311.240503 
L 78.598267 311.240503 
" style="fill: none; stroke: #1f77b4; stroke-opacity: 0.5; stroke-width: 1.5; stroke-linecap: square"/>
    </g>
    <g id="text_14">
     <!-- True -->
     <g transform="translate(86.598267 314.740503) scale(0.1 -0.1)">
      <defs>
       <path id="DejaVuSans-54" d="M -19 4666 
L 3928 4666 
L 3928 4134 
L 2272 4134 
L 2272 0 
L 1638 0 
L 1638 4134 
L -19 4134 
L -19 4666 
z
" transform="scale(0.015625)"/>
       <path id="DejaVuSans-75" d="M 544 1381 
L 544 3500 
L 1119 3500 
L 1119 1403 
Q 1119 906 1312 657 
Q 1506 409 1894 409 
Q 2359 409 2629 706 
Q 2900 1003 2900 1516 
L 2900 3500 
L 3475 3500 
L 3475 0 
L 2900 0 
L 2900 538 
Q 2691 219 2414 64 
Q 2138 -91 1772 -91 
Q 1169 -91 856 284 
Q 544 659 544 1381 
z
M 1991 3584 
L 1991 3584 
z
" transform="scale(0.015625)"/>
       <path id="DejaVuSans-65" d="M 3597 1894 
L 3597 1613 
L 953 1613 
Q 991 1019 1311 708 
Q 1631 397 2203 397 
Q 2534 397 2845 478 
Q 3156 559 3463 722 
L 3463 178 
Q 3153 47 2828 -22 
Q 2503 -91 2169 -91 
Q 1331 -91 842 396 
Q 353 884 353 1716 
Q 353 2575 817 3079 
Q 1281 3584 2069 3584 
Q 2775 3584 3186 3129 
Q 3597 2675 3597 1894 
z
M 3022 2063 
Q 3016 2534 2758 2815 
Q 2500 3097 2075 3097 
Q 1594 3097 1305 2825 
Q 1016 2553 972 2059 
L 3022 2063 
z
" transform="scale(0.015625)"/>
      </defs>
      <use xlink:href="#DejaVuSans-54"/>
      <use xlink:href="#DejaVuSans-72" x="46.333984"/>
      <use xlink:href="#DejaVuSans-75" x="87.447266"/>
      <use xlink:href="#DejaVuSans-65" x="150.826172"/>
     </g>
    </g>
    <g id="line2d_16">
     <path d="M 58.598267 325.918628 
L 68.598267 325.918628 
L 78.598267 325.918628 
" style="fill: none; stroke-dasharray: 5.55,2.4; stroke-dashoffset: 0; stroke: #ff7f0e; stroke-opacity: 0.5; stroke-width: 1.5"/>
    </g>
    <g id="text_15">
     <!-- Predicted -->
     <g transform="translate(86.598267 329.418628) scale(0.1 -0.1)">
      <defs>
       <path id="DejaVuSans-50" d="M 1259 4147 
L 1259 2394 
L 2053 2394 
Q 2494 2394 2734 2622 
Q 2975 2850 2975 3272 
Q 2975 3691 2734 3919 
Q 2494 4147 2053 4147 
L 1259 4147 
z
M 628 4666 
L 2053 4666 
Q 2838 4666 3239 4311 
Q 3641 3956 3641 3272 
Q 3641 2581 3239 2228 
Q 2838 1875 2053 1875 
L 1259 1875 
L 1259 0 
L 628 0 
L 628 4666 
z
" transform="scale(0.015625)"/>
       <path id="DejaVuSans-64" d="M 2906 2969 
L 2906 4863 
L 3481 4863 
L 3481 0 
L 2906 0 
L 2906 525 
Q 2725 213 2448 61 
Q 2172 -91 1784 -91 
Q 1150 -91 751 415 
Q 353 922 353 1747 
Q 353 2572 751 3078 
Q 1150 3584 1784 3584 
Q 2172 3584 2448 3432 
Q 2725 3281 2906 2969 
z
M 947 1747 
Q 947 1113 1208 752 
Q 1469 391 1925 391 
Q 2381 391 2643 752 
Q 2906 1113 2906 1747 
Q 2906 2381 2643 2742 
Q 2381 3103 1925 3103 
Q 1469 3103 1208 2742 
Q 947 2381 947 1747 
z
" transform="scale(0.015625)"/>
       <path id="DejaVuSans-63" d="M 3122 3366 
L 3122 2828 
Q 2878 2963 2633 3030 
Q 2388 3097 2138 3097 
Q 1578 3097 1268 2742 
Q 959 2388 959 1747 
Q 959 1106 1268 751 
Q 1578 397 2138 397 
Q 2388 397 2633 464 
Q 2878 531 3122 666 
L 3122 134 
Q 2881 22 2623 -34 
Q 2366 -91 2075 -91 
Q 1284 -91 818 406 
Q 353 903 353 1747 
Q 353 2603 823 3093 
Q 1294 3584 2113 3584 
Q 2378 3584 2631 3529 
Q 2884 3475 3122 3366 
z
" transform="scale(0.015625)"/>
      </defs>
      <use xlink:href="#DejaVuSans-50"/>
      <use xlink:href="#DejaVuSans-72" x="58.552734"/>
      <use xlink:href="#DejaVuSans-65" x="97.416016"/>
      <use xlink:href="#DejaVuSans-64" x="158.939453"/>
      <use xlink:href="#DejaVuSans-69" x="222.416016"/>
      <use xlink:href="#DejaVuSans-63" x="250.199219"/>
      <use xlink:href="#DejaVuSans-74" x="305.179688"/>
      <use xlink:href="#DejaVuSans-65" x="344.388672"/>
      <use xlink:href="#DejaVuSans-64" x="405.912109"/>
     </g>
    </g>
   </g>
  </g>
  <g id="axes_2">
   <g id="patch_8">
    <path d="M 489.422267 340.498315 
L 879.648 340.498315 
L 879.648 35.172 
L 489.422267 35.172 
z
" style="fill: #ffffff"/>
   </g>
   <g id="matplotlib.axis_3">
    <g id="xtick_8">
     <g id="line2d_17">
      <g>
       <use xlink:href="#m041b136c18" x="507.1598" y="340.498315" style="stroke: #000000; stroke-width: 0.8"/>
      </g>
     </g>
     <g id="text_16">
      <!-- 0 -->
      <g transform="translate(503.97855 355.096753) scale(0.1 -0.1)">
       <use xlink:href="#DejaVuSans-30"/>
      </g>
     </g>
    </g>
    <g id="xtick_9">
     <g id="line2d_18">
      <g>
       <use xlink:href="#m041b136c18" x="564.377649" y="340.498315" style="stroke: #000000; stroke-width: 0.8"/>
      </g>
     </g>
     <g id="text_17">
      <!-- 5 -->
      <g transform="translate(561.196399 355.096753) scale(0.1 -0.1)">
       <use xlink:href="#DejaVuSans-35"/>
      </g>
     </g>
    </g>
    <g id="xtick_10">
     <g id="line2d_19">
      <g>
       <use xlink:href="#m041b136c18" x="621.595499" y="340.498315" style="stroke: #000000; stroke-width: 0.8"/>
      </g>
     </g>
     <g id="text_18">
      <!-- 10 -->
      <g transform="translate(615.232999 355.096753) scale(0.1 -0.1)">
       <use xlink:href="#DejaVuSans-31"/>
       <use xlink:href="#DejaVuSans-30" x="63.623047"/>
      </g>
     </g>
    </g>
    <g id="xtick_11">
     <g id="line2d_20">
      <g>
       <use xlink:href="#m041b136c18" x="678.813348" y="340.498315" style="stroke: #000000; stroke-width: 0.8"/>
      </g>
     </g>
     <g id="text_19">
      <!-- 15 -->
      <g transform="translate(672.450848 355.096753) scale(0.1 -0.1)">
       <use xlink:href="#DejaVuSans-31"/>
       <use xlink:href="#DejaVuSans-35" x="63.623047"/>
      </g>
     </g>
    </g>
    <g id="xtick_12">
     <g id="line2d_21">
      <g>
       <use xlink:href="#m041b136c18" x="736.031198" y="340.498315" style="stroke: #000000; stroke-width: 0.8"/>
      </g>
     </g>
     <g id="text_20">
      <!-- 20 -->
      <g transform="translate(729.668698 355.096753) scale(0.1 -0.1)">
       <use xlink:href="#DejaVuSans-32"/>
       <use xlink:href="#DejaVuSans-30" x="63.623047"/>
      </g>
     </g>
    </g>
    <g id="xtick_13">
     <g id="line2d_22">
      <g>
       <use xlink:href="#m041b136c18" x="793.249047" y="340.498315" style="stroke: #000000; stroke-width: 0.8"/>
      </g>
     </g>
     <g id="text_21">
      <!-- 25 -->
      <g transform="translate(786.886547 355.096753) scale(0.1 -0.1)">
       <use xlink:href="#DejaVuSans-32"/>
       <use xlink:href="#DejaVuSans-35" x="63.623047"/>
      </g>
     </g>
    </g>
    <g id="xtick_14">
     <g id="line2d_23">
      <g>
       <use xlink:href="#m041b136c18" x="850.466897" y="340.498315" style="stroke: #000000; stroke-width: 0.8"/>
      </g>
     </g>
     <g id="text_22">
      <!-- 30 -->
      <g transform="translate(844.104397 355.096753) scale(0.1 -0.1)">
       <use xlink:href="#DejaVuSans-33"/>
       <use xlink:href="#DejaVuSans-30" x="63.623047"/>
      </g>
     </g>
    </g>
   </g>
   <g id="matplotlib.axis_4">
    <g id="ytick_6">
     <g id="line2d_24">
      <g>
       <use xlink:href="#mc294432ff3" x="489.422267" y="337.482916" style="stroke: #000000; stroke-width: 0.8"/>
      </g>
     </g>
     <g id="text_23">
      <!-- −0.02 -->
      <g transform="translate(451.776954 341.282135) scale(0.1 -0.1)">
       <use xlink:href="#DejaVuSans-2212"/>
       <use xlink:href="#DejaVuSans-30" x="83.789062"/>
       <use xlink:href="#DejaVuSans-2e" x="147.412109"/>
       <use xlink:href="#DejaVuSans-30" x="179.199219"/>
       <use xlink:href="#DejaVuSans-32" x="242.822266"/>
      </g>
     </g>
    </g>
    <g id="ytick_7">
     <g id="line2d_25">
      <g>
       <use xlink:href="#mc294432ff3" x="489.422267" y="289.646992" style="stroke: #000000; stroke-width: 0.8"/>
      </g>
     </g>
     <g id="text_24">
      <!-- −0.01 -->
      <g transform="translate(451.776954 293.446211) scale(0.1 -0.1)">
       <use xlink:href="#DejaVuSans-2212"/>
       <use xlink:href="#DejaVuSans-30" x="83.789062"/>
       <use xlink:href="#DejaVuSans-2e" x="147.412109"/>
       <use xlink:href="#DejaVuSans-30" x="179.199219"/>
       <use xlink:href="#DejaVuSans-31" x="242.822266"/>
      </g>
     </g>
    </g>
    <g id="ytick_8">
     <g id="line2d_26">
      <g>
       <use xlink:href="#mc294432ff3" x="489.422267" y="241.811068" style="stroke: #000000; stroke-width: 0.8"/>
      </g>
     </g>
     <g id="text_25">
      <!-- 0.00 -->
      <g transform="translate(460.156642 245.610287) scale(0.1 -0.1)">
       <use xlink:href="#DejaVuSans-30"/>
       <use xlink:href="#DejaVuSans-2e" x="63.623047"/>
       <use xlink:href="#DejaVuSans-30" x="95.410156"/>
       <use xlink:href="#DejaVuSans-30" x="159.033203"/>
      </g>
     </g>
    </g>
    <g id="ytick_9">
     <g id="line2d_27">
      <g>
       <use xlink:href="#mc294432ff3" x="489.422267" y="193.975144" style="stroke: #000000; stroke-width: 0.8"/>
      </g>
     </g>
     <g id="text_26">
      <!-- 0.01 -->
      <g transform="translate(460.156642 197.774363) scale(0.1 -0.1)">
       <use xlink:href="#DejaVuSans-30"/>
       <use xlink:href="#DejaVuSans-2e" x="63.623047"/>
       <use xlink:href="#DejaVuSans-30" x="95.410156"/>
       <use xlink:href="#DejaVuSans-31" x="159.033203"/>
      </g>
     </g>
    </g>
    <g id="ytick_10">
     <g id="line2d_28">
      <g>
       <use xlink:href="#mc294432ff3" x="489.422267" y="146.13922" style="stroke: #000000; stroke-width: 0.8"/>
      </g>
     </g>
     <g id="text_27">
      <!-- 0.02 -->
      <g transform="translate(460.156642 149.938439) scale(0.1 -0.1)">
       <use xlink:href="#DejaVuSans-30"/>
       <use xlink:href="#DejaVuSans-2e" x="63.623047"/>
       <use xlink:href="#DejaVuSans-30" x="95.410156"/>
       <use xlink:href="#DejaVuSans-32" x="159.033203"/>
      </g>
     </g>
    </g>
    <g id="ytick_11">
     <g id="line2d_29">
      <g>
       <use xlink:href="#mc294432ff3" x="489.422267" y="98.303296" style="stroke: #000000; stroke-width: 0.8"/>
      </g>
     </g>
     <g id="text_28">
      <!-- 0.03 -->
      <g transform="translate(460.156642 102.102515) scale(0.1 -0.1)">
       <use xlink:href="#DejaVuSans-30"/>
       <use xlink:href="#DejaVuSans-2e" x="63.623047"/>
       <use xlink:href="#DejaVuSans-30" x="95.410156"/>
       <use xlink:href="#DejaVuSans-33" x="159.033203"/>
      </g>
     </g>
    </g>
    <g id="ytick_12">
     <g id="line2d_30">
      <g>
       <use xlink:href="#mc294432ff3" x="489.422267" y="50.467372" style="stroke: #000000; stroke-width: 0.8"/>
      </g>
     </g>
     <g id="text_29">
      <!-- 0.04 -->
      <g transform="translate(460.156642 54.266591) scale(0.1 -0.1)">
       <defs>
        <path id="DejaVuSans-34" d="M 2419 4116 
L 825 1625 
L 2419 1625 
L 2419 4116 
z
M 2253 4666 
L 3047 4666 
L 3047 1625 
L 3713 1625 
L 3713 1100 
L 3047 1100 
L 3047 0 
L 2419 0 
L 2419 1100 
L 313 1100 
L 313 1709 
L 2253 4666 
z
" transform="scale(0.015625)"/>
       </defs>
       <use xlink:href="#DejaVuSans-30"/>
       <use xlink:href="#DejaVuSans-2e" x="63.623047"/>
       <use xlink:href="#DejaVuSans-30" x="95.410156"/>
       <use xlink:href="#DejaVuSans-34" x="159.033203"/>
      </g>
     </g>
    </g>
   </g>
   <g id="line2d_31">
    <path d="M 507.1598 238.854111 
L 518.60337 58.887454 
L 530.04694 63.442868 
L 541.49051 74.848393 
L 552.93408 208.033213 
L 564.377649 86.117095 
L 575.821219 70.238432 
L 587.264789 200.093022 
L 598.708359 57.996744 
L 610.151929 271.113157 
L 621.595499 209.932681 
L 633.039069 71.466854 
L 644.482639 284.358777 
L 655.926209 304.398152 
L 667.369778 176.657104 
L 678.813348 326.619846 
L 690.256918 229.449837 
L 701.700488 263.844242 
L 713.144058 135.546907 
L 724.587628 53.112706 
L 736.031198 171.660643 
L 747.474768 207.822066 
L 758.918338 65.860971 
L 770.361908 80.689147 
L 781.805477 49.050469 
L 793.249047 87.955897 
L 804.692617 69.420446 
L 816.136187 64.759786 
L 827.579757 206.27376 
L 839.023327 250.544466 
L 850.466897 281.477141 
L 861.910467 55.413125 
" clip-path="url(#p1bf39f130f)" style="fill: none; stroke: #1f77b4; stroke-opacity: 0.5; stroke-width: 1.5; stroke-linecap: square"/>
   </g>
   <g id="line2d_32">
    <path d="M 507.1598 210.097304 
L 518.60337 68.337062 
L 530.04694 54.494882 
L 541.49051 84.931245 
L 552.93408 188.228611 
L 564.377649 78.457265 
L 575.821219 77.641257 
L 587.264789 185.448819 
L 598.708359 70.930999 
L 610.151929 264.428791 
L 621.595499 219.558803 
L 633.039069 81.946866 
L 644.482639 255.496559 
L 655.926209 304.391844 
L 667.369778 207.442717 
L 678.813348 284.790134 
L 690.256918 198.74209 
L 701.700488 245.38916 
L 713.144058 115.964096 
L 724.587628 52.089876 
L 736.031198 214.933881 
L 747.474768 224.081989 
L 758.918338 67.224792 
L 770.361908 76.672333 
L 781.805477 57.930969 
L 793.249047 87.748041 
L 804.692617 86.159026 
L 816.136187 73.314852 
L 827.579757 190.970403 
L 839.023327 249.356719 
L 850.466897 258.454599 
L 861.910467 58.047424 
" clip-path="url(#p1bf39f130f)" style="fill: none; stroke-dasharray: 5.55,2.4; stroke-dashoffset: 0; stroke: #ff7f0e; stroke-opacity: 0.5; stroke-width: 1.5"/>
   </g>
   <g id="patch_9">
    <path d="M 489.422267 340.498315 
L 489.422267 35.172 
" style="fill: none; stroke: #000000; stroke-width: 0.8; stroke-linejoin: miter; stroke-linecap: square"/>
   </g>
   <g id="patch_10">
    <path d="M 879.648 340.498315 
L 879.648 35.172 
" style="fill: none; stroke: #000000; stroke-width: 0.8; stroke-linejoin: miter; stroke-linecap: square"/>
   </g>
   <g id="patch_11">
    <path d="M 489.422267 340.498315 
L 879.648 340.498315 
" style="fill: none; stroke: #000000; stroke-width: 0.8; stroke-linejoin: miter; stroke-linecap: square"/>
   </g>
   <g id="patch_12">
    <path d="M 489.422267 35.172 
L 879.648 35.172 
" style="fill: none; stroke: #000000; stroke-width: 0.8; stroke-linejoin: miter; stroke-linecap: square"/>
   </g>
   <g id="text_30">
    <!-- translation_y -->
    <g transform="translate(645.723571 29.172) scale(0.12 -0.12)">
     <defs>
      <path id="DejaVuSans-79" d="M 2059 -325 
Q 1816 -950 1584 -1140 
Q 1353 -1331 966 -1331 
L 506 -1331 
L 506 -850 
L 844 -850 
Q 1081 -850 1212 -737 
Q 1344 -625 1503 -206 
L 1606 56 
L 191 3500 
L 800 3500 
L 1894 763 
L 2988 3500 
L 3597 3500 
L 2059 -325 
z
" transform="scale(0.015625)"/>
     </defs>
     <use xlink:href="#DejaVuSans-74"/>
     <use xlink:href="#DejaVuSans-72" x="39.208984"/>
     <use xlink:href="#DejaVuSans-61" x="80.322266"/>
     <use xlink:href="#DejaVuSans-6e" x="141.601562"/>
     <use xlink:href="#DejaVuSans-73" x="204.980469"/>
     <use xlink:href="#DejaVuSans-6c" x="257.080078"/>
     <use xlink:href="#DejaVuSans-61" x="284.863281"/>
     <use xlink:href="#DejaVuSans-74" x="346.142578"/>
     <use xlink:href="#DejaVuSans-69" x="385.351562"/>
     <use xlink:href="#DejaVuSans-6f" x="413.134766"/>
     <use xlink:href="#DejaVuSans-6e" x="474.316406"/>
     <use xlink:href="#DejaVuSans-5f" x="537.695312"/>
     <use xlink:href="#DejaVuSans-79" x="587.695312"/>
    </g>
   </g>
   <g id="legend_2">
    <g id="patch_13">
     <path d="M 496.422267 335.498315 
L 575.362892 335.498315 
Q 577.362892 335.498315 577.362892 333.498315 
L 577.362892 305.142065 
Q 577.362892 303.142065 575.362892 303.142065 
L 496.422267 303.142065 
Q 494.422267 303.142065 494.422267 305.142065 
L 494.422267 333.498315 
Q 494.422267 335.498315 496.422267 335.498315 
z
" style="fill: #ffffff; opacity: 0.8; stroke: #cccccc; stroke-linejoin: miter"/>
    </g>
    <g id="line2d_33">
     <path d="M 498.422267 311.240503 
L 508.422267 311.240503 
L 518.422267 311.240503 
" style="fill: none; stroke: #1f77b4; stroke-opacity: 0.5; stroke-width: 1.5; stroke-linecap: square"/>
    </g>
    <g id="text_31">
     <!-- True -->
     <g transform="translate(526.422267 314.740503) scale(0.1 -0.1)">
      <use xlink:href="#DejaVuSans-54"/>
      <use xlink:href="#DejaVuSans-72" x="46.333984"/>
      <use xlink:href="#DejaVuSans-75" x="87.447266"/>
      <use xlink:href="#DejaVuSans-65" x="150.826172"/>
     </g>
    </g>
    <g id="line2d_34">
     <path d="M 498.422267 325.918628 
L 508.422267 325.918628 
L 518.422267 325.918628 
" style="fill: none; stroke-dasharray: 5.55,2.4; stroke-dashoffset: 0; stroke: #ff7f0e; stroke-opacity: 0.5; stroke-width: 1.5"/>
    </g>
    <g id="text_32">
     <!-- Predicted -->
     <g transform="translate(526.422267 329.418628) scale(0.1 -0.1)">
      <use xlink:href="#DejaVuSans-50"/>
      <use xlink:href="#DejaVuSans-72" x="58.552734"/>
      <use xlink:href="#DejaVuSans-65" x="97.416016"/>
      <use xlink:href="#DejaVuSans-64" x="158.939453"/>
      <use xlink:href="#DejaVuSans-69" x="222.416016"/>
      <use xlink:href="#DejaVuSans-63" x="250.199219"/>
      <use xlink:href="#DejaVuSans-74" x="305.179688"/>
      <use xlink:href="#DejaVuSans-65" x="344.388672"/>
      <use xlink:href="#DejaVuSans-64" x="405.912109"/>
     </g>
    </g>
   </g>
  </g>
  <g id="axes_3">
   <g id="patch_14">
    <path d="M 929.246267 340.498315 
L 1319.472 340.498315 
L 1319.472 35.172 
L 929.246267 35.172 
z
" style="fill: #ffffff"/>
   </g>
   <g id="matplotlib.axis_5">
    <g id="xtick_15">
     <g id="line2d_35">
      <g>
       <use xlink:href="#m041b136c18" x="946.9838" y="340.498315" style="stroke: #000000; stroke-width: 0.8"/>
      </g>
     </g>
     <g id="text_33">
      <!-- 0 -->
      <g transform="translate(943.80255 355.096753) scale(0.1 -0.1)">
       <use xlink:href="#DejaVuSans-30"/>
      </g>
     </g>
    </g>
    <g id="xtick_16">
     <g id="line2d_36">
      <g>
       <use xlink:href="#m041b136c18" x="1004.201649" y="340.498315" style="stroke: #000000; stroke-width: 0.8"/>
      </g>
     </g>
     <g id="text_34">
      <!-- 5 -->
      <g transform="translate(1001.020399 355.096753) scale(0.1 -0.1)">
       <use xlink:href="#DejaVuSans-35"/>
      </g>
     </g>
    </g>
    <g id="xtick_17">
     <g id="line2d_37">
      <g>
       <use xlink:href="#m041b136c18" x="1061.419499" y="340.498315" style="stroke: #000000; stroke-width: 0.8"/>
      </g>
     </g>
     <g id="text_35">
      <!-- 10 -->
      <g transform="translate(1055.056999 355.096753) scale(0.1 -0.1)">
       <use xlink:href="#DejaVuSans-31"/>
       <use xlink:href="#DejaVuSans-30" x="63.623047"/>
      </g>
     </g>
    </g>
    <g id="xtick_18">
     <g id="line2d_38">
      <g>
       <use xlink:href="#m041b136c18" x="1118.637348" y="340.498315" style="stroke: #000000; stroke-width: 0.8"/>
      </g>
     </g>
     <g id="text_36">
      <!-- 15 -->
      <g transform="translate(1112.274848 355.096753) scale(0.1 -0.1)">
       <use xlink:href="#DejaVuSans-31"/>
       <use xlink:href="#DejaVuSans-35" x="63.623047"/>
      </g>
     </g>
    </g>
    <g id="xtick_19">
     <g id="line2d_39">
      <g>
       <use xlink:href="#m041b136c18" x="1175.855198" y="340.498315" style="stroke: #000000; stroke-width: 0.8"/>
      </g>
     </g>
     <g id="text_37">
      <!-- 20 -->
      <g transform="translate(1169.492698 355.096753) scale(0.1 -0.1)">
       <use xlink:href="#DejaVuSans-32"/>
       <use xlink:href="#DejaVuSans-30" x="63.623047"/>
      </g>
     </g>
    </g>
    <g id="xtick_20">
     <g id="line2d_40">
      <g>
       <use xlink:href="#m041b136c18" x="1233.073047" y="340.498315" style="stroke: #000000; stroke-width: 0.8"/>
      </g>
     </g>
     <g id="text_38">
      <!-- 25 -->
      <g transform="translate(1226.710547 355.096753) scale(0.1 -0.1)">
       <use xlink:href="#DejaVuSans-32"/>
       <use xlink:href="#DejaVuSans-35" x="63.623047"/>
      </g>
     </g>
    </g>
    <g id="xtick_21">
     <g id="line2d_41">
      <g>
       <use xlink:href="#m041b136c18" x="1290.290897" y="340.498315" style="stroke: #000000; stroke-width: 0.8"/>
      </g>
     </g>
     <g id="text_39">
      <!-- 30 -->
      <g transform="translate(1283.928397 355.096753) scale(0.1 -0.1)">
       <use xlink:href="#DejaVuSans-33"/>
       <use xlink:href="#DejaVuSans-30" x="63.623047"/>
      </g>
     </g>
    </g>
   </g>
   <g id="matplotlib.axis_6">
    <g id="ytick_13">
     <g id="line2d_42">
      <g>
       <use xlink:href="#mc294432ff3" x="929.246267" y="307.189119" style="stroke: #000000; stroke-width: 0.8"/>
      </g>
     </g>
     <g id="text_40">
      <!-- −0.04 -->
      <g transform="translate(891.600954 310.988337) scale(0.1 -0.1)">
       <use xlink:href="#DejaVuSans-2212"/>
       <use xlink:href="#DejaVuSans-30" x="83.789062"/>
       <use xlink:href="#DejaVuSans-2e" x="147.412109"/>
       <use xlink:href="#DejaVuSans-30" x="179.199219"/>
       <use xlink:href="#DejaVuSans-34" x="242.822266"/>
      </g>
     </g>
    </g>
    <g id="ytick_14">
     <g id="line2d_43">
      <g>
       <use xlink:href="#mc294432ff3" x="929.246267" y="263.341283" style="stroke: #000000; stroke-width: 0.8"/>
      </g>
     </g>
     <g id="text_41">
      <!-- −0.03 -->
      <g transform="translate(891.600954 267.140502) scale(0.1 -0.1)">
       <use xlink:href="#DejaVuSans-2212"/>
       <use xlink:href="#DejaVuSans-30" x="83.789062"/>
       <use xlink:href="#DejaVuSans-2e" x="147.412109"/>
       <use xlink:href="#DejaVuSans-30" x="179.199219"/>
       <use xlink:href="#DejaVuSans-33" x="242.822266"/>
      </g>
     </g>
    </g>
    <g id="ytick_15">
     <g id="line2d_44">
      <g>
       <use xlink:href="#mc294432ff3" x="929.246267" y="219.493448" style="stroke: #000000; stroke-width: 0.8"/>
      </g>
     </g>
     <g id="text_42">
      <!-- −0.02 -->
      <g transform="translate(891.600954 223.292667) scale(0.1 -0.1)">
       <use xlink:href="#DejaVuSans-2212"/>
       <use xlink:href="#DejaVuSans-30" x="83.789062"/>
       <use xlink:href="#DejaVuSans-2e" x="147.412109"/>
       <use xlink:href="#DejaVuSans-30" x="179.199219"/>
       <use xlink:href="#DejaVuSans-32" x="242.822266"/>
      </g>
     </g>
    </g>
    <g id="ytick_16">
     <g id="line2d_45">
      <g>
       <use xlink:href="#mc294432ff3" x="929.246267" y="175.645613" style="stroke: #000000; stroke-width: 0.8"/>
      </g>
     </g>
     <g id="text_43">
      <!-- −0.01 -->
      <g transform="translate(891.600954 179.444831) scale(0.1 -0.1)">
       <use xlink:href="#DejaVuSans-2212"/>
       <use xlink:href="#DejaVuSans-30" x="83.789062"/>
       <use xlink:href="#DejaVuSans-2e" x="147.412109"/>
       <use xlink:href="#DejaVuSans-30" x="179.199219"/>
       <use xlink:href="#DejaVuSans-31" x="242.822266"/>
      </g>
     </g>
    </g>
    <g id="ytick_17">
     <g id="line2d_46">
      <g>
       <use xlink:href="#mc294432ff3" x="929.246267" y="131.797777" style="stroke: #000000; stroke-width: 0.8"/>
      </g>
     </g>
     <g id="text_44">
      <!-- 0.00 -->
      <g transform="translate(899.980642 135.596996) scale(0.1 -0.1)">
       <use xlink:href="#DejaVuSans-30"/>
       <use xlink:href="#DejaVuSans-2e" x="63.623047"/>
       <use xlink:href="#DejaVuSans-30" x="95.410156"/>
       <use xlink:href="#DejaVuSans-30" x="159.033203"/>
      </g>
     </g>
    </g>
    <g id="ytick_18">
     <g id="line2d_47">
      <g>
       <use xlink:href="#mc294432ff3" x="929.246267" y="87.949942" style="stroke: #000000; stroke-width: 0.8"/>
      </g>
     </g>
     <g id="text_45">
      <!-- 0.01 -->
      <g transform="translate(899.980642 91.749161) scale(0.1 -0.1)">
       <use xlink:href="#DejaVuSans-30"/>
       <use xlink:href="#DejaVuSans-2e" x="63.623047"/>
       <use xlink:href="#DejaVuSans-30" x="95.410156"/>
       <use xlink:href="#DejaVuSans-31" x="159.033203"/>
      </g>
     </g>
    </g>
    <g id="ytick_19">
     <g id="line2d_48">
      <g>
       <use xlink:href="#mc294432ff3" x="929.246267" y="44.102107" style="stroke: #000000; stroke-width: 0.8"/>
      </g>
     </g>
     <g id="text_46">
      <!-- 0.02 -->
      <g transform="translate(899.980642 47.901325) scale(0.1 -0.1)">
       <use xlink:href="#DejaVuSans-30"/>
       <use xlink:href="#DejaVuSans-2e" x="63.623047"/>
       <use xlink:href="#DejaVuSans-30" x="95.410156"/>
       <use xlink:href="#DejaVuSans-32" x="159.033203"/>
      </g>
     </g>
    </g>
   </g>
   <g id="line2d_49">
    <path d="M 946.9838 286.873097 
L 958.42737 62.663775 
L 969.87094 225.169553 
L 981.31451 186.116914 
L 992.75808 326.619846 
L 1004.201649 81.228067 
L 1015.645219 203.165829 
L 1027.088789 58.297408 
L 1038.532359 58.933199 
L 1049.975929 101.146608 
L 1061.419499 219.906058 
L 1072.863069 121.155556 
L 1084.306639 268.296967 
L 1095.750209 157.792703 
L 1107.193778 67.575166 
L 1118.637348 156.059354 
L 1130.080918 306.687055 
L 1141.524488 217.643505 
L 1152.968058 139.795228 
L 1164.411628 220.522117 
L 1175.855198 70.787894 
L 1187.298768 218.235895 
L 1198.742338 203.060153 
L 1210.185908 212.212955 
L 1221.629477 220.061718 
L 1233.073047 134.746948 
L 1244.516617 177.569655 
L 1255.960187 59.380881 
L 1267.403757 56.1515 
L 1278.847327 227.083077 
L 1290.290897 263.069865 
L 1301.734467 225.715896 
" clip-path="url(#pb407e642ca)" style="fill: none; stroke: #1f77b4; stroke-opacity: 0.5; stroke-width: 1.5; stroke-linecap: square"/>
   </g>
   <g id="line2d_50">
    <path d="M 946.9838 298.521066 
L 958.42737 69.953548 
L 969.87094 227.831438 
L 981.31451 177.583948 
L 992.75808 285.325329 
L 1004.201649 78.379796 
L 1015.645219 179.407325 
L 1027.088789 49.050469 
L 1038.532359 67.87163 
L 1049.975929 139.597613 
L 1061.419499 226.322612 
L 1072.863069 118.26308 
L 1084.306639 218.745951 
L 1095.750209 149.197388 
L 1107.193778 92.691581 
L 1118.637348 146.131257 
L 1130.080918 289.396824 
L 1141.524488 176.064655 
L 1152.968058 145.334418 
L 1164.411628 229.857581 
L 1175.855198 104.087746 
L 1187.298768 237.768563 
L 1198.742338 191.275157 
L 1210.185908 183.099613 
L 1221.629477 233.032879 
L 1233.073047 128.407845 
L 1244.516617 177.4135 
L 1255.960187 70.130517 
L 1267.403757 94.705236 
L 1278.847327 216.411925 
L 1290.290897 220.089242 
L 1301.734467 236.75701 
" clip-path="url(#pb407e642ca)" style="fill: none; stroke-dasharray: 5.55,2.4; stroke-dashoffset: 0; stroke: #ff7f0e; stroke-opacity: 0.5; stroke-width: 1.5"/>
   </g>
   <g id="patch_15">
    <path d="M 929.246267 340.498315 
L 929.246267 35.172 
" style="fill: none; stroke: #000000; stroke-width: 0.8; stroke-linejoin: miter; stroke-linecap: square"/>
   </g>
   <g id="patch_16">
    <path d="M 1319.472 340.498315 
L 1319.472 35.172 
" style="fill: none; stroke: #000000; stroke-width: 0.8; stroke-linejoin: miter; stroke-linecap: square"/>
   </g>
   <g id="patch_17">
    <path d="M 929.246267 340.498315 
L 1319.472 340.498315 
" style="fill: none; stroke: #000000; stroke-width: 0.8; stroke-linejoin: miter; stroke-linecap: square"/>
   </g>
   <g id="patch_18">
    <path d="M 929.246267 35.172 
L 1319.472 35.172 
" style="fill: none; stroke: #000000; stroke-width: 0.8; stroke-linejoin: miter; stroke-linecap: square"/>
   </g>
   <g id="text_47">
    <!-- translation_z -->
    <g transform="translate(1085.949758 29.172) scale(0.12 -0.12)">
     <defs>
      <path id="DejaVuSans-7a" d="M 353 3500 
L 3084 3500 
L 3084 2975 
L 922 459 
L 3084 459 
L 3084 0 
L 275 0 
L 275 525 
L 2438 3041 
L 353 3041 
L 353 3500 
z
" transform="scale(0.015625)"/>
     </defs>
     <use xlink:href="#DejaVuSans-74"/>
     <use xlink:href="#DejaVuSans-72" x="39.208984"/>
     <use xlink:href="#DejaVuSans-61" x="80.322266"/>
     <use xlink:href="#DejaVuSans-6e" x="141.601562"/>
     <use xlink:href="#DejaVuSans-73" x="204.980469"/>
     <use xlink:href="#DejaVuSans-6c" x="257.080078"/>
     <use xlink:href="#DejaVuSans-61" x="284.863281"/>
     <use xlink:href="#DejaVuSans-74" x="346.142578"/>
     <use xlink:href="#DejaVuSans-69" x="385.351562"/>
     <use xlink:href="#DejaVuSans-6f" x="413.134766"/>
     <use xlink:href="#DejaVuSans-6e" x="474.316406"/>
     <use xlink:href="#DejaVuSans-5f" x="537.695312"/>
     <use xlink:href="#DejaVuSans-7a" x="587.695312"/>
    </g>
   </g>
   <g id="legend_3">
    <g id="patch_19">
     <path d="M 1233.531375 335.498315 
L 1312.472 335.498315 
Q 1314.472 335.498315 1314.472 333.498315 
L 1314.472 305.142065 
Q 1314.472 303.142065 1312.472 303.142065 
L 1233.531375 303.142065 
Q 1231.531375 303.142065 1231.531375 305.142065 
L 1231.531375 333.498315 
Q 1231.531375 335.498315 1233.531375 335.498315 
z
" style="fill: #ffffff; opacity: 0.8; stroke: #cccccc; stroke-linejoin: miter"/>
    </g>
    <g id="line2d_51">
     <path d="M 1235.531375 311.240503 
L 1245.531375 311.240503 
L 1255.531375 311.240503 
" style="fill: none; stroke: #1f77b4; stroke-opacity: 0.5; stroke-width: 1.5; stroke-linecap: square"/>
    </g>
    <g id="text_48">
     <!-- True -->
     <g transform="translate(1263.531375 314.740503) scale(0.1 -0.1)">
      <use xlink:href="#DejaVuSans-54"/>
      <use xlink:href="#DejaVuSans-72" x="46.333984"/>
      <use xlink:href="#DejaVuSans-75" x="87.447266"/>
      <use xlink:href="#DejaVuSans-65" x="150.826172"/>
     </g>
    </g>
    <g id="line2d_52">
     <path d="M 1235.531375 325.918628 
L 1245.531375 325.918628 
L 1255.531375 325.918628 
" style="fill: none; stroke-dasharray: 5.55,2.4; stroke-dashoffset: 0; stroke: #ff7f0e; stroke-opacity: 0.5; stroke-width: 1.5"/>
    </g>
    <g id="text_49">
     <!-- Predicted -->
     <g transform="translate(1263.531375 329.418628) scale(0.1 -0.1)">
      <use xlink:href="#DejaVuSans-50"/>
      <use xlink:href="#DejaVuSans-72" x="58.552734"/>
      <use xlink:href="#DejaVuSans-65" x="97.416016"/>
      <use xlink:href="#DejaVuSans-64" x="158.939453"/>
      <use xlink:href="#DejaVuSans-69" x="222.416016"/>
      <use xlink:href="#DejaVuSans-63" x="250.199219"/>
      <use xlink:href="#DejaVuSans-74" x="305.179688"/>
      <use xlink:href="#DejaVuSans-65" x="344.388672"/>
      <use xlink:href="#DejaVuSans-64" x="405.912109"/>
     </g>
    </g>
   </g>
  </g>
  <g id="axes_4">
   <g id="patch_20">
    <path d="M 49.598267 680.741033 
L 439.824 680.741033 
L 439.824 375.414718 
L 49.598267 375.414718 
z
" style="fill: #ffffff"/>
   </g>
   <g id="matplotlib.axis_7">
    <g id="xtick_22">
     <g id="line2d_53">
      <g>
       <use xlink:href="#m041b136c18" x="67.3358" y="680.741033" style="stroke: #000000; stroke-width: 0.8"/>
      </g>
     </g>
     <g id="text_50">
      <!-- 0 -->
      <g transform="translate(64.15455 695.339471) scale(0.1 -0.1)">
       <use xlink:href="#DejaVuSans-30"/>
      </g>
     </g>
    </g>
    <g id="xtick_23">
     <g id="line2d_54">
      <g>
       <use xlink:href="#m041b136c18" x="124.553649" y="680.741033" style="stroke: #000000; stroke-width: 0.8"/>
      </g>
     </g>
     <g id="text_51">
      <!-- 5 -->
      <g transform="translate(121.372399 695.339471) scale(0.1 -0.1)">
       <use xlink:href="#DejaVuSans-35"/>
      </g>
     </g>
    </g>
    <g id="xtick_24">
     <g id="line2d_55">
      <g>
       <use xlink:href="#m041b136c18" x="181.771499" y="680.741033" style="stroke: #000000; stroke-width: 0.8"/>
      </g>
     </g>
     <g id="text_52">
      <!-- 10 -->
      <g transform="translate(175.408999 695.339471) scale(0.1 -0.1)">
       <use xlink:href="#DejaVuSans-31"/>
       <use xlink:href="#DejaVuSans-30" x="63.623047"/>
      </g>
     </g>
    </g>
    <g id="xtick_25">
     <g id="line2d_56">
      <g>
       <use xlink:href="#m041b136c18" x="238.989348" y="680.741033" style="stroke: #000000; stroke-width: 0.8"/>
      </g>
     </g>
     <g id="text_53">
      <!-- 15 -->
      <g transform="translate(232.626848 695.339471) scale(0.1 -0.1)">
       <use xlink:href="#DejaVuSans-31"/>
       <use xlink:href="#DejaVuSans-35" x="63.623047"/>
      </g>
     </g>
    </g>
    <g id="xtick_26">
     <g id="line2d_57">
      <g>
       <use xlink:href="#m041b136c18" x="296.207198" y="680.741033" style="stroke: #000000; stroke-width: 0.8"/>
      </g>
     </g>
     <g id="text_54">
      <!-- 20 -->
      <g transform="translate(289.844698 695.339471) scale(0.1 -0.1)">
       <use xlink:href="#DejaVuSans-32"/>
       <use xlink:href="#DejaVuSans-30" x="63.623047"/>
      </g>
     </g>
    </g>
    <g id="xtick_27">
     <g id="line2d_58">
      <g>
       <use xlink:href="#m041b136c18" x="353.425047" y="680.741033" style="stroke: #000000; stroke-width: 0.8"/>
      </g>
     </g>
     <g id="text_55">
      <!-- 25 -->
      <g transform="translate(347.062547 695.339471) scale(0.1 -0.1)">
       <use xlink:href="#DejaVuSans-32"/>
       <use xlink:href="#DejaVuSans-35" x="63.623047"/>
      </g>
     </g>
    </g>
    <g id="xtick_28">
     <g id="line2d_59">
      <g>
       <use xlink:href="#m041b136c18" x="410.642897" y="680.741033" style="stroke: #000000; stroke-width: 0.8"/>
      </g>
     </g>
     <g id="text_56">
      <!-- 30 -->
      <g transform="translate(404.280397 695.339471) scale(0.1 -0.1)">
       <use xlink:href="#DejaVuSans-33"/>
       <use xlink:href="#DejaVuSans-30" x="63.623047"/>
      </g>
     </g>
    </g>
   </g>
   <g id="matplotlib.axis_8">
    <g id="ytick_20">
     <g id="line2d_60">
      <g>
       <use xlink:href="#mc294432ff3" x="49.598267" y="636.848889" style="stroke: #000000; stroke-width: 0.8"/>
      </g>
     </g>
     <g id="text_57">
      <!-- 0 -->
      <g transform="translate(36.235767 640.648108) scale(0.1 -0.1)">
       <use xlink:href="#DejaVuSans-30"/>
      </g>
     </g>
    </g>
    <g id="ytick_21">
     <g id="line2d_61">
      <g>
       <use xlink:href="#mc294432ff3" x="49.598267" y="590.889662" style="stroke: #000000; stroke-width: 0.8"/>
      </g>
     </g>
     <g id="text_58">
      <!-- 5 -->
      <g transform="translate(36.235767 594.688881) scale(0.1 -0.1)">
       <use xlink:href="#DejaVuSans-35"/>
      </g>
     </g>
    </g>
    <g id="ytick_22">
     <g id="line2d_62">
      <g>
       <use xlink:href="#mc294432ff3" x="49.598267" y="544.930435" style="stroke: #000000; stroke-width: 0.8"/>
      </g>
     </g>
     <g id="text_59">
      <!-- 10 -->
      <g transform="translate(29.873267 548.729654) scale(0.1 -0.1)">
       <use xlink:href="#DejaVuSans-31"/>
       <use xlink:href="#DejaVuSans-30" x="63.623047"/>
      </g>
     </g>
    </g>
    <g id="ytick_23">
     <g id="line2d_63">
      <g>
       <use xlink:href="#mc294432ff3" x="49.598267" y="498.971208" style="stroke: #000000; stroke-width: 0.8"/>
      </g>
     </g>
     <g id="text_60">
      <!-- 15 -->
      <g transform="translate(29.873267 502.770427) scale(0.1 -0.1)">
       <use xlink:href="#DejaVuSans-31"/>
       <use xlink:href="#DejaVuSans-35" x="63.623047"/>
      </g>
     </g>
    </g>
    <g id="ytick_24">
     <g id="line2d_64">
      <g>
       <use xlink:href="#mc294432ff3" x="49.598267" y="453.011981" style="stroke: #000000; stroke-width: 0.8"/>
      </g>
     </g>
     <g id="text_61">
      <!-- 20 -->
      <g transform="translate(29.873267 456.8112) scale(0.1 -0.1)">
       <use xlink:href="#DejaVuSans-32"/>
       <use xlink:href="#DejaVuSans-30" x="63.623047"/>
      </g>
     </g>
    </g>
    <g id="ytick_25">
     <g id="line2d_65">
      <g>
       <use xlink:href="#mc294432ff3" x="49.598267" y="407.052754" style="stroke: #000000; stroke-width: 0.8"/>
      </g>
     </g>
     <g id="text_62">
      <!-- 25 -->
      <g transform="translate(29.873267 410.851973) scale(0.1 -0.1)">
       <use xlink:href="#DejaVuSans-32"/>
       <use xlink:href="#DejaVuSans-35" x="63.623047"/>
      </g>
     </g>
    </g>
   </g>
   <g id="line2d_66">
    <path d="M 67.3358 630.456816 
L 78.77937 424.547587 
L 90.22294 646.956425 
L 101.66651 620.451282 
L 113.11008 630.681417 
L 124.553649 485.296504 
L 135.997219 621.8432 
L 147.440789 664.684369 
L 158.884359 418.34401 
L 170.327929 624.41453 
L 181.771499 646.855686 
L 193.215069 580.875699 
L 204.658639 389.293187 
L 216.102209 487.561365 
L 227.545778 662.611331 
L 238.989348 647.389362 
L 250.432918 630.907695 
L 261.876488 633.62803 
L 273.320058 614.283186 
L 284.763628 646.804484 
L 296.207198 662.159552 
L 307.650768 647.376401 
L 319.094338 622.810827 
L 330.537908 622.282939 
L 341.981477 647.104229 
L 353.425047 584.507394 
L 364.868617 620.236284 
L 376.312187 411.382119 
L 387.755757 666.862564 
L 399.199327 630.187724 
L 410.642897 396.787316 
L 422.086467 647.20084 
" clip-path="url(#p11ab5b2c02)" style="fill: none; stroke: #1f77b4; stroke-opacity: 0.5; stroke-width: 1.5; stroke-linecap: square"/>
   </g>
   <g id="line2d_67">
    <path d="M 67.3358 621.943937 
L 78.77937 460.335997 
L 90.22294 645.923231 
L 101.66651 619.36964 
L 113.11008 619.713257 
L 124.553649 486.961313 
L 135.997219 620.834675 
L 147.440789 664.627727 
L 158.884359 455.310924 
L 170.327929 618.236701 
L 181.771499 653.693463 
L 193.215069 583.914478 
L 204.658639 419.360869 
L 216.102209 481.496958 
L 227.545778 664.334499 
L 238.989348 654.977191 
L 250.432918 619.446715 
L 261.876488 619.877522 
L 273.320058 612.916231 
L 284.763628 646.6955 
L 296.207198 661.654913 
L 307.650768 652.138322 
L 319.094338 625.467087 
L 330.537908 621.297169 
L 341.981477 648.696227 
L 353.425047 596.975731 
L 364.868617 619.428795 
L 376.312187 449.280336 
L 387.755757 628.328318 
L 399.199327 627.045147 
L 410.642897 418.678645 
L 422.086467 650.49957 
" clip-path="url(#p11ab5b2c02)" style="fill: none; stroke-dasharray: 5.55,2.4; stroke-dashoffset: 0; stroke: #ff7f0e; stroke-opacity: 0.5; stroke-width: 1.5"/>
   </g>
   <g id="patch_21">
    <path d="M 49.598267 680.741033 
L 49.598267 375.414718 
" style="fill: none; stroke: #000000; stroke-width: 0.8; stroke-linejoin: miter; stroke-linecap: square"/>
   </g>
   <g id="patch_22">
    <path d="M 439.824 680.741033 
L 439.824 375.414718 
" style="fill: none; stroke: #000000; stroke-width: 0.8; stroke-linejoin: miter; stroke-linecap: square"/>
   </g>
   <g id="patch_23">
    <path d="M 49.598267 680.741033 
L 439.824 680.741033 
" style="fill: none; stroke: #000000; stroke-width: 0.8; stroke-linejoin: miter; stroke-linecap: square"/>
   </g>
   <g id="patch_24">
    <path d="M 49.598267 375.414718 
L 439.824 375.414718 
" style="fill: none; stroke: #000000; stroke-width: 0.8; stroke-linejoin: miter; stroke-linecap: square"/>
   </g>
   <g id="text_63">
    <!-- rpy_x -->
    <g transform="translate(228.333008 369.414718) scale(0.12 -0.12)">
     <defs>
      <path id="DejaVuSans-70" d="M 1159 525 
L 1159 -1331 
L 581 -1331 
L 581 3500 
L 1159 3500 
L 1159 2969 
Q 1341 3281 1617 3432 
Q 1894 3584 2278 3584 
Q 2916 3584 3314 3078 
Q 3713 2572 3713 1747 
Q 3713 922 3314 415 
Q 2916 -91 2278 -91 
Q 1894 -91 1617 61 
Q 1341 213 1159 525 
z
M 3116 1747 
Q 3116 2381 2855 2742 
Q 2594 3103 2138 3103 
Q 1681 3103 1420 2742 
Q 1159 2381 1159 1747 
Q 1159 1113 1420 752 
Q 1681 391 2138 391 
Q 2594 391 2855 752 
Q 3116 1113 3116 1747 
z
" transform="scale(0.015625)"/>
     </defs>
     <use xlink:href="#DejaVuSans-72"/>
     <use xlink:href="#DejaVuSans-70" x="41.113281"/>
     <use xlink:href="#DejaVuSans-79" x="104.589844"/>
     <use xlink:href="#DejaVuSans-5f" x="163.769531"/>
     <use xlink:href="#DejaVuSans-78" x="213.769531"/>
    </g>
   </g>
   <g id="legend_4">
    <g id="patch_25">
     <path d="M 56.598267 412.770968 
L 135.538892 412.770968 
Q 137.538892 412.770968 137.538892 410.770968 
L 137.538892 382.414718 
Q 137.538892 380.414718 135.538892 380.414718 
L 56.598267 380.414718 
Q 54.598267 380.414718 54.598267 382.414718 
L 54.598267 410.770968 
Q 54.598267 412.770968 56.598267 412.770968 
z
" style="fill: #ffffff; opacity: 0.8; stroke: #cccccc; stroke-linejoin: miter"/>
    </g>
    <g id="line2d_68">
     <path d="M 58.598267 388.513155 
L 68.598267 388.513155 
L 78.598267 388.513155 
" style="fill: none; stroke: #1f77b4; stroke-opacity: 0.5; stroke-width: 1.5; stroke-linecap: square"/>
    </g>
    <g id="text_64">
     <!-- True -->
     <g transform="translate(86.598267 392.013155) scale(0.1 -0.1)">
      <use xlink:href="#DejaVuSans-54"/>
      <use xlink:href="#DejaVuSans-72" x="46.333984"/>
      <use xlink:href="#DejaVuSans-75" x="87.447266"/>
      <use xlink:href="#DejaVuSans-65" x="150.826172"/>
     </g>
    </g>
    <g id="line2d_69">
     <path d="M 58.598267 403.19128 
L 68.598267 403.19128 
L 78.598267 403.19128 
" style="fill: none; stroke-dasharray: 5.55,2.4; stroke-dashoffset: 0; stroke: #ff7f0e; stroke-opacity: 0.5; stroke-width: 1.5"/>
    </g>
    <g id="text_65">
     <!-- Predicted -->
     <g transform="translate(86.598267 406.69128) scale(0.1 -0.1)">
      <use xlink:href="#DejaVuSans-50"/>
      <use xlink:href="#DejaVuSans-72" x="58.552734"/>
      <use xlink:href="#DejaVuSans-65" x="97.416016"/>
      <use xlink:href="#DejaVuSans-64" x="158.939453"/>
      <use xlink:href="#DejaVuSans-69" x="222.416016"/>
      <use xlink:href="#DejaVuSans-63" x="250.199219"/>
      <use xlink:href="#DejaVuSans-74" x="305.179688"/>
      <use xlink:href="#DejaVuSans-65" x="344.388672"/>
      <use xlink:href="#DejaVuSans-64" x="405.912109"/>
     </g>
    </g>
   </g>
  </g>
  <g id="axes_5">
   <g id="patch_26">
    <path d="M 489.422267 680.741033 
L 879.648 680.741033 
L 879.648 375.414718 
L 489.422267 375.414718 
z
" style="fill: #ffffff"/>
   </g>
   <g id="matplotlib.axis_9">
    <g id="xtick_29">
     <g id="line2d_70">
      <g>
       <use xlink:href="#m041b136c18" x="507.1598" y="680.741033" style="stroke: #000000; stroke-width: 0.8"/>
      </g>
     </g>
     <g id="text_66">
      <!-- 0 -->
      <g transform="translate(503.97855 695.339471) scale(0.1 -0.1)">
       <use xlink:href="#DejaVuSans-30"/>
      </g>
     </g>
    </g>
    <g id="xtick_30">
     <g id="line2d_71">
      <g>
       <use xlink:href="#m041b136c18" x="564.377649" y="680.741033" style="stroke: #000000; stroke-width: 0.8"/>
      </g>
     </g>
     <g id="text_67">
      <!-- 5 -->
      <g transform="translate(561.196399 695.339471) scale(0.1 -0.1)">
       <use xlink:href="#DejaVuSans-35"/>
      </g>
     </g>
    </g>
    <g id="xtick_31">
     <g id="line2d_72">
      <g>
       <use xlink:href="#m041b136c18" x="621.595499" y="680.741033" style="stroke: #000000; stroke-width: 0.8"/>
      </g>
     </g>
     <g id="text_68">
      <!-- 10 -->
      <g transform="translate(615.232999 695.339471) scale(0.1 -0.1)">
       <use xlink:href="#DejaVuSans-31"/>
       <use xlink:href="#DejaVuSans-30" x="63.623047"/>
      </g>
     </g>
    </g>
    <g id="xtick_32">
     <g id="line2d_73">
      <g>
       <use xlink:href="#m041b136c18" x="678.813348" y="680.741033" style="stroke: #000000; stroke-width: 0.8"/>
      </g>
     </g>
     <g id="text_69">
      <!-- 15 -->
      <g transform="translate(672.450848 695.339471) scale(0.1 -0.1)">
       <use xlink:href="#DejaVuSans-31"/>
       <use xlink:href="#DejaVuSans-35" x="63.623047"/>
      </g>
     </g>
    </g>
    <g id="xtick_33">
     <g id="line2d_74">
      <g>
       <use xlink:href="#m041b136c18" x="736.031198" y="680.741033" style="stroke: #000000; stroke-width: 0.8"/>
      </g>
     </g>
     <g id="text_70">
      <!-- 20 -->
      <g transform="translate(729.668698 695.339471) scale(0.1 -0.1)">
       <use xlink:href="#DejaVuSans-32"/>
       <use xlink:href="#DejaVuSans-30" x="63.623047"/>
      </g>
     </g>
    </g>
    <g id="xtick_34">
     <g id="line2d_75">
      <g>
       <use xlink:href="#m041b136c18" x="793.249047" y="680.741033" style="stroke: #000000; stroke-width: 0.8"/>
      </g>
     </g>
     <g id="text_71">
      <!-- 25 -->
      <g transform="translate(786.886547 695.339471) scale(0.1 -0.1)">
       <use xlink:href="#DejaVuSans-32"/>
       <use xlink:href="#DejaVuSans-35" x="63.623047"/>
      </g>
     </g>
    </g>
    <g id="xtick_35">
     <g id="line2d_76">
      <g>
       <use xlink:href="#m041b136c18" x="850.466897" y="680.741033" style="stroke: #000000; stroke-width: 0.8"/>
      </g>
     </g>
     <g id="text_72">
      <!-- 30 -->
      <g transform="translate(844.104397 695.339471) scale(0.1 -0.1)">
       <use xlink:href="#DejaVuSans-33"/>
       <use xlink:href="#DejaVuSans-30" x="63.623047"/>
      </g>
     </g>
    </g>
   </g>
   <g id="matplotlib.axis_10">
    <g id="ytick_26">
     <g id="line2d_77">
      <g>
       <use xlink:href="#mc294432ff3" x="489.422267" y="646.321096" style="stroke: #000000; stroke-width: 0.8"/>
      </g>
     </g>
     <g id="text_73">
      <!-- 0 -->
      <g transform="translate(476.059767 650.120315) scale(0.1 -0.1)">
       <use xlink:href="#DejaVuSans-30"/>
      </g>
     </g>
    </g>
    <g id="ytick_27">
     <g id="line2d_78">
      <g>
       <use xlink:href="#mc294432ff3" x="489.422267" y="583.900682" style="stroke: #000000; stroke-width: 0.8"/>
      </g>
     </g>
     <g id="text_74">
      <!-- 20 -->
      <g transform="translate(469.697267 587.699901) scale(0.1 -0.1)">
       <use xlink:href="#DejaVuSans-32"/>
       <use xlink:href="#DejaVuSans-30" x="63.623047"/>
      </g>
     </g>
    </g>
    <g id="ytick_28">
     <g id="line2d_79">
      <g>
       <use xlink:href="#mc294432ff3" x="489.422267" y="521.480268" style="stroke: #000000; stroke-width: 0.8"/>
      </g>
     </g>
     <g id="text_75">
      <!-- 40 -->
      <g transform="translate(469.697267 525.279486) scale(0.1 -0.1)">
       <use xlink:href="#DejaVuSans-34"/>
       <use xlink:href="#DejaVuSans-30" x="63.623047"/>
      </g>
     </g>
    </g>
    <g id="ytick_29">
     <g id="line2d_80">
      <g>
       <use xlink:href="#mc294432ff3" x="489.422267" y="459.059853" style="stroke: #000000; stroke-width: 0.8"/>
      </g>
     </g>
     <g id="text_76">
      <!-- 60 -->
      <g transform="translate(469.697267 462.859072) scale(0.1 -0.1)">
       <defs>
        <path id="DejaVuSans-36" d="M 2113 2584 
Q 1688 2584 1439 2293 
Q 1191 2003 1191 1497 
Q 1191 994 1439 701 
Q 1688 409 2113 409 
Q 2538 409 2786 701 
Q 3034 994 3034 1497 
Q 3034 2003 2786 2293 
Q 2538 2584 2113 2584 
z
M 3366 4563 
L 3366 3988 
Q 3128 4100 2886 4159 
Q 2644 4219 2406 4219 
Q 1781 4219 1451 3797 
Q 1122 3375 1075 2522 
Q 1259 2794 1537 2939 
Q 1816 3084 2150 3084 
Q 2853 3084 3261 2657 
Q 3669 2231 3669 1497 
Q 3669 778 3244 343 
Q 2819 -91 2113 -91 
Q 1303 -91 875 529 
Q 447 1150 447 2328 
Q 447 3434 972 4092 
Q 1497 4750 2381 4750 
Q 2619 4750 2861 4703 
Q 3103 4656 3366 4563 
z
" transform="scale(0.015625)"/>
       </defs>
       <use xlink:href="#DejaVuSans-36"/>
       <use xlink:href="#DejaVuSans-30" x="63.623047"/>
      </g>
     </g>
    </g>
    <g id="ytick_30">
     <g id="line2d_81">
      <g>
       <use xlink:href="#mc294432ff3" x="489.422267" y="396.639439" style="stroke: #000000; stroke-width: 0.8"/>
      </g>
     </g>
     <g id="text_77">
      <!-- 80 -->
      <g transform="translate(469.697267 400.438658) scale(0.1 -0.1)">
       <defs>
        <path id="DejaVuSans-38" d="M 2034 2216 
Q 1584 2216 1326 1975 
Q 1069 1734 1069 1313 
Q 1069 891 1326 650 
Q 1584 409 2034 409 
Q 2484 409 2743 651 
Q 3003 894 3003 1313 
Q 3003 1734 2745 1975 
Q 2488 2216 2034 2216 
z
M 1403 2484 
Q 997 2584 770 2862 
Q 544 3141 544 3541 
Q 544 4100 942 4425 
Q 1341 4750 2034 4750 
Q 2731 4750 3128 4425 
Q 3525 4100 3525 3541 
Q 3525 3141 3298 2862 
Q 3072 2584 2669 2484 
Q 3125 2378 3379 2068 
Q 3634 1759 3634 1313 
Q 3634 634 3220 271 
Q 2806 -91 2034 -91 
Q 1263 -91 848 271 
Q 434 634 434 1313 
Q 434 1759 690 2068 
Q 947 2378 1403 2484 
z
M 1172 3481 
Q 1172 3119 1398 2916 
Q 1625 2713 2034 2713 
Q 2441 2713 2670 2916 
Q 2900 3119 2900 3481 
Q 2900 3844 2670 4047 
Q 2441 4250 2034 4250 
Q 1625 4250 1398 4047 
Q 1172 3844 1172 3481 
z
" transform="scale(0.015625)"/>
       </defs>
       <use xlink:href="#DejaVuSans-38"/>
       <use xlink:href="#DejaVuSans-30" x="63.623047"/>
      </g>
     </g>
    </g>
   </g>
   <g id="line2d_82">
    <path d="M 507.1598 643.567091 
L 518.60337 390.198905 
L 530.04694 633.722441 
L 541.49051 647.446591 
L 552.93408 644.14446 
L 564.377649 402.078438 
L 575.821219 646.385456 
L 587.264789 653.0498 
L 598.708359 390.801883 
L 610.151929 639.988919 
L 621.595499 650.128778 
L 633.039069 415.981043 
L 644.482639 409.14569 
L 655.926209 427.104965 
L 667.369778 650.48273 
L 678.813348 643.72764 
L 690.256918 643.740189 
L 701.700488 638.246239 
L 713.144058 648.506685 
L 724.587628 633.798346 
L 736.031198 650.492897 
L 747.474768 650.126278 
L 758.918338 644.467118 
L 770.361908 645.961087 
L 781.805477 633.184284 
L 793.249047 422.157841 
L 804.692617 647.389741 
L 816.136187 389.293187 
L 827.579757 652.685544 
L 839.023327 634.077923 
L 850.466897 410.969913 
L 861.910467 632.966932 
" clip-path="url(#pec606a033e)" style="fill: none; stroke: #1f77b4; stroke-opacity: 0.5; stroke-width: 1.5; stroke-linecap: square"/>
   </g>
   <g id="line2d_83">
    <path d="M 507.1598 637.905479 
L 518.60337 398.248287 
L 530.04694 633.889634 
L 541.49051 646.597116 
L 552.93408 640.461256 
L 564.377649 410.485635 
L 575.821219 645.661467 
L 587.264789 661.771107 
L 598.708359 403.636495 
L 610.151929 642.950832 
L 621.595499 646.774363 
L 633.039069 416.547899 
L 644.482639 409.406569 
L 655.926209 429.644295 
L 667.369778 666.580613 
L 678.813348 640.999146 
L 690.256918 640.125812 
L 701.700488 643.531779 
L 713.144058 653.183347 
L 724.587628 633.617736 
L 736.031198 666.862564 
L 747.474768 648.451389 
L 758.918338 643.66245 
L 770.361908 645.844845 
L 781.805477 632.719418 
L 793.249047 420.41022 
L 804.692617 646.849429 
L 816.136187 402.214711 
L 827.579757 648.075477 
L 839.023327 640.451047 
L 850.466897 410.910122 
L 861.910467 632.029962 
" clip-path="url(#pec606a033e)" style="fill: none; stroke-dasharray: 5.55,2.4; stroke-dashoffset: 0; stroke: #ff7f0e; stroke-opacity: 0.5; stroke-width: 1.5"/>
   </g>
   <g id="patch_27">
    <path d="M 489.422267 680.741033 
L 489.422267 375.414718 
" style="fill: none; stroke: #000000; stroke-width: 0.8; stroke-linejoin: miter; stroke-linecap: square"/>
   </g>
   <g id="patch_28">
    <path d="M 879.648 680.741033 
L 879.648 375.414718 
" style="fill: none; stroke: #000000; stroke-width: 0.8; stroke-linejoin: miter; stroke-linecap: square"/>
   </g>
   <g id="patch_29">
    <path d="M 489.422267 680.741033 
L 879.648 680.741033 
" style="fill: none; stroke: #000000; stroke-width: 0.8; stroke-linejoin: miter; stroke-linecap: square"/>
   </g>
   <g id="patch_30">
    <path d="M 489.422267 375.414718 
L 879.648 375.414718 
" style="fill: none; stroke: #000000; stroke-width: 0.8; stroke-linejoin: miter; stroke-linecap: square"/>
   </g>
   <g id="text_78">
    <!-- rpy_y -->
    <g transform="translate(668.157008 369.414718) scale(0.12 -0.12)">
     <use xlink:href="#DejaVuSans-72"/>
     <use xlink:href="#DejaVuSans-70" x="41.113281"/>
     <use xlink:href="#DejaVuSans-79" x="104.589844"/>
     <use xlink:href="#DejaVuSans-5f" x="163.769531"/>
     <use xlink:href="#DejaVuSans-79" x="213.769531"/>
    </g>
   </g>
   <g id="legend_5">
    <g id="patch_31">
     <path d="M 793.707375 544.256001 
L 872.648 544.256001 
Q 874.648 544.256001 874.648 542.256001 
L 874.648 513.899751 
Q 874.648 511.899751 872.648 511.899751 
L 793.707375 511.899751 
Q 791.707375 511.899751 791.707375 513.899751 
L 791.707375 542.256001 
Q 791.707375 544.256001 793.707375 544.256001 
z
" style="fill: #ffffff; opacity: 0.8; stroke: #cccccc; stroke-linejoin: miter"/>
    </g>
    <g id="line2d_84">
     <path d="M 795.707375 519.998188 
L 805.707375 519.998188 
L 815.707375 519.998188 
" style="fill: none; stroke: #1f77b4; stroke-opacity: 0.5; stroke-width: 1.5; stroke-linecap: square"/>
    </g>
    <g id="text_79">
     <!-- True -->
     <g transform="translate(823.707375 523.498188) scale(0.1 -0.1)">
      <use xlink:href="#DejaVuSans-54"/>
      <use xlink:href="#DejaVuSans-72" x="46.333984"/>
      <use xlink:href="#DejaVuSans-75" x="87.447266"/>
      <use xlink:href="#DejaVuSans-65" x="150.826172"/>
     </g>
    </g>
    <g id="line2d_85">
     <path d="M 795.707375 534.676313 
L 805.707375 534.676313 
L 815.707375 534.676313 
" style="fill: none; stroke-dasharray: 5.55,2.4; stroke-dashoffset: 0; stroke: #ff7f0e; stroke-opacity: 0.5; stroke-width: 1.5"/>
    </g>
    <g id="text_80">
     <!-- Predicted -->
     <g transform="translate(823.707375 538.176313) scale(0.1 -0.1)">
      <use xlink:href="#DejaVuSans-50"/>
      <use xlink:href="#DejaVuSans-72" x="58.552734"/>
      <use xlink:href="#DejaVuSans-65" x="97.416016"/>
      <use xlink:href="#DejaVuSans-64" x="158.939453"/>
      <use xlink:href="#DejaVuSans-69" x="222.416016"/>
      <use xlink:href="#DejaVuSans-63" x="250.199219"/>
      <use xlink:href="#DejaVuSans-74" x="305.179688"/>
      <use xlink:href="#DejaVuSans-65" x="344.388672"/>
      <use xlink:href="#DejaVuSans-64" x="405.912109"/>
     </g>
    </g>
   </g>
  </g>
  <g id="axes_6">
   <g id="patch_32">
    <path d="M 929.246267 680.741033 
L 1319.472 680.741033 
L 1319.472 375.414718 
L 929.246267 375.414718 
z
" style="fill: #ffffff"/>
   </g>
   <g id="matplotlib.axis_11">
    <g id="xtick_36">
     <g id="line2d_86">
      <g>
       <use xlink:href="#m041b136c18" x="946.9838" y="680.741033" style="stroke: #000000; stroke-width: 0.8"/>
      </g>
     </g>
     <g id="text_81">
      <!-- 0 -->
      <g transform="translate(943.80255 695.339471) scale(0.1 -0.1)">
       <use xlink:href="#DejaVuSans-30"/>
      </g>
     </g>
    </g>
    <g id="xtick_37">
     <g id="line2d_87">
      <g>
       <use xlink:href="#m041b136c18" x="1004.201649" y="680.741033" style="stroke: #000000; stroke-width: 0.8"/>
      </g>
     </g>
     <g id="text_82">
      <!-- 5 -->
      <g transform="translate(1001.020399 695.339471) scale(0.1 -0.1)">
       <use xlink:href="#DejaVuSans-35"/>
      </g>
     </g>
    </g>
    <g id="xtick_38">
     <g id="line2d_88">
      <g>
       <use xlink:href="#m041b136c18" x="1061.419499" y="680.741033" style="stroke: #000000; stroke-width: 0.8"/>
      </g>
     </g>
     <g id="text_83">
      <!-- 10 -->
      <g transform="translate(1055.056999 695.339471) scale(0.1 -0.1)">
       <use xlink:href="#DejaVuSans-31"/>
       <use xlink:href="#DejaVuSans-30" x="63.623047"/>
      </g>
     </g>
    </g>
    <g id="xtick_39">
     <g id="line2d_89">
      <g>
       <use xlink:href="#m041b136c18" x="1118.637348" y="680.741033" style="stroke: #000000; stroke-width: 0.8"/>
      </g>
     </g>
     <g id="text_84">
      <!-- 15 -->
      <g transform="translate(1112.274848 695.339471) scale(0.1 -0.1)">
       <use xlink:href="#DejaVuSans-31"/>
       <use xlink:href="#DejaVuSans-35" x="63.623047"/>
      </g>
     </g>
    </g>
    <g id="xtick_40">
     <g id="line2d_90">
      <g>
       <use xlink:href="#m041b136c18" x="1175.855198" y="680.741033" style="stroke: #000000; stroke-width: 0.8"/>
      </g>
     </g>
     <g id="text_85">
      <!-- 20 -->
      <g transform="translate(1169.492698 695.339471) scale(0.1 -0.1)">
       <use xlink:href="#DejaVuSans-32"/>
       <use xlink:href="#DejaVuSans-30" x="63.623047"/>
      </g>
     </g>
    </g>
    <g id="xtick_41">
     <g id="line2d_91">
      <g>
       <use xlink:href="#m041b136c18" x="1233.073047" y="680.741033" style="stroke: #000000; stroke-width: 0.8"/>
      </g>
     </g>
     <g id="text_86">
      <!-- 25 -->
      <g transform="translate(1226.710547 695.339471) scale(0.1 -0.1)">
       <use xlink:href="#DejaVuSans-32"/>
       <use xlink:href="#DejaVuSans-35" x="63.623047"/>
      </g>
     </g>
    </g>
    <g id="xtick_42">
     <g id="line2d_92">
      <g>
       <use xlink:href="#m041b136c18" x="1290.290897" y="680.741033" style="stroke: #000000; stroke-width: 0.8"/>
      </g>
     </g>
     <g id="text_87">
      <!-- 30 -->
      <g transform="translate(1283.928397 695.339471) scale(0.1 -0.1)">
       <use xlink:href="#DejaVuSans-33"/>
       <use xlink:href="#DejaVuSans-30" x="63.623047"/>
      </g>
     </g>
    </g>
   </g>
   <g id="matplotlib.axis_12">
    <g id="ytick_31">
     <g id="line2d_93">
      <g>
       <use xlink:href="#mc294432ff3" x="929.246267" y="667.365255" style="stroke: #000000; stroke-width: 0.8"/>
      </g>
     </g>
     <g id="text_88">
      <!-- −80 -->
      <g transform="translate(901.141579 671.164474) scale(0.1 -0.1)">
       <use xlink:href="#DejaVuSans-2212"/>
       <use xlink:href="#DejaVuSans-38" x="83.789062"/>
       <use xlink:href="#DejaVuSans-30" x="147.412109"/>
      </g>
     </g>
    </g>
    <g id="ytick_32">
     <g id="line2d_94">
      <g>
       <use xlink:href="#mc294432ff3" x="929.246267" y="631.847677" style="stroke: #000000; stroke-width: 0.8"/>
      </g>
     </g>
     <g id="text_89">
      <!-- −60 -->
      <g transform="translate(901.141579 635.646896) scale(0.1 -0.1)">
       <use xlink:href="#DejaVuSans-2212"/>
       <use xlink:href="#DejaVuSans-36" x="83.789062"/>
       <use xlink:href="#DejaVuSans-30" x="147.412109"/>
      </g>
     </g>
    </g>
    <g id="ytick_33">
     <g id="line2d_95">
      <g>
       <use xlink:href="#mc294432ff3" x="929.246267" y="596.330099" style="stroke: #000000; stroke-width: 0.8"/>
      </g>
     </g>
     <g id="text_90">
      <!-- −40 -->
      <g transform="translate(901.141579 600.129317) scale(0.1 -0.1)">
       <use xlink:href="#DejaVuSans-2212"/>
       <use xlink:href="#DejaVuSans-34" x="83.789062"/>
       <use xlink:href="#DejaVuSans-30" x="147.412109"/>
      </g>
     </g>
    </g>
    <g id="ytick_34">
     <g id="line2d_96">
      <g>
       <use xlink:href="#mc294432ff3" x="929.246267" y="560.81252" style="stroke: #000000; stroke-width: 0.8"/>
      </g>
     </g>
     <g id="text_91">
      <!-- −20 -->
      <g transform="translate(901.141579 564.611739) scale(0.1 -0.1)">
       <use xlink:href="#DejaVuSans-2212"/>
       <use xlink:href="#DejaVuSans-32" x="83.789062"/>
       <use xlink:href="#DejaVuSans-30" x="147.412109"/>
      </g>
     </g>
    </g>
    <g id="ytick_35">
     <g id="line2d_97">
      <g>
       <use xlink:href="#mc294432ff3" x="929.246267" y="525.294942" style="stroke: #000000; stroke-width: 0.8"/>
      </g>
     </g>
     <g id="text_92">
      <!-- 0 -->
      <g transform="translate(915.883767 529.094161) scale(0.1 -0.1)">
       <use xlink:href="#DejaVuSans-30"/>
      </g>
     </g>
    </g>
    <g id="ytick_36">
     <g id="line2d_98">
      <g>
       <use xlink:href="#mc294432ff3" x="929.246267" y="489.777364" style="stroke: #000000; stroke-width: 0.8"/>
      </g>
     </g>
     <g id="text_93">
      <!-- 20 -->
      <g transform="translate(909.521267 493.576583) scale(0.1 -0.1)">
       <use xlink:href="#DejaVuSans-32"/>
       <use xlink:href="#DejaVuSans-30" x="63.623047"/>
      </g>
     </g>
    </g>
    <g id="ytick_37">
     <g id="line2d_99">
      <g>
       <use xlink:href="#mc294432ff3" x="929.246267" y="454.259786" style="stroke: #000000; stroke-width: 0.8"/>
      </g>
     </g>
     <g id="text_94">
      <!-- 40 -->
      <g transform="translate(909.521267 458.059005) scale(0.1 -0.1)">
       <use xlink:href="#DejaVuSans-34"/>
       <use xlink:href="#DejaVuSans-30" x="63.623047"/>
      </g>
     </g>
    </g>
    <g id="ytick_38">
     <g id="line2d_100">
      <g>
       <use xlink:href="#mc294432ff3" x="929.246267" y="418.742208" style="stroke: #000000; stroke-width: 0.8"/>
      </g>
     </g>
     <g id="text_95">
      <!-- 60 -->
      <g transform="translate(909.521267 422.541426) scale(0.1 -0.1)">
       <use xlink:href="#DejaVuSans-36"/>
       <use xlink:href="#DejaVuSans-30" x="63.623047"/>
      </g>
     </g>
    </g>
    <g id="ytick_39">
     <g id="line2d_101">
      <g>
       <use xlink:href="#mc294432ff3" x="929.246267" y="383.22463" style="stroke: #000000; stroke-width: 0.8"/>
      </g>
     </g>
     <g id="text_96">
      <!-- 80 -->
      <g transform="translate(909.521267 387.023848) scale(0.1 -0.1)">
       <use xlink:href="#DejaVuSans-38"/>
       <use xlink:href="#DejaVuSans-30" x="63.623047"/>
      </g>
     </g>
    </g>
   </g>
   <g id="line2d_102">
    <path d="M 946.9838 650.364052 
L 958.42737 488.914107 
L 969.87094 661.838016 
L 981.31451 663.384269 
L 992.75808 653.01527 
L 1004.201649 500.511131 
L 1015.645219 663.829661 
L 1027.088789 394.992849 
L 1038.532359 487.636895 
L 1049.975929 398.256557 
L 1061.419499 399.018411 
L 1072.863069 522.068454 
L 1084.306639 475.143587 
L 1095.750209 504.310092 
L 1107.193778 399.450309 
L 1118.637348 394.781161 
L 1130.080918 651.255202 
L 1141.524488 396.261363 
L 1152.968058 653.309538 
L 1164.411628 662.528467 
L 1175.855198 400.918777 
L 1187.298768 399.618125 
L 1198.742338 665.175065 
L 1210.185908 664.036376 
L 1221.629477 660.099776 
L 1233.073047 522.66016 
L 1244.516617 663.23244 
L 1255.960187 486.342814 
L 1267.403757 396.302917 
L 1278.847327 397.121419 
L 1290.290897 476.382798 
L 1301.734467 659.315729 
" clip-path="url(#p937befc19b)" style="fill: none; stroke: #1f77b4; stroke-opacity: 0.5; stroke-width: 1.5; stroke-linecap: square"/>
   </g>
   <g id="line2d_103">
    <path d="M 946.9838 647.689028 
L 958.42737 498.936614 
L 969.87094 662.534022 
L 981.31451 665.171447 
L 992.75808 653.103839 
L 1004.201649 501.934585 
L 1015.645219 665.21288 
L 1027.088789 391.521341 
L 1038.532359 497.309729 
L 1049.975929 395.859218 
L 1061.419499 405.717696 
L 1072.863069 523.243875 
L 1084.306639 486.053949 
L 1095.750209 508.241386 
L 1107.193778 389.293187 
L 1118.637348 397.971367 
L 1130.080918 650.588841 
L 1141.524488 399.374841 
L 1152.968058 656.423734 
L 1164.411628 663.025142 
L 1175.855198 389.864882 
L 1187.298768 403.740995 
L 1198.742338 666.862564 
L 1210.185908 665.942162 
L 1221.629477 661.911885 
L 1233.073047 524.839976 
L 1244.516617 665.131017 
L 1255.960187 496.397625 
L 1267.403757 399.289863 
L 1278.847327 403.373468 
L 1290.290897 484.988566 
L 1301.734467 662.268911 
" clip-path="url(#p937befc19b)" style="fill: none; stroke-dasharray: 5.55,2.4; stroke-dashoffset: 0; stroke: #ff7f0e; stroke-opacity: 0.5; stroke-width: 1.5"/>
   </g>
   <g id="patch_33">
    <path d="M 929.246267 680.741033 
L 929.246267 375.414718 
" style="fill: none; stroke: #000000; stroke-width: 0.8; stroke-linejoin: miter; stroke-linecap: square"/>
   </g>
   <g id="patch_34">
    <path d="M 1319.472 680.741033 
L 1319.472 375.414718 
" style="fill: none; stroke: #000000; stroke-width: 0.8; stroke-linejoin: miter; stroke-linecap: square"/>
   </g>
   <g id="patch_35">
    <path d="M 929.246267 680.741033 
L 1319.472 680.741033 
" style="fill: none; stroke: #000000; stroke-width: 0.8; stroke-linejoin: miter; stroke-linecap: square"/>
   </g>
   <g id="patch_36">
    <path d="M 929.246267 375.414718 
L 1319.472 375.414718 
" style="fill: none; stroke: #000000; stroke-width: 0.8; stroke-linejoin: miter; stroke-linecap: square"/>
   </g>
   <g id="text_97">
    <!-- rpy_z -->
    <g transform="translate(1108.383196 369.414718) scale(0.12 -0.12)">
     <use xlink:href="#DejaVuSans-72"/>
     <use xlink:href="#DejaVuSans-70" x="41.113281"/>
     <use xlink:href="#DejaVuSans-79" x="104.589844"/>
     <use xlink:href="#DejaVuSans-5f" x="163.769531"/>
     <use xlink:href="#DejaVuSans-7a" x="213.769531"/>
    </g>
   </g>
   <g id="legend_6">
    <g id="patch_37">
     <path d="M 936.246267 412.770968 
L 1015.186892 412.770968 
Q 1017.186892 412.770968 1017.186892 410.770968 
L 1017.186892 382.414718 
Q 1017.186892 380.414718 1015.186892 380.414718 
L 936.246267 380.414718 
Q 934.246267 380.414718 934.246267 382.414718 
L 934.246267 410.770968 
Q 934.246267 412.770968 936.246267 412.770968 
z
" style="fill: #ffffff; opacity: 0.8; stroke: #cccccc; stroke-linejoin: miter"/>
    </g>
    <g id="line2d_104">
     <path d="M 938.246267 388.513155 
L 948.246267 388.513155 
L 958.246267 388.513155 
" style="fill: none; stroke: #1f77b4; stroke-opacity: 0.5; stroke-width: 1.5; stroke-linecap: square"/>
    </g>
    <g id="text_98">
     <!-- True -->
     <g transform="translate(966.246267 392.013155) scale(0.1 -0.1)">
      <use xlink:href="#DejaVuSans-54"/>
      <use xlink:href="#DejaVuSans-72" x="46.333984"/>
      <use xlink:href="#DejaVuSans-75" x="87.447266"/>
      <use xlink:href="#DejaVuSans-65" x="150.826172"/>
     </g>
    </g>
    <g id="line2d_105">
     <path d="M 938.246267 403.19128 
L 948.246267 403.19128 
L 958.246267 403.19128 
" style="fill: none; stroke-dasharray: 5.55,2.4; stroke-dashoffset: 0; stroke: #ff7f0e; stroke-opacity: 0.5; stroke-width: 1.5"/>
    </g>
    <g id="text_99">
     <!-- Predicted -->
     <g transform="translate(966.246267 406.69128) scale(0.1 -0.1)">
      <use xlink:href="#DejaVuSans-50"/>
      <use xlink:href="#DejaVuSans-72" x="58.552734"/>
      <use xlink:href="#DejaVuSans-65" x="97.416016"/>
      <use xlink:href="#DejaVuSans-64" x="158.939453"/>
      <use xlink:href="#DejaVuSans-69" x="222.416016"/>
      <use xlink:href="#DejaVuSans-63" x="250.199219"/>
      <use xlink:href="#DejaVuSans-74" x="305.179688"/>
      <use xlink:href="#DejaVuSans-65" x="344.388672"/>
      <use xlink:href="#DejaVuSans-64" x="405.912109"/>
     </g>
    </g>
   </g>
  </g>
  <g id="text_100">
   <!-- Sample 1 -->
   <g transform="translate(637.0575 23.186925) scale(0.12 -0.12)">
    <defs>
     <path id="DejaVuSans-53" d="M 3425 4513 
L 3425 3897 
Q 3066 4069 2747 4153 
Q 2428 4238 2131 4238 
Q 1616 4238 1336 4038 
Q 1056 3838 1056 3469 
Q 1056 3159 1242 3001 
Q 1428 2844 1947 2747 
L 2328 2669 
Q 3034 2534 3370 2195 
Q 3706 1856 3706 1288 
Q 3706 609 3251 259 
Q 2797 -91 1919 -91 
Q 1588 -91 1214 -16 
Q 841 59 441 206 
L 441 856 
Q 825 641 1194 531 
Q 1563 422 1919 422 
Q 2459 422 2753 634 
Q 3047 847 3047 1241 
Q 3047 1584 2836 1778 
Q 2625 1972 2144 2069 
L 1759 2144 
Q 1053 2284 737 2584 
Q 422 2884 422 3419 
Q 422 4038 858 4394 
Q 1294 4750 2059 4750 
Q 2388 4750 2728 4690 
Q 3069 4631 3425 4513 
z
" transform="scale(0.015625)"/>
     <path id="DejaVuSans-6d" d="M 3328 2828 
Q 3544 3216 3844 3400 
Q 4144 3584 4550 3584 
Q 5097 3584 5394 3201 
Q 5691 2819 5691 2113 
L 5691 0 
L 5113 0 
L 5113 2094 
Q 5113 2597 4934 2840 
Q 4756 3084 4391 3084 
Q 3944 3084 3684 2787 
Q 3425 2491 3425 1978 
L 3425 0 
L 2847 0 
L 2847 2094 
Q 2847 2600 2669 2842 
Q 2491 3084 2119 3084 
Q 1678 3084 1418 2786 
Q 1159 2488 1159 1978 
L 1159 0 
L 581 0 
L 581 3500 
L 1159 3500 
L 1159 2956 
Q 1356 3278 1631 3431 
Q 1906 3584 2284 3584 
Q 2666 3584 2933 3390 
Q 3200 3197 3328 2828 
z
" transform="scale(0.015625)"/>
     <path id="DejaVuSans-20" transform="scale(0.015625)"/>
    </defs>
    <use xlink:href="#DejaVuSans-53"/>
    <use xlink:href="#DejaVuSans-61" x="63.476562"/>
    <use xlink:href="#DejaVuSans-6d" x="124.755859"/>
    <use xlink:href="#DejaVuSans-70" x="222.167969"/>
    <use xlink:href="#DejaVuSans-6c" x="285.644531"/>
    <use xlink:href="#DejaVuSans-65" x="313.427734"/>
    <use xlink:href="#DejaVuSans-20" x="374.951172"/>
    <use xlink:href="#DejaVuSans-31" x="406.738281"/>
   </g>
  </g>
 </g>
 <defs>
  <clipPath id="pa3511b3040">
   <rect x="49.598267" y="35.172" width="390.225733" height="305.326315"/>
  </clipPath>
  <clipPath id="p1bf39f130f">
   <rect x="489.422267" y="35.172" width="390.225733" height="305.326315"/>
  </clipPath>
  <clipPath id="pb407e642ca">
   <rect x="929.246267" y="35.172" width="390.225733" height="305.326315"/>
  </clipPath>
  <clipPath id="p11ab5b2c02">
   <rect x="49.598267" y="375.414718" width="390.225733" height="305.326315"/>
  </clipPath>
  <clipPath id="pec606a033e">
   <rect x="489.422267" y="375.414718" width="390.225733" height="305.326315"/>
  </clipPath>
  <clipPath id="p937befc19b">
   <rect x="929.246267" y="375.414718" width="390.225733" height="305.326315"/>
  </clipPath>
 </defs>
</svg>
