<?xml version="1.0" encoding="utf-8" standalone="no"?>
<!DOCTYPE svg PUBLIC "-//W3C//DTD SVG 1.1//EN"
  "http://www.w3.org/Graphics/SVG/1.1/DTD/svg11.dtd">
<svg xmlns:xlink="http://www.w3.org/1999/xlink" width="576pt" height="684pt" viewBox="0 0 576 684" xmlns="http://www.w3.org/2000/svg" version="1.1">
 <metadata>
  <rdf:RDF xmlns:dc="http://purl.org/dc/elements/1.1/" xmlns:cc="http://creativecommons.org/ns#" xmlns:rdf="http://www.w3.org/1999/02/22-rdf-syntax-ns#">
   <cc:Work>
    <dc:type rdf:resource="http://purl.org/dc/dcmitype/StillImage"/>
    <dc:date>2025-11-08T23:52:43.207599</dc:date>
    <dc:format>image/svg+xml</dc:format>
    <dc:creator>
     <cc:Agent>
      <dc:title>Matplotlib v3.7.5, https://matplotlib.org/</dc:title>
     </cc:Agent>
    </dc:creator>
   </cc:Work>
  </rdf:RDF>
 </metadata>
 <defs>
  <style type="text/css">*{stroke-linejoin: round; stroke-linecap: butt}</style>
 </defs>
 <g id="figure_1">
  <g id="patch_1">
   <path d="M 0 684 
L 576 684 
L 576 0 
L 0 0 
z
" style="fill: #ffffff"/>
  </g>
  <g id="axes_1">
   <g id="patch_2">
    <path d="M 101.68 638.44 
L 565.2 638.44 
L 565.2 10.8 
L 101.68 10.8 
z
" style="fill: #ffffff"/>
   </g>
   <g id="line2d_1">
    <path d="M 101.68 638.44 
L 101.68 10.8 
" clip-path="url(#pb8edbfef66)" style="fill: none; stroke: #999999; stroke-width: 1.5; stroke-linecap: square"/>
   </g>
   <g id="patch_3">
    <path d="M 101.68 619.013048 
L 133.975301 619.013048 
L 133.975301 598.091714 
L 101.68 598.091714 
z
" clip-path="url(#pb8edbfef66)" style="fill: #008bfb"/>
   </g>
   <g id="patch_4">
    <path d="M 101.68 589.125429 
L 126.495664 589.125429 
L 126.495664 568.204095 
L 101.68 568.204095 
z
" clip-path="url(#pb8edbfef66)" style="fill: #008bfb"/>
   </g>
   <g id="patch_5">
    <path d="M 101.68 559.23781 
L 132.691545 559.23781 
L 132.691545 538.316476 
L 101.68 538.316476 
z
" clip-path="url(#pb8edbfef66)" style="fill: #008bfb"/>
   </g>
   <g id="patch_6">
    <path d="M 101.68 529.35019 
L 129.92137 529.35019 
L 129.92137 508.428857 
L 101.68 508.428857 
z
" clip-path="url(#pb8edbfef66)" style="fill: #008bfb"/>
   </g>
   <g id="patch_7">
    <path d="M 101.68 499.462571 
L 169.096254 499.462571 
L 169.096254 478.541238 
L 101.68 478.541238 
z
" clip-path="url(#pb8edbfef66)" style="fill: #008bfb"/>
   </g>
   <g id="patch_8">
    <path d="M 101.68 469.574952 
L 173.693006 469.574952 
L 173.693006 448.653619 
L 101.68 448.653619 
z
" clip-path="url(#pb8edbfef66)" style="fill: #008bfb"/>
   </g>
   <g id="patch_9">
    <path d="M 101.68 439.687333 
L 127.304956 439.687333 
L 127.304956 418.766 
L 101.68 418.766 
z
" clip-path="url(#pb8edbfef66)" style="fill: #008bfb"/>
   </g>
   <g id="patch_10">
    <path d="M 101.68 409.799714 
L 174.129043 409.799714 
L 174.129043 388.878381 
L 101.68 388.878381 
z
" clip-path="url(#pb8edbfef66)" style="fill: #008bfb"/>
   </g>
   <g id="patch_11">
    <path d="M 101.68 379.912095 
L 185.16001 379.912095 
L 185.16001 358.990762 
L 101.68 358.990762 
z
" clip-path="url(#pb8edbfef66)" style="fill: #008bfb"/>
   </g>
   <g id="patch_12">
    <path d="M 101.68 350.024476 
L 154.330622 350.024476 
L 154.330622 329.103143 
L 101.68 329.103143 
z
" clip-path="url(#pb8edbfef66)" style="fill: #008bfb"/>
   </g>
   <g id="patch_13">
    <path d="M 101.68 320.136857 
L 167.179183 320.136857 
L 167.179183 299.215524 
L 101.68 299.215524 
z
" clip-path="url(#pb8edbfef66)" style="fill: #008bfb"/>
   </g>
   <g id="patch_14">
    <path d="M 101.68 290.249238 
L 173.218002 290.249238 
L 173.218002 269.327905 
L 101.68 269.327905 
z
" clip-path="url(#pb8edbfef66)" style="fill: #008bfb"/>
   </g>
   <g id="patch_15">
    <path d="M 101.68 260.361619 
L 143.768011 260.361619 
L 143.768011 239.440286 
L 101.68 239.440286 
z
" clip-path="url(#pb8edbfef66)" style="fill: #008bfb"/>
   </g>
   <g id="patch_16">
    <path d="M 101.68 230.474 
L 223.248316 230.474 
L 223.248316 209.552667 
L 101.68 209.552667 
z
" clip-path="url(#pb8edbfef66)" style="fill: #008bfb"/>
   </g>
   <g id="patch_17">
    <path d="M 101.68 200.586381 
L 197.916194 200.586381 
L 197.916194 179.665048 
L 101.68 179.665048 
z
" clip-path="url(#pb8edbfef66)" style="fill: #008bfb"/>
   </g>
   <g id="patch_18">
    <path d="M 101.68 170.698762 
L 205.618886 170.698762 
L 205.618886 149.777429 
L 101.68 149.777429 
z
" clip-path="url(#pb8edbfef66)" style="fill: #008bfb"/>
   </g>
   <g id="patch_19">
    <path d="M 101.68 140.811143 
L 111.828073 140.811143 
L 111.828073 119.88981 
L 101.68 119.88981 
z
" clip-path="url(#pb8edbfef66)" style="fill: #008bfb"/>
   </g>
   <g id="patch_20">
    <path d="M 101.68 110.923524 
L 132.304207 110.923524 
L 132.304207 90.00219 
L 101.68 90.00219 
z
" clip-path="url(#pb8edbfef66)" style="fill: #008bfb"/>
   </g>
   <g id="patch_21">
    <path d="M 101.68 81.035905 
L 126.231268 81.035905 
L 126.231268 60.114571 
L 101.68 60.114571 
z
" clip-path="url(#pb8edbfef66)" style="fill: #008bfb"/>
   </g>
   <g id="patch_22">
    <path d="M 101.68 51.148286 
L 221.817445 51.148286 
L 221.817445 30.226952 
L 101.68 30.226952 
z
" clip-path="url(#pb8edbfef66)" style="fill: #008bfb"/>
   </g>
   <g id="patch_23">
    <path d="M 133.975301 619.013048 
L 168.581358 619.013048 
L 168.581358 598.091714 
L 133.975301 598.091714 
z
" clip-path="url(#pb8edbfef66)" style="fill: #896af0"/>
   </g>
   <g id="patch_24">
    <path d="M 126.495664 589.125429 
L 174.070384 589.125429 
L 174.070384 568.204095 
L 126.495664 568.204095 
z
" clip-path="url(#pb8edbfef66)" style="fill: #896af0"/>
   </g>
   <g id="patch_25">
    <path d="M 132.691545 559.23781 
L 164.652798 559.23781 
L 164.652798 538.316476 
L 132.691545 538.316476 
z
" clip-path="url(#pb8edbfef66)" style="fill: #896af0"/>
   </g>
   <g id="patch_26">
    <path d="M 129.92137 529.35019 
L 166.761054 529.35019 
L 166.761054 508.428857 
L 129.92137 508.428857 
z
" clip-path="url(#pb8edbfef66)" style="fill: #896af0"/>
   </g>
   <g id="patch_27">
    <path d="M 169.096254 499.462571 
L 187.14201 499.462571 
L 187.14201 478.541238 
L 169.096254 478.541238 
z
" clip-path="url(#pb8edbfef66)" style="fill: #896af0"/>
   </g>
   <g id="patch_28">
    <path d="M 173.693006 469.574952 
L 183.244762 469.574952 
L 183.244762 448.653619 
L 173.693006 448.653619 
z
" clip-path="url(#pb8edbfef66)" style="fill: #896af0"/>
   </g>
   <g id="patch_29">
    <path d="M 127.304956 439.687333 
L 166.20173 439.687333 
L 166.20173 418.766 
L 127.304956 418.766 
z
" clip-path="url(#pb8edbfef66)" style="fill: #896af0"/>
   </g>
   <g id="patch_30">
    <path d="M 174.129043 409.799714 
L 190.536158 409.799714 
L 190.536158 388.878381 
L 174.129043 388.878381 
z
" clip-path="url(#pb8edbfef66)" style="fill: #896af0"/>
   </g>
   <g id="patch_31">
    <path d="M 185.16001 379.912095 
L 205.905362 379.912095 
L 205.905362 358.990762 
L 185.16001 358.990762 
z
" clip-path="url(#pb8edbfef66)" style="fill: #896af0"/>
   </g>
   <g id="patch_32">
    <path d="M 154.330622 350.024476 
L 196.146513 350.024476 
L 196.146513 329.103143 
L 154.330622 329.103143 
z
" clip-path="url(#pb8edbfef66)" style="fill: #896af0"/>
   </g>
   <g id="patch_33">
    <path d="M 167.179183 320.136857 
L 213.068061 320.136857 
L 213.068061 299.215524 
L 167.179183 299.215524 
z
" clip-path="url(#pb8edbfef66)" style="fill: #896af0"/>
   </g>
   <g id="patch_34">
    <path d="M 173.218002 290.249238 
L 214.863408 290.249238 
L 214.863408 269.327905 
L 173.218002 269.327905 
z
" clip-path="url(#pb8edbfef66)" style="fill: #896af0"/>
   </g>
   <g id="patch_35">
    <path d="M 143.768011 260.361619 
L 210.678491 260.361619 
L 210.678491 239.440286 
L 143.768011 239.440286 
z
" clip-path="url(#pb8edbfef66)" style="fill: #896af0"/>
   </g>
   <g id="patch_36">
    <path d="M 223.248316 230.474 
L 256.955701 230.474 
L 256.955701 209.552667 
L 223.248316 209.552667 
z
" clip-path="url(#pb8edbfef66)" style="fill: #896af0"/>
   </g>
   <g id="patch_37">
    <path d="M 197.916194 200.586381 
L 233.681214 200.586381 
L 233.681214 179.665048 
L 197.916194 179.665048 
z
" clip-path="url(#pb8edbfef66)" style="fill: #896af0"/>
   </g>
   <g id="patch_38">
    <path d="M 205.618886 170.698762 
L 242.90262 170.698762 
L 242.90262 149.777429 
L 205.618886 149.777429 
z
" clip-path="url(#pb8edbfef66)" style="fill: #896af0"/>
   </g>
   <g id="patch_39">
    <path d="M 111.828073 140.811143 
L 200.137881 140.811143 
L 200.137881 119.88981 
L 111.828073 119.88981 
z
" clip-path="url(#pb8edbfef66)" style="fill: #896af0"/>
   </g>
   <g id="patch_40">
    <path d="M 132.304207 110.923524 
L 266.904605 110.923524 
L 266.904605 90.00219 
L 132.304207 90.00219 
z
" clip-path="url(#pb8edbfef66)" style="fill: #896af0"/>
   </g>
   <g id="patch_41">
    <path d="M 126.231268 81.035905 
L 268.118103 81.035905 
L 268.118103 60.114571 
L 126.231268 60.114571 
z
" clip-path="url(#pb8edbfef66)" style="fill: #896af0"/>
   </g>
   <g id="patch_42">
    <path d="M 221.817445 51.148286 
L 327.626747 51.148286 
L 327.626747 30.226952 
L 221.817445 30.226952 
z
" clip-path="url(#pb8edbfef66)" style="fill: #896af0"/>
   </g>
   <g id="patch_43">
    <path d="M 168.581358 619.013048 
L 192.691679 619.013048 
L 192.691679 598.091714 
L 168.581358 598.091714 
z
" clip-path="url(#pb8edbfef66)" style="fill: #e928ae"/>
   </g>
   <g id="patch_44">
    <path d="M 174.070384 589.125429 
L 200.049337 589.125429 
L 200.049337 568.204095 
L 174.070384 568.204095 
z
" clip-path="url(#pb8edbfef66)" style="fill: #e928ae"/>
   </g>
   <g id="patch_45">
    <path d="M 164.652798 559.23781 
L 208.074047 559.23781 
L 208.074047 538.316476 
L 164.652798 538.316476 
z
" clip-path="url(#pb8edbfef66)" style="fill: #e928ae"/>
   </g>
   <g id="patch_46">
    <path d="M 166.761054 529.35019 
L 194.138619 529.35019 
L 194.138619 508.428857 
L 166.761054 508.428857 
z
" clip-path="url(#pb8edbfef66)" style="fill: #e928ae"/>
   </g>
   <g id="patch_47">
    <path d="M 187.14201 499.462571 
L 222.034269 499.462571 
L 222.034269 478.541238 
L 187.14201 478.541238 
z
" clip-path="url(#pb8edbfef66)" style="fill: #e928ae"/>
   </g>
   <g id="patch_48">
    <path d="M 183.244762 469.574952 
L 217.231761 469.574952 
L 217.231761 448.653619 
L 183.244762 448.653619 
z
" clip-path="url(#pb8edbfef66)" style="fill: #e928ae"/>
   </g>
   <g id="patch_49">
    <path d="M 166.20173 439.687333 
L 213.158026 439.687333 
L 213.158026 418.766 
L 166.20173 418.766 
z
" clip-path="url(#pb8edbfef66)" style="fill: #e928ae"/>
   </g>
   <g id="patch_50">
    <path d="M 190.536158 409.799714 
L 222.455541 409.799714 
L 222.455541 388.878381 
L 190.536158 388.878381 
z
" clip-path="url(#pb8edbfef66)" style="fill: #e928ae"/>
   </g>
   <g id="patch_51">
    <path d="M 205.905362 379.912095 
L 243.927661 379.912095 
L 243.927661 358.990762 
L 205.905362 358.990762 
z
" clip-path="url(#pb8edbfef66)" style="fill: #e928ae"/>
   </g>
   <g id="patch_52">
    <path d="M 196.146513 350.024476 
L 246.446515 350.024476 
L 246.446515 329.103143 
L 196.146513 329.103143 
z
" clip-path="url(#pb8edbfef66)" style="fill: #e928ae"/>
   </g>
   <g id="patch_53">
    <path d="M 213.068061 320.136857 
L 245.679253 320.136857 
L 245.679253 299.215524 
L 213.068061 299.215524 
z
" clip-path="url(#pb8edbfef66)" style="fill: #e928ae"/>
   </g>
   <g id="patch_54">
    <path d="M 214.863408 290.249238 
L 238.222927 290.249238 
L 238.222927 269.327905 
L 214.863408 269.327905 
z
" clip-path="url(#pb8edbfef66)" style="fill: #e928ae"/>
   </g>
   <g id="patch_55">
    <path d="M 210.678491 260.361619 
L 243.506605 260.361619 
L 243.506605 239.440286 
L 210.678491 239.440286 
z
" clip-path="url(#pb8edbfef66)" style="fill: #e928ae"/>
   </g>
   <g id="patch_56">
    <path d="M 256.955701 230.474 
L 260.062714 230.474 
L 260.062714 209.552667 
L 256.955701 209.552667 
z
" clip-path="url(#pb8edbfef66)" style="fill: #e928ae"/>
   </g>
   <g id="patch_57">
    <path d="M 233.681214 200.586381 
L 298.978441 200.586381 
L 298.978441 179.665048 
L 233.681214 179.665048 
z
" clip-path="url(#pb8edbfef66)" style="fill: #e928ae"/>
   </g>
   <g id="patch_58">
    <path d="M 242.90262 170.698762 
L 287.916442 170.698762 
L 287.916442 149.777429 
L 242.90262 149.777429 
z
" clip-path="url(#pb8edbfef66)" style="fill: #e928ae"/>
   </g>
   <g id="patch_59">
    <path d="M 200.137881 140.811143 
L 272.221286 140.811143 
L 272.221286 119.88981 
L 200.137881 119.88981 
z
" clip-path="url(#pb8edbfef66)" style="fill: #e928ae"/>
   </g>
   <g id="patch_60">
    <path d="M 266.904605 110.923524 
L 350.704418 110.923524 
L 350.704418 90.00219 
L 266.904605 90.00219 
z
" clip-path="url(#pb8edbfef66)" style="fill: #e928ae"/>
   </g>
   <g id="patch_61">
    <path d="M 268.118103 81.035905 
L 356.560598 81.035905 
L 356.560598 60.114571 
L 268.118103 60.114571 
z
" clip-path="url(#pb8edbfef66)" style="fill: #e928ae"/>
   </g>
   <g id="patch_62">
    <path d="M 327.626747 51.148286 
L 440.799282 51.148286 
L 440.799282 30.226952 
L 327.626747 30.226952 
z
" clip-path="url(#pb8edbfef66)" style="fill: #e928ae"/>
   </g>
   <g id="patch_63">
    <path d="M 192.691679 619.013048 
L 230.598528 619.013048 
L 230.598528 598.091714 
L 192.691679 598.091714 
z
" clip-path="url(#pb8edbfef66)" style="fill: #ff004f"/>
   </g>
   <g id="patch_64">
    <path d="M 200.049337 589.125429 
L 238.230792 589.125429 
L 238.230792 568.204095 
L 200.049337 568.204095 
z
" clip-path="url(#pb8edbfef66)" style="fill: #ff004f"/>
   </g>
   <g id="patch_65">
    <path d="M 208.074047 559.23781 
L 234.661232 559.23781 
L 234.661232 538.316476 
L 208.074047 538.316476 
z
" clip-path="url(#pb8edbfef66)" style="fill: #ff004f"/>
   </g>
   <g id="patch_66">
    <path d="M 194.138619 529.35019 
L 228.96987 529.35019 
L 228.96987 508.428857 
L 194.138619 508.428857 
z
" clip-path="url(#pb8edbfef66)" style="fill: #ff004f"/>
   </g>
   <g id="patch_67">
    <path d="M 222.034269 499.462571 
L 240.490459 499.462571 
L 240.490459 478.541238 
L 222.034269 478.541238 
z
" clip-path="url(#pb8edbfef66)" style="fill: #ff004f"/>
   </g>
   <g id="patch_68">
    <path d="M 217.231761 469.574952 
L 232.399606 469.574952 
L 232.399606 448.653619 
L 217.231761 448.653619 
z
" clip-path="url(#pb8edbfef66)" style="fill: #ff004f"/>
   </g>
   <g id="patch_69">
    <path d="M 213.158026 439.687333 
L 246.914351 439.687333 
L 246.914351 418.766 
L 213.158026 418.766 
z
" clip-path="url(#pb8edbfef66)" style="fill: #ff004f"/>
   </g>
   <g id="patch_70">
    <path d="M 222.455541 409.799714 
L 245.287394 409.799714 
L 245.287394 388.878381 
L 222.455541 388.878381 
z
" clip-path="url(#pb8edbfef66)" style="fill: #ff004f"/>
   </g>
   <g id="patch_71">
    <path d="M 243.927661 379.912095 
L 259.729234 379.912095 
L 259.729234 358.990762 
L 243.927661 358.990762 
z
" clip-path="url(#pb8edbfef66)" style="fill: #ff004f"/>
   </g>
   <g id="patch_72">
    <path d="M 246.446515 350.024476 
L 275.003678 350.024476 
L 275.003678 329.103143 
L 246.446515 329.103143 
z
" clip-path="url(#pb8edbfef66)" style="fill: #ff004f"/>
   </g>
   <g id="patch_73">
    <path d="M 245.679253 320.136857 
L 273.917931 320.136857 
L 273.917931 299.215524 
L 245.679253 299.215524 
z
" clip-path="url(#pb8edbfef66)" style="fill: #ff004f"/>
   </g>
   <g id="patch_74">
    <path d="M 238.222927 290.249238 
L 278.20776 290.249238 
L 278.20776 269.327905 
L 238.222927 269.327905 
z
" clip-path="url(#pb8edbfef66)" style="fill: #ff004f"/>
   </g>
   <g id="patch_75">
    <path d="M 243.506605 260.361619 
L 302.880368 260.361619 
L 302.880368 239.440286 
L 243.506605 239.440286 
z
" clip-path="url(#pb8edbfef66)" style="fill: #ff004f"/>
   </g>
   <g id="patch_76">
    <path d="M 260.062714 230.474 
L 303.251572 230.474 
L 303.251572 209.552667 
L 260.062714 209.552667 
z
" clip-path="url(#pb8edbfef66)" style="fill: #ff004f"/>
   </g>
   <g id="patch_77">
    <path d="M 298.978441 200.586381 
L 312.664233 200.586381 
L 312.664233 179.665048 
L 298.978441 179.665048 
z
" clip-path="url(#pb8edbfef66)" style="fill: #ff004f"/>
   </g>
   <g id="patch_78">
    <path d="M 287.916442 170.698762 
L 310.191249 170.698762 
L 310.191249 149.777429 
L 287.916442 149.777429 
z
" clip-path="url(#pb8edbfef66)" style="fill: #ff004f"/>
   </g>
   <g id="patch_79">
    <path d="M 272.221286 140.811143 
L 340.045702 140.811143 
L 340.045702 119.88981 
L 272.221286 119.88981 
z
" clip-path="url(#pb8edbfef66)" style="fill: #ff004f"/>
   </g>
   <g id="patch_80">
    <path d="M 350.704418 110.923524 
L 461.387398 110.923524 
L 461.387398 90.00219 
L 350.704418 90.00219 
z
" clip-path="url(#pb8edbfef66)" style="fill: #ff004f"/>
   </g>
   <g id="patch_81">
    <path d="M 356.560598 81.035905 
L 481.756928 81.035905 
L 481.756928 60.114571 
L 356.560598 60.114571 
z
" clip-path="url(#pb8edbfef66)" style="fill: #ff004f"/>
   </g>
   <g id="patch_82">
    <path d="M 440.799282 51.148286 
L 517.173909 51.148286 
L 517.173909 30.226952 
L 440.799282 30.226952 
z
" clip-path="url(#pb8edbfef66)" style="fill: #ff004f"/>
   </g>
   <g id="patch_83">
    <path d="M 230.598528 619.013048 
L 236.325782 619.013048 
L 236.325782 598.091714 
L 230.598528 598.091714 
z
" clip-path="url(#pb8edbfef66)" style="fill: #818800"/>
   </g>
   <g id="patch_84">
    <path d="M 238.230792 589.125429 
L 242.153126 589.125429 
L 242.153126 568.204095 
L 238.230792 568.204095 
z
" clip-path="url(#pb8edbfef66)" style="fill: #818800"/>
   </g>
   <g id="patch_85">
    <path d="M 234.661232 559.23781 
L 239.405843 559.23781 
L 239.405843 538.316476 
L 234.661232 538.316476 
z
" clip-path="url(#pb8edbfef66)" style="fill: #818800"/>
   </g>
   <g id="patch_86">
    <path d="M 228.96987 529.35019 
L 242.216437 529.35019 
L 242.216437 508.428857 
L 228.96987 508.428857 
z
" clip-path="url(#pb8edbfef66)" style="fill: #818800"/>
   </g>
   <g id="patch_87">
    <path d="M 240.490459 499.462571 
L 256.621148 499.462571 
L 256.621148 478.541238 
L 240.490459 478.541238 
z
" clip-path="url(#pb8edbfef66)" style="fill: #818800"/>
   </g>
   <g id="patch_88">
    <path d="M 232.399606 469.574952 
L 250.245083 469.574952 
L 250.245083 448.653619 
L 232.399606 448.653619 
z
" clip-path="url(#pb8edbfef66)" style="fill: #818800"/>
   </g>
   <g id="patch_89">
    <path d="M 246.914351 439.687333 
L 260.202276 439.687333 
L 260.202276 418.766 
L 246.914351 418.766 
z
" clip-path="url(#pb8edbfef66)" style="fill: #818800"/>
   </g>
   <g id="patch_90">
    <path d="M 245.287394 409.799714 
L 269.890128 409.799714 
L 269.890128 388.878381 
L 245.287394 388.878381 
z
" clip-path="url(#pb8edbfef66)" style="fill: #818800"/>
   </g>
   <g id="patch_91">
    <path d="M 259.729234 379.912095 
L 278.359244 379.912095 
L 278.359244 358.990762 
L 259.729234 358.990762 
z
" clip-path="url(#pb8edbfef66)" style="fill: #818800"/>
   </g>
   <g id="patch_92">
    <path d="M 275.003678 350.024476 
L 283.749176 350.024476 
L 283.749176 329.103143 
L 275.003678 329.103143 
z
" clip-path="url(#pb8edbfef66)" style="fill: #818800"/>
   </g>
   <g id="patch_93">
    <path d="M 273.917931 320.136857 
L 287.184149 320.136857 
L 287.184149 299.215524 
L 273.917931 299.215524 
z
" clip-path="url(#pb8edbfef66)" style="fill: #818800"/>
   </g>
   <g id="patch_94">
    <path d="M 278.20776 290.249238 
L 290.788466 290.249238 
L 290.788466 269.327905 
L 278.20776 269.327905 
z
" clip-path="url(#pb8edbfef66)" style="fill: #818800"/>
   </g>
   <g id="patch_95">
    <path d="M 302.880368 260.361619 
L 312.495878 260.361619 
L 312.495878 239.440286 
L 302.880368 239.440286 
z
" clip-path="url(#pb8edbfef66)" style="fill: #818800"/>
   </g>
   <g id="patch_96">
    <path d="M 303.251572 230.474 
L 325.498089 230.474 
L 325.498089 209.552667 
L 303.251572 209.552667 
z
" clip-path="url(#pb8edbfef66)" style="fill: #818800"/>
   </g>
   <g id="patch_97">
    <path d="M 312.664233 200.586381 
L 335.473752 200.586381 
L 335.473752 179.665048 
L 312.664233 179.665048 
z
" clip-path="url(#pb8edbfef66)" style="fill: #818800"/>
   </g>
   <g id="patch_98">
    <path d="M 310.191249 170.698762 
L 324.641022 170.698762 
L 324.641022 149.777429 
L 310.191249 149.777429 
z
" clip-path="url(#pb8edbfef66)" style="fill: #818800"/>
   </g>
   <g id="patch_99">
    <path d="M 340.045702 140.811143 
L 349.360386 140.811143 
L 349.360386 119.88981 
L 340.045702 119.88981 
z
" clip-path="url(#pb8edbfef66)" style="fill: #818800"/>
   </g>
   <g id="patch_100">
    <path d="M 461.387398 110.923524 
L 469.565029 110.923524 
L 469.565029 90.00219 
L 461.387398 90.00219 
z
" clip-path="url(#pb8edbfef66)" style="fill: #818800"/>
   </g>
   <g id="patch_101">
    <path d="M 481.756928 81.035905 
L 496.104764 81.035905 
L 496.104764 60.114571 
L 481.756928 60.114571 
z
" clip-path="url(#pb8edbfef66)" style="fill: #818800"/>
   </g>
   <g id="patch_102">
    <path d="M 517.173909 51.148286 
L 536.900283 51.148286 
L 536.900283 30.226952 
L 517.173909 30.226952 
z
" clip-path="url(#pb8edbfef66)" style="fill: #818800"/>
   </g>
   <g id="patch_103">
    <path d="M 236.325782 619.013048 
L 241.786911 619.013048 
L 241.786911 598.091714 
L 236.325782 598.091714 
z
" clip-path="url(#pb8edbfef66)" style="fill: #009e8c"/>
   </g>
   <g id="patch_104">
    <path d="M 242.153126 589.125429 
L 244.417371 589.125429 
L 244.417371 568.204095 
L 242.153126 568.204095 
z
" clip-path="url(#pb8edbfef66)" style="fill: #009e8c"/>
   </g>
   <g id="patch_105">
    <path d="M 239.405843 559.23781 
L 248.795523 559.23781 
L 248.795523 538.316476 
L 239.405843 538.316476 
z
" clip-path="url(#pb8edbfef66)" style="fill: #009e8c"/>
   </g>
   <g id="patch_106">
    <path d="M 242.216437 529.35019 
L 251.046796 529.35019 
L 251.046796 508.428857 
L 242.216437 508.428857 
z
" clip-path="url(#pb8edbfef66)" style="fill: #009e8c"/>
   </g>
   <g id="patch_107">
    <path d="M 256.621148 499.462571 
L 259.792926 499.462571 
L 259.792926 478.541238 
L 256.621148 478.541238 
z
" clip-path="url(#pb8edbfef66)" style="fill: #009e8c"/>
   </g>
   <g id="patch_108">
    <path d="M 250.245083 469.574952 
L 262.717172 469.574952 
L 262.717172 448.653619 
L 250.245083 448.653619 
z
" clip-path="url(#pb8edbfef66)" style="fill: #009e8c"/>
   </g>
   <g id="patch_109">
    <path d="M 260.202276 439.687333 
L 272.19471 439.687333 
L 272.19471 418.766 
L 260.202276 418.766 
z
" clip-path="url(#pb8edbfef66)" style="fill: #009e8c"/>
   </g>
   <g id="patch_110">
    <path d="M 269.890128 409.799714 
L 272.467545 409.799714 
L 272.467545 388.878381 
L 269.890128 388.878381 
z
" clip-path="url(#pb8edbfef66)" style="fill: #009e8c"/>
   </g>
   <g id="patch_111">
    <path d="M 278.359244 379.912095 
L 284.23716 379.912095 
L 284.23716 358.990762 
L 278.359244 358.990762 
z
" clip-path="url(#pb8edbfef66)" style="fill: #009e8c"/>
   </g>
   <g id="patch_112">
    <path d="M 283.749176 350.024476 
L 290.674355 350.024476 
L 290.674355 329.103143 
L 283.749176 329.103143 
z
" clip-path="url(#pb8edbfef66)" style="fill: #009e8c"/>
   </g>
   <g id="patch_113">
    <path d="M 287.184149 320.136857 
L 298.745445 320.136857 
L 298.745445 299.215524 
L 287.184149 299.215524 
z
" clip-path="url(#pb8edbfef66)" style="fill: #009e8c"/>
   </g>
   <g id="patch_114">
    <path d="M 290.788466 290.249238 
L 304.418232 290.249238 
L 304.418232 269.327905 
L 290.788466 269.327905 
z
" clip-path="url(#pb8edbfef66)" style="fill: #009e8c"/>
   </g>
   <g id="patch_115">
    <path d="M 312.495878 260.361619 
L 326.392753 260.361619 
L 326.392753 239.440286 
L 312.495878 239.440286 
z
" clip-path="url(#pb8edbfef66)" style="fill: #009e8c"/>
   </g>
   <g id="patch_116">
    <path d="M 325.498089 230.474 
L 328.817095 230.474 
L 328.817095 209.552667 
L 325.498089 209.552667 
z
" clip-path="url(#pb8edbfef66)" style="fill: #009e8c"/>
   </g>
   <g id="patch_117">
    <path d="M 335.473752 200.586381 
L 337.799846 200.586381 
L 337.799846 179.665048 
L 335.473752 179.665048 
z
" clip-path="url(#pb8edbfef66)" style="fill: #009e8c"/>
   </g>
   <g id="patch_118">
    <path d="M 324.641022 170.698762 
L 340.420891 170.698762 
L 340.420891 149.777429 
L 324.641022 149.777429 
z
" clip-path="url(#pb8edbfef66)" style="fill: #009e8c"/>
   </g>
   <g id="patch_119">
    <path d="M 349.360386 140.811143 
L 362.953957 140.811143 
L 362.953957 119.88981 
L 349.360386 119.88981 
z
" clip-path="url(#pb8edbfef66)" style="fill: #009e8c"/>
   </g>
   <g id="patch_120">
    <path d="M 469.565029 110.923524 
L 479.508489 110.923524 
L 479.508489 90.00219 
L 469.565029 90.00219 
z
" clip-path="url(#pb8edbfef66)" style="fill: #009e8c"/>
   </g>
   <g id="patch_121">
    <path d="M 496.104764 81.035905 
L 506.02361 81.035905 
L 506.02361 60.114571 
L 496.104764 60.114571 
z
" clip-path="url(#pb8edbfef66)" style="fill: #009e8c"/>
   </g>
   <g id="patch_122">
    <path d="M 536.900283 51.148286 
L 543.127619 51.148286 
L 543.127619 30.226952 
L 536.900283 30.226952 
z
" clip-path="url(#pb8edbfef66)" style="fill: #009e8c"/>
   </g>
   <g id="matplotlib.axis_1">
    <g id="xtick_1">
     <g id="line2d_2">
      <defs>
       <path id="m403edf1393" d="M 0 0 
L 0 3.5 
" style="stroke: #333333; stroke-width: 0.8"/>
      </defs>
      <g>
       <use xlink:href="#m403edf1393" x="101.68" y="638.44" style="fill: #333333; stroke: #333333; stroke-width: 0.8"/>
      </g>
     </g>
     <g id="text_1">
      <!-- 0.0 -->
      <g style="fill: #333333" transform="translate(92.933281 653.798281) scale(0.11 -0.11)">
       <defs>
        <path id="DejaVuSans-30" d="M 2034 4250 
Q 1547 4250 1301 3770 
Q 1056 3291 1056 2328 
Q 1056 1369 1301 889 
Q 1547 409 2034 409 
Q 2525 409 2770 889 
Q 3016 1369 3016 2328 
Q 3016 3291 2770 3770 
Q 2525 4250 2034 4250 
z
M 2034 4750 
Q 2819 4750 3233 4129 
Q 3647 3509 3647 2328 
Q 3647 1150 3233 529 
Q 2819 -91 2034 -91 
Q 1250 -91 836 529 
Q 422 1150 422 2328 
Q 422 3509 836 4129 
Q 1250 4750 2034 4750 
z
" transform="scale(0.015625)"/>
        <path id="DejaVuSans-2e" d="M 684 794 
L 1344 794 
L 1344 0 
L 684 0 
L 684 794 
z
" transform="scale(0.015625)"/>
       </defs>
       <use xlink:href="#DejaVuSans-30"/>
       <use xlink:href="#DejaVuSans-2e" x="63.623047"/>
       <use xlink:href="#DejaVuSans-30" x="95.410156"/>
      </g>
     </g>
    </g>
    <g id="xtick_2">
     <g id="line2d_3">
      <g>
       <use xlink:href="#m403edf1393" x="163.436148" y="638.44" style="fill: #333333; stroke: #333333; stroke-width: 0.8"/>
      </g>
     </g>
     <g id="text_2">
      <!-- 0.2 -->
      <g style="fill: #333333" transform="translate(154.689429 653.798281) scale(0.11 -0.11)">
       <defs>
        <path id="DejaVuSans-32" d="M 1228 531 
L 3431 531 
L 3431 0 
L 469 0 
L 469 531 
Q 828 903 1448 1529 
Q 2069 2156 2228 2338 
Q 2531 2678 2651 2914 
Q 2772 3150 2772 3378 
Q 2772 3750 2511 3984 
Q 2250 4219 1831 4219 
Q 1534 4219 1204 4116 
Q 875 4013 500 3803 
L 500 4441 
Q 881 4594 1212 4672 
Q 1544 4750 1819 4750 
Q 2544 4750 2975 4387 
Q 3406 4025 3406 3419 
Q 3406 3131 3298 2873 
Q 3191 2616 2906 2266 
Q 2828 2175 2409 1742 
Q 1991 1309 1228 531 
z
" transform="scale(0.015625)"/>
       </defs>
       <use xlink:href="#DejaVuSans-30"/>
       <use xlink:href="#DejaVuSans-2e" x="63.623047"/>
       <use xlink:href="#DejaVuSans-32" x="95.410156"/>
      </g>
     </g>
    </g>
    <g id="xtick_3">
     <g id="line2d_4">
      <g>
       <use xlink:href="#m403edf1393" x="225.192295" y="638.44" style="fill: #333333; stroke: #333333; stroke-width: 0.8"/>
      </g>
     </g>
     <g id="text_3">
      <!-- 0.4 -->
      <g style="fill: #333333" transform="translate(216.445576 653.798281) scale(0.11 -0.11)">
       <defs>
        <path id="DejaVuSans-34" d="M 2419 4116 
L 825 1625 
L 2419 1625 
L 2419 4116 
z
M 2253 4666 
L 3047 4666 
L 3047 1625 
L 3713 1625 
L 3713 1100 
L 3047 1100 
L 3047 0 
L 2419 0 
L 2419 1100 
L 313 1100 
L 313 1709 
L 2253 4666 
z
" transform="scale(0.015625)"/>
       </defs>
       <use xlink:href="#DejaVuSans-30"/>
       <use xlink:href="#DejaVuSans-2e" x="63.623047"/>
       <use xlink:href="#DejaVuSans-34" x="95.410156"/>
      </g>
     </g>
    </g>
    <g id="xtick_4">
     <g id="line2d_5">
      <g>
       <use xlink:href="#m403edf1393" x="286.948443" y="638.44" style="fill: #333333; stroke: #333333; stroke-width: 0.8"/>
      </g>
     </g>
     <g id="text_4">
      <!-- 0.6 -->
      <g style="fill: #333333" transform="translate(278.201724 653.798281) scale(0.11 -0.11)">
       <defs>
        <path id="DejaVuSans-36" d="M 2113 2584 
Q 1688 2584 1439 2293 
Q 1191 2003 1191 1497 
Q 1191 994 1439 701 
Q 1688 409 2113 409 
Q 2538 409 2786 701 
Q 3034 994 3034 1497 
Q 3034 2003 2786 2293 
Q 2538 2584 2113 2584 
z
M 3366 4563 
L 3366 3988 
Q 3128 4100 2886 4159 
Q 2644 4219 2406 4219 
Q 1781 4219 1451 3797 
Q 1122 3375 1075 2522 
Q 1259 2794 1537 2939 
Q 1816 3084 2150 3084 
Q 2853 3084 3261 2657 
Q 3669 2231 3669 1497 
Q 3669 778 3244 343 
Q 2819 -91 2113 -91 
Q 1303 -91 875 529 
Q 447 1150 447 2328 
Q 447 3434 972 4092 
Q 1497 4750 2381 4750 
Q 2619 4750 2861 4703 
Q 3103 4656 3366 4563 
z
" transform="scale(0.015625)"/>
       </defs>
       <use xlink:href="#DejaVuSans-30"/>
       <use xlink:href="#DejaVuSans-2e" x="63.623047"/>
       <use xlink:href="#DejaVuSans-36" x="95.410156"/>
      </g>
     </g>
    </g>
    <g id="xtick_5">
     <g id="line2d_6">
      <g>
       <use xlink:href="#m403edf1393" x="348.70459" y="638.44" style="fill: #333333; stroke: #333333; stroke-width: 0.8"/>
      </g>
     </g>
     <g id="text_5">
      <!-- 0.8 -->
      <g style="fill: #333333" transform="translate(339.957871 653.798281) scale(0.11 -0.11)">
       <defs>
        <path id="DejaVuSans-38" d="M 2034 2216 
Q 1584 2216 1326 1975 
Q 1069 1734 1069 1313 
Q 1069 891 1326 650 
Q 1584 409 2034 409 
Q 2484 409 2743 651 
Q 3003 894 3003 1313 
Q 3003 1734 2745 1975 
Q 2488 2216 2034 2216 
z
M 1403 2484 
Q 997 2584 770 2862 
Q 544 3141 544 3541 
Q 544 4100 942 4425 
Q 1341 4750 2034 4750 
Q 2731 4750 3128 4425 
Q 3525 4100 3525 3541 
Q 3525 3141 3298 2862 
Q 3072 2584 2669 2484 
Q 3125 2378 3379 2068 
Q 3634 1759 3634 1313 
Q 3634 634 3220 271 
Q 2806 -91 2034 -91 
Q 1263 -91 848 271 
Q 434 634 434 1313 
Q 434 1759 690 2068 
Q 947 2378 1403 2484 
z
M 1172 3481 
Q 1172 3119 1398 2916 
Q 1625 2713 2034 2713 
Q 2441 2713 2670 2916 
Q 2900 3119 2900 3481 
Q 2900 3844 2670 4047 
Q 2441 4250 2034 4250 
Q 1625 4250 1398 4047 
Q 1172 3844 1172 3481 
z
" transform="scale(0.015625)"/>
       </defs>
       <use xlink:href="#DejaVuSans-30"/>
       <use xlink:href="#DejaVuSans-2e" x="63.623047"/>
       <use xlink:href="#DejaVuSans-38" x="95.410156"/>
      </g>
     </g>
    </g>
    <g id="xtick_6">
     <g id="line2d_7">
      <g>
       <use xlink:href="#m403edf1393" x="410.460738" y="638.44" style="fill: #333333; stroke: #333333; stroke-width: 0.8"/>
      </g>
     </g>
     <g id="text_6">
      <!-- 1.0 -->
      <g style="fill: #333333" transform="translate(401.714019 653.798281) scale(0.11 -0.11)">
       <defs>
        <path id="DejaVuSans-31" d="M 794 531 
L 1825 531 
L 1825 4091 
L 703 3866 
L 703 4441 
L 1819 4666 
L 2450 4666 
L 2450 531 
L 3481 531 
L 3481 0 
L 794 0 
L 794 531 
z
" transform="scale(0.015625)"/>
       </defs>
       <use xlink:href="#DejaVuSans-31"/>
       <use xlink:href="#DejaVuSans-2e" x="63.623047"/>
       <use xlink:href="#DejaVuSans-30" x="95.410156"/>
      </g>
     </g>
    </g>
    <g id="xtick_7">
     <g id="line2d_8">
      <g>
       <use xlink:href="#m403edf1393" x="472.216885" y="638.44" style="fill: #333333; stroke: #333333; stroke-width: 0.8"/>
      </g>
     </g>
     <g id="text_7">
      <!-- 1.2 -->
      <g style="fill: #333333" transform="translate(463.470166 653.798281) scale(0.11 -0.11)">
       <use xlink:href="#DejaVuSans-31"/>
       <use xlink:href="#DejaVuSans-2e" x="63.623047"/>
       <use xlink:href="#DejaVuSans-32" x="95.410156"/>
      </g>
     </g>
    </g>
    <g id="xtick_8">
     <g id="line2d_9">
      <g>
       <use xlink:href="#m403edf1393" x="533.973033" y="638.44" style="fill: #333333; stroke: #333333; stroke-width: 0.8"/>
      </g>
     </g>
     <g id="text_8">
      <!-- 1.4 -->
      <g style="fill: #333333" transform="translate(525.226314 653.798281) scale(0.11 -0.11)">
       <use xlink:href="#DejaVuSans-31"/>
       <use xlink:href="#DejaVuSans-2e" x="63.623047"/>
       <use xlink:href="#DejaVuSans-34" x="95.410156"/>
      </g>
     </g>
    </g>
    <g id="text_9">
     <!-- mean(|SHAP value|) (average impact on model output magnitude) -->
     <g transform="translate(116.970703 670.020781) scale(0.13 -0.13)">
      <defs>
       <path id="DejaVuSans-6d" d="M 3328 2828 
Q 3544 3216 3844 3400 
Q 4144 3584 4550 3584 
Q 5097 3584 5394 3201 
Q 5691 2819 5691 2113 
L 5691 0 
L 5113 0 
L 5113 2094 
Q 5113 2597 4934 2840 
Q 4756 3084 4391 3084 
Q 3944 3084 3684 2787 
Q 3425 2491 3425 1978 
L 3425 0 
L 2847 0 
L 2847 2094 
Q 2847 2600 2669 2842 
Q 2491 3084 2119 3084 
Q 1678 3084 1418 2786 
Q 1159 2488 1159 1978 
L 1159 0 
L 581 0 
L 581 3500 
L 1159 3500 
L 1159 2956 
Q 1356 3278 1631 3431 
Q 1906 3584 2284 3584 
Q 2666 3584 2933 3390 
Q 3200 3197 3328 2828 
z
" transform="scale(0.015625)"/>
       <path id="DejaVuSans-65" d="M 3597 1894 
L 3597 1613 
L 953 1613 
Q 991 1019 1311 708 
Q 1631 397 2203 397 
Q 2534 397 2845 478 
Q 3156 559 3463 722 
L 3463 178 
Q 3153 47 2828 -22 
Q 2503 -91 2169 -91 
Q 1331 -91 842 396 
Q 353 884 353 1716 
Q 353 2575 817 3079 
Q 1281 3584 2069 3584 
Q 2775 3584 3186 3129 
Q 3597 2675 3597 1894 
z
M 3022 2063 
Q 3016 2534 2758 2815 
Q 2500 3097 2075 3097 
Q 1594 3097 1305 2825 
Q 1016 2553 972 2059 
L 3022 2063 
z
" transform="scale(0.015625)"/>
       <path id="DejaVuSans-61" d="M 2194 1759 
Q 1497 1759 1228 1600 
Q 959 1441 959 1056 
Q 959 750 1161 570 
Q 1363 391 1709 391 
Q 2188 391 2477 730 
Q 2766 1069 2766 1631 
L 2766 1759 
L 2194 1759 
z
M 3341 1997 
L 3341 0 
L 2766 0 
L 2766 531 
Q 2569 213 2275 61 
Q 1981 -91 1556 -91 
Q 1019 -91 701 211 
Q 384 513 384 1019 
Q 384 1609 779 1909 
Q 1175 2209 1959 2209 
L 2766 2209 
L 2766 2266 
Q 2766 2663 2505 2880 
Q 2244 3097 1772 3097 
Q 1472 3097 1187 3025 
Q 903 2953 641 2809 
L 641 3341 
Q 956 3463 1253 3523 
Q 1550 3584 1831 3584 
Q 2591 3584 2966 3190 
Q 3341 2797 3341 1997 
z
" transform="scale(0.015625)"/>
       <path id="DejaVuSans-6e" d="M 3513 2113 
L 3513 0 
L 2938 0 
L 2938 2094 
Q 2938 2591 2744 2837 
Q 2550 3084 2163 3084 
Q 1697 3084 1428 2787 
Q 1159 2491 1159 1978 
L 1159 0 
L 581 0 
L 581 3500 
L 1159 3500 
L 1159 2956 
Q 1366 3272 1645 3428 
Q 1925 3584 2291 3584 
Q 2894 3584 3203 3211 
Q 3513 2838 3513 2113 
z
" transform="scale(0.015625)"/>
       <path id="DejaVuSans-28" d="M 1984 4856 
Q 1566 4138 1362 3434 
Q 1159 2731 1159 2009 
Q 1159 1288 1364 580 
Q 1569 -128 1984 -844 
L 1484 -844 
Q 1016 -109 783 600 
Q 550 1309 550 2009 
Q 550 2706 781 3412 
Q 1013 4119 1484 4856 
L 1984 4856 
z
" transform="scale(0.015625)"/>
       <path id="DejaVuSans-7c" d="M 1344 4891 
L 1344 -1509 
L 813 -1509 
L 813 4891 
L 1344 4891 
z
" transform="scale(0.015625)"/>
       <path id="DejaVuSans-53" d="M 3425 4513 
L 3425 3897 
Q 3066 4069 2747 4153 
Q 2428 4238 2131 4238 
Q 1616 4238 1336 4038 
Q 1056 3838 1056 3469 
Q 1056 3159 1242 3001 
Q 1428 2844 1947 2747 
L 2328 2669 
Q 3034 2534 3370 2195 
Q 3706 1856 3706 1288 
Q 3706 609 3251 259 
Q 2797 -91 1919 -91 
Q 1588 -91 1214 -16 
Q 841 59 441 206 
L 441 856 
Q 825 641 1194 531 
Q 1563 422 1919 422 
Q 2459 422 2753 634 
Q 3047 847 3047 1241 
Q 3047 1584 2836 1778 
Q 2625 1972 2144 2069 
L 1759 2144 
Q 1053 2284 737 2584 
Q 422 2884 422 3419 
Q 422 4038 858 4394 
Q 1294 4750 2059 4750 
Q 2388 4750 2728 4690 
Q 3069 4631 3425 4513 
z
" transform="scale(0.015625)"/>
       <path id="DejaVuSans-48" d="M 628 4666 
L 1259 4666 
L 1259 2753 
L 3553 2753 
L 3553 4666 
L 4184 4666 
L 4184 0 
L 3553 0 
L 3553 2222 
L 1259 2222 
L 1259 0 
L 628 0 
L 628 4666 
z
" transform="scale(0.015625)"/>
       <path id="DejaVuSans-41" d="M 2188 4044 
L 1331 1722 
L 3047 1722 
L 2188 4044 
z
M 1831 4666 
L 2547 4666 
L 4325 0 
L 3669 0 
L 3244 1197 
L 1141 1197 
L 716 0 
L 50 0 
L 1831 4666 
z
" transform="scale(0.015625)"/>
       <path id="DejaVuSans-50" d="M 1259 4147 
L 1259 2394 
L 2053 2394 
Q 2494 2394 2734 2622 
Q 2975 2850 2975 3272 
Q 2975 3691 2734 3919 
Q 2494 4147 2053 4147 
L 1259 4147 
z
M 628 4666 
L 2053 4666 
Q 2838 4666 3239 4311 
Q 3641 3956 3641 3272 
Q 3641 2581 3239 2228 
Q 2838 1875 2053 1875 
L 1259 1875 
L 1259 0 
L 628 0 
L 628 4666 
z
" transform="scale(0.015625)"/>
       <path id="DejaVuSans-20" transform="scale(0.015625)"/>
       <path id="DejaVuSans-76" d="M 191 3500 
L 800 3500 
L 1894 563 
L 2988 3500 
L 3597 3500 
L 2284 0 
L 1503 0 
L 191 3500 
z
" transform="scale(0.015625)"/>
       <path id="DejaVuSans-6c" d="M 603 4863 
L 1178 4863 
L 1178 0 
L 603 0 
L 603 4863 
z
" transform="scale(0.015625)"/>
       <path id="DejaVuSans-75" d="M 544 1381 
L 544 3500 
L 1119 3500 
L 1119 1403 
Q 1119 906 1312 657 
Q 1506 409 1894 409 
Q 2359 409 2629 706 
Q 2900 1003 2900 1516 
L 2900 3500 
L 3475 3500 
L 3475 0 
L 2900 0 
L 2900 538 
Q 2691 219 2414 64 
Q 2138 -91 1772 -91 
Q 1169 -91 856 284 
Q 544 659 544 1381 
z
M 1991 3584 
L 1991 3584 
z
" transform="scale(0.015625)"/>
       <path id="DejaVuSans-29" d="M 513 4856 
L 1013 4856 
Q 1481 4119 1714 3412 
Q 1947 2706 1947 2009 
Q 1947 1309 1714 600 
Q 1481 -109 1013 -844 
L 513 -844 
Q 928 -128 1133 580 
Q 1338 1288 1338 2009 
Q 1338 2731 1133 3434 
Q 928 4138 513 4856 
z
" transform="scale(0.015625)"/>
       <path id="DejaVuSans-72" d="M 2631 2963 
Q 2534 3019 2420 3045 
Q 2306 3072 2169 3072 
Q 1681 3072 1420 2755 
Q 1159 2438 1159 1844 
L 1159 0 
L 581 0 
L 581 3500 
L 1159 3500 
L 1159 2956 
Q 1341 3275 1631 3429 
Q 1922 3584 2338 3584 
Q 2397 3584 2469 3576 
Q 2541 3569 2628 3553 
L 2631 2963 
z
" transform="scale(0.015625)"/>
       <path id="DejaVuSans-67" d="M 2906 1791 
Q 2906 2416 2648 2759 
Q 2391 3103 1925 3103 
Q 1463 3103 1205 2759 
Q 947 2416 947 1791 
Q 947 1169 1205 825 
Q 1463 481 1925 481 
Q 2391 481 2648 825 
Q 2906 1169 2906 1791 
z
M 3481 434 
Q 3481 -459 3084 -895 
Q 2688 -1331 1869 -1331 
Q 1566 -1331 1297 -1286 
Q 1028 -1241 775 -1147 
L 775 -588 
Q 1028 -725 1275 -790 
Q 1522 -856 1778 -856 
Q 2344 -856 2625 -561 
Q 2906 -266 2906 331 
L 2906 616 
Q 2728 306 2450 153 
Q 2172 0 1784 0 
Q 1141 0 747 490 
Q 353 981 353 1791 
Q 353 2603 747 3093 
Q 1141 3584 1784 3584 
Q 2172 3584 2450 3431 
Q 2728 3278 2906 2969 
L 2906 3500 
L 3481 3500 
L 3481 434 
z
" transform="scale(0.015625)"/>
       <path id="DejaVuSans-69" d="M 603 3500 
L 1178 3500 
L 1178 0 
L 603 0 
L 603 3500 
z
M 603 4863 
L 1178 4863 
L 1178 4134 
L 603 4134 
L 603 4863 
z
" transform="scale(0.015625)"/>
       <path id="DejaVuSans-70" d="M 1159 525 
L 1159 -1331 
L 581 -1331 
L 581 3500 
L 1159 3500 
L 1159 2969 
Q 1341 3281 1617 3432 
Q 1894 3584 2278 3584 
Q 2916 3584 3314 3078 
Q 3713 2572 3713 1747 
Q 3713 922 3314 415 
Q 2916 -91 2278 -91 
Q 1894 -91 1617 61 
Q 1341 213 1159 525 
z
M 3116 1747 
Q 3116 2381 2855 2742 
Q 2594 3103 2138 3103 
Q 1681 3103 1420 2742 
Q 1159 2381 1159 1747 
Q 1159 1113 1420 752 
Q 1681 391 2138 391 
Q 2594 391 2855 752 
Q 3116 1113 3116 1747 
z
" transform="scale(0.015625)"/>
       <path id="DejaVuSans-63" d="M 3122 3366 
L 3122 2828 
Q 2878 2963 2633 3030 
Q 2388 3097 2138 3097 
Q 1578 3097 1268 2742 
Q 959 2388 959 1747 
Q 959 1106 1268 751 
Q 1578 397 2138 397 
Q 2388 397 2633 464 
Q 2878 531 3122 666 
L 3122 134 
Q 2881 22 2623 -34 
Q 2366 -91 2075 -91 
Q 1284 -91 818 406 
Q 353 903 353 1747 
Q 353 2603 823 3093 
Q 1294 3584 2113 3584 
Q 2378 3584 2631 3529 
Q 2884 3475 3122 3366 
z
" transform="scale(0.015625)"/>
       <path id="DejaVuSans-74" d="M 1172 4494 
L 1172 3500 
L 2356 3500 
L 2356 3053 
L 1172 3053 
L 1172 1153 
Q 1172 725 1289 603 
Q 1406 481 1766 481 
L 2356 481 
L 2356 0 
L 1766 0 
Q 1100 0 847 248 
Q 594 497 594 1153 
L 594 3053 
L 172 3053 
L 172 3500 
L 594 3500 
L 594 4494 
L 1172 4494 
z
" transform="scale(0.015625)"/>
       <path id="DejaVuSans-6f" d="M 1959 3097 
Q 1497 3097 1228 2736 
Q 959 2375 959 1747 
Q 959 1119 1226 758 
Q 1494 397 1959 397 
Q 2419 397 2687 759 
Q 2956 1122 2956 1747 
Q 2956 2369 2687 2733 
Q 2419 3097 1959 3097 
z
M 1959 3584 
Q 2709 3584 3137 3096 
Q 3566 2609 3566 1747 
Q 3566 888 3137 398 
Q 2709 -91 1959 -91 
Q 1206 -91 779 398 
Q 353 888 353 1747 
Q 353 2609 779 3096 
Q 1206 3584 1959 3584 
z
" transform="scale(0.015625)"/>
       <path id="DejaVuSans-64" d="M 2906 2969 
L 2906 4863 
L 3481 4863 
L 3481 0 
L 2906 0 
L 2906 525 
Q 2725 213 2448 61 
Q 2172 -91 1784 -91 
Q 1150 -91 751 415 
Q 353 922 353 1747 
Q 353 2572 751 3078 
Q 1150 3584 1784 3584 
Q 2172 3584 2448 3432 
Q 2725 3281 2906 2969 
z
M 947 1747 
Q 947 1113 1208 752 
Q 1469 391 1925 391 
Q 2381 391 2643 752 
Q 2906 1113 2906 1747 
Q 2906 2381 2643 2742 
Q 2381 3103 1925 3103 
Q 1469 3103 1208 2742 
Q 947 2381 947 1747 
z
" transform="scale(0.015625)"/>
      </defs>
      <use xlink:href="#DejaVuSans-6d"/>
      <use xlink:href="#DejaVuSans-65" x="97.412109"/>
      <use xlink:href="#DejaVuSans-61" x="158.935547"/>
      <use xlink:href="#DejaVuSans-6e" x="220.214844"/>
      <use xlink:href="#DejaVuSans-28" x="283.59375"/>
      <use xlink:href="#DejaVuSans-7c" x="322.607422"/>
      <use xlink:href="#DejaVuSans-53" x="356.298828"/>
      <use xlink:href="#DejaVuSans-48" x="419.775391"/>
      <use xlink:href="#DejaVuSans-41" x="494.970703"/>
      <use xlink:href="#DejaVuSans-50" x="563.378906"/>
      <use xlink:href="#DejaVuSans-20" x="623.681641"/>
      <use xlink:href="#DejaVuSans-76" x="655.46875"/>
      <use xlink:href="#DejaVuSans-61" x="714.648438"/>
      <use xlink:href="#DejaVuSans-6c" x="775.927734"/>
      <use xlink:href="#DejaVuSans-75" x="803.710938"/>
      <use xlink:href="#DejaVuSans-65" x="867.089844"/>
      <use xlink:href="#DejaVuSans-7c" x="928.613281"/>
      <use xlink:href="#DejaVuSans-29" x="962.304688"/>
      <use xlink:href="#DejaVuSans-20" x="1001.318359"/>
      <use xlink:href="#DejaVuSans-28" x="1033.105469"/>
      <use xlink:href="#DejaVuSans-61" x="1072.119141"/>
      <use xlink:href="#DejaVuSans-76" x="1133.398438"/>
      <use xlink:href="#DejaVuSans-65" x="1192.578125"/>
      <use xlink:href="#DejaVuSans-72" x="1254.101562"/>
      <use xlink:href="#DejaVuSans-61" x="1295.214844"/>
      <use xlink:href="#DejaVuSans-67" x="1356.494141"/>
      <use xlink:href="#DejaVuSans-65" x="1419.970703"/>
      <use xlink:href="#DejaVuSans-20" x="1481.494141"/>
      <use xlink:href="#DejaVuSans-69" x="1513.28125"/>
      <use xlink:href="#DejaVuSans-6d" x="1541.064453"/>
      <use xlink:href="#DejaVuSans-70" x="1638.476562"/>
      <use xlink:href="#DejaVuSans-61" x="1701.953125"/>
      <use xlink:href="#DejaVuSans-63" x="1763.232422"/>
      <use xlink:href="#DejaVuSans-74" x="1818.212891"/>
      <use xlink:href="#DejaVuSans-20" x="1857.421875"/>
      <use xlink:href="#DejaVuSans-6f" x="1889.208984"/>
      <use xlink:href="#DejaVuSans-6e" x="1950.390625"/>
      <use xlink:href="#DejaVuSans-20" x="2013.769531"/>
      <use xlink:href="#DejaVuSans-6d" x="2045.556641"/>
      <use xlink:href="#DejaVuSans-6f" x="2142.96875"/>
      <use xlink:href="#DejaVuSans-64" x="2204.150391"/>
      <use xlink:href="#DejaVuSans-65" x="2267.626953"/>
      <use xlink:href="#DejaVuSans-6c" x="2329.150391"/>
      <use xlink:href="#DejaVuSans-20" x="2356.933594"/>
      <use xlink:href="#DejaVuSans-6f" x="2388.720703"/>
      <use xlink:href="#DejaVuSans-75" x="2449.902344"/>
      <use xlink:href="#DejaVuSans-74" x="2513.28125"/>
      <use xlink:href="#DejaVuSans-70" x="2552.490234"/>
      <use xlink:href="#DejaVuSans-75" x="2615.966797"/>
      <use xlink:href="#DejaVuSans-74" x="2679.345703"/>
      <use xlink:href="#DejaVuSans-20" x="2718.554688"/>
      <use xlink:href="#DejaVuSans-6d" x="2750.341797"/>
      <use xlink:href="#DejaVuSans-61" x="2847.753906"/>
      <use xlink:href="#DejaVuSans-67" x="2909.033203"/>
      <use xlink:href="#DejaVuSans-6e" x="2972.509766"/>
      <use xlink:href="#DejaVuSans-69" x="3035.888672"/>
      <use xlink:href="#DejaVuSans-74" x="3063.671875"/>
      <use xlink:href="#DejaVuSans-75" x="3102.880859"/>
      <use xlink:href="#DejaVuSans-64" x="3166.259766"/>
      <use xlink:href="#DejaVuSans-65" x="3229.736328"/>
      <use xlink:href="#DejaVuSans-29" x="3291.259766"/>
     </g>
    </g>
   </g>
   <g id="matplotlib.axis_2">
    <g id="ytick_1">
     <g id="text_10">
      <!-- adc2_data7 -->
      <g style="fill: #333333" transform="translate(18.9875 613.491365) scale(0.13 -0.13)">
       <defs>
        <path id="DejaVuSans-5f" d="M 3263 -1063 
L 3263 -1509 
L -63 -1509 
L -63 -1063 
L 3263 -1063 
z
" transform="scale(0.015625)"/>
        <path id="DejaVuSans-37" d="M 525 4666 
L 3525 4666 
L 3525 4397 
L 1831 0 
L 1172 0 
L 2766 4134 
L 525 4134 
L 525 4666 
z
" transform="scale(0.015625)"/>
       </defs>
       <use xlink:href="#DejaVuSans-61"/>
       <use xlink:href="#DejaVuSans-64" x="61.279297"/>
       <use xlink:href="#DejaVuSans-63" x="124.755859"/>
       <use xlink:href="#DejaVuSans-32" x="179.736328"/>
       <use xlink:href="#DejaVuSans-5f" x="243.359375"/>
       <use xlink:href="#DejaVuSans-64" x="293.359375"/>
       <use xlink:href="#DejaVuSans-61" x="356.835938"/>
       <use xlink:href="#DejaVuSans-74" x="418.115234"/>
       <use xlink:href="#DejaVuSans-61" x="457.324219"/>
       <use xlink:href="#DejaVuSans-37" x="518.603516"/>
      </g>
     </g>
    </g>
    <g id="ytick_2">
     <g id="text_11">
      <!-- adc0_data10 -->
      <g style="fill: #333333" transform="translate(10.71625 583.603746) scale(0.13 -0.13)">
       <use xlink:href="#DejaVuSans-61"/>
       <use xlink:href="#DejaVuSans-64" x="61.279297"/>
       <use xlink:href="#DejaVuSans-63" x="124.755859"/>
       <use xlink:href="#DejaVuSans-30" x="179.736328"/>
       <use xlink:href="#DejaVuSans-5f" x="243.359375"/>
       <use xlink:href="#DejaVuSans-64" x="293.359375"/>
       <use xlink:href="#DejaVuSans-61" x="356.835938"/>
       <use xlink:href="#DejaVuSans-74" x="418.115234"/>
       <use xlink:href="#DejaVuSans-61" x="457.324219"/>
       <use xlink:href="#DejaVuSans-31" x="518.603516"/>
       <use xlink:href="#DejaVuSans-30" x="582.226562"/>
      </g>
     </g>
    </g>
    <g id="ytick_3">
     <g id="text_12">
      <!-- adc0_data9 -->
      <g style="fill: #333333" transform="translate(18.9875 553.716127) scale(0.13 -0.13)">
       <defs>
        <path id="DejaVuSans-39" d="M 703 97 
L 703 672 
Q 941 559 1184 500 
Q 1428 441 1663 441 
Q 2288 441 2617 861 
Q 2947 1281 2994 2138 
Q 2813 1869 2534 1725 
Q 2256 1581 1919 1581 
Q 1219 1581 811 2004 
Q 403 2428 403 3163 
Q 403 3881 828 4315 
Q 1253 4750 1959 4750 
Q 2769 4750 3195 4129 
Q 3622 3509 3622 2328 
Q 3622 1225 3098 567 
Q 2575 -91 1691 -91 
Q 1453 -91 1209 -44 
Q 966 3 703 97 
z
M 1959 2075 
Q 2384 2075 2632 2365 
Q 2881 2656 2881 3163 
Q 2881 3666 2632 3958 
Q 2384 4250 1959 4250 
Q 1534 4250 1286 3958 
Q 1038 3666 1038 3163 
Q 1038 2656 1286 2365 
Q 1534 2075 1959 2075 
z
" transform="scale(0.015625)"/>
       </defs>
       <use xlink:href="#DejaVuSans-61"/>
       <use xlink:href="#DejaVuSans-64" x="61.279297"/>
       <use xlink:href="#DejaVuSans-63" x="124.755859"/>
       <use xlink:href="#DejaVuSans-30" x="179.736328"/>
       <use xlink:href="#DejaVuSans-5f" x="243.359375"/>
       <use xlink:href="#DejaVuSans-64" x="293.359375"/>
       <use xlink:href="#DejaVuSans-61" x="356.835938"/>
       <use xlink:href="#DejaVuSans-74" x="418.115234"/>
       <use xlink:href="#DejaVuSans-61" x="457.324219"/>
       <use xlink:href="#DejaVuSans-39" x="518.603516"/>
      </g>
     </g>
    </g>
    <g id="ytick_4">
     <g id="text_13">
      <!-- adc1_data9 -->
      <g style="fill: #333333" transform="translate(18.9875 523.828508) scale(0.13 -0.13)">
       <use xlink:href="#DejaVuSans-61"/>
       <use xlink:href="#DejaVuSans-64" x="61.279297"/>
       <use xlink:href="#DejaVuSans-63" x="124.755859"/>
       <use xlink:href="#DejaVuSans-31" x="179.736328"/>
       <use xlink:href="#DejaVuSans-5f" x="243.359375"/>
       <use xlink:href="#DejaVuSans-64" x="293.359375"/>
       <use xlink:href="#DejaVuSans-61" x="356.835938"/>
       <use xlink:href="#DejaVuSans-74" x="418.115234"/>
       <use xlink:href="#DejaVuSans-61" x="457.324219"/>
       <use xlink:href="#DejaVuSans-39" x="518.603516"/>
      </g>
     </g>
    </g>
    <g id="ytick_5">
     <g id="text_14">
      <!-- adc2_data11 -->
      <g style="fill: #333333" transform="translate(10.71625 493.940889) scale(0.13 -0.13)">
       <use xlink:href="#DejaVuSans-61"/>
       <use xlink:href="#DejaVuSans-64" x="61.279297"/>
       <use xlink:href="#DejaVuSans-63" x="124.755859"/>
       <use xlink:href="#DejaVuSans-32" x="179.736328"/>
       <use xlink:href="#DejaVuSans-5f" x="243.359375"/>
       <use xlink:href="#DejaVuSans-64" x="293.359375"/>
       <use xlink:href="#DejaVuSans-61" x="356.835938"/>
       <use xlink:href="#DejaVuSans-74" x="418.115234"/>
       <use xlink:href="#DejaVuSans-61" x="457.324219"/>
       <use xlink:href="#DejaVuSans-31" x="518.603516"/>
       <use xlink:href="#DejaVuSans-31" x="582.226562"/>
      </g>
     </g>
    </g>
    <g id="ytick_6">
     <g id="text_15">
      <!-- adc0_data3 -->
      <g style="fill: #333333" transform="translate(18.9875 464.05327) scale(0.13 -0.13)">
       <defs>
        <path id="DejaVuSans-33" d="M 2597 2516 
Q 3050 2419 3304 2112 
Q 3559 1806 3559 1356 
Q 3559 666 3084 287 
Q 2609 -91 1734 -91 
Q 1441 -91 1130 -33 
Q 819 25 488 141 
L 488 750 
Q 750 597 1062 519 
Q 1375 441 1716 441 
Q 2309 441 2620 675 
Q 2931 909 2931 1356 
Q 2931 1769 2642 2001 
Q 2353 2234 1838 2234 
L 1294 2234 
L 1294 2753 
L 1863 2753 
Q 2328 2753 2575 2939 
Q 2822 3125 2822 3475 
Q 2822 3834 2567 4026 
Q 2313 4219 1838 4219 
Q 1578 4219 1281 4162 
Q 984 4106 628 3988 
L 628 4550 
Q 988 4650 1302 4700 
Q 1616 4750 1894 4750 
Q 2613 4750 3031 4423 
Q 3450 4097 3450 3541 
Q 3450 3153 3228 2886 
Q 3006 2619 2597 2516 
z
" transform="scale(0.015625)"/>
       </defs>
       <use xlink:href="#DejaVuSans-61"/>
       <use xlink:href="#DejaVuSans-64" x="61.279297"/>
       <use xlink:href="#DejaVuSans-63" x="124.755859"/>
       <use xlink:href="#DejaVuSans-30" x="179.736328"/>
       <use xlink:href="#DejaVuSans-5f" x="243.359375"/>
       <use xlink:href="#DejaVuSans-64" x="293.359375"/>
       <use xlink:href="#DejaVuSans-61" x="356.835938"/>
       <use xlink:href="#DejaVuSans-74" x="418.115234"/>
       <use xlink:href="#DejaVuSans-61" x="457.324219"/>
       <use xlink:href="#DejaVuSans-33" x="518.603516"/>
      </g>
     </g>
    </g>
    <g id="ytick_7">
     <g id="text_16">
      <!-- adc2_data14 -->
      <g style="fill: #333333" transform="translate(10.71625 434.165651) scale(0.13 -0.13)">
       <use xlink:href="#DejaVuSans-61"/>
       <use xlink:href="#DejaVuSans-64" x="61.279297"/>
       <use xlink:href="#DejaVuSans-63" x="124.755859"/>
       <use xlink:href="#DejaVuSans-32" x="179.736328"/>
       <use xlink:href="#DejaVuSans-5f" x="243.359375"/>
       <use xlink:href="#DejaVuSans-64" x="293.359375"/>
       <use xlink:href="#DejaVuSans-61" x="356.835938"/>
       <use xlink:href="#DejaVuSans-74" x="418.115234"/>
       <use xlink:href="#DejaVuSans-61" x="457.324219"/>
       <use xlink:href="#DejaVuSans-31" x="518.603516"/>
       <use xlink:href="#DejaVuSans-34" x="582.226562"/>
      </g>
     </g>
    </g>
    <g id="ytick_8">
     <g id="text_17">
      <!-- adc1_data1 -->
      <g style="fill: #333333" transform="translate(18.9875 404.278032) scale(0.13 -0.13)">
       <use xlink:href="#DejaVuSans-61"/>
       <use xlink:href="#DejaVuSans-64" x="61.279297"/>
       <use xlink:href="#DejaVuSans-63" x="124.755859"/>
       <use xlink:href="#DejaVuSans-31" x="179.736328"/>
       <use xlink:href="#DejaVuSans-5f" x="243.359375"/>
       <use xlink:href="#DejaVuSans-64" x="293.359375"/>
       <use xlink:href="#DejaVuSans-61" x="356.835938"/>
       <use xlink:href="#DejaVuSans-74" x="418.115234"/>
       <use xlink:href="#DejaVuSans-61" x="457.324219"/>
       <use xlink:href="#DejaVuSans-31" x="518.603516"/>
      </g>
     </g>
    </g>
    <g id="ytick_9">
     <g id="text_18">
      <!-- adc2_data13 -->
      <g style="fill: #333333" transform="translate(10.71625 374.390413) scale(0.13 -0.13)">
       <use xlink:href="#DejaVuSans-61"/>
       <use xlink:href="#DejaVuSans-64" x="61.279297"/>
       <use xlink:href="#DejaVuSans-63" x="124.755859"/>
       <use xlink:href="#DejaVuSans-32" x="179.736328"/>
       <use xlink:href="#DejaVuSans-5f" x="243.359375"/>
       <use xlink:href="#DejaVuSans-64" x="293.359375"/>
       <use xlink:href="#DejaVuSans-61" x="356.835938"/>
       <use xlink:href="#DejaVuSans-74" x="418.115234"/>
       <use xlink:href="#DejaVuSans-61" x="457.324219"/>
       <use xlink:href="#DejaVuSans-31" x="518.603516"/>
       <use xlink:href="#DejaVuSans-33" x="582.226562"/>
      </g>
     </g>
    </g>
    <g id="ytick_10">
     <g id="text_19">
      <!-- adc0_data7 -->
      <g style="fill: #333333" transform="translate(18.9875 344.502794) scale(0.13 -0.13)">
       <use xlink:href="#DejaVuSans-61"/>
       <use xlink:href="#DejaVuSans-64" x="61.279297"/>
       <use xlink:href="#DejaVuSans-63" x="124.755859"/>
       <use xlink:href="#DejaVuSans-30" x="179.736328"/>
       <use xlink:href="#DejaVuSans-5f" x="243.359375"/>
       <use xlink:href="#DejaVuSans-64" x="293.359375"/>
       <use xlink:href="#DejaVuSans-61" x="356.835938"/>
       <use xlink:href="#DejaVuSans-74" x="418.115234"/>
       <use xlink:href="#DejaVuSans-61" x="457.324219"/>
       <use xlink:href="#DejaVuSans-37" x="518.603516"/>
      </g>
     </g>
    </g>
    <g id="ytick_11">
     <g id="text_20">
      <!-- adc2_data6 -->
      <g style="fill: #333333" transform="translate(18.9875 314.615175) scale(0.13 -0.13)">
       <use xlink:href="#DejaVuSans-61"/>
       <use xlink:href="#DejaVuSans-64" x="61.279297"/>
       <use xlink:href="#DejaVuSans-63" x="124.755859"/>
       <use xlink:href="#DejaVuSans-32" x="179.736328"/>
       <use xlink:href="#DejaVuSans-5f" x="243.359375"/>
       <use xlink:href="#DejaVuSans-64" x="293.359375"/>
       <use xlink:href="#DejaVuSans-61" x="356.835938"/>
       <use xlink:href="#DejaVuSans-74" x="418.115234"/>
       <use xlink:href="#DejaVuSans-61" x="457.324219"/>
       <use xlink:href="#DejaVuSans-36" x="518.603516"/>
      </g>
     </g>
    </g>
    <g id="ytick_12">
     <g id="text_21">
      <!-- adc1_data5 -->
      <g style="fill: #333333" transform="translate(18.9875 284.727556) scale(0.13 -0.13)">
       <defs>
        <path id="DejaVuSans-35" d="M 691 4666 
L 3169 4666 
L 3169 4134 
L 1269 4134 
L 1269 2991 
Q 1406 3038 1543 3061 
Q 1681 3084 1819 3084 
Q 2600 3084 3056 2656 
Q 3513 2228 3513 1497 
Q 3513 744 3044 326 
Q 2575 -91 1722 -91 
Q 1428 -91 1123 -41 
Q 819 9 494 109 
L 494 744 
Q 775 591 1075 516 
Q 1375 441 1709 441 
Q 2250 441 2565 725 
Q 2881 1009 2881 1497 
Q 2881 1984 2565 2268 
Q 2250 2553 1709 2553 
Q 1456 2553 1204 2497 
Q 953 2441 691 2322 
L 691 4666 
z
" transform="scale(0.015625)"/>
       </defs>
       <use xlink:href="#DejaVuSans-61"/>
       <use xlink:href="#DejaVuSans-64" x="61.279297"/>
       <use xlink:href="#DejaVuSans-63" x="124.755859"/>
       <use xlink:href="#DejaVuSans-31" x="179.736328"/>
       <use xlink:href="#DejaVuSans-5f" x="243.359375"/>
       <use xlink:href="#DejaVuSans-64" x="293.359375"/>
       <use xlink:href="#DejaVuSans-61" x="356.835938"/>
       <use xlink:href="#DejaVuSans-74" x="418.115234"/>
       <use xlink:href="#DejaVuSans-61" x="457.324219"/>
       <use xlink:href="#DejaVuSans-35" x="518.603516"/>
      </g>
     </g>
    </g>
    <g id="ytick_13">
     <g id="text_22">
      <!-- adc2_data2 -->
      <g style="fill: #333333" transform="translate(18.9875 254.839937) scale(0.13 -0.13)">
       <use xlink:href="#DejaVuSans-61"/>
       <use xlink:href="#DejaVuSans-64" x="61.279297"/>
       <use xlink:href="#DejaVuSans-63" x="124.755859"/>
       <use xlink:href="#DejaVuSans-32" x="179.736328"/>
       <use xlink:href="#DejaVuSans-5f" x="243.359375"/>
       <use xlink:href="#DejaVuSans-64" x="293.359375"/>
       <use xlink:href="#DejaVuSans-61" x="356.835938"/>
       <use xlink:href="#DejaVuSans-74" x="418.115234"/>
       <use xlink:href="#DejaVuSans-61" x="457.324219"/>
       <use xlink:href="#DejaVuSans-32" x="518.603516"/>
      </g>
     </g>
    </g>
    <g id="ytick_14">
     <g id="text_23">
      <!-- adc1_data8 -->
      <g style="fill: #333333" transform="translate(18.9875 224.952318) scale(0.13 -0.13)">
       <use xlink:href="#DejaVuSans-61"/>
       <use xlink:href="#DejaVuSans-64" x="61.279297"/>
       <use xlink:href="#DejaVuSans-63" x="124.755859"/>
       <use xlink:href="#DejaVuSans-31" x="179.736328"/>
       <use xlink:href="#DejaVuSans-5f" x="243.359375"/>
       <use xlink:href="#DejaVuSans-64" x="293.359375"/>
       <use xlink:href="#DejaVuSans-61" x="356.835938"/>
       <use xlink:href="#DejaVuSans-74" x="418.115234"/>
       <use xlink:href="#DejaVuSans-61" x="457.324219"/>
       <use xlink:href="#DejaVuSans-38" x="518.603516"/>
      </g>
     </g>
    </g>
    <g id="ytick_15">
     <g id="text_24">
      <!-- adc3_data8 -->
      <g style="fill: #333333" transform="translate(18.9875 195.064699) scale(0.13 -0.13)">
       <use xlink:href="#DejaVuSans-61"/>
       <use xlink:href="#DejaVuSans-64" x="61.279297"/>
       <use xlink:href="#DejaVuSans-63" x="124.755859"/>
       <use xlink:href="#DejaVuSans-33" x="179.736328"/>
       <use xlink:href="#DejaVuSans-5f" x="243.359375"/>
       <use xlink:href="#DejaVuSans-64" x="293.359375"/>
       <use xlink:href="#DejaVuSans-61" x="356.835938"/>
       <use xlink:href="#DejaVuSans-74" x="418.115234"/>
       <use xlink:href="#DejaVuSans-61" x="457.324219"/>
       <use xlink:href="#DejaVuSans-38" x="518.603516"/>
      </g>
     </g>
    </g>
    <g id="ytick_16">
     <g id="text_25">
      <!-- adc2_data1 -->
      <g style="fill: #333333" transform="translate(18.9875 165.17708) scale(0.13 -0.13)">
       <use xlink:href="#DejaVuSans-61"/>
       <use xlink:href="#DejaVuSans-64" x="61.279297"/>
       <use xlink:href="#DejaVuSans-63" x="124.755859"/>
       <use xlink:href="#DejaVuSans-32" x="179.736328"/>
       <use xlink:href="#DejaVuSans-5f" x="243.359375"/>
       <use xlink:href="#DejaVuSans-64" x="293.359375"/>
       <use xlink:href="#DejaVuSans-61" x="356.835938"/>
       <use xlink:href="#DejaVuSans-74" x="418.115234"/>
       <use xlink:href="#DejaVuSans-61" x="457.324219"/>
       <use xlink:href="#DejaVuSans-31" x="518.603516"/>
      </g>
     </g>
    </g>
    <g id="ytick_17">
     <g id="text_26">
      <!-- adc2_data4 -->
      <g style="fill: #333333" transform="translate(18.9875 135.289461) scale(0.13 -0.13)">
       <use xlink:href="#DejaVuSans-61"/>
       <use xlink:href="#DejaVuSans-64" x="61.279297"/>
       <use xlink:href="#DejaVuSans-63" x="124.755859"/>
       <use xlink:href="#DejaVuSans-32" x="179.736328"/>
       <use xlink:href="#DejaVuSans-5f" x="243.359375"/>
       <use xlink:href="#DejaVuSans-64" x="293.359375"/>
       <use xlink:href="#DejaVuSans-61" x="356.835938"/>
       <use xlink:href="#DejaVuSans-74" x="418.115234"/>
       <use xlink:href="#DejaVuSans-61" x="457.324219"/>
       <use xlink:href="#DejaVuSans-34" x="518.603516"/>
      </g>
     </g>
    </g>
    <g id="ytick_18">
     <g id="text_27">
      <!-- adc0_data11 -->
      <g style="fill: #333333" transform="translate(10.71625 105.401842) scale(0.13 -0.13)">
       <use xlink:href="#DejaVuSans-61"/>
       <use xlink:href="#DejaVuSans-64" x="61.279297"/>
       <use xlink:href="#DejaVuSans-63" x="124.755859"/>
       <use xlink:href="#DejaVuSans-30" x="179.736328"/>
       <use xlink:href="#DejaVuSans-5f" x="243.359375"/>
       <use xlink:href="#DejaVuSans-64" x="293.359375"/>
       <use xlink:href="#DejaVuSans-61" x="356.835938"/>
       <use xlink:href="#DejaVuSans-74" x="418.115234"/>
       <use xlink:href="#DejaVuSans-61" x="457.324219"/>
       <use xlink:href="#DejaVuSans-31" x="518.603516"/>
       <use xlink:href="#DejaVuSans-31" x="582.226562"/>
      </g>
     </g>
    </g>
    <g id="ytick_19">
     <g id="text_28">
      <!-- adc0_data12 -->
      <g style="fill: #333333" transform="translate(10.71625 75.514222) scale(0.13 -0.13)">
       <use xlink:href="#DejaVuSans-61"/>
       <use xlink:href="#DejaVuSans-64" x="61.279297"/>
       <use xlink:href="#DejaVuSans-63" x="124.755859"/>
       <use xlink:href="#DejaVuSans-30" x="179.736328"/>
       <use xlink:href="#DejaVuSans-5f" x="243.359375"/>
       <use xlink:href="#DejaVuSans-64" x="293.359375"/>
       <use xlink:href="#DejaVuSans-61" x="356.835938"/>
       <use xlink:href="#DejaVuSans-74" x="418.115234"/>
       <use xlink:href="#DejaVuSans-61" x="457.324219"/>
       <use xlink:href="#DejaVuSans-31" x="518.603516"/>
       <use xlink:href="#DejaVuSans-32" x="582.226562"/>
      </g>
     </g>
    </g>
    <g id="ytick_20">
     <g id="text_29">
      <!-- adc1_data11 -->
      <g style="fill: #333333" transform="translate(10.71625 45.626603) scale(0.13 -0.13)">
       <use xlink:href="#DejaVuSans-61"/>
       <use xlink:href="#DejaVuSans-64" x="61.279297"/>
       <use xlink:href="#DejaVuSans-63" x="124.755859"/>
       <use xlink:href="#DejaVuSans-31" x="179.736328"/>
       <use xlink:href="#DejaVuSans-5f" x="243.359375"/>
       <use xlink:href="#DejaVuSans-64" x="293.359375"/>
       <use xlink:href="#DejaVuSans-61" x="356.835938"/>
       <use xlink:href="#DejaVuSans-74" x="418.115234"/>
       <use xlink:href="#DejaVuSans-61" x="457.324219"/>
       <use xlink:href="#DejaVuSans-31" x="518.603516"/>
       <use xlink:href="#DejaVuSans-31" x="582.226562"/>
      </g>
     </g>
    </g>
   </g>
   <g id="patch_123">
    <path d="M 101.68 638.44 
L 565.2 638.44 
" style="fill: none; stroke: #000000; stroke-width: 0.8; stroke-linejoin: miter; stroke-linecap: square"/>
   </g>
   <g id="legend_1">
    <g id="patch_124">
     <path d="M 477.781875 537.075625 
L 501.781875 537.075625 
L 501.781875 528.675625 
L 477.781875 528.675625 
z
" style="fill: #008bfb"/>
    </g>
    <g id="text_30">
     <!-- Class 3 -->
     <g transform="translate(511.381875 537.075625) scale(0.12 -0.12)">
      <defs>
       <path id="DejaVuSans-43" d="M 4122 4306 
L 4122 3641 
Q 3803 3938 3442 4084 
Q 3081 4231 2675 4231 
Q 1875 4231 1450 3742 
Q 1025 3253 1025 2328 
Q 1025 1406 1450 917 
Q 1875 428 2675 428 
Q 3081 428 3442 575 
Q 3803 722 4122 1019 
L 4122 359 
Q 3791 134 3420 21 
Q 3050 -91 2638 -91 
Q 1578 -91 968 557 
Q 359 1206 359 2328 
Q 359 3453 968 4101 
Q 1578 4750 2638 4750 
Q 3056 4750 3426 4639 
Q 3797 4528 4122 4306 
z
" transform="scale(0.015625)"/>
       <path id="DejaVuSans-73" d="M 2834 3397 
L 2834 2853 
Q 2591 2978 2328 3040 
Q 2066 3103 1784 3103 
Q 1356 3103 1142 2972 
Q 928 2841 928 2578 
Q 928 2378 1081 2264 
Q 1234 2150 1697 2047 
L 1894 2003 
Q 2506 1872 2764 1633 
Q 3022 1394 3022 966 
Q 3022 478 2636 193 
Q 2250 -91 1575 -91 
Q 1294 -91 989 -36 
Q 684 19 347 128 
L 347 722 
Q 666 556 975 473 
Q 1284 391 1588 391 
Q 1994 391 2212 530 
Q 2431 669 2431 922 
Q 2431 1156 2273 1281 
Q 2116 1406 1581 1522 
L 1381 1569 
Q 847 1681 609 1914 
Q 372 2147 372 2553 
Q 372 3047 722 3315 
Q 1072 3584 1716 3584 
Q 2034 3584 2315 3537 
Q 2597 3491 2834 3397 
z
" transform="scale(0.015625)"/>
      </defs>
      <use xlink:href="#DejaVuSans-43"/>
      <use xlink:href="#DejaVuSans-6c" x="69.824219"/>
      <use xlink:href="#DejaVuSans-61" x="97.607422"/>
      <use xlink:href="#DejaVuSans-73" x="158.886719"/>
      <use xlink:href="#DejaVuSans-73" x="210.986328"/>
      <use xlink:href="#DejaVuSans-20" x="263.085938"/>
      <use xlink:href="#DejaVuSans-33" x="294.873047"/>
     </g>
    </g>
    <g id="patch_125">
     <path d="M 477.781875 554.689375 
L 501.781875 554.689375 
L 501.781875 546.289375 
L 477.781875 546.289375 
z
" style="fill: #896af0"/>
    </g>
    <g id="text_31">
     <!-- Class 0 -->
     <g transform="translate(511.381875 554.689375) scale(0.12 -0.12)">
      <use xlink:href="#DejaVuSans-43"/>
      <use xlink:href="#DejaVuSans-6c" x="69.824219"/>
      <use xlink:href="#DejaVuSans-61" x="97.607422"/>
      <use xlink:href="#DejaVuSans-73" x="158.886719"/>
      <use xlink:href="#DejaVuSans-73" x="210.986328"/>
      <use xlink:href="#DejaVuSans-20" x="263.085938"/>
      <use xlink:href="#DejaVuSans-30" x="294.873047"/>
     </g>
    </g>
    <g id="patch_126">
     <path d="M 477.781875 572.303125 
L 501.781875 572.303125 
L 501.781875 563.903125 
L 477.781875 563.903125 
z
" style="fill: #e928ae"/>
    </g>
    <g id="text_32">
     <!-- Class 1 -->
     <g transform="translate(511.381875 572.303125) scale(0.12 -0.12)">
      <use xlink:href="#DejaVuSans-43"/>
      <use xlink:href="#DejaVuSans-6c" x="69.824219"/>
      <use xlink:href="#DejaVuSans-61" x="97.607422"/>
      <use xlink:href="#DejaVuSans-73" x="158.886719"/>
      <use xlink:href="#DejaVuSans-73" x="210.986328"/>
      <use xlink:href="#DejaVuSans-20" x="263.085938"/>
      <use xlink:href="#DejaVuSans-31" x="294.873047"/>
     </g>
    </g>
    <g id="patch_127">
     <path d="M 477.781875 589.916875 
L 501.781875 589.916875 
L 501.781875 581.516875 
L 477.781875 581.516875 
z
" style="fill: #ff004f"/>
    </g>
    <g id="text_33">
     <!-- Class 2 -->
     <g transform="translate(511.381875 589.916875) scale(0.12 -0.12)">
      <use xlink:href="#DejaVuSans-43"/>
      <use xlink:href="#DejaVuSans-6c" x="69.824219"/>
      <use xlink:href="#DejaVuSans-61" x="97.607422"/>
      <use xlink:href="#DejaVuSans-73" x="158.886719"/>
      <use xlink:href="#DejaVuSans-73" x="210.986328"/>
      <use xlink:href="#DejaVuSans-20" x="263.085938"/>
      <use xlink:href="#DejaVuSans-32" x="294.873047"/>
     </g>
    </g>
    <g id="patch_128">
     <path d="M 477.781875 607.530625 
L 501.781875 607.530625 
L 501.781875 599.130625 
L 477.781875 599.130625 
z
" style="fill: #818800"/>
    </g>
    <g id="text_34">
     <!-- Class 5 -->
     <g transform="translate(511.381875 607.530625) scale(0.12 -0.12)">
      <use xlink:href="#DejaVuSans-43"/>
      <use xlink:href="#DejaVuSans-6c" x="69.824219"/>
      <use xlink:href="#DejaVuSans-61" x="97.607422"/>
      <use xlink:href="#DejaVuSans-73" x="158.886719"/>
      <use xlink:href="#DejaVuSans-73" x="210.986328"/>
      <use xlink:href="#DejaVuSans-20" x="263.085938"/>
      <use xlink:href="#DejaVuSans-35" x="294.873047"/>
     </g>
    </g>
    <g id="patch_129">
     <path d="M 477.781875 625.144375 
L 501.781875 625.144375 
L 501.781875 616.744375 
L 477.781875 616.744375 
z
" style="fill: #009e8c"/>
    </g>
    <g id="text_35">
     <!-- Class 4 -->
     <g transform="translate(511.381875 625.144375) scale(0.12 -0.12)">
      <use xlink:href="#DejaVuSans-43"/>
      <use xlink:href="#DejaVuSans-6c" x="69.824219"/>
      <use xlink:href="#DejaVuSans-61" x="97.607422"/>
      <use xlink:href="#DejaVuSans-73" x="158.886719"/>
      <use xlink:href="#DejaVuSans-73" x="210.986328"/>
      <use xlink:href="#DejaVuSans-20" x="263.085938"/>
      <use xlink:href="#DejaVuSans-34" x="294.873047"/>
     </g>
    </g>
   </g>
  </g>
 </g>
 <defs>
  <clipPath id="pb8edbfef66">
   <rect x="101.68" y="10.8" width="463.52" height="627.64"/>
  </clipPath>
 </defs>
</svg>
