<?xml version="1.0" encoding="utf-8" standalone="no"?>
<!DOCTYPE svg PUBLIC "-//W3C//DTD SVG 1.1//EN"
  "http://www.w3.org/Graphics/SVG/1.1/DTD/svg11.dtd">
<!-- Created with matplotlib (https://matplotlib.org/) -->
<svg height="659.52pt" version="1.1" viewBox="0 0 576 659.52" width="576pt" xmlns="http://www.w3.org/2000/svg" xmlns:xlink="http://www.w3.org/1999/xlink">
 <defs>
  <style type="text/css">
*{stroke-linecap:butt;stroke-linejoin:round;}
  </style>
 </defs>
 <g id="figure_1">
  <g id="patch_1">
   <path d="M 0 659.52 
L 576 659.52 
L 576 0 
L 0 0 
z
" style="fill:#ffffff;"/>
  </g>
  <g id="axes_1">
   <g id="patch_2">
    <path d="M 101.95 615.590568 
L 565.2 615.590568 
L 565.2 10.413474 
L 101.95 10.413474 
z
" style="fill:#ffffff;"/>
   </g>
   <g id="line2d_1">
    <path clip-path="url(#pafc11be707)" d="M 101.95 615.590568 
L 101.95 10.413474 
" style="fill:none;stroke:#999999;stroke-linecap:square;stroke-width:1.5;"/>
   </g>
   <g id="patch_3">
    <path clip-path="url(#pafc11be707)" d="M 101.95 596.858896 
L 154.169062 596.858896 
L 154.169062 576.686327 
L 101.95 576.686327 
z
" style="fill:#008bfb;"/>
   </g>
   <g id="patch_4">
    <path clip-path="url(#pafc11be707)" d="M 101.95 568.04094 
L 113.178387 568.04094 
L 113.178387 547.86837 
L 101.95 547.86837 
z
" style="fill:#008bfb;"/>
   </g>
   <g id="patch_5">
    <path clip-path="url(#pafc11be707)" d="M 101.95 539.222983 
L 121.029052 539.222983 
L 121.029052 519.050413 
L 101.95 519.050413 
z
" style="fill:#008bfb;"/>
   </g>
   <g id="patch_6">
    <path clip-path="url(#pafc11be707)" d="M 101.95 510.405026 
L 112.549248 510.405026 
L 112.549248 490.232456 
L 101.95 490.232456 
z
" style="fill:#008bfb;"/>
   </g>
   <g id="patch_7">
    <path clip-path="url(#pafc11be707)" d="M 101.95 481.587069 
L 170.626722 481.587069 
L 170.626722 461.414499 
L 101.95 461.414499 
z
" style="fill:#008bfb;"/>
   </g>
   <g id="patch_8">
    <path clip-path="url(#pafc11be707)" d="M 101.95 452.769112 
L 152.856229 452.769112 
L 152.856229 432.596542 
L 101.95 432.596542 
z
" style="fill:#008bfb;"/>
   </g>
   <g id="patch_9">
    <path clip-path="url(#pafc11be707)" d="M 101.95 423.951155 
L 133.804056 423.951155 
L 133.804056 403.778585 
L 101.95 403.778585 
z
" style="fill:#008bfb;"/>
   </g>
   <g id="patch_10">
    <path clip-path="url(#pafc11be707)" d="M 101.95 395.133198 
L 122.067658 395.133198 
L 122.067658 374.960628 
L 101.95 374.960628 
z
" style="fill:#008bfb;"/>
   </g>
   <g id="patch_11">
    <path clip-path="url(#pafc11be707)" d="M 101.95 366.315241 
L 202.176858 366.315241 
L 202.176858 346.142671 
L 101.95 346.142671 
z
" style="fill:#008bfb;"/>
   </g>
   <g id="patch_12">
    <path clip-path="url(#pafc11be707)" d="M 101.95 337.497284 
L 136.335686 337.497284 
L 136.335686 317.324715 
L 101.95 317.324715 
z
" style="fill:#008bfb;"/>
   </g>
   <g id="patch_13">
    <path clip-path="url(#pafc11be707)" d="M 101.95 308.679328 
L 148.131671 308.679328 
L 148.131671 288.506758 
L 101.95 288.506758 
z
" style="fill:#008bfb;"/>
   </g>
   <g id="patch_14">
    <path clip-path="url(#pafc11be707)" d="M 101.95 279.861371 
L 138.485801 279.861371 
L 138.485801 259.688801 
L 101.95 259.688801 
z
" style="fill:#008bfb;"/>
   </g>
   <g id="patch_15">
    <path clip-path="url(#pafc11be707)" d="M 101.95 251.043414 
L 136.502413 251.043414 
L 136.502413 230.870844 
L 101.95 230.870844 
z
" style="fill:#008bfb;"/>
   </g>
   <g id="patch_16">
    <path clip-path="url(#pafc11be707)" d="M 101.95 222.225457 
L 191.972206 222.225457 
L 191.972206 202.052887 
L 101.95 202.052887 
z
" style="fill:#008bfb;"/>
   </g>
   <g id="patch_17">
    <path clip-path="url(#pafc11be707)" d="M 101.95 193.4075 
L 180.526216 193.4075 
L 180.526216 173.23493 
L 101.95 173.23493 
z
" style="fill:#008bfb;"/>
   </g>
   <g id="patch_18">
    <path clip-path="url(#pafc11be707)" d="M 101.95 164.589543 
L 207.959338 164.589543 
L 207.959338 144.416973 
L 101.95 144.416973 
z
" style="fill:#008bfb;"/>
   </g>
   <g id="patch_19">
    <path clip-path="url(#pafc11be707)" d="M 101.95 135.771586 
L 125.729764 135.771586 
L 125.729764 115.599016 
L 101.95 115.599016 
z
" style="fill:#008bfb;"/>
   </g>
   <g id="patch_20">
    <path clip-path="url(#pafc11be707)" d="M 101.95 106.953629 
L 132.453186 106.953629 
L 132.453186 86.781059 
L 101.95 86.781059 
z
" style="fill:#008bfb;"/>
   </g>
   <g id="patch_21">
    <path clip-path="url(#pafc11be707)" d="M 101.95 78.135672 
L 120.863727 78.135672 
L 120.863727 57.963103 
L 101.95 57.963103 
z
" style="fill:#008bfb;"/>
   </g>
   <g id="patch_22">
    <path clip-path="url(#pafc11be707)" d="M 101.95 49.317715 
L 223.026854 49.317715 
L 223.026854 29.145146 
L 101.95 29.145146 
z
" style="fill:#008bfb;"/>
   </g>
   <g id="patch_23">
    <path clip-path="url(#pafc11be707)" d="M 154.169062 596.858896 
L 168.199252 596.858896 
L 168.199252 576.686327 
L 154.169062 576.686327 
z
" style="fill:#896af0;"/>
   </g>
   <g id="patch_24">
    <path clip-path="url(#pafc11be707)" d="M 113.178387 568.04094 
L 156.419148 568.04094 
L 156.419148 547.86837 
L 113.178387 547.86837 
z
" style="fill:#896af0;"/>
   </g>
   <g id="patch_25">
    <path clip-path="url(#pafc11be707)" d="M 121.029052 539.222983 
L 153.041468 539.222983 
L 153.041468 519.050413 
L 121.029052 519.050413 
z
" style="fill:#896af0;"/>
   </g>
   <g id="patch_26">
    <path clip-path="url(#pafc11be707)" d="M 112.549248 510.405026 
L 165.414299 510.405026 
L 165.414299 490.232456 
L 112.549248 490.232456 
z
" style="fill:#896af0;"/>
   </g>
   <g id="patch_27">
    <path clip-path="url(#pafc11be707)" d="M 170.626722 481.587069 
L 181.032363 481.587069 
L 181.032363 461.414499 
L 170.626722 461.414499 
z
" style="fill:#896af0;"/>
   </g>
   <g id="patch_28">
    <path clip-path="url(#pafc11be707)" d="M 152.856229 452.769112 
L 179.064271 452.769112 
L 179.064271 432.596542 
L 152.856229 432.596542 
z
" style="fill:#896af0;"/>
   </g>
   <g id="patch_29">
    <path clip-path="url(#pafc11be707)" d="M 133.804056 423.951155 
L 176.283281 423.951155 
L 176.283281 403.778585 
L 133.804056 403.778585 
z
" style="fill:#896af0;"/>
   </g>
   <g id="patch_30">
    <path clip-path="url(#pafc11be707)" d="M 122.067658 395.133198 
L 167.394792 395.133198 
L 167.394792 374.960628 
L 122.067658 374.960628 
z
" style="fill:#896af0;"/>
   </g>
   <g id="patch_31">
    <path clip-path="url(#pafc11be707)" d="M 202.176858 366.315241 
L 206.706999 366.315241 
L 206.706999 346.142671 
L 202.176858 346.142671 
z
" style="fill:#896af0;"/>
   </g>
   <g id="patch_32">
    <path clip-path="url(#pafc11be707)" d="M 136.335686 337.497284 
L 189.779904 337.497284 
L 189.779904 317.324715 
L 136.335686 317.324715 
z
" style="fill:#896af0;"/>
   </g>
   <g id="patch_33">
    <path clip-path="url(#pafc11be707)" d="M 148.131671 308.679328 
L 182.72004 308.679328 
L 182.72004 288.506758 
L 148.131671 288.506758 
z
" style="fill:#896af0;"/>
   </g>
   <g id="patch_34">
    <path clip-path="url(#pafc11be707)" d="M 138.485801 279.861371 
L 184.069157 279.861371 
L 184.069157 259.688801 
L 138.485801 259.688801 
z
" style="fill:#896af0;"/>
   </g>
   <g id="patch_35">
    <path clip-path="url(#pafc11be707)" d="M 136.502413 251.043414 
L 189.350827 251.043414 
L 189.350827 230.870844 
L 136.502413 230.870844 
z
" style="fill:#896af0;"/>
   </g>
   <g id="patch_36">
    <path clip-path="url(#pafc11be707)" d="M 191.972206 222.225457 
L 221.758895 222.225457 
L 221.758895 202.052887 
L 191.972206 202.052887 
z
" style="fill:#896af0;"/>
   </g>
   <g id="patch_37">
    <path clip-path="url(#pafc11be707)" d="M 180.526216 193.4075 
L 243.849606 193.4075 
L 243.849606 173.23493 
L 180.526216 173.23493 
z
" style="fill:#896af0;"/>
   </g>
   <g id="patch_38">
    <path clip-path="url(#pafc11be707)" d="M 207.959338 164.589543 
L 264.972271 164.589543 
L 264.972271 144.416973 
L 207.959338 144.416973 
z
" style="fill:#896af0;"/>
   </g>
   <g id="patch_39">
    <path clip-path="url(#pafc11be707)" d="M 125.729764 135.771586 
L 225.994921 135.771586 
L 225.994921 115.599016 
L 125.729764 115.599016 
z
" style="fill:#896af0;"/>
   </g>
   <g id="patch_40">
    <path clip-path="url(#pafc11be707)" d="M 132.453186 106.953629 
L 243.187243 106.953629 
L 243.187243 86.781059 
L 132.453186 86.781059 
z
" style="fill:#896af0;"/>
   </g>
   <g id="patch_41">
    <path clip-path="url(#pafc11be707)" d="M 120.863727 78.135672 
L 237.50751 78.135672 
L 237.50751 57.963103 
L 120.863727 57.963103 
z
" style="fill:#896af0;"/>
   </g>
   <g id="patch_42">
    <path clip-path="url(#pafc11be707)" d="M 223.026854 49.317715 
L 326.442685 49.317715 
L 326.442685 29.145146 
L 223.026854 29.145146 
z
" style="fill:#896af0;"/>
   </g>
   <g id="patch_43">
    <path clip-path="url(#pafc11be707)" d="M 168.199252 596.858896 
L 181.729919 596.858896 
L 181.729919 576.686327 
L 168.199252 576.686327 
z
" style="fill:#e928ae;"/>
   </g>
   <g id="patch_44">
    <path clip-path="url(#pafc11be707)" d="M 156.419148 568.04094 
L 176.592846 568.04094 
L 176.592846 547.86837 
L 156.419148 547.86837 
z
" style="fill:#e928ae;"/>
   </g>
   <g id="patch_45">
    <path clip-path="url(#pafc11be707)" d="M 153.041468 539.222983 
L 184.888289 539.222983 
L 184.888289 519.050413 
L 153.041468 519.050413 
z
" style="fill:#e928ae;"/>
   </g>
   <g id="patch_46">
    <path clip-path="url(#pafc11be707)" d="M 165.414299 510.405026 
L 179.550554 510.405026 
L 179.550554 490.232456 
L 165.414299 490.232456 
z
" style="fill:#e928ae;"/>
   </g>
   <g id="patch_47">
    <path clip-path="url(#pafc11be707)" d="M 181.032363 481.587069 
L 208.513212 481.587069 
L 208.513212 461.414499 
L 181.032363 461.414499 
z
" style="fill:#e928ae;"/>
   </g>
   <g id="patch_48">
    <path clip-path="url(#pafc11be707)" d="M 179.064271 452.769112 
L 215.165572 452.769112 
L 215.165572 432.596542 
L 179.064271 432.596542 
z
" style="fill:#e928ae;"/>
   </g>
   <g id="patch_49">
    <path clip-path="url(#pafc11be707)" d="M 176.283281 423.951155 
L 208.981959 423.951155 
L 208.981959 403.778585 
L 176.283281 403.778585 
z
" style="fill:#e928ae;"/>
   </g>
   <g id="patch_50">
    <path clip-path="url(#pafc11be707)" d="M 167.394792 395.133198 
L 200.49532 395.133198 
L 200.49532 374.960628 
L 167.394792 374.960628 
z
" style="fill:#e928ae;"/>
   </g>
   <g id="patch_51">
    <path clip-path="url(#pafc11be707)" d="M 206.706999 366.315241 
L 224.013778 366.315241 
L 224.013778 346.142671 
L 206.706999 346.142671 
z
" style="fill:#e928ae;"/>
   </g>
   <g id="patch_52">
    <path clip-path="url(#pafc11be707)" d="M 189.779904 337.497284 
L 214.862029 337.497284 
L 214.862029 317.324715 
L 189.779904 317.324715 
z
" style="fill:#e928ae;"/>
   </g>
   <g id="patch_53">
    <path clip-path="url(#pafc11be707)" d="M 182.72004 308.679328 
L 218.916873 308.679328 
L 218.916873 288.506758 
L 182.72004 288.506758 
z
" style="fill:#e928ae;"/>
   </g>
   <g id="patch_54">
    <path clip-path="url(#pafc11be707)" d="M 184.069157 279.861371 
L 237.722201 279.861371 
L 237.722201 259.688801 
L 184.069157 259.688801 
z
" style="fill:#e928ae;"/>
   </g>
   <g id="patch_55">
    <path clip-path="url(#pafc11be707)" d="M 189.350827 251.043414 
L 232.820842 251.043414 
L 232.820842 230.870844 
L 189.350827 230.870844 
z
" style="fill:#e928ae;"/>
   </g>
   <g id="patch_56">
    <path clip-path="url(#pafc11be707)" d="M 221.758895 222.225457 
L 256.280527 222.225457 
L 256.280527 202.052887 
L 221.758895 202.052887 
z
" style="fill:#e928ae;"/>
   </g>
   <g id="patch_57">
    <path clip-path="url(#pafc11be707)" d="M 243.849606 193.4075 
L 312.355053 193.4075 
L 312.355053 173.23493 
L 243.849606 173.23493 
z
" style="fill:#e928ae;"/>
   </g>
   <g id="patch_58">
    <path clip-path="url(#pafc11be707)" d="M 264.972271 164.589543 
L 324.76142 164.589543 
L 324.76142 144.416973 
L 264.972271 144.416973 
z
" style="fill:#e928ae;"/>
   </g>
   <g id="patch_59">
    <path clip-path="url(#pafc11be707)" d="M 225.994921 135.771586 
L 293.612029 135.771586 
L 293.612029 115.599016 
L 225.994921 115.599016 
z
" style="fill:#e928ae;"/>
   </g>
   <g id="patch_60">
    <path clip-path="url(#pafc11be707)" d="M 243.187243 106.953629 
L 321.458707 106.953629 
L 321.458707 86.781059 
L 243.187243 86.781059 
z
" style="fill:#e928ae;"/>
   </g>
   <g id="patch_61">
    <path clip-path="url(#pafc11be707)" d="M 237.50751 78.135672 
L 330.214838 78.135672 
L 330.214838 57.963103 
L 237.50751 57.963103 
z
" style="fill:#e928ae;"/>
   </g>
   <g id="patch_62">
    <path clip-path="url(#pafc11be707)" d="M 326.442685 49.317715 
L 438.761829 49.317715 
L 438.761829 29.145146 
L 326.442685 29.145146 
z
" style="fill:#e928ae;"/>
   </g>
   <g id="patch_63">
    <path clip-path="url(#pafc11be707)" d="M 181.729919 596.858896 
L 189.111484 596.858896 
L 189.111484 576.686327 
L 181.729919 576.686327 
z
" style="fill:#ff004f;"/>
   </g>
   <g id="patch_64">
    <path clip-path="url(#pafc11be707)" d="M 176.592846 568.04094 
L 216.97912 568.04094 
L 216.97912 547.86837 
L 176.592846 547.86837 
z
" style="fill:#ff004f;"/>
   </g>
   <g id="patch_65">
    <path clip-path="url(#pafc11be707)" d="M 184.888289 539.222983 
L 215.241381 539.222983 
L 215.241381 519.050413 
L 184.888289 519.050413 
z
" style="fill:#ff004f;"/>
   </g>
   <g id="patch_66">
    <path clip-path="url(#pafc11be707)" d="M 179.550554 510.405026 
L 228.659116 510.405026 
L 228.659116 490.232456 
L 179.550554 490.232456 
z
" style="fill:#ff004f;"/>
   </g>
   <g id="patch_67">
    <path clip-path="url(#pafc11be707)" d="M 208.513212 481.587069 
L 219.294853 481.587069 
L 219.294853 461.414499 
L 208.513212 461.414499 
z
" style="fill:#ff004f;"/>
   </g>
   <g id="patch_68">
    <path clip-path="url(#pafc11be707)" d="M 215.165572 452.769112 
L 230.202227 452.769112 
L 230.202227 432.596542 
L 215.165572 432.596542 
z
" style="fill:#ff004f;"/>
   </g>
   <g id="patch_69">
    <path clip-path="url(#pafc11be707)" d="M 208.981959 423.951155 
L 250.408233 423.951155 
L 250.408233 403.778585 
L 208.981959 403.778585 
z
" style="fill:#ff004f;"/>
   </g>
   <g id="patch_70">
    <path clip-path="url(#pafc11be707)" d="M 200.49532 395.133198 
L 245.70101 395.133198 
L 245.70101 374.960628 
L 200.49532 374.960628 
z
" style="fill:#ff004f;"/>
   </g>
   <g id="patch_71">
    <path clip-path="url(#pafc11be707)" d="M 224.013778 366.315241 
L 242.232129 366.315241 
L 242.232129 346.142671 
L 224.013778 346.142671 
z
" style="fill:#ff004f;"/>
   </g>
   <g id="patch_72">
    <path clip-path="url(#pafc11be707)" d="M 214.862029 337.497284 
L 259.842199 337.497284 
L 259.842199 317.324715 
L 214.862029 317.324715 
z
" style="fill:#ff004f;"/>
   </g>
   <g id="patch_73">
    <path clip-path="url(#pafc11be707)" d="M 218.916873 308.679328 
L 255.81307 308.679328 
L 255.81307 288.506758 
L 218.916873 288.506758 
z
" style="fill:#ff004f;"/>
   </g>
   <g id="patch_74">
    <path clip-path="url(#pafc11be707)" d="M 237.722201 279.861371 
L 274.020341 279.861371 
L 274.020341 259.688801 
L 237.722201 259.688801 
z
" style="fill:#ff004f;"/>
   </g>
   <g id="patch_75">
    <path clip-path="url(#pafc11be707)" d="M 232.820842 251.043414 
L 278.705993 251.043414 
L 278.705993 230.870844 
L 232.820842 230.870844 
z
" style="fill:#ff004f;"/>
   </g>
   <g id="patch_76">
    <path clip-path="url(#pafc11be707)" d="M 256.280527 222.225457 
L 268.58922 222.225457 
L 268.58922 202.052887 
L 256.280527 202.052887 
z
" style="fill:#ff004f;"/>
   </g>
   <g id="patch_77">
    <path clip-path="url(#pafc11be707)" d="M 312.355053 193.4075 
L 353.250971 193.4075 
L 353.250971 173.23493 
L 312.355053 173.23493 
z
" style="fill:#ff004f;"/>
   </g>
   <g id="patch_78">
    <path clip-path="url(#pafc11be707)" d="M 324.76142 164.589543 
L 354.923989 164.589543 
L 354.923989 144.416973 
L 324.76142 144.416973 
z
" style="fill:#ff004f;"/>
   </g>
   <g id="patch_79">
    <path clip-path="url(#pafc11be707)" d="M 293.612029 135.771586 
L 391.382861 135.771586 
L 391.382861 115.599016 
L 293.612029 115.599016 
z
" style="fill:#ff004f;"/>
   </g>
   <g id="patch_80">
    <path clip-path="url(#pafc11be707)" d="M 321.458707 106.953629 
L 403.473281 106.953629 
L 403.473281 86.781059 
L 321.458707 86.781059 
z
" style="fill:#ff004f;"/>
   </g>
   <g id="patch_81">
    <path clip-path="url(#pafc11be707)" d="M 330.214838 78.135672 
L 425.834233 78.135672 
L 425.834233 57.963103 
L 330.214838 57.963103 
z
" style="fill:#ff004f;"/>
   </g>
   <g id="patch_82">
    <path clip-path="url(#pafc11be707)" d="M 438.761829 49.317715 
L 508.91095 49.317715 
L 508.91095 29.145146 
L 438.761829 29.145146 
z
" style="fill:#ff004f;"/>
   </g>
   <g id="patch_83">
    <path clip-path="url(#pafc11be707)" d="M 189.111484 596.858896 
L 207.613586 596.858896 
L 207.613586 576.686327 
L 189.111484 576.686327 
z
" style="fill:#818800;"/>
   </g>
   <g id="patch_84">
    <path clip-path="url(#pafc11be707)" d="M 216.97912 568.04094 
L 223.079969 568.04094 
L 223.079969 547.86837 
L 216.97912 547.86837 
z
" style="fill:#818800;"/>
   </g>
   <g id="patch_85">
    <path clip-path="url(#pafc11be707)" d="M 215.241381 539.222983 
L 226.361575 539.222983 
L 226.361575 519.050413 
L 215.241381 519.050413 
z
" style="fill:#818800;"/>
   </g>
   <g id="patch_86">
    <path clip-path="url(#pafc11be707)" d="M 228.659116 510.405026 
L 232.272107 510.405026 
L 232.272107 490.232456 
L 228.659116 490.232456 
z
" style="fill:#818800;"/>
   </g>
   <g id="patch_87">
    <path clip-path="url(#pafc11be707)" d="M 219.294853 481.587069 
L 240.876264 481.587069 
L 240.876264 461.414499 
L 219.294853 461.414499 
z
" style="fill:#818800;"/>
   </g>
   <g id="patch_88">
    <path clip-path="url(#pafc11be707)" d="M 230.202227 452.769112 
L 239.730765 452.769112 
L 239.730765 432.596542 
L 230.202227 432.596542 
z
" style="fill:#818800;"/>
   </g>
   <g id="patch_89">
    <path clip-path="url(#pafc11be707)" d="M 250.408233 423.951155 
L 253.279638 423.951155 
L 253.279638 403.778585 
L 250.408233 403.778585 
z
" style="fill:#818800;"/>
   </g>
   <g id="patch_90">
    <path clip-path="url(#pafc11be707)" d="M 245.70101 395.133198 
L 248.015931 395.133198 
L 248.015931 374.960628 
L 245.70101 374.960628 
z
" style="fill:#818800;"/>
   </g>
   <g id="patch_91">
    <path clip-path="url(#pafc11be707)" d="M 242.232129 366.315241 
L 262.797208 366.315241 
L 262.797208 346.142671 
L 242.232129 346.142671 
z
" style="fill:#818800;"/>
   </g>
   <g id="patch_92">
    <path clip-path="url(#pafc11be707)" d="M 259.842199 337.497284 
L 270.442121 337.497284 
L 270.442121 317.324715 
L 259.842199 317.324715 
z
" style="fill:#818800;"/>
   </g>
   <g id="patch_93">
    <path clip-path="url(#pafc11be707)" d="M 255.81307 308.679328 
L 269.149785 308.679328 
L 269.149785 288.506758 
L 255.81307 288.506758 
z
" style="fill:#818800;"/>
   </g>
   <g id="patch_94">
    <path clip-path="url(#pafc11be707)" d="M 274.020341 279.861371 
L 281.294349 279.861371 
L 281.294349 259.688801 
L 274.020341 259.688801 
z
" style="fill:#818800;"/>
   </g>
   <g id="patch_95">
    <path clip-path="url(#pafc11be707)" d="M 278.705993 251.043414 
L 288.585871 251.043414 
L 288.585871 230.870844 
L 278.705993 230.870844 
z
" style="fill:#818800;"/>
   </g>
   <g id="patch_96">
    <path clip-path="url(#pafc11be707)" d="M 268.58922 222.225457 
L 292.117877 222.225457 
L 292.117877 202.052887 
L 268.58922 202.052887 
z
" style="fill:#818800;"/>
   </g>
   <g id="patch_97">
    <path clip-path="url(#pafc11be707)" d="M 353.250971 193.4075 
L 382.565402 193.4075 
L 382.565402 173.23493 
L 353.250971 173.23493 
z
" style="fill:#818800;"/>
   </g>
   <g id="patch_98">
    <path clip-path="url(#pafc11be707)" d="M 354.923989 164.589543 
L 375.907674 164.589543 
L 375.907674 144.416973 
L 354.923989 144.416973 
z
" style="fill:#818800;"/>
   </g>
   <g id="patch_99">
    <path clip-path="url(#pafc11be707)" d="M 391.382861 135.771586 
L 400.158275 135.771586 
L 400.158275 115.599016 
L 391.382861 115.599016 
z
" style="fill:#818800;"/>
   </g>
   <g id="patch_100">
    <path clip-path="url(#pafc11be707)" d="M 403.473281 106.953629 
L 416.317005 106.953629 
L 416.317005 86.781059 
L 403.473281 86.781059 
z
" style="fill:#818800;"/>
   </g>
   <g id="patch_101">
    <path clip-path="url(#pafc11be707)" d="M 425.834233 78.135672 
L 432.523457 78.135672 
L 432.523457 57.963103 
L 425.834233 57.963103 
z
" style="fill:#818800;"/>
   </g>
   <g id="patch_102">
    <path clip-path="url(#pafc11be707)" d="M 508.91095 49.317715 
L 536.3557 49.317715 
L 536.3557 29.145146 
L 508.91095 29.145146 
z
" style="fill:#818800;"/>
   </g>
   <g id="patch_103">
    <path clip-path="url(#pafc11be707)" d="M 207.613586 596.858896 
L 214.117537 596.858896 
L 214.117537 576.686327 
L 207.613586 576.686327 
z
" style="fill:#009e8c;"/>
   </g>
   <g id="patch_104">
    <path clip-path="url(#pafc11be707)" d="M 223.079969 568.04094 
L 229.162433 568.04094 
L 229.162433 547.86837 
L 223.079969 547.86837 
z
" style="fill:#009e8c;"/>
   </g>
   <g id="patch_105">
    <path clip-path="url(#pafc11be707)" d="M 226.361575 539.222983 
L 235.877416 539.222983 
L 235.877416 519.050413 
L 226.361575 519.050413 
z
" style="fill:#009e8c;"/>
   </g>
   <g id="patch_106">
    <path clip-path="url(#pafc11be707)" d="M 232.272107 510.405026 
L 236.641613 510.405026 
L 236.641613 490.232456 
L 232.272107 490.232456 
z
" style="fill:#009e8c;"/>
   </g>
   <g id="patch_107">
    <path clip-path="url(#pafc11be707)" d="M 240.876264 481.587069 
L 246.241068 481.587069 
L 246.241068 461.414499 
L 240.876264 461.414499 
z
" style="fill:#009e8c;"/>
   </g>
   <g id="patch_108">
    <path clip-path="url(#pafc11be707)" d="M 239.730765 452.769112 
L 247.319844 452.769112 
L 247.319844 432.596542 
L 239.730765 432.596542 
z
" style="fill:#009e8c;"/>
   </g>
   <g id="patch_109">
    <path clip-path="url(#pafc11be707)" d="M 253.279638 423.951155 
L 254.215558 423.951155 
L 254.215558 403.778585 
L 253.279638 403.778585 
z
" style="fill:#009e8c;"/>
   </g>
   <g id="patch_110">
    <path clip-path="url(#pafc11be707)" d="M 248.015931 395.133198 
L 254.620288 395.133198 
L 254.620288 374.960628 
L 248.015931 374.960628 
z
" style="fill:#009e8c;"/>
   </g>
   <g id="patch_111">
    <path clip-path="url(#pafc11be707)" d="M 262.797208 366.315241 
L 265.102113 366.315241 
L 265.102113 346.142671 
L 262.797208 346.142671 
z
" style="fill:#009e8c;"/>
   </g>
   <g id="patch_112">
    <path clip-path="url(#pafc11be707)" d="M 270.442121 337.497284 
L 274.33332 337.497284 
L 274.33332 317.324715 
L 270.442121 317.324715 
z
" style="fill:#009e8c;"/>
   </g>
   <g id="patch_113">
    <path clip-path="url(#pafc11be707)" d="M 269.149785 308.679328 
L 282.376666 308.679328 
L 282.376666 288.506758 
L 269.149785 288.506758 
z
" style="fill:#009e8c;"/>
   </g>
   <g id="patch_114">
    <path clip-path="url(#pafc11be707)" d="M 281.294349 279.861371 
L 289.69019 279.861371 
L 289.69019 259.688801 
L 281.294349 259.688801 
z
" style="fill:#009e8c;"/>
   </g>
   <g id="patch_115">
    <path clip-path="url(#pafc11be707)" d="M 288.585871 251.043414 
L 292.87041 251.043414 
L 292.87041 230.870844 
L 288.585871 230.870844 
z
" style="fill:#009e8c;"/>
   </g>
   <g id="patch_116">
    <path clip-path="url(#pafc11be707)" d="M 292.117877 222.225457 
L 295.615726 222.225457 
L 295.615726 202.052887 
L 292.117877 202.052887 
z
" style="fill:#009e8c;"/>
   </g>
   <g id="patch_117">
    <path clip-path="url(#pafc11be707)" d="M 382.565402 193.4075 
L 387.044837 193.4075 
L 387.044837 173.23493 
L 382.565402 173.23493 
z
" style="fill:#009e8c;"/>
   </g>
   <g id="patch_118">
    <path clip-path="url(#pafc11be707)" d="M 375.907674 164.589543 
L 388.628895 164.589543 
L 388.628895 144.416973 
L 375.907674 144.416973 
z
" style="fill:#009e8c;"/>
   </g>
   <g id="patch_119">
    <path clip-path="url(#pafc11be707)" d="M 400.158275 135.771586 
L 401.15738 135.771586 
L 401.15738 115.599016 
L 400.158275 115.599016 
z
" style="fill:#009e8c;"/>
   </g>
   <g id="patch_120">
    <path clip-path="url(#pafc11be707)" d="M 416.317005 106.953629 
L 421.029518 106.953629 
L 421.029518 86.781059 
L 416.317005 86.781059 
z
" style="fill:#009e8c;"/>
   </g>
   <g id="patch_121">
    <path clip-path="url(#pafc11be707)" d="M 432.523457 78.135672 
L 437.58558 78.135672 
L 437.58558 57.963103 
L 432.523457 57.963103 
z
" style="fill:#009e8c;"/>
   </g>
   <g id="patch_122">
    <path clip-path="url(#pafc11be707)" d="M 536.3557 49.317715 
L 543.140476 49.317715 
L 543.140476 29.145146 
L 536.3557 29.145146 
z
" style="fill:#009e8c;"/>
   </g>
   <g id="matplotlib.axis_1">
    <g id="xtick_1">
     <g id="line2d_2">
      <defs>
       <path d="M 0 0 
L 0 3.5 
" id="m01d8a0ab4b" style="stroke:#333333;stroke-width:0.8;"/>
      </defs>
      <g>
       <use style="fill:#333333;stroke:#333333;stroke-width:0.8;" x="101.95" xlink:href="#m01d8a0ab4b" y="615.590568"/>
      </g>
     </g>
     <g id="text_1">
      <!-- 0.00 -->
      <defs>
       <path d="M 31.78125 66.40625 
Q 24.171875 66.40625 20.328125 58.90625 
Q 16.5 51.421875 16.5 36.375 
Q 16.5 21.390625 20.328125 13.890625 
Q 24.171875 6.390625 31.78125 6.390625 
Q 39.453125 6.390625 43.28125 13.890625 
Q 47.125 21.390625 47.125 36.375 
Q 47.125 51.421875 43.28125 58.90625 
Q 39.453125 66.40625 31.78125 66.40625 
z
M 31.78125 74.21875 
Q 44.046875 74.21875 50.515625 64.515625 
Q 56.984375 54.828125 56.984375 36.375 
Q 56.984375 17.96875 50.515625 8.265625 
Q 44.046875 -1.421875 31.78125 -1.421875 
Q 19.53125 -1.421875 13.0625 8.265625 
Q 6.59375 17.96875 6.59375 36.375 
Q 6.59375 54.828125 13.0625 64.515625 
Q 19.53125 74.21875 31.78125 74.21875 
z
" id="DejaVuSans-48"/>
       <path d="M 10.6875 12.40625 
L 21 12.40625 
L 21 0 
L 10.6875 0 
z
" id="DejaVuSans-46"/>
      </defs>
      <g style="fill:#333333;" transform="translate(89.703906 630.94885)scale(0.11 -0.11)">
       <use xlink:href="#DejaVuSans-48"/>
       <use x="63.623047" xlink:href="#DejaVuSans-46"/>
       <use x="95.410156" xlink:href="#DejaVuSans-48"/>
       <use x="159.033203" xlink:href="#DejaVuSans-48"/>
      </g>
     </g>
    </g>
    <g id="xtick_2">
     <g id="line2d_3">
      <g>
       <use style="fill:#333333;stroke:#333333;stroke-width:0.8;" x="165.630344" xlink:href="#m01d8a0ab4b" y="615.590568"/>
      </g>
     </g>
     <g id="text_2">
      <!-- 0.25 -->
      <defs>
       <path d="M 19.1875 8.296875 
L 53.609375 8.296875 
L 53.609375 0 
L 7.328125 0 
L 7.328125 8.296875 
Q 12.9375 14.109375 22.625 23.890625 
Q 32.328125 33.6875 34.8125 36.53125 
Q 39.546875 41.84375 41.421875 45.53125 
Q 43.3125 49.21875 43.3125 52.78125 
Q 43.3125 58.59375 39.234375 62.25 
Q 35.15625 65.921875 28.609375 65.921875 
Q 23.96875 65.921875 18.8125 64.3125 
Q 13.671875 62.703125 7.8125 59.421875 
L 7.8125 69.390625 
Q 13.765625 71.78125 18.9375 73 
Q 24.125 74.21875 28.421875 74.21875 
Q 39.75 74.21875 46.484375 68.546875 
Q 53.21875 62.890625 53.21875 53.421875 
Q 53.21875 48.921875 51.53125 44.890625 
Q 49.859375 40.875 45.40625 35.40625 
Q 44.1875 33.984375 37.640625 27.21875 
Q 31.109375 20.453125 19.1875 8.296875 
z
" id="DejaVuSans-50"/>
       <path d="M 10.796875 72.90625 
L 49.515625 72.90625 
L 49.515625 64.59375 
L 19.828125 64.59375 
L 19.828125 46.734375 
Q 21.96875 47.46875 24.109375 47.828125 
Q 26.265625 48.1875 28.421875 48.1875 
Q 40.625 48.1875 47.75 41.5 
Q 54.890625 34.8125 54.890625 23.390625 
Q 54.890625 11.625 47.5625 5.09375 
Q 40.234375 -1.421875 26.90625 -1.421875 
Q 22.3125 -1.421875 17.546875 -0.640625 
Q 12.796875 0.140625 7.71875 1.703125 
L 7.71875 11.625 
Q 12.109375 9.234375 16.796875 8.0625 
Q 21.484375 6.890625 26.703125 6.890625 
Q 35.15625 6.890625 40.078125 11.328125 
Q 45.015625 15.765625 45.015625 23.390625 
Q 45.015625 31 40.078125 35.4375 
Q 35.15625 39.890625 26.703125 39.890625 
Q 22.75 39.890625 18.8125 39.015625 
Q 14.890625 38.140625 10.796875 36.28125 
z
" id="DejaVuSans-53"/>
      </defs>
      <g style="fill:#333333;" transform="translate(153.38425 630.94885)scale(0.11 -0.11)">
       <use xlink:href="#DejaVuSans-48"/>
       <use x="63.623047" xlink:href="#DejaVuSans-46"/>
       <use x="95.410156" xlink:href="#DejaVuSans-50"/>
       <use x="159.033203" xlink:href="#DejaVuSans-53"/>
      </g>
     </g>
    </g>
    <g id="xtick_3">
     <g id="line2d_4">
      <g>
       <use style="fill:#333333;stroke:#333333;stroke-width:0.8;" x="229.310688" xlink:href="#m01d8a0ab4b" y="615.590568"/>
      </g>
     </g>
     <g id="text_3">
      <!-- 0.50 -->
      <g style="fill:#333333;" transform="translate(217.064594 630.94885)scale(0.11 -0.11)">
       <use xlink:href="#DejaVuSans-48"/>
       <use x="63.623047" xlink:href="#DejaVuSans-46"/>
       <use x="95.410156" xlink:href="#DejaVuSans-53"/>
       <use x="159.033203" xlink:href="#DejaVuSans-48"/>
      </g>
     </g>
    </g>
    <g id="xtick_4">
     <g id="line2d_5">
      <g>
       <use style="fill:#333333;stroke:#333333;stroke-width:0.8;" x="292.991031" xlink:href="#m01d8a0ab4b" y="615.590568"/>
      </g>
     </g>
     <g id="text_4">
      <!-- 0.75 -->
      <defs>
       <path d="M 8.203125 72.90625 
L 55.078125 72.90625 
L 55.078125 68.703125 
L 28.609375 0 
L 18.3125 0 
L 43.21875 64.59375 
L 8.203125 64.59375 
z
" id="DejaVuSans-55"/>
      </defs>
      <g style="fill:#333333;" transform="translate(280.744938 630.94885)scale(0.11 -0.11)">
       <use xlink:href="#DejaVuSans-48"/>
       <use x="63.623047" xlink:href="#DejaVuSans-46"/>
       <use x="95.410156" xlink:href="#DejaVuSans-55"/>
       <use x="159.033203" xlink:href="#DejaVuSans-53"/>
      </g>
     </g>
    </g>
    <g id="xtick_5">
     <g id="line2d_6">
      <g>
       <use style="fill:#333333;stroke:#333333;stroke-width:0.8;" x="356.671375" xlink:href="#m01d8a0ab4b" y="615.590568"/>
      </g>
     </g>
     <g id="text_5">
      <!-- 1.00 -->
      <defs>
       <path d="M 12.40625 8.296875 
L 28.515625 8.296875 
L 28.515625 63.921875 
L 10.984375 60.40625 
L 10.984375 69.390625 
L 28.421875 72.90625 
L 38.28125 72.90625 
L 38.28125 8.296875 
L 54.390625 8.296875 
L 54.390625 0 
L 12.40625 0 
z
" id="DejaVuSans-49"/>
      </defs>
      <g style="fill:#333333;" transform="translate(344.425282 630.94885)scale(0.11 -0.11)">
       <use xlink:href="#DejaVuSans-49"/>
       <use x="63.623047" xlink:href="#DejaVuSans-46"/>
       <use x="95.410156" xlink:href="#DejaVuSans-48"/>
       <use x="159.033203" xlink:href="#DejaVuSans-48"/>
      </g>
     </g>
    </g>
    <g id="xtick_6">
     <g id="line2d_7">
      <g>
       <use style="fill:#333333;stroke:#333333;stroke-width:0.8;" x="420.351719" xlink:href="#m01d8a0ab4b" y="615.590568"/>
      </g>
     </g>
     <g id="text_6">
      <!-- 1.25 -->
      <g style="fill:#333333;" transform="translate(408.105625 630.94885)scale(0.11 -0.11)">
       <use xlink:href="#DejaVuSans-49"/>
       <use x="63.623047" xlink:href="#DejaVuSans-46"/>
       <use x="95.410156" xlink:href="#DejaVuSans-50"/>
       <use x="159.033203" xlink:href="#DejaVuSans-53"/>
      </g>
     </g>
    </g>
    <g id="xtick_7">
     <g id="line2d_8">
      <g>
       <use style="fill:#333333;stroke:#333333;stroke-width:0.8;" x="484.032063" xlink:href="#m01d8a0ab4b" y="615.590568"/>
      </g>
     </g>
     <g id="text_7">
      <!-- 1.50 -->
      <g style="fill:#333333;" transform="translate(471.785969 630.94885)scale(0.11 -0.11)">
       <use xlink:href="#DejaVuSans-49"/>
       <use x="63.623047" xlink:href="#DejaVuSans-46"/>
       <use x="95.410156" xlink:href="#DejaVuSans-53"/>
       <use x="159.033203" xlink:href="#DejaVuSans-48"/>
      </g>
     </g>
    </g>
    <g id="xtick_8">
     <g id="line2d_9">
      <g>
       <use style="fill:#333333;stroke:#333333;stroke-width:0.8;" x="547.712407" xlink:href="#m01d8a0ab4b" y="615.590568"/>
      </g>
     </g>
     <g id="text_8">
      <!-- 1.75 -->
      <g style="fill:#333333;" transform="translate(535.466313 630.94885)scale(0.11 -0.11)">
       <use xlink:href="#DejaVuSans-49"/>
       <use x="63.623047" xlink:href="#DejaVuSans-46"/>
       <use x="95.410156" xlink:href="#DejaVuSans-55"/>
       <use x="159.033203" xlink:href="#DejaVuSans-53"/>
      </g>
     </g>
    </g>
    <g id="text_9">
     <!-- mean(|SHAP value|) (average impact on model output magnitude) -->
     <defs>
      <path d="M 52 44.1875 
Q 55.375 50.25 60.0625 53.125 
Q 64.75 56 71.09375 56 
Q 79.640625 56 84.28125 50.015625 
Q 88.921875 44.046875 88.921875 33.015625 
L 88.921875 0 
L 79.890625 0 
L 79.890625 32.71875 
Q 79.890625 40.578125 77.09375 44.375 
Q 74.3125 48.1875 68.609375 48.1875 
Q 61.625 48.1875 57.5625 43.546875 
Q 53.515625 38.921875 53.515625 30.90625 
L 53.515625 0 
L 44.484375 0 
L 44.484375 32.71875 
Q 44.484375 40.625 41.703125 44.40625 
Q 38.921875 48.1875 33.109375 48.1875 
Q 26.21875 48.1875 22.15625 43.53125 
Q 18.109375 38.875 18.109375 30.90625 
L 18.109375 0 
L 9.078125 0 
L 9.078125 54.6875 
L 18.109375 54.6875 
L 18.109375 46.1875 
Q 21.1875 51.21875 25.484375 53.609375 
Q 29.78125 56 35.6875 56 
Q 41.65625 56 45.828125 52.96875 
Q 50 49.953125 52 44.1875 
z
" id="DejaVuSans-109"/>
      <path d="M 56.203125 29.59375 
L 56.203125 25.203125 
L 14.890625 25.203125 
Q 15.484375 15.921875 20.484375 11.0625 
Q 25.484375 6.203125 34.421875 6.203125 
Q 39.59375 6.203125 44.453125 7.46875 
Q 49.3125 8.734375 54.109375 11.28125 
L 54.109375 2.78125 
Q 49.265625 0.734375 44.1875 -0.34375 
Q 39.109375 -1.421875 33.890625 -1.421875 
Q 20.796875 -1.421875 13.15625 6.1875 
Q 5.515625 13.8125 5.515625 26.8125 
Q 5.515625 40.234375 12.765625 48.109375 
Q 20.015625 56 32.328125 56 
Q 43.359375 56 49.78125 48.890625 
Q 56.203125 41.796875 56.203125 29.59375 
z
M 47.21875 32.234375 
Q 47.125 39.59375 43.09375 43.984375 
Q 39.0625 48.390625 32.421875 48.390625 
Q 24.90625 48.390625 20.390625 44.140625 
Q 15.875 39.890625 15.1875 32.171875 
z
" id="DejaVuSans-101"/>
      <path d="M 34.28125 27.484375 
Q 23.390625 27.484375 19.1875 25 
Q 14.984375 22.515625 14.984375 16.5 
Q 14.984375 11.71875 18.140625 8.90625 
Q 21.296875 6.109375 26.703125 6.109375 
Q 34.1875 6.109375 38.703125 11.40625 
Q 43.21875 16.703125 43.21875 25.484375 
L 43.21875 27.484375 
z
M 52.203125 31.203125 
L 52.203125 0 
L 43.21875 0 
L 43.21875 8.296875 
Q 40.140625 3.328125 35.546875 0.953125 
Q 30.953125 -1.421875 24.3125 -1.421875 
Q 15.921875 -1.421875 10.953125 3.296875 
Q 6 8.015625 6 15.921875 
Q 6 25.140625 12.171875 29.828125 
Q 18.359375 34.515625 30.609375 34.515625 
L 43.21875 34.515625 
L 43.21875 35.40625 
Q 43.21875 41.609375 39.140625 45 
Q 35.0625 48.390625 27.6875 48.390625 
Q 23 48.390625 18.546875 47.265625 
Q 14.109375 46.140625 10.015625 43.890625 
L 10.015625 52.203125 
Q 14.9375 54.109375 19.578125 55.046875 
Q 24.21875 56 28.609375 56 
Q 40.484375 56 46.34375 49.84375 
Q 52.203125 43.703125 52.203125 31.203125 
z
" id="DejaVuSans-97"/>
      <path d="M 54.890625 33.015625 
L 54.890625 0 
L 45.90625 0 
L 45.90625 32.71875 
Q 45.90625 40.484375 42.875 44.328125 
Q 39.84375 48.1875 33.796875 48.1875 
Q 26.515625 48.1875 22.3125 43.546875 
Q 18.109375 38.921875 18.109375 30.90625 
L 18.109375 0 
L 9.078125 0 
L 9.078125 54.6875 
L 18.109375 54.6875 
L 18.109375 46.1875 
Q 21.34375 51.125 25.703125 53.5625 
Q 30.078125 56 35.796875 56 
Q 45.21875 56 50.046875 50.171875 
Q 54.890625 44.34375 54.890625 33.015625 
z
" id="DejaVuSans-110"/>
      <path d="M 31 75.875 
Q 24.46875 64.65625 21.28125 53.65625 
Q 18.109375 42.671875 18.109375 31.390625 
Q 18.109375 20.125 21.3125 9.0625 
Q 24.515625 -2 31 -13.1875 
L 23.1875 -13.1875 
Q 15.875 -1.703125 12.234375 9.375 
Q 8.59375 20.453125 8.59375 31.390625 
Q 8.59375 42.28125 12.203125 53.3125 
Q 15.828125 64.359375 23.1875 75.875 
z
" id="DejaVuSans-40"/>
      <path d="M 21 76.421875 
L 21 -23.578125 
L 12.703125 -23.578125 
L 12.703125 76.421875 
z
" id="DejaVuSans-124"/>
      <path d="M 53.515625 70.515625 
L 53.515625 60.890625 
Q 47.90625 63.578125 42.921875 64.890625 
Q 37.9375 66.21875 33.296875 66.21875 
Q 25.25 66.21875 20.875 63.09375 
Q 16.5 59.96875 16.5 54.203125 
Q 16.5 49.359375 19.40625 46.890625 
Q 22.3125 44.4375 30.421875 42.921875 
L 36.375 41.703125 
Q 47.40625 39.59375 52.65625 34.296875 
Q 57.90625 29 57.90625 20.125 
Q 57.90625 9.515625 50.796875 4.046875 
Q 43.703125 -1.421875 29.984375 -1.421875 
Q 24.8125 -1.421875 18.96875 -0.25 
Q 13.140625 0.921875 6.890625 3.21875 
L 6.890625 13.375 
Q 12.890625 10.015625 18.65625 8.296875 
Q 24.421875 6.59375 29.984375 6.59375 
Q 38.421875 6.59375 43.015625 9.90625 
Q 47.609375 13.234375 47.609375 19.390625 
Q 47.609375 24.75 44.3125 27.78125 
Q 41.015625 30.8125 33.5 32.328125 
L 27.484375 33.5 
Q 16.453125 35.6875 11.515625 40.375 
Q 6.59375 45.0625 6.59375 53.421875 
Q 6.59375 63.09375 13.40625 68.65625 
Q 20.21875 74.21875 32.171875 74.21875 
Q 37.3125 74.21875 42.625 73.28125 
Q 47.953125 72.359375 53.515625 70.515625 
z
" id="DejaVuSans-83"/>
      <path d="M 9.8125 72.90625 
L 19.671875 72.90625 
L 19.671875 43.015625 
L 55.515625 43.015625 
L 55.515625 72.90625 
L 65.375 72.90625 
L 65.375 0 
L 55.515625 0 
L 55.515625 34.71875 
L 19.671875 34.71875 
L 19.671875 0 
L 9.8125 0 
z
" id="DejaVuSans-72"/>
      <path d="M 34.1875 63.1875 
L 20.796875 26.90625 
L 47.609375 26.90625 
z
M 28.609375 72.90625 
L 39.796875 72.90625 
L 67.578125 0 
L 57.328125 0 
L 50.6875 18.703125 
L 17.828125 18.703125 
L 11.1875 0 
L 0.78125 0 
z
" id="DejaVuSans-65"/>
      <path d="M 19.671875 64.796875 
L 19.671875 37.40625 
L 32.078125 37.40625 
Q 38.96875 37.40625 42.71875 40.96875 
Q 46.484375 44.53125 46.484375 51.125 
Q 46.484375 57.671875 42.71875 61.234375 
Q 38.96875 64.796875 32.078125 64.796875 
z
M 9.8125 72.90625 
L 32.078125 72.90625 
Q 44.34375 72.90625 50.609375 67.359375 
Q 56.890625 61.8125 56.890625 51.125 
Q 56.890625 40.328125 50.609375 34.8125 
Q 44.34375 29.296875 32.078125 29.296875 
L 19.671875 29.296875 
L 19.671875 0 
L 9.8125 0 
z
" id="DejaVuSans-80"/>
      <path id="DejaVuSans-32"/>
      <path d="M 2.984375 54.6875 
L 12.5 54.6875 
L 29.59375 8.796875 
L 46.6875 54.6875 
L 56.203125 54.6875 
L 35.6875 0 
L 23.484375 0 
z
" id="DejaVuSans-118"/>
      <path d="M 9.421875 75.984375 
L 18.40625 75.984375 
L 18.40625 0 
L 9.421875 0 
z
" id="DejaVuSans-108"/>
      <path d="M 8.5 21.578125 
L 8.5 54.6875 
L 17.484375 54.6875 
L 17.484375 21.921875 
Q 17.484375 14.15625 20.5 10.265625 
Q 23.53125 6.390625 29.59375 6.390625 
Q 36.859375 6.390625 41.078125 11.03125 
Q 45.3125 15.671875 45.3125 23.6875 
L 45.3125 54.6875 
L 54.296875 54.6875 
L 54.296875 0 
L 45.3125 0 
L 45.3125 8.40625 
Q 42.046875 3.421875 37.71875 1 
Q 33.40625 -1.421875 27.6875 -1.421875 
Q 18.265625 -1.421875 13.375 4.4375 
Q 8.5 10.296875 8.5 21.578125 
z
M 31.109375 56 
z
" id="DejaVuSans-117"/>
      <path d="M 8.015625 75.875 
L 15.828125 75.875 
Q 23.140625 64.359375 26.78125 53.3125 
Q 30.421875 42.28125 30.421875 31.390625 
Q 30.421875 20.453125 26.78125 9.375 
Q 23.140625 -1.703125 15.828125 -13.1875 
L 8.015625 -13.1875 
Q 14.5 -2 17.703125 9.0625 
Q 20.90625 20.125 20.90625 31.390625 
Q 20.90625 42.671875 17.703125 53.65625 
Q 14.5 64.65625 8.015625 75.875 
z
" id="DejaVuSans-41"/>
      <path d="M 41.109375 46.296875 
Q 39.59375 47.171875 37.8125 47.578125 
Q 36.03125 48 33.890625 48 
Q 26.265625 48 22.1875 43.046875 
Q 18.109375 38.09375 18.109375 28.8125 
L 18.109375 0 
L 9.078125 0 
L 9.078125 54.6875 
L 18.109375 54.6875 
L 18.109375 46.1875 
Q 20.953125 51.171875 25.484375 53.578125 
Q 30.03125 56 36.53125 56 
Q 37.453125 56 38.578125 55.875 
Q 39.703125 55.765625 41.0625 55.515625 
z
" id="DejaVuSans-114"/>
      <path d="M 45.40625 27.984375 
Q 45.40625 37.75 41.375 43.109375 
Q 37.359375 48.484375 30.078125 48.484375 
Q 22.859375 48.484375 18.828125 43.109375 
Q 14.796875 37.75 14.796875 27.984375 
Q 14.796875 18.265625 18.828125 12.890625 
Q 22.859375 7.515625 30.078125 7.515625 
Q 37.359375 7.515625 41.375 12.890625 
Q 45.40625 18.265625 45.40625 27.984375 
z
M 54.390625 6.78125 
Q 54.390625 -7.171875 48.1875 -13.984375 
Q 42 -20.796875 29.203125 -20.796875 
Q 24.46875 -20.796875 20.265625 -20.09375 
Q 16.0625 -19.390625 12.109375 -17.921875 
L 12.109375 -9.1875 
Q 16.0625 -11.328125 19.921875 -12.34375 
Q 23.78125 -13.375 27.78125 -13.375 
Q 36.625 -13.375 41.015625 -8.765625 
Q 45.40625 -4.15625 45.40625 5.171875 
L 45.40625 9.625 
Q 42.625 4.78125 38.28125 2.390625 
Q 33.9375 0 27.875 0 
Q 17.828125 0 11.671875 7.65625 
Q 5.515625 15.328125 5.515625 27.984375 
Q 5.515625 40.671875 11.671875 48.328125 
Q 17.828125 56 27.875 56 
Q 33.9375 56 38.28125 53.609375 
Q 42.625 51.21875 45.40625 46.390625 
L 45.40625 54.6875 
L 54.390625 54.6875 
z
" id="DejaVuSans-103"/>
      <path d="M 9.421875 54.6875 
L 18.40625 54.6875 
L 18.40625 0 
L 9.421875 0 
z
M 9.421875 75.984375 
L 18.40625 75.984375 
L 18.40625 64.59375 
L 9.421875 64.59375 
z
" id="DejaVuSans-105"/>
      <path d="M 18.109375 8.203125 
L 18.109375 -20.796875 
L 9.078125 -20.796875 
L 9.078125 54.6875 
L 18.109375 54.6875 
L 18.109375 46.390625 
Q 20.953125 51.265625 25.265625 53.625 
Q 29.59375 56 35.59375 56 
Q 45.5625 56 51.78125 48.09375 
Q 58.015625 40.1875 58.015625 27.296875 
Q 58.015625 14.40625 51.78125 6.484375 
Q 45.5625 -1.421875 35.59375 -1.421875 
Q 29.59375 -1.421875 25.265625 0.953125 
Q 20.953125 3.328125 18.109375 8.203125 
z
M 48.6875 27.296875 
Q 48.6875 37.203125 44.609375 42.84375 
Q 40.53125 48.484375 33.40625 48.484375 
Q 26.265625 48.484375 22.1875 42.84375 
Q 18.109375 37.203125 18.109375 27.296875 
Q 18.109375 17.390625 22.1875 11.75 
Q 26.265625 6.109375 33.40625 6.109375 
Q 40.53125 6.109375 44.609375 11.75 
Q 48.6875 17.390625 48.6875 27.296875 
z
" id="DejaVuSans-112"/>
      <path d="M 48.78125 52.59375 
L 48.78125 44.1875 
Q 44.96875 46.296875 41.140625 47.34375 
Q 37.3125 48.390625 33.40625 48.390625 
Q 24.65625 48.390625 19.8125 42.84375 
Q 14.984375 37.3125 14.984375 27.296875 
Q 14.984375 17.28125 19.8125 11.734375 
Q 24.65625 6.203125 33.40625 6.203125 
Q 37.3125 6.203125 41.140625 7.25 
Q 44.96875 8.296875 48.78125 10.40625 
L 48.78125 2.09375 
Q 45.015625 0.34375 40.984375 -0.53125 
Q 36.96875 -1.421875 32.421875 -1.421875 
Q 20.0625 -1.421875 12.78125 6.34375 
Q 5.515625 14.109375 5.515625 27.296875 
Q 5.515625 40.671875 12.859375 48.328125 
Q 20.21875 56 33.015625 56 
Q 37.15625 56 41.109375 55.140625 
Q 45.0625 54.296875 48.78125 52.59375 
z
" id="DejaVuSans-99"/>
      <path d="M 18.3125 70.21875 
L 18.3125 54.6875 
L 36.8125 54.6875 
L 36.8125 47.703125 
L 18.3125 47.703125 
L 18.3125 18.015625 
Q 18.3125 11.328125 20.140625 9.421875 
Q 21.96875 7.515625 27.59375 7.515625 
L 36.8125 7.515625 
L 36.8125 0 
L 27.59375 0 
Q 17.1875 0 13.234375 3.875 
Q 9.28125 7.765625 9.28125 18.015625 
L 9.28125 47.703125 
L 2.6875 47.703125 
L 2.6875 54.6875 
L 9.28125 54.6875 
L 9.28125 70.21875 
z
" id="DejaVuSans-116"/>
      <path d="M 30.609375 48.390625 
Q 23.390625 48.390625 19.1875 42.75 
Q 14.984375 37.109375 14.984375 27.296875 
Q 14.984375 17.484375 19.15625 11.84375 
Q 23.34375 6.203125 30.609375 6.203125 
Q 37.796875 6.203125 41.984375 11.859375 
Q 46.1875 17.53125 46.1875 27.296875 
Q 46.1875 37.015625 41.984375 42.703125 
Q 37.796875 48.390625 30.609375 48.390625 
z
M 30.609375 56 
Q 42.328125 56 49.015625 48.375 
Q 55.71875 40.765625 55.71875 27.296875 
Q 55.71875 13.875 49.015625 6.21875 
Q 42.328125 -1.421875 30.609375 -1.421875 
Q 18.84375 -1.421875 12.171875 6.21875 
Q 5.515625 13.875 5.515625 27.296875 
Q 5.515625 40.765625 12.171875 48.375 
Q 18.84375 56 30.609375 56 
z
" id="DejaVuSans-111"/>
      <path d="M 45.40625 46.390625 
L 45.40625 75.984375 
L 54.390625 75.984375 
L 54.390625 0 
L 45.40625 0 
L 45.40625 8.203125 
Q 42.578125 3.328125 38.25 0.953125 
Q 33.9375 -1.421875 27.875 -1.421875 
Q 17.96875 -1.421875 11.734375 6.484375 
Q 5.515625 14.40625 5.515625 27.296875 
Q 5.515625 40.1875 11.734375 48.09375 
Q 17.96875 56 27.875 56 
Q 33.9375 56 38.25 53.625 
Q 42.578125 51.265625 45.40625 46.390625 
z
M 14.796875 27.296875 
Q 14.796875 17.390625 18.875 11.75 
Q 22.953125 6.109375 30.078125 6.109375 
Q 37.203125 6.109375 41.296875 11.75 
Q 45.40625 17.390625 45.40625 27.296875 
Q 45.40625 37.203125 41.296875 42.84375 
Q 37.203125 48.484375 30.078125 48.484375 
Q 22.953125 48.484375 18.875 42.84375 
Q 14.796875 37.203125 14.796875 27.296875 
z
" id="DejaVuSans-100"/>
     </defs>
     <g transform="translate(117.105703 647.17135)scale(0.13 -0.13)">
      <use xlink:href="#DejaVuSans-109"/>
      <use x="97.412109" xlink:href="#DejaVuSans-101"/>
      <use x="158.935547" xlink:href="#DejaVuSans-97"/>
      <use x="220.214844" xlink:href="#DejaVuSans-110"/>
      <use x="283.59375" xlink:href="#DejaVuSans-40"/>
      <use x="322.607422" xlink:href="#DejaVuSans-124"/>
      <use x="356.298828" xlink:href="#DejaVuSans-83"/>
      <use x="419.775391" xlink:href="#DejaVuSans-72"/>
      <use x="494.970703" xlink:href="#DejaVuSans-65"/>
      <use x="563.378906" xlink:href="#DejaVuSans-80"/>
      <use x="623.681641" xlink:href="#DejaVuSans-32"/>
      <use x="655.46875" xlink:href="#DejaVuSans-118"/>
      <use x="714.648438" xlink:href="#DejaVuSans-97"/>
      <use x="775.927734" xlink:href="#DejaVuSans-108"/>
      <use x="803.710938" xlink:href="#DejaVuSans-117"/>
      <use x="867.089844" xlink:href="#DejaVuSans-101"/>
      <use x="928.613281" xlink:href="#DejaVuSans-124"/>
      <use x="962.304688" xlink:href="#DejaVuSans-41"/>
      <use x="1001.318359" xlink:href="#DejaVuSans-32"/>
      <use x="1033.105469" xlink:href="#DejaVuSans-40"/>
      <use x="1072.119141" xlink:href="#DejaVuSans-97"/>
      <use x="1133.398438" xlink:href="#DejaVuSans-118"/>
      <use x="1192.578125" xlink:href="#DejaVuSans-101"/>
      <use x="1254.101562" xlink:href="#DejaVuSans-114"/>
      <use x="1295.214844" xlink:href="#DejaVuSans-97"/>
      <use x="1356.494141" xlink:href="#DejaVuSans-103"/>
      <use x="1419.970703" xlink:href="#DejaVuSans-101"/>
      <use x="1481.494141" xlink:href="#DejaVuSans-32"/>
      <use x="1513.28125" xlink:href="#DejaVuSans-105"/>
      <use x="1541.064453" xlink:href="#DejaVuSans-109"/>
      <use x="1638.476562" xlink:href="#DejaVuSans-112"/>
      <use x="1701.953125" xlink:href="#DejaVuSans-97"/>
      <use x="1763.232422" xlink:href="#DejaVuSans-99"/>
      <use x="1818.212891" xlink:href="#DejaVuSans-116"/>
      <use x="1857.421875" xlink:href="#DejaVuSans-32"/>
      <use x="1889.208984" xlink:href="#DejaVuSans-111"/>
      <use x="1950.390625" xlink:href="#DejaVuSans-110"/>
      <use x="2013.769531" xlink:href="#DejaVuSans-32"/>
      <use x="2045.556641" xlink:href="#DejaVuSans-109"/>
      <use x="2142.96875" xlink:href="#DejaVuSans-111"/>
      <use x="2204.150391" xlink:href="#DejaVuSans-100"/>
      <use x="2267.626953" xlink:href="#DejaVuSans-101"/>
      <use x="2329.150391" xlink:href="#DejaVuSans-108"/>
      <use x="2356.933594" xlink:href="#DejaVuSans-32"/>
      <use x="2388.720703" xlink:href="#DejaVuSans-111"/>
      <use x="2449.902344" xlink:href="#DejaVuSans-117"/>
      <use x="2513.28125" xlink:href="#DejaVuSans-116"/>
      <use x="2552.490234" xlink:href="#DejaVuSans-112"/>
      <use x="2615.966797" xlink:href="#DejaVuSans-117"/>
      <use x="2679.345703" xlink:href="#DejaVuSans-116"/>
      <use x="2718.554688" xlink:href="#DejaVuSans-32"/>
      <use x="2750.341797" xlink:href="#DejaVuSans-109"/>
      <use x="2847.753906" xlink:href="#DejaVuSans-97"/>
      <use x="2909.033203" xlink:href="#DejaVuSans-103"/>
      <use x="2972.509766" xlink:href="#DejaVuSans-110"/>
      <use x="3035.888672" xlink:href="#DejaVuSans-105"/>
      <use x="3063.671875" xlink:href="#DejaVuSans-116"/>
      <use x="3102.880859" xlink:href="#DejaVuSans-117"/>
      <use x="3166.259766" xlink:href="#DejaVuSans-100"/>
      <use x="3229.736328" xlink:href="#DejaVuSans-101"/>
      <use x="3291.259766" xlink:href="#DejaVuSans-41"/>
     </g>
    </g>
   </g>
   <g id="matplotlib.axis_2">
    <g id="ytick_1">
     <g id="text_10">
      <!-- adc1_data1 -->
      <defs>
       <path d="M 50.984375 -16.609375 
L 50.984375 -23.578125 
L -0.984375 -23.578125 
L -0.984375 -16.609375 
z
" id="DejaVuSans-95"/>
      </defs>
      <g style="fill:#333333;" transform="translate(19.2575 591.711596)scale(0.13 -0.13)">
       <use xlink:href="#DejaVuSans-97"/>
       <use x="61.279297" xlink:href="#DejaVuSans-100"/>
       <use x="124.755859" xlink:href="#DejaVuSans-99"/>
       <use x="179.736328" xlink:href="#DejaVuSans-49"/>
       <use x="243.359375" xlink:href="#DejaVuSans-95"/>
       <use x="293.359375" xlink:href="#DejaVuSans-100"/>
       <use x="356.835938" xlink:href="#DejaVuSans-97"/>
       <use x="418.115234" xlink:href="#DejaVuSans-116"/>
       <use x="457.324219" xlink:href="#DejaVuSans-97"/>
       <use x="518.603516" xlink:href="#DejaVuSans-49"/>
      </g>
     </g>
    </g>
    <g id="ytick_2">
     <g id="text_11">
      <!-- adc1_data13 -->
      <defs>
       <path d="M 40.578125 39.3125 
Q 47.65625 37.796875 51.625 33 
Q 55.609375 28.21875 55.609375 21.1875 
Q 55.609375 10.40625 48.1875 4.484375 
Q 40.765625 -1.421875 27.09375 -1.421875 
Q 22.515625 -1.421875 17.65625 -0.515625 
Q 12.796875 0.390625 7.625 2.203125 
L 7.625 11.71875 
Q 11.71875 9.328125 16.59375 8.109375 
Q 21.484375 6.890625 26.8125 6.890625 
Q 36.078125 6.890625 40.9375 10.546875 
Q 45.796875 14.203125 45.796875 21.1875 
Q 45.796875 27.640625 41.28125 31.265625 
Q 36.765625 34.90625 28.71875 34.90625 
L 20.21875 34.90625 
L 20.21875 43.015625 
L 29.109375 43.015625 
Q 36.375 43.015625 40.234375 45.921875 
Q 44.09375 48.828125 44.09375 54.296875 
Q 44.09375 59.90625 40.109375 62.90625 
Q 36.140625 65.921875 28.71875 65.921875 
Q 24.65625 65.921875 20.015625 65.03125 
Q 15.375 64.15625 9.8125 62.3125 
L 9.8125 71.09375 
Q 15.4375 72.65625 20.34375 73.4375 
Q 25.25 74.21875 29.59375 74.21875 
Q 40.828125 74.21875 47.359375 69.109375 
Q 53.90625 64.015625 53.90625 55.328125 
Q 53.90625 49.265625 50.4375 45.09375 
Q 46.96875 40.921875 40.578125 39.3125 
z
" id="DejaVuSans-51"/>
      </defs>
      <g style="fill:#333333;" transform="translate(10.98625 562.893639)scale(0.13 -0.13)">
       <use xlink:href="#DejaVuSans-97"/>
       <use x="61.279297" xlink:href="#DejaVuSans-100"/>
       <use x="124.755859" xlink:href="#DejaVuSans-99"/>
       <use x="179.736328" xlink:href="#DejaVuSans-49"/>
       <use x="243.359375" xlink:href="#DejaVuSans-95"/>
       <use x="293.359375" xlink:href="#DejaVuSans-100"/>
       <use x="356.835938" xlink:href="#DejaVuSans-97"/>
       <use x="418.115234" xlink:href="#DejaVuSans-116"/>
       <use x="457.324219" xlink:href="#DejaVuSans-97"/>
       <use x="518.603516" xlink:href="#DejaVuSans-49"/>
       <use x="582.226562" xlink:href="#DejaVuSans-51"/>
      </g>
     </g>
    </g>
    <g id="ytick_3">
     <g id="text_12">
      <!-- adc2_data14 -->
      <defs>
       <path d="M 37.796875 64.3125 
L 12.890625 25.390625 
L 37.796875 25.390625 
z
M 35.203125 72.90625 
L 47.609375 72.90625 
L 47.609375 25.390625 
L 58.015625 25.390625 
L 58.015625 17.1875 
L 47.609375 17.1875 
L 47.609375 0 
L 37.796875 0 
L 37.796875 17.1875 
L 4.890625 17.1875 
L 4.890625 26.703125 
z
" id="DejaVuSans-52"/>
      </defs>
      <g style="fill:#333333;" transform="translate(10.98625 534.075682)scale(0.13 -0.13)">
       <use xlink:href="#DejaVuSans-97"/>
       <use x="61.279297" xlink:href="#DejaVuSans-100"/>
       <use x="124.755859" xlink:href="#DejaVuSans-99"/>
       <use x="179.736328" xlink:href="#DejaVuSans-50"/>
       <use x="243.359375" xlink:href="#DejaVuSans-95"/>
       <use x="293.359375" xlink:href="#DejaVuSans-100"/>
       <use x="356.835938" xlink:href="#DejaVuSans-97"/>
       <use x="418.115234" xlink:href="#DejaVuSans-116"/>
       <use x="457.324219" xlink:href="#DejaVuSans-97"/>
       <use x="518.603516" xlink:href="#DejaVuSans-49"/>
       <use x="582.226562" xlink:href="#DejaVuSans-52"/>
      </g>
     </g>
    </g>
    <g id="ytick_4">
     <g id="text_13">
      <!-- adc1_data15 -->
      <g style="fill:#333333;" transform="translate(10.98625 505.257725)scale(0.13 -0.13)">
       <use xlink:href="#DejaVuSans-97"/>
       <use x="61.279297" xlink:href="#DejaVuSans-100"/>
       <use x="124.755859" xlink:href="#DejaVuSans-99"/>
       <use x="179.736328" xlink:href="#DejaVuSans-49"/>
       <use x="243.359375" xlink:href="#DejaVuSans-95"/>
       <use x="293.359375" xlink:href="#DejaVuSans-100"/>
       <use x="356.835938" xlink:href="#DejaVuSans-97"/>
       <use x="418.115234" xlink:href="#DejaVuSans-116"/>
       <use x="457.324219" xlink:href="#DejaVuSans-97"/>
       <use x="518.603516" xlink:href="#DejaVuSans-49"/>
       <use x="582.226562" xlink:href="#DejaVuSans-53"/>
      </g>
     </g>
    </g>
    <g id="ytick_5">
     <g id="text_14">
      <!-- adc2_data11 -->
      <g style="fill:#333333;" transform="translate(10.98625 476.439768)scale(0.13 -0.13)">
       <use xlink:href="#DejaVuSans-97"/>
       <use x="61.279297" xlink:href="#DejaVuSans-100"/>
       <use x="124.755859" xlink:href="#DejaVuSans-99"/>
       <use x="179.736328" xlink:href="#DejaVuSans-50"/>
       <use x="243.359375" xlink:href="#DejaVuSans-95"/>
       <use x="293.359375" xlink:href="#DejaVuSans-100"/>
       <use x="356.835938" xlink:href="#DejaVuSans-97"/>
       <use x="418.115234" xlink:href="#DejaVuSans-116"/>
       <use x="457.324219" xlink:href="#DejaVuSans-97"/>
       <use x="518.603516" xlink:href="#DejaVuSans-49"/>
       <use x="582.226562" xlink:href="#DejaVuSans-49"/>
      </g>
     </g>
    </g>
    <g id="ytick_6">
     <g id="text_15">
      <!-- adc2_data6 -->
      <defs>
       <path d="M 33.015625 40.375 
Q 26.375 40.375 22.484375 35.828125 
Q 18.609375 31.296875 18.609375 23.390625 
Q 18.609375 15.53125 22.484375 10.953125 
Q 26.375 6.390625 33.015625 6.390625 
Q 39.65625 6.390625 43.53125 10.953125 
Q 47.40625 15.53125 47.40625 23.390625 
Q 47.40625 31.296875 43.53125 35.828125 
Q 39.65625 40.375 33.015625 40.375 
z
M 52.59375 71.296875 
L 52.59375 62.3125 
Q 48.875 64.0625 45.09375 64.984375 
Q 41.3125 65.921875 37.59375 65.921875 
Q 27.828125 65.921875 22.671875 59.328125 
Q 17.53125 52.734375 16.796875 39.40625 
Q 19.671875 43.65625 24.015625 45.921875 
Q 28.375 48.1875 33.59375 48.1875 
Q 44.578125 48.1875 50.953125 41.515625 
Q 57.328125 34.859375 57.328125 23.390625 
Q 57.328125 12.15625 50.6875 5.359375 
Q 44.046875 -1.421875 33.015625 -1.421875 
Q 20.359375 -1.421875 13.671875 8.265625 
Q 6.984375 17.96875 6.984375 36.375 
Q 6.984375 53.65625 15.1875 63.9375 
Q 23.390625 74.21875 37.203125 74.21875 
Q 40.921875 74.21875 44.703125 73.484375 
Q 48.484375 72.75 52.59375 71.296875 
z
" id="DejaVuSans-54"/>
      </defs>
      <g style="fill:#333333;" transform="translate(19.2575 447.621811)scale(0.13 -0.13)">
       <use xlink:href="#DejaVuSans-97"/>
       <use x="61.279297" xlink:href="#DejaVuSans-100"/>
       <use x="124.755859" xlink:href="#DejaVuSans-99"/>
       <use x="179.736328" xlink:href="#DejaVuSans-50"/>
       <use x="243.359375" xlink:href="#DejaVuSans-95"/>
       <use x="293.359375" xlink:href="#DejaVuSans-100"/>
       <use x="356.835938" xlink:href="#DejaVuSans-97"/>
       <use x="418.115234" xlink:href="#DejaVuSans-116"/>
       <use x="457.324219" xlink:href="#DejaVuSans-97"/>
       <use x="518.603516" xlink:href="#DejaVuSans-54"/>
      </g>
     </g>
    </g>
    <g id="ytick_7">
     <g id="text_16">
      <!-- adc1_data9 -->
      <defs>
       <path d="M 10.984375 1.515625 
L 10.984375 10.5 
Q 14.703125 8.734375 18.5 7.8125 
Q 22.3125 6.890625 25.984375 6.890625 
Q 35.75 6.890625 40.890625 13.453125 
Q 46.046875 20.015625 46.78125 33.40625 
Q 43.953125 29.203125 39.59375 26.953125 
Q 35.25 24.703125 29.984375 24.703125 
Q 19.046875 24.703125 12.671875 31.3125 
Q 6.296875 37.9375 6.296875 49.421875 
Q 6.296875 60.640625 12.9375 67.421875 
Q 19.578125 74.21875 30.609375 74.21875 
Q 43.265625 74.21875 49.921875 64.515625 
Q 56.59375 54.828125 56.59375 36.375 
Q 56.59375 19.140625 48.40625 8.859375 
Q 40.234375 -1.421875 26.421875 -1.421875 
Q 22.703125 -1.421875 18.890625 -0.6875 
Q 15.09375 0.046875 10.984375 1.515625 
z
M 30.609375 32.421875 
Q 37.25 32.421875 41.125 36.953125 
Q 45.015625 41.5 45.015625 49.421875 
Q 45.015625 57.28125 41.125 61.84375 
Q 37.25 66.40625 30.609375 66.40625 
Q 23.96875 66.40625 20.09375 61.84375 
Q 16.21875 57.28125 16.21875 49.421875 
Q 16.21875 41.5 20.09375 36.953125 
Q 23.96875 32.421875 30.609375 32.421875 
z
" id="DejaVuSans-57"/>
      </defs>
      <g style="fill:#333333;" transform="translate(19.2575 418.803855)scale(0.13 -0.13)">
       <use xlink:href="#DejaVuSans-97"/>
       <use x="61.279297" xlink:href="#DejaVuSans-100"/>
       <use x="124.755859" xlink:href="#DejaVuSans-99"/>
       <use x="179.736328" xlink:href="#DejaVuSans-49"/>
       <use x="243.359375" xlink:href="#DejaVuSans-95"/>
       <use x="293.359375" xlink:href="#DejaVuSans-100"/>
       <use x="356.835938" xlink:href="#DejaVuSans-97"/>
       <use x="418.115234" xlink:href="#DejaVuSans-116"/>
       <use x="457.324219" xlink:href="#DejaVuSans-97"/>
       <use x="518.603516" xlink:href="#DejaVuSans-57"/>
      </g>
     </g>
    </g>
    <g id="ytick_8">
     <g id="text_17">
      <!-- adc2_data2 -->
      <g style="fill:#333333;" transform="translate(19.2575 389.985898)scale(0.13 -0.13)">
       <use xlink:href="#DejaVuSans-97"/>
       <use x="61.279297" xlink:href="#DejaVuSans-100"/>
       <use x="124.755859" xlink:href="#DejaVuSans-99"/>
       <use x="179.736328" xlink:href="#DejaVuSans-50"/>
       <use x="243.359375" xlink:href="#DejaVuSans-95"/>
       <use x="293.359375" xlink:href="#DejaVuSans-100"/>
       <use x="356.835938" xlink:href="#DejaVuSans-97"/>
       <use x="418.115234" xlink:href="#DejaVuSans-116"/>
       <use x="457.324219" xlink:href="#DejaVuSans-97"/>
       <use x="518.603516" xlink:href="#DejaVuSans-50"/>
      </g>
     </g>
    </g>
    <g id="ytick_9">
     <g id="text_18">
      <!-- adc1_data8 -->
      <defs>
       <path d="M 31.78125 34.625 
Q 24.75 34.625 20.71875 30.859375 
Q 16.703125 27.09375 16.703125 20.515625 
Q 16.703125 13.921875 20.71875 10.15625 
Q 24.75 6.390625 31.78125 6.390625 
Q 38.8125 6.390625 42.859375 10.171875 
Q 46.921875 13.96875 46.921875 20.515625 
Q 46.921875 27.09375 42.890625 30.859375 
Q 38.875 34.625 31.78125 34.625 
z
M 21.921875 38.8125 
Q 15.578125 40.375 12.03125 44.71875 
Q 8.5 49.078125 8.5 55.328125 
Q 8.5 64.0625 14.71875 69.140625 
Q 20.953125 74.21875 31.78125 74.21875 
Q 42.671875 74.21875 48.875 69.140625 
Q 55.078125 64.0625 55.078125 55.328125 
Q 55.078125 49.078125 51.53125 44.71875 
Q 48 40.375 41.703125 38.8125 
Q 48.828125 37.15625 52.796875 32.3125 
Q 56.78125 27.484375 56.78125 20.515625 
Q 56.78125 9.90625 50.3125 4.234375 
Q 43.84375 -1.421875 31.78125 -1.421875 
Q 19.734375 -1.421875 13.25 4.234375 
Q 6.78125 9.90625 6.78125 20.515625 
Q 6.78125 27.484375 10.78125 32.3125 
Q 14.796875 37.15625 21.921875 38.8125 
z
M 18.3125 54.390625 
Q 18.3125 48.734375 21.84375 45.5625 
Q 25.390625 42.390625 31.78125 42.390625 
Q 38.140625 42.390625 41.71875 45.5625 
Q 45.3125 48.734375 45.3125 54.390625 
Q 45.3125 60.0625 41.71875 63.234375 
Q 38.140625 66.40625 31.78125 66.40625 
Q 25.390625 66.40625 21.84375 63.234375 
Q 18.3125 60.0625 18.3125 54.390625 
z
" id="DejaVuSans-56"/>
      </defs>
      <g style="fill:#333333;" transform="translate(19.2575 361.167941)scale(0.13 -0.13)">
       <use xlink:href="#DejaVuSans-97"/>
       <use x="61.279297" xlink:href="#DejaVuSans-100"/>
       <use x="124.755859" xlink:href="#DejaVuSans-99"/>
       <use x="179.736328" xlink:href="#DejaVuSans-49"/>
       <use x="243.359375" xlink:href="#DejaVuSans-95"/>
       <use x="293.359375" xlink:href="#DejaVuSans-100"/>
       <use x="356.835938" xlink:href="#DejaVuSans-97"/>
       <use x="418.115234" xlink:href="#DejaVuSans-116"/>
       <use x="457.324219" xlink:href="#DejaVuSans-97"/>
       <use x="518.603516" xlink:href="#DejaVuSans-56"/>
      </g>
     </g>
    </g>
    <g id="ytick_10">
     <g id="text_19">
      <!-- adc3_data9 -->
      <g style="fill:#333333;" transform="translate(19.2575 332.349984)scale(0.13 -0.13)">
       <use xlink:href="#DejaVuSans-97"/>
       <use x="61.279297" xlink:href="#DejaVuSans-100"/>
       <use x="124.755859" xlink:href="#DejaVuSans-99"/>
       <use x="179.736328" xlink:href="#DejaVuSans-51"/>
       <use x="243.359375" xlink:href="#DejaVuSans-95"/>
       <use x="293.359375" xlink:href="#DejaVuSans-100"/>
       <use x="356.835938" xlink:href="#DejaVuSans-97"/>
       <use x="418.115234" xlink:href="#DejaVuSans-116"/>
       <use x="457.324219" xlink:href="#DejaVuSans-97"/>
       <use x="518.603516" xlink:href="#DejaVuSans-57"/>
      </g>
     </g>
    </g>
    <g id="ytick_11">
     <g id="text_20">
      <!-- adc1_data5 -->
      <g style="fill:#333333;" transform="translate(19.2575 303.532027)scale(0.13 -0.13)">
       <use xlink:href="#DejaVuSans-97"/>
       <use x="61.279297" xlink:href="#DejaVuSans-100"/>
       <use x="124.755859" xlink:href="#DejaVuSans-99"/>
       <use x="179.736328" xlink:href="#DejaVuSans-49"/>
       <use x="243.359375" xlink:href="#DejaVuSans-95"/>
       <use x="293.359375" xlink:href="#DejaVuSans-100"/>
       <use x="356.835938" xlink:href="#DejaVuSans-97"/>
       <use x="418.115234" xlink:href="#DejaVuSans-116"/>
       <use x="457.324219" xlink:href="#DejaVuSans-97"/>
       <use x="518.603516" xlink:href="#DejaVuSans-53"/>
      </g>
     </g>
    </g>
    <g id="ytick_12">
     <g id="text_21">
      <!-- adc0_data7 -->
      <g style="fill:#333333;" transform="translate(19.2575 274.71407)scale(0.13 -0.13)">
       <use xlink:href="#DejaVuSans-97"/>
       <use x="61.279297" xlink:href="#DejaVuSans-100"/>
       <use x="124.755859" xlink:href="#DejaVuSans-99"/>
       <use x="179.736328" xlink:href="#DejaVuSans-48"/>
       <use x="243.359375" xlink:href="#DejaVuSans-95"/>
       <use x="293.359375" xlink:href="#DejaVuSans-100"/>
       <use x="356.835938" xlink:href="#DejaVuSans-97"/>
       <use x="418.115234" xlink:href="#DejaVuSans-116"/>
       <use x="457.324219" xlink:href="#DejaVuSans-97"/>
       <use x="518.603516" xlink:href="#DejaVuSans-55"/>
      </g>
     </g>
    </g>
    <g id="ytick_13">
     <g id="text_22">
      <!-- adc2_data9 -->
      <g style="fill:#333333;" transform="translate(19.2575 245.896113)scale(0.13 -0.13)">
       <use xlink:href="#DejaVuSans-97"/>
       <use x="61.279297" xlink:href="#DejaVuSans-100"/>
       <use x="124.755859" xlink:href="#DejaVuSans-99"/>
       <use x="179.736328" xlink:href="#DejaVuSans-50"/>
       <use x="243.359375" xlink:href="#DejaVuSans-95"/>
       <use x="293.359375" xlink:href="#DejaVuSans-100"/>
       <use x="356.835938" xlink:href="#DejaVuSans-97"/>
       <use x="418.115234" xlink:href="#DejaVuSans-116"/>
       <use x="457.324219" xlink:href="#DejaVuSans-97"/>
       <use x="518.603516" xlink:href="#DejaVuSans-57"/>
      </g>
     </g>
    </g>
    <g id="ytick_14">
     <g id="text_23">
      <!-- adc1_data2 -->
      <g style="fill:#333333;" transform="translate(19.2575 217.078156)scale(0.13 -0.13)">
       <use xlink:href="#DejaVuSans-97"/>
       <use x="61.279297" xlink:href="#DejaVuSans-100"/>
       <use x="124.755859" xlink:href="#DejaVuSans-99"/>
       <use x="179.736328" xlink:href="#DejaVuSans-49"/>
       <use x="243.359375" xlink:href="#DejaVuSans-95"/>
       <use x="293.359375" xlink:href="#DejaVuSans-100"/>
       <use x="356.835938" xlink:href="#DejaVuSans-97"/>
       <use x="418.115234" xlink:href="#DejaVuSans-116"/>
       <use x="457.324219" xlink:href="#DejaVuSans-97"/>
       <use x="518.603516" xlink:href="#DejaVuSans-50"/>
      </g>
     </g>
    </g>
    <g id="ytick_15">
     <g id="text_24">
      <!-- adc3_data8 -->
      <g style="fill:#333333;" transform="translate(19.2575 188.260199)scale(0.13 -0.13)">
       <use xlink:href="#DejaVuSans-97"/>
       <use x="61.279297" xlink:href="#DejaVuSans-100"/>
       <use x="124.755859" xlink:href="#DejaVuSans-99"/>
       <use x="179.736328" xlink:href="#DejaVuSans-51"/>
       <use x="243.359375" xlink:href="#DejaVuSans-95"/>
       <use x="293.359375" xlink:href="#DejaVuSans-100"/>
       <use x="356.835938" xlink:href="#DejaVuSans-97"/>
       <use x="418.115234" xlink:href="#DejaVuSans-116"/>
       <use x="457.324219" xlink:href="#DejaVuSans-97"/>
       <use x="518.603516" xlink:href="#DejaVuSans-56"/>
      </g>
     </g>
    </g>
    <g id="ytick_16">
     <g id="text_25">
      <!-- adc2_data1 -->
      <g style="fill:#333333;" transform="translate(19.2575 159.442243)scale(0.13 -0.13)">
       <use xlink:href="#DejaVuSans-97"/>
       <use x="61.279297" xlink:href="#DejaVuSans-100"/>
       <use x="124.755859" xlink:href="#DejaVuSans-99"/>
       <use x="179.736328" xlink:href="#DejaVuSans-50"/>
       <use x="243.359375" xlink:href="#DejaVuSans-95"/>
       <use x="293.359375" xlink:href="#DejaVuSans-100"/>
       <use x="356.835938" xlink:href="#DejaVuSans-97"/>
       <use x="418.115234" xlink:href="#DejaVuSans-116"/>
       <use x="457.324219" xlink:href="#DejaVuSans-97"/>
       <use x="518.603516" xlink:href="#DejaVuSans-49"/>
      </g>
     </g>
    </g>
    <g id="ytick_17">
     <g id="text_26">
      <!-- adc0_data12 -->
      <g style="fill:#333333;" transform="translate(10.98625 130.624286)scale(0.13 -0.13)">
       <use xlink:href="#DejaVuSans-97"/>
       <use x="61.279297" xlink:href="#DejaVuSans-100"/>
       <use x="124.755859" xlink:href="#DejaVuSans-99"/>
       <use x="179.736328" xlink:href="#DejaVuSans-48"/>
       <use x="243.359375" xlink:href="#DejaVuSans-95"/>
       <use x="293.359375" xlink:href="#DejaVuSans-100"/>
       <use x="356.835938" xlink:href="#DejaVuSans-97"/>
       <use x="418.115234" xlink:href="#DejaVuSans-116"/>
       <use x="457.324219" xlink:href="#DejaVuSans-97"/>
       <use x="518.603516" xlink:href="#DejaVuSans-49"/>
       <use x="582.226562" xlink:href="#DejaVuSans-50"/>
      </g>
     </g>
    </g>
    <g id="ytick_18">
     <g id="text_27">
      <!-- adc2_data4 -->
      <g style="fill:#333333;" transform="translate(19.2575 101.806329)scale(0.13 -0.13)">
       <use xlink:href="#DejaVuSans-97"/>
       <use x="61.279297" xlink:href="#DejaVuSans-100"/>
       <use x="124.755859" xlink:href="#DejaVuSans-99"/>
       <use x="179.736328" xlink:href="#DejaVuSans-50"/>
       <use x="243.359375" xlink:href="#DejaVuSans-95"/>
       <use x="293.359375" xlink:href="#DejaVuSans-100"/>
       <use x="356.835938" xlink:href="#DejaVuSans-97"/>
       <use x="418.115234" xlink:href="#DejaVuSans-116"/>
       <use x="457.324219" xlink:href="#DejaVuSans-97"/>
       <use x="518.603516" xlink:href="#DejaVuSans-52"/>
      </g>
     </g>
    </g>
    <g id="ytick_19">
     <g id="text_28">
      <!-- adc0_data11 -->
      <g style="fill:#333333;" transform="translate(10.98625 72.988372)scale(0.13 -0.13)">
       <use xlink:href="#DejaVuSans-97"/>
       <use x="61.279297" xlink:href="#DejaVuSans-100"/>
       <use x="124.755859" xlink:href="#DejaVuSans-99"/>
       <use x="179.736328" xlink:href="#DejaVuSans-48"/>
       <use x="243.359375" xlink:href="#DejaVuSans-95"/>
       <use x="293.359375" xlink:href="#DejaVuSans-100"/>
       <use x="356.835938" xlink:href="#DejaVuSans-97"/>
       <use x="418.115234" xlink:href="#DejaVuSans-116"/>
       <use x="457.324219" xlink:href="#DejaVuSans-97"/>
       <use x="518.603516" xlink:href="#DejaVuSans-49"/>
       <use x="582.226562" xlink:href="#DejaVuSans-49"/>
      </g>
     </g>
    </g>
    <g id="ytick_20">
     <g id="text_29">
      <!-- adc1_data11 -->
      <g style="fill:#333333;" transform="translate(10.98625 44.170415)scale(0.13 -0.13)">
       <use xlink:href="#DejaVuSans-97"/>
       <use x="61.279297" xlink:href="#DejaVuSans-100"/>
       <use x="124.755859" xlink:href="#DejaVuSans-99"/>
       <use x="179.736328" xlink:href="#DejaVuSans-49"/>
       <use x="243.359375" xlink:href="#DejaVuSans-95"/>
       <use x="293.359375" xlink:href="#DejaVuSans-100"/>
       <use x="356.835938" xlink:href="#DejaVuSans-97"/>
       <use x="418.115234" xlink:href="#DejaVuSans-116"/>
       <use x="457.324219" xlink:href="#DejaVuSans-97"/>
       <use x="518.603516" xlink:href="#DejaVuSans-49"/>
       <use x="582.226562" xlink:href="#DejaVuSans-49"/>
      </g>
     </g>
    </g>
   </g>
   <g id="patch_123">
    <path d="M 101.95 615.590568 
L 565.2 615.590568 
" style="fill:none;stroke:#000000;stroke-linecap:square;stroke-linejoin:miter;stroke-width:0.8;"/>
   </g>
   <g id="legend_1">
    <g id="patch_124">
     <path d="M 477.781875 514.226193 
L 501.781875 514.226193 
L 501.781875 505.826193 
L 477.781875 505.826193 
z
" style="fill:#008bfb;"/>
    </g>
    <g id="text_30">
     <!-- Class 3 -->
     <defs>
      <path d="M 64.40625 67.28125 
L 64.40625 56.890625 
Q 59.421875 61.53125 53.78125 63.8125 
Q 48.140625 66.109375 41.796875 66.109375 
Q 29.296875 66.109375 22.65625 58.46875 
Q 16.015625 50.828125 16.015625 36.375 
Q 16.015625 21.96875 22.65625 14.328125 
Q 29.296875 6.6875 41.796875 6.6875 
Q 48.140625 6.6875 53.78125 8.984375 
Q 59.421875 11.28125 64.40625 15.921875 
L 64.40625 5.609375 
Q 59.234375 2.09375 53.4375 0.328125 
Q 47.65625 -1.421875 41.21875 -1.421875 
Q 24.65625 -1.421875 15.125 8.703125 
Q 5.609375 18.84375 5.609375 36.375 
Q 5.609375 53.953125 15.125 64.078125 
Q 24.65625 74.21875 41.21875 74.21875 
Q 47.75 74.21875 53.53125 72.484375 
Q 59.328125 70.75 64.40625 67.28125 
z
" id="DejaVuSans-67"/>
      <path d="M 44.28125 53.078125 
L 44.28125 44.578125 
Q 40.484375 46.53125 36.375 47.5 
Q 32.28125 48.484375 27.875 48.484375 
Q 21.1875 48.484375 17.84375 46.4375 
Q 14.5 44.390625 14.5 40.28125 
Q 14.5 37.15625 16.890625 35.375 
Q 19.28125 33.59375 26.515625 31.984375 
L 29.59375 31.296875 
Q 39.15625 29.25 43.1875 25.515625 
Q 47.21875 21.78125 47.21875 15.09375 
Q 47.21875 7.46875 41.1875 3.015625 
Q 35.15625 -1.421875 24.609375 -1.421875 
Q 20.21875 -1.421875 15.453125 -0.5625 
Q 10.6875 0.296875 5.421875 2 
L 5.421875 11.28125 
Q 10.40625 8.6875 15.234375 7.390625 
Q 20.0625 6.109375 24.8125 6.109375 
Q 31.15625 6.109375 34.5625 8.28125 
Q 37.984375 10.453125 37.984375 14.40625 
Q 37.984375 18.0625 35.515625 20.015625 
Q 33.0625 21.96875 24.703125 23.78125 
L 21.578125 24.515625 
Q 13.234375 26.265625 9.515625 29.90625 
Q 5.8125 33.546875 5.8125 39.890625 
Q 5.8125 47.609375 11.28125 51.796875 
Q 16.75 56 26.8125 56 
Q 31.78125 56 36.171875 55.265625 
Q 40.578125 54.546875 44.28125 53.078125 
z
" id="DejaVuSans-115"/>
     </defs>
     <g transform="translate(511.381875 514.226193)scale(0.12 -0.12)">
      <use xlink:href="#DejaVuSans-67"/>
      <use x="69.824219" xlink:href="#DejaVuSans-108"/>
      <use x="97.607422" xlink:href="#DejaVuSans-97"/>
      <use x="158.886719" xlink:href="#DejaVuSans-115"/>
      <use x="210.986328" xlink:href="#DejaVuSans-115"/>
      <use x="263.085938" xlink:href="#DejaVuSans-32"/>
      <use x="294.873047" xlink:href="#DejaVuSans-51"/>
     </g>
    </g>
    <g id="patch_125">
     <path d="M 477.781875 531.839943 
L 501.781875 531.839943 
L 501.781875 523.439943 
L 477.781875 523.439943 
z
" style="fill:#896af0;"/>
    </g>
    <g id="text_31">
     <!-- Class 0 -->
     <g transform="translate(511.381875 531.839943)scale(0.12 -0.12)">
      <use xlink:href="#DejaVuSans-67"/>
      <use x="69.824219" xlink:href="#DejaVuSans-108"/>
      <use x="97.607422" xlink:href="#DejaVuSans-97"/>
      <use x="158.886719" xlink:href="#DejaVuSans-115"/>
      <use x="210.986328" xlink:href="#DejaVuSans-115"/>
      <use x="263.085938" xlink:href="#DejaVuSans-32"/>
      <use x="294.873047" xlink:href="#DejaVuSans-48"/>
     </g>
    </g>
    <g id="patch_126">
     <path d="M 477.781875 549.453693 
L 501.781875 549.453693 
L 501.781875 541.053693 
L 477.781875 541.053693 
z
" style="fill:#e928ae;"/>
    </g>
    <g id="text_32">
     <!-- Class 1 -->
     <g transform="translate(511.381875 549.453693)scale(0.12 -0.12)">
      <use xlink:href="#DejaVuSans-67"/>
      <use x="69.824219" xlink:href="#DejaVuSans-108"/>
      <use x="97.607422" xlink:href="#DejaVuSans-97"/>
      <use x="158.886719" xlink:href="#DejaVuSans-115"/>
      <use x="210.986328" xlink:href="#DejaVuSans-115"/>
      <use x="263.085938" xlink:href="#DejaVuSans-32"/>
      <use x="294.873047" xlink:href="#DejaVuSans-49"/>
     </g>
    </g>
    <g id="patch_127">
     <path d="M 477.781875 567.067443 
L 501.781875 567.067443 
L 501.781875 558.667443 
L 477.781875 558.667443 
z
" style="fill:#ff004f;"/>
    </g>
    <g id="text_33">
     <!-- Class 2 -->
     <g transform="translate(511.381875 567.067443)scale(0.12 -0.12)">
      <use xlink:href="#DejaVuSans-67"/>
      <use x="69.824219" xlink:href="#DejaVuSans-108"/>
      <use x="97.607422" xlink:href="#DejaVuSans-97"/>
      <use x="158.886719" xlink:href="#DejaVuSans-115"/>
      <use x="210.986328" xlink:href="#DejaVuSans-115"/>
      <use x="263.085938" xlink:href="#DejaVuSans-32"/>
      <use x="294.873047" xlink:href="#DejaVuSans-50"/>
     </g>
    </g>
    <g id="patch_128">
     <path d="M 477.781875 584.681193 
L 501.781875 584.681193 
L 501.781875 576.281193 
L 477.781875 576.281193 
z
" style="fill:#818800;"/>
    </g>
    <g id="text_34">
     <!-- Class 5 -->
     <g transform="translate(511.381875 584.681193)scale(0.12 -0.12)">
      <use xlink:href="#DejaVuSans-67"/>
      <use x="69.824219" xlink:href="#DejaVuSans-108"/>
      <use x="97.607422" xlink:href="#DejaVuSans-97"/>
      <use x="158.886719" xlink:href="#DejaVuSans-115"/>
      <use x="210.986328" xlink:href="#DejaVuSans-115"/>
      <use x="263.085938" xlink:href="#DejaVuSans-32"/>
      <use x="294.873047" xlink:href="#DejaVuSans-53"/>
     </g>
    </g>
    <g id="patch_129">
     <path d="M 477.781875 602.294943 
L 501.781875 602.294943 
L 501.781875 593.894943 
L 477.781875 593.894943 
z
" style="fill:#009e8c;"/>
    </g>
    <g id="text_35">
     <!-- Class 4 -->
     <g transform="translate(511.381875 602.294943)scale(0.12 -0.12)">
      <use xlink:href="#DejaVuSans-67"/>
      <use x="69.824219" xlink:href="#DejaVuSans-108"/>
      <use x="97.607422" xlink:href="#DejaVuSans-97"/>
      <use x="158.886719" xlink:href="#DejaVuSans-115"/>
      <use x="210.986328" xlink:href="#DejaVuSans-115"/>
      <use x="263.085938" xlink:href="#DejaVuSans-32"/>
      <use x="294.873047" xlink:href="#DejaVuSans-52"/>
     </g>
    </g>
   </g>
  </g>
 </g>
 <defs>
  <clipPath id="pafc11be707">
   <rect height="605.177095" width="463.25" x="101.95" y="10.413474"/>
  </clipPath>
 </defs>
</svg>
