<?xml version="1.0" encoding="utf-8" standalone="no"?>
<!DOCTYPE svg PUBLIC "-//W3C//DTD SVG 1.1//EN"
  "http://www.w3.org/Graphics/SVG/1.1/DTD/svg11.dtd">
<!-- Created with matplotlib (https://matplotlib.org/) -->
<svg height="707.04pt" version="1.1" viewBox="0 0 1330.56 707.04" width="1330.56pt" xmlns="http://www.w3.org/2000/svg" xmlns:xlink="http://www.w3.org/1999/xlink">
 <defs>
  <style type="text/css">
*{stroke-linecap:butt;stroke-linejoin:round;}
  </style>
 </defs>
 <g id="figure_1">
  <g id="patch_1">
   <path d="M 0 707.04 
L 1330.56 707.04 
L 1330.56 0 
L 0 0 
z
" style="fill:#ffffff;"/>
  </g>
  <g id="axes_1">
   <g id="patch_2">
    <path d="M 49.783067 343.118485 
L 439.824 343.118485 
L 439.824 35.352 
L 49.783067 35.352 
z
" style="fill:#ffffff;"/>
   </g>
   <g id="matplotlib.axis_1">
    <g id="xtick_1">
     <g id="line2d_1">
      <defs>
       <path d="M 0 0 
L 0 3.5 
" id="m30db6c4e77" style="stroke:#000000;stroke-width:0.8;"/>
      </defs>
      <g>
       <use style="stroke:#000000;stroke-width:0.8;" x="67.5122" xlink:href="#m30db6c4e77" y="343.118485"/>
      </g>
     </g>
     <g id="text_1">
      <!-- 0 -->
      <defs>
       <path d="M 31.78125 66.40625 
Q 24.171875 66.40625 20.328125 58.90625 
Q 16.5 51.421875 16.5 36.375 
Q 16.5 21.390625 20.328125 13.890625 
Q 24.171875 6.390625 31.78125 6.390625 
Q 39.453125 6.390625 43.28125 13.890625 
Q 47.125 21.390625 47.125 36.375 
Q 47.125 51.421875 43.28125 58.90625 
Q 39.453125 66.40625 31.78125 66.40625 
z
M 31.78125 74.21875 
Q 44.046875 74.21875 50.515625 64.515625 
Q 56.984375 54.828125 56.984375 36.375 
Q 56.984375 17.96875 50.515625 8.265625 
Q 44.046875 -1.421875 31.78125 -1.421875 
Q 19.53125 -1.421875 13.0625 8.265625 
Q 6.59375 17.96875 6.59375 36.375 
Q 6.59375 54.828125 13.0625 64.515625 
Q 19.53125 74.21875 31.78125 74.21875 
z
" id="DejaVuSans-48"/>
      </defs>
      <g transform="translate(64.33095 357.716922)scale(0.1 -0.1)">
       <use xlink:href="#DejaVuSans-48"/>
      </g>
     </g>
    </g>
    <g id="xtick_2">
     <g id="line2d_2">
      <g>
       <use style="stroke:#000000;stroke-width:0.8;" x="124.702953" xlink:href="#m30db6c4e77" y="343.118485"/>
      </g>
     </g>
     <g id="text_2">
      <!-- 5 -->
      <defs>
       <path d="M 10.796875 72.90625 
L 49.515625 72.90625 
L 49.515625 64.59375 
L 19.828125 64.59375 
L 19.828125 46.734375 
Q 21.96875 47.46875 24.109375 47.828125 
Q 26.265625 48.1875 28.421875 48.1875 
Q 40.625 48.1875 47.75 41.5 
Q 54.890625 34.8125 54.890625 23.390625 
Q 54.890625 11.625 47.5625 5.09375 
Q 40.234375 -1.421875 26.90625 -1.421875 
Q 22.3125 -1.421875 17.546875 -0.640625 
Q 12.796875 0.140625 7.71875 1.703125 
L 7.71875 11.625 
Q 12.109375 9.234375 16.796875 8.0625 
Q 21.484375 6.890625 26.703125 6.890625 
Q 35.15625 6.890625 40.078125 11.328125 
Q 45.015625 15.765625 45.015625 23.390625 
Q 45.015625 31 40.078125 35.4375 
Q 35.15625 39.890625 26.703125 39.890625 
Q 22.75 39.890625 18.8125 39.015625 
Q 14.890625 38.140625 10.796875 36.28125 
z
" id="DejaVuSans-53"/>
      </defs>
      <g transform="translate(121.521703 357.716922)scale(0.1 -0.1)">
       <use xlink:href="#DejaVuSans-53"/>
      </g>
     </g>
    </g>
    <g id="xtick_3">
     <g id="line2d_3">
      <g>
       <use style="stroke:#000000;stroke-width:0.8;" x="181.893705" xlink:href="#m30db6c4e77" y="343.118485"/>
      </g>
     </g>
     <g id="text_3">
      <!-- 10 -->
      <defs>
       <path d="M 12.40625 8.296875 
L 28.515625 8.296875 
L 28.515625 63.921875 
L 10.984375 60.40625 
L 10.984375 69.390625 
L 28.421875 72.90625 
L 38.28125 72.90625 
L 38.28125 8.296875 
L 54.390625 8.296875 
L 54.390625 0 
L 12.40625 0 
z
" id="DejaVuSans-49"/>
      </defs>
      <g transform="translate(175.531205 357.716922)scale(0.1 -0.1)">
       <use xlink:href="#DejaVuSans-49"/>
       <use x="63.623047" xlink:href="#DejaVuSans-48"/>
      </g>
     </g>
    </g>
    <g id="xtick_4">
     <g id="line2d_4">
      <g>
       <use style="stroke:#000000;stroke-width:0.8;" x="239.084458" xlink:href="#m30db6c4e77" y="343.118485"/>
      </g>
     </g>
     <g id="text_4">
      <!-- 15 -->
      <g transform="translate(232.721958 357.716922)scale(0.1 -0.1)">
       <use xlink:href="#DejaVuSans-49"/>
       <use x="63.623047" xlink:href="#DejaVuSans-53"/>
      </g>
     </g>
    </g>
    <g id="xtick_5">
     <g id="line2d_5">
      <g>
       <use style="stroke:#000000;stroke-width:0.8;" x="296.275211" xlink:href="#m30db6c4e77" y="343.118485"/>
      </g>
     </g>
     <g id="text_5">
      <!-- 20 -->
      <defs>
       <path d="M 19.1875 8.296875 
L 53.609375 8.296875 
L 53.609375 0 
L 7.328125 0 
L 7.328125 8.296875 
Q 12.9375 14.109375 22.625 23.890625 
Q 32.328125 33.6875 34.8125 36.53125 
Q 39.546875 41.84375 41.421875 45.53125 
Q 43.3125 49.21875 43.3125 52.78125 
Q 43.3125 58.59375 39.234375 62.25 
Q 35.15625 65.921875 28.609375 65.921875 
Q 23.96875 65.921875 18.8125 64.3125 
Q 13.671875 62.703125 7.8125 59.421875 
L 7.8125 69.390625 
Q 13.765625 71.78125 18.9375 73 
Q 24.125 74.21875 28.421875 74.21875 
Q 39.75 74.21875 46.484375 68.546875 
Q 53.21875 62.890625 53.21875 53.421875 
Q 53.21875 48.921875 51.53125 44.890625 
Q 49.859375 40.875 45.40625 35.40625 
Q 44.1875 33.984375 37.640625 27.21875 
Q 31.109375 20.453125 19.1875 8.296875 
z
" id="DejaVuSans-50"/>
      </defs>
      <g transform="translate(289.912711 357.716922)scale(0.1 -0.1)">
       <use xlink:href="#DejaVuSans-50"/>
       <use x="63.623047" xlink:href="#DejaVuSans-48"/>
      </g>
     </g>
    </g>
    <g id="xtick_6">
     <g id="line2d_6">
      <g>
       <use style="stroke:#000000;stroke-width:0.8;" x="353.465963" xlink:href="#m30db6c4e77" y="343.118485"/>
      </g>
     </g>
     <g id="text_6">
      <!-- 25 -->
      <g transform="translate(347.103463 357.716922)scale(0.1 -0.1)">
       <use xlink:href="#DejaVuSans-50"/>
       <use x="63.623047" xlink:href="#DejaVuSans-53"/>
      </g>
     </g>
    </g>
    <g id="xtick_7">
     <g id="line2d_7">
      <g>
       <use style="stroke:#000000;stroke-width:0.8;" x="410.656716" xlink:href="#m30db6c4e77" y="343.118485"/>
      </g>
     </g>
     <g id="text_7">
      <!-- 30 -->
      <defs>
       <path d="M 40.578125 39.3125 
Q 47.65625 37.796875 51.625 33 
Q 55.609375 28.21875 55.609375 21.1875 
Q 55.609375 10.40625 48.1875 4.484375 
Q 40.765625 -1.421875 27.09375 -1.421875 
Q 22.515625 -1.421875 17.65625 -0.515625 
Q 12.796875 0.390625 7.625 2.203125 
L 7.625 11.71875 
Q 11.71875 9.328125 16.59375 8.109375 
Q 21.484375 6.890625 26.8125 6.890625 
Q 36.078125 6.890625 40.9375 10.546875 
Q 45.796875 14.203125 45.796875 21.1875 
Q 45.796875 27.640625 41.28125 31.265625 
Q 36.765625 34.90625 28.71875 34.90625 
L 20.21875 34.90625 
L 20.21875 43.015625 
L 29.109375 43.015625 
Q 36.375 43.015625 40.234375 45.921875 
Q 44.09375 48.828125 44.09375 54.296875 
Q 44.09375 59.90625 40.109375 62.90625 
Q 36.140625 65.921875 28.71875 65.921875 
Q 24.65625 65.921875 20.015625 65.03125 
Q 15.375 64.15625 9.8125 62.3125 
L 9.8125 71.09375 
Q 15.4375 72.65625 20.34375 73.4375 
Q 25.25 74.21875 29.59375 74.21875 
Q 40.828125 74.21875 47.359375 69.109375 
Q 53.90625 64.015625 53.90625 55.328125 
Q 53.90625 49.265625 50.4375 45.09375 
Q 46.96875 40.921875 40.578125 39.3125 
z
" id="DejaVuSans-51"/>
      </defs>
      <g transform="translate(404.294216 357.716922)scale(0.1 -0.1)">
       <use xlink:href="#DejaVuSans-51"/>
       <use x="63.623047" xlink:href="#DejaVuSans-48"/>
      </g>
     </g>
    </g>
   </g>
   <g id="matplotlib.axis_2">
    <g id="ytick_1">
     <g id="line2d_8">
      <defs>
       <path d="M 0 0 
L -3.5 0 
" id="mc15dfc8d30" style="stroke:#000000;stroke-width:0.8;"/>
      </defs>
      <g>
       <use style="stroke:#000000;stroke-width:0.8;" x="49.783067" xlink:href="#mc15dfc8d30" y="340.506343"/>
      </g>
     </g>
     <g id="text_8">
      <!-- −0.03 -->
      <defs>
       <path d="M 10.59375 35.5 
L 73.1875 35.5 
L 73.1875 27.203125 
L 10.59375 27.203125 
z
" id="DejaVuSans-8722"/>
       <path d="M 10.6875 12.40625 
L 21 12.40625 
L 21 0 
L 10.6875 0 
z
" id="DejaVuSans-46"/>
      </defs>
      <g transform="translate(12.137754 344.305562)scale(0.1 -0.1)">
       <use xlink:href="#DejaVuSans-8722"/>
       <use x="83.789062" xlink:href="#DejaVuSans-48"/>
       <use x="147.412109" xlink:href="#DejaVuSans-46"/>
       <use x="179.199219" xlink:href="#DejaVuSans-48"/>
       <use x="242.822266" xlink:href="#DejaVuSans-51"/>
      </g>
     </g>
    </g>
    <g id="ytick_2">
     <g id="line2d_9">
      <g>
       <use style="stroke:#000000;stroke-width:0.8;" x="49.783067" xlink:href="#mc15dfc8d30" y="277.1657"/>
      </g>
     </g>
     <g id="text_9">
      <!-- −0.02 -->
      <g transform="translate(12.137754 280.964918)scale(0.1 -0.1)">
       <use xlink:href="#DejaVuSans-8722"/>
       <use x="83.789062" xlink:href="#DejaVuSans-48"/>
       <use x="147.412109" xlink:href="#DejaVuSans-46"/>
       <use x="179.199219" xlink:href="#DejaVuSans-48"/>
       <use x="242.822266" xlink:href="#DejaVuSans-50"/>
      </g>
     </g>
    </g>
    <g id="ytick_3">
     <g id="line2d_10">
      <g>
       <use style="stroke:#000000;stroke-width:0.8;" x="49.783067" xlink:href="#mc15dfc8d30" y="213.825056"/>
      </g>
     </g>
     <g id="text_10">
      <!-- −0.01 -->
      <g transform="translate(12.137754 217.624275)scale(0.1 -0.1)">
       <use xlink:href="#DejaVuSans-8722"/>
       <use x="83.789062" xlink:href="#DejaVuSans-48"/>
       <use x="147.412109" xlink:href="#DejaVuSans-46"/>
       <use x="179.199219" xlink:href="#DejaVuSans-48"/>
       <use x="242.822266" xlink:href="#DejaVuSans-49"/>
      </g>
     </g>
    </g>
    <g id="ytick_4">
     <g id="line2d_11">
      <g>
       <use style="stroke:#000000;stroke-width:0.8;" x="49.783067" xlink:href="#mc15dfc8d30" y="150.484413"/>
      </g>
     </g>
     <g id="text_11">
      <!-- 0.00 -->
      <g transform="translate(20.517442 154.283632)scale(0.1 -0.1)">
       <use xlink:href="#DejaVuSans-48"/>
       <use x="63.623047" xlink:href="#DejaVuSans-46"/>
       <use x="95.410156" xlink:href="#DejaVuSans-48"/>
       <use x="159.033203" xlink:href="#DejaVuSans-48"/>
      </g>
     </g>
    </g>
    <g id="ytick_5">
     <g id="line2d_12">
      <g>
       <use style="stroke:#000000;stroke-width:0.8;" x="49.783067" xlink:href="#mc15dfc8d30" y="87.143769"/>
      </g>
     </g>
     <g id="text_12">
      <!-- 0.01 -->
      <g transform="translate(20.517442 90.942988)scale(0.1 -0.1)">
       <use xlink:href="#DejaVuSans-48"/>
       <use x="63.623047" xlink:href="#DejaVuSans-46"/>
       <use x="95.410156" xlink:href="#DejaVuSans-48"/>
       <use x="159.033203" xlink:href="#DejaVuSans-49"/>
      </g>
     </g>
    </g>
   </g>
   <g id="line2d_13">
    <path clip-path="url(#p42055fb6bc)" d="M 67.5122 236.479475 
L 78.950351 57.396471 
L 90.388501 107.199571 
L 101.826652 132.241548 
L 113.264802 259.947812 
L 124.702953 61.696035 
L 136.141103 110.568915 
L 147.579254 79.820958 
L 159.017404 50.814746 
L 170.455555 166.909593 
L 181.893705 256.386174 
L 193.331856 81.092205 
L 204.770006 329.129099 
L 216.208157 154.56891 
L 227.646308 61.233649 
L 239.084458 213.850391 
L 250.522609 237.11478 
L 261.960759 223.264714 
L 273.39891 107.522736 
L 284.83706 106.205123 
L 296.275211 58.929949 
L 307.713361 250.849567 
L 319.151512 140.600613 
L 330.589662 112.309322 
L 342.027813 131.976024 
L 353.465963 96.694273 
L 364.904114 140.633993 
L 376.342265 50.269378 
L 387.780415 88.665214 
L 399.218566 221.818006 
L 410.656716 319.907976 
L 422.094867 127.004924 
" style="fill:none;stroke:#1f77b4;stroke-linecap:square;stroke-opacity:0.5;stroke-width:1.5;"/>
   </g>
   <g id="line2d_14">
    <path clip-path="url(#p42055fb6bc)" d="M 67.5122 217.056387 
L 78.950351 49.341386 
L 90.388501 114.110201 
L 101.826652 115.884113 
L 113.264802 199.623541 
L 124.702953 59.267145 
L 136.141103 112.803722 
L 147.579254 71.238998 
L 159.017404 49.820307 
L 170.455555 174.339213 
L 181.893705 244.871934 
L 193.331856 79.99314 
L 204.770006 217.048182 
L 216.208157 169.293502 
L 227.646308 92.232722 
L 239.084458 177.834022 
L 250.522609 207.101905 
L 261.960759 201.935198 
L 273.39891 120.622085 
L 284.83706 113.457105 
L 296.275211 94.295434 
L 307.713361 259.496688 
L 319.151512 110.670974 
L 330.589662 113.334779 
L 342.027813 117.822558 
L 353.465963 91.265047 
L 364.904114 116.419352 
L 376.342265 50.793557 
L 387.780415 150.965833 
L 399.218566 231.444595 
L 410.656716 220.394652 
L 422.094867 119.176606 
" style="fill:none;stroke:#ff7f0e;stroke-dasharray:5.55,2.4;stroke-dashoffset:0;stroke-opacity:0.5;stroke-width:1.5;"/>
   </g>
   <g id="patch_3">
    <path d="M 49.783067 343.118485 
L 49.783067 35.352 
" style="fill:none;stroke:#000000;stroke-linecap:square;stroke-linejoin:miter;stroke-width:0.8;"/>
   </g>
   <g id="patch_4">
    <path d="M 439.824 343.118485 
L 439.824 35.352 
" style="fill:none;stroke:#000000;stroke-linecap:square;stroke-linejoin:miter;stroke-width:0.8;"/>
   </g>
   <g id="patch_5">
    <path d="M 49.783067 343.118485 
L 439.824 343.118485 
" style="fill:none;stroke:#000000;stroke-linecap:square;stroke-linejoin:miter;stroke-width:0.8;"/>
   </g>
   <g id="patch_6">
    <path d="M 49.783067 35.352 
L 439.824 35.352 
" style="fill:none;stroke:#000000;stroke-linecap:square;stroke-linejoin:miter;stroke-width:0.8;"/>
   </g>
   <g id="text_13">
    <!-- translation_x -->
    <defs>
     <path d="M 18.3125 70.21875 
L 18.3125 54.6875 
L 36.8125 54.6875 
L 36.8125 47.703125 
L 18.3125 47.703125 
L 18.3125 18.015625 
Q 18.3125 11.328125 20.140625 9.421875 
Q 21.96875 7.515625 27.59375 7.515625 
L 36.8125 7.515625 
L 36.8125 0 
L 27.59375 0 
Q 17.1875 0 13.234375 3.875 
Q 9.28125 7.765625 9.28125 18.015625 
L 9.28125 47.703125 
L 2.6875 47.703125 
L 2.6875 54.6875 
L 9.28125 54.6875 
L 9.28125 70.21875 
z
" id="DejaVuSans-116"/>
     <path d="M 41.109375 46.296875 
Q 39.59375 47.171875 37.8125 47.578125 
Q 36.03125 48 33.890625 48 
Q 26.265625 48 22.1875 43.046875 
Q 18.109375 38.09375 18.109375 28.8125 
L 18.109375 0 
L 9.078125 0 
L 9.078125 54.6875 
L 18.109375 54.6875 
L 18.109375 46.1875 
Q 20.953125 51.171875 25.484375 53.578125 
Q 30.03125 56 36.53125 56 
Q 37.453125 56 38.578125 55.875 
Q 39.703125 55.765625 41.0625 55.515625 
z
" id="DejaVuSans-114"/>
     <path d="M 34.28125 27.484375 
Q 23.390625 27.484375 19.1875 25 
Q 14.984375 22.515625 14.984375 16.5 
Q 14.984375 11.71875 18.140625 8.90625 
Q 21.296875 6.109375 26.703125 6.109375 
Q 34.1875 6.109375 38.703125 11.40625 
Q 43.21875 16.703125 43.21875 25.484375 
L 43.21875 27.484375 
z
M 52.203125 31.203125 
L 52.203125 0 
L 43.21875 0 
L 43.21875 8.296875 
Q 40.140625 3.328125 35.546875 0.953125 
Q 30.953125 -1.421875 24.3125 -1.421875 
Q 15.921875 -1.421875 10.953125 3.296875 
Q 6 8.015625 6 15.921875 
Q 6 25.140625 12.171875 29.828125 
Q 18.359375 34.515625 30.609375 34.515625 
L 43.21875 34.515625 
L 43.21875 35.40625 
Q 43.21875 41.609375 39.140625 45 
Q 35.0625 48.390625 27.6875 48.390625 
Q 23 48.390625 18.546875 47.265625 
Q 14.109375 46.140625 10.015625 43.890625 
L 10.015625 52.203125 
Q 14.9375 54.109375 19.578125 55.046875 
Q 24.21875 56 28.609375 56 
Q 40.484375 56 46.34375 49.84375 
Q 52.203125 43.703125 52.203125 31.203125 
z
" id="DejaVuSans-97"/>
     <path d="M 54.890625 33.015625 
L 54.890625 0 
L 45.90625 0 
L 45.90625 32.71875 
Q 45.90625 40.484375 42.875 44.328125 
Q 39.84375 48.1875 33.796875 48.1875 
Q 26.515625 48.1875 22.3125 43.546875 
Q 18.109375 38.921875 18.109375 30.90625 
L 18.109375 0 
L 9.078125 0 
L 9.078125 54.6875 
L 18.109375 54.6875 
L 18.109375 46.1875 
Q 21.34375 51.125 25.703125 53.5625 
Q 30.078125 56 35.796875 56 
Q 45.21875 56 50.046875 50.171875 
Q 54.890625 44.34375 54.890625 33.015625 
z
" id="DejaVuSans-110"/>
     <path d="M 44.28125 53.078125 
L 44.28125 44.578125 
Q 40.484375 46.53125 36.375 47.5 
Q 32.28125 48.484375 27.875 48.484375 
Q 21.1875 48.484375 17.84375 46.4375 
Q 14.5 44.390625 14.5 40.28125 
Q 14.5 37.15625 16.890625 35.375 
Q 19.28125 33.59375 26.515625 31.984375 
L 29.59375 31.296875 
Q 39.15625 29.25 43.1875 25.515625 
Q 47.21875 21.78125 47.21875 15.09375 
Q 47.21875 7.46875 41.1875 3.015625 
Q 35.15625 -1.421875 24.609375 -1.421875 
Q 20.21875 -1.421875 15.453125 -0.5625 
Q 10.6875 0.296875 5.421875 2 
L 5.421875 11.28125 
Q 10.40625 8.6875 15.234375 7.390625 
Q 20.0625 6.109375 24.8125 6.109375 
Q 31.15625 6.109375 34.5625 8.28125 
Q 37.984375 10.453125 37.984375 14.40625 
Q 37.984375 18.0625 35.515625 20.015625 
Q 33.0625 21.96875 24.703125 23.78125 
L 21.578125 24.515625 
Q 13.234375 26.265625 9.515625 29.90625 
Q 5.8125 33.546875 5.8125 39.890625 
Q 5.8125 47.609375 11.28125 51.796875 
Q 16.75 56 26.8125 56 
Q 31.78125 56 36.171875 55.265625 
Q 40.578125 54.546875 44.28125 53.078125 
z
" id="DejaVuSans-115"/>
     <path d="M 9.421875 75.984375 
L 18.40625 75.984375 
L 18.40625 0 
L 9.421875 0 
z
" id="DejaVuSans-108"/>
     <path d="M 9.421875 54.6875 
L 18.40625 54.6875 
L 18.40625 0 
L 9.421875 0 
z
M 9.421875 75.984375 
L 18.40625 75.984375 
L 18.40625 64.59375 
L 9.421875 64.59375 
z
" id="DejaVuSans-105"/>
     <path d="M 30.609375 48.390625 
Q 23.390625 48.390625 19.1875 42.75 
Q 14.984375 37.109375 14.984375 27.296875 
Q 14.984375 17.484375 19.15625 11.84375 
Q 23.34375 6.203125 30.609375 6.203125 
Q 37.796875 6.203125 41.984375 11.859375 
Q 46.1875 17.53125 46.1875 27.296875 
Q 46.1875 37.015625 41.984375 42.703125 
Q 37.796875 48.390625 30.609375 48.390625 
z
M 30.609375 56 
Q 42.328125 56 49.015625 48.375 
Q 55.71875 40.765625 55.71875 27.296875 
Q 55.71875 13.875 49.015625 6.21875 
Q 42.328125 -1.421875 30.609375 -1.421875 
Q 18.84375 -1.421875 12.171875 6.21875 
Q 5.515625 13.875 5.515625 27.296875 
Q 5.515625 40.765625 12.171875 48.375 
Q 18.84375 56 30.609375 56 
z
" id="DejaVuSans-111"/>
     <path d="M 50.984375 -16.609375 
L 50.984375 -23.578125 
L -0.984375 -23.578125 
L -0.984375 -16.609375 
z
" id="DejaVuSans-95"/>
     <path d="M 54.890625 54.6875 
L 35.109375 28.078125 
L 55.90625 0 
L 45.3125 0 
L 29.390625 21.484375 
L 13.484375 0 
L 2.875 0 
L 24.125 28.609375 
L 4.6875 54.6875 
L 15.28125 54.6875 
L 29.78125 35.203125 
L 44.28125 54.6875 
z
" id="DejaVuSans-120"/>
    </defs>
    <g transform="translate(205.991971 29.352)scale(0.12 -0.12)">
     <use xlink:href="#DejaVuSans-116"/>
     <use x="39.208984" xlink:href="#DejaVuSans-114"/>
     <use x="80.322266" xlink:href="#DejaVuSans-97"/>
     <use x="141.601562" xlink:href="#DejaVuSans-110"/>
     <use x="204.980469" xlink:href="#DejaVuSans-115"/>
     <use x="257.080078" xlink:href="#DejaVuSans-108"/>
     <use x="284.863281" xlink:href="#DejaVuSans-97"/>
     <use x="346.142578" xlink:href="#DejaVuSans-116"/>
     <use x="385.351562" xlink:href="#DejaVuSans-105"/>
     <use x="413.134766" xlink:href="#DejaVuSans-111"/>
     <use x="474.316406" xlink:href="#DejaVuSans-110"/>
     <use x="537.695312" xlink:href="#DejaVuSans-95"/>
     <use x="587.695312" xlink:href="#DejaVuSans-120"/>
    </g>
   </g>
   <g id="legend_1">
    <g id="patch_7">
     <path d="M 56.783067 338.118485 
L 136.119004 338.118485 
Q 138.119004 338.118485 138.119004 336.118485 
L 138.119004 307.762235 
Q 138.119004 305.762235 136.119004 305.762235 
L 56.783067 305.762235 
Q 54.783067 305.762235 54.783067 307.762235 
L 54.783067 336.118485 
Q 54.783067 338.118485 56.783067 338.118485 
z
" style="fill:#ffffff;opacity:0.8;stroke:#cccccc;stroke-linejoin:miter;"/>
    </g>
    <g id="line2d_15">
     <path d="M 58.783067 313.860672 
L 78.783067 313.860672 
" style="fill:none;stroke:#1f77b4;stroke-linecap:square;stroke-opacity:0.5;stroke-width:1.5;"/>
    </g>
    <g id="line2d_16"/>
    <g id="text_14">
     <!-- True -->
     <defs>
      <path d="M -0.296875 72.90625 
L 61.375 72.90625 
L 61.375 64.59375 
L 35.5 64.59375 
L 35.5 0 
L 25.59375 0 
L 25.59375 64.59375 
L -0.296875 64.59375 
z
" id="DejaVuSans-84"/>
      <path d="M 8.5 21.578125 
L 8.5 54.6875 
L 17.484375 54.6875 
L 17.484375 21.921875 
Q 17.484375 14.15625 20.5 10.265625 
Q 23.53125 6.390625 29.59375 6.390625 
Q 36.859375 6.390625 41.078125 11.03125 
Q 45.3125 15.671875 45.3125 23.6875 
L 45.3125 54.6875 
L 54.296875 54.6875 
L 54.296875 0 
L 45.3125 0 
L 45.3125 8.40625 
Q 42.046875 3.421875 37.71875 1 
Q 33.40625 -1.421875 27.6875 -1.421875 
Q 18.265625 -1.421875 13.375 4.4375 
Q 8.5 10.296875 8.5 21.578125 
z
M 31.109375 56 
z
" id="DejaVuSans-117"/>
      <path d="M 56.203125 29.59375 
L 56.203125 25.203125 
L 14.890625 25.203125 
Q 15.484375 15.921875 20.484375 11.0625 
Q 25.484375 6.203125 34.421875 6.203125 
Q 39.59375 6.203125 44.453125 7.46875 
Q 49.3125 8.734375 54.109375 11.28125 
L 54.109375 2.78125 
Q 49.265625 0.734375 44.1875 -0.34375 
Q 39.109375 -1.421875 33.890625 -1.421875 
Q 20.796875 -1.421875 13.15625 6.1875 
Q 5.515625 13.8125 5.515625 26.8125 
Q 5.515625 40.234375 12.765625 48.109375 
Q 20.015625 56 32.328125 56 
Q 43.359375 56 49.78125 48.890625 
Q 56.203125 41.796875 56.203125 29.59375 
z
M 47.21875 32.234375 
Q 47.125 39.59375 43.09375 43.984375 
Q 39.0625 48.390625 32.421875 48.390625 
Q 24.90625 48.390625 20.390625 44.140625 
Q 15.875 39.890625 15.1875 32.171875 
z
" id="DejaVuSans-101"/>
     </defs>
     <g transform="translate(86.783067 317.360672)scale(0.1 -0.1)">
      <use xlink:href="#DejaVuSans-84"/>
      <use x="60.865234" xlink:href="#DejaVuSans-114"/>
      <use x="101.978516" xlink:href="#DejaVuSans-117"/>
      <use x="165.357422" xlink:href="#DejaVuSans-101"/>
     </g>
    </g>
    <g id="line2d_17">
     <path d="M 58.783067 328.538797 
L 78.783067 328.538797 
" style="fill:none;stroke:#ff7f0e;stroke-dasharray:5.55,2.4;stroke-dashoffset:0;stroke-opacity:0.5;stroke-width:1.5;"/>
    </g>
    <g id="line2d_18"/>
    <g id="text_15">
     <!-- Predicted -->
     <defs>
      <path d="M 19.671875 64.796875 
L 19.671875 37.40625 
L 32.078125 37.40625 
Q 38.96875 37.40625 42.71875 40.96875 
Q 46.484375 44.53125 46.484375 51.125 
Q 46.484375 57.671875 42.71875 61.234375 
Q 38.96875 64.796875 32.078125 64.796875 
z
M 9.8125 72.90625 
L 32.078125 72.90625 
Q 44.34375 72.90625 50.609375 67.359375 
Q 56.890625 61.8125 56.890625 51.125 
Q 56.890625 40.328125 50.609375 34.8125 
Q 44.34375 29.296875 32.078125 29.296875 
L 19.671875 29.296875 
L 19.671875 0 
L 9.8125 0 
z
" id="DejaVuSans-80"/>
      <path d="M 45.40625 46.390625 
L 45.40625 75.984375 
L 54.390625 75.984375 
L 54.390625 0 
L 45.40625 0 
L 45.40625 8.203125 
Q 42.578125 3.328125 38.25 0.953125 
Q 33.9375 -1.421875 27.875 -1.421875 
Q 17.96875 -1.421875 11.734375 6.484375 
Q 5.515625 14.40625 5.515625 27.296875 
Q 5.515625 40.1875 11.734375 48.09375 
Q 17.96875 56 27.875 56 
Q 33.9375 56 38.25 53.625 
Q 42.578125 51.265625 45.40625 46.390625 
z
M 14.796875 27.296875 
Q 14.796875 17.390625 18.875 11.75 
Q 22.953125 6.109375 30.078125 6.109375 
Q 37.203125 6.109375 41.296875 11.75 
Q 45.40625 17.390625 45.40625 27.296875 
Q 45.40625 37.203125 41.296875 42.84375 
Q 37.203125 48.484375 30.078125 48.484375 
Q 22.953125 48.484375 18.875 42.84375 
Q 14.796875 37.203125 14.796875 27.296875 
z
" id="DejaVuSans-100"/>
      <path d="M 48.78125 52.59375 
L 48.78125 44.1875 
Q 44.96875 46.296875 41.140625 47.34375 
Q 37.3125 48.390625 33.40625 48.390625 
Q 24.65625 48.390625 19.8125 42.84375 
Q 14.984375 37.3125 14.984375 27.296875 
Q 14.984375 17.28125 19.8125 11.734375 
Q 24.65625 6.203125 33.40625 6.203125 
Q 37.3125 6.203125 41.140625 7.25 
Q 44.96875 8.296875 48.78125 10.40625 
L 48.78125 2.09375 
Q 45.015625 0.34375 40.984375 -0.53125 
Q 36.96875 -1.421875 32.421875 -1.421875 
Q 20.0625 -1.421875 12.78125 6.34375 
Q 5.515625 14.109375 5.515625 27.296875 
Q 5.515625 40.671875 12.859375 48.328125 
Q 20.21875 56 33.015625 56 
Q 37.15625 56 41.109375 55.140625 
Q 45.0625 54.296875 48.78125 52.59375 
z
" id="DejaVuSans-99"/>
     </defs>
     <g transform="translate(86.783067 332.038797)scale(0.1 -0.1)">
      <use xlink:href="#DejaVuSans-80"/>
      <use x="60.287109" xlink:href="#DejaVuSans-114"/>
      <use x="101.369141" xlink:href="#DejaVuSans-101"/>
      <use x="162.892578" xlink:href="#DejaVuSans-100"/>
      <use x="226.369141" xlink:href="#DejaVuSans-105"/>
      <use x="254.152344" xlink:href="#DejaVuSans-99"/>
      <use x="309.132812" xlink:href="#DejaVuSans-116"/>
      <use x="348.341797" xlink:href="#DejaVuSans-101"/>
      <use x="409.865234" xlink:href="#DejaVuSans-100"/>
     </g>
    </g>
   </g>
  </g>
  <g id="axes_2">
   <g id="patch_8">
    <path d="M 489.607067 343.118485 
L 879.648 343.118485 
L 879.648 35.352 
L 489.607067 35.352 
z
" style="fill:#ffffff;"/>
   </g>
   <g id="matplotlib.axis_3">
    <g id="xtick_8">
     <g id="line2d_19">
      <g>
       <use style="stroke:#000000;stroke-width:0.8;" x="507.3362" xlink:href="#m30db6c4e77" y="343.118485"/>
      </g>
     </g>
     <g id="text_16">
      <!-- 0 -->
      <g transform="translate(504.15495 357.716922)scale(0.1 -0.1)">
       <use xlink:href="#DejaVuSans-48"/>
      </g>
     </g>
    </g>
    <g id="xtick_9">
     <g id="line2d_20">
      <g>
       <use style="stroke:#000000;stroke-width:0.8;" x="564.526953" xlink:href="#m30db6c4e77" y="343.118485"/>
      </g>
     </g>
     <g id="text_17">
      <!-- 5 -->
      <g transform="translate(561.345703 357.716922)scale(0.1 -0.1)">
       <use xlink:href="#DejaVuSans-53"/>
      </g>
     </g>
    </g>
    <g id="xtick_10">
     <g id="line2d_21">
      <g>
       <use style="stroke:#000000;stroke-width:0.8;" x="621.717705" xlink:href="#m30db6c4e77" y="343.118485"/>
      </g>
     </g>
     <g id="text_18">
      <!-- 10 -->
      <g transform="translate(615.355205 357.716922)scale(0.1 -0.1)">
       <use xlink:href="#DejaVuSans-49"/>
       <use x="63.623047" xlink:href="#DejaVuSans-48"/>
      </g>
     </g>
    </g>
    <g id="xtick_11">
     <g id="line2d_22">
      <g>
       <use style="stroke:#000000;stroke-width:0.8;" x="678.908458" xlink:href="#m30db6c4e77" y="343.118485"/>
      </g>
     </g>
     <g id="text_19">
      <!-- 15 -->
      <g transform="translate(672.545958 357.716922)scale(0.1 -0.1)">
       <use xlink:href="#DejaVuSans-49"/>
       <use x="63.623047" xlink:href="#DejaVuSans-53"/>
      </g>
     </g>
    </g>
    <g id="xtick_12">
     <g id="line2d_23">
      <g>
       <use style="stroke:#000000;stroke-width:0.8;" x="736.099211" xlink:href="#m30db6c4e77" y="343.118485"/>
      </g>
     </g>
     <g id="text_20">
      <!-- 20 -->
      <g transform="translate(729.736711 357.716922)scale(0.1 -0.1)">
       <use xlink:href="#DejaVuSans-50"/>
       <use x="63.623047" xlink:href="#DejaVuSans-48"/>
      </g>
     </g>
    </g>
    <g id="xtick_13">
     <g id="line2d_24">
      <g>
       <use style="stroke:#000000;stroke-width:0.8;" x="793.289963" xlink:href="#m30db6c4e77" y="343.118485"/>
      </g>
     </g>
     <g id="text_21">
      <!-- 25 -->
      <g transform="translate(786.927463 357.716922)scale(0.1 -0.1)">
       <use xlink:href="#DejaVuSans-50"/>
       <use x="63.623047" xlink:href="#DejaVuSans-53"/>
      </g>
     </g>
    </g>
    <g id="xtick_14">
     <g id="line2d_25">
      <g>
       <use style="stroke:#000000;stroke-width:0.8;" x="850.480716" xlink:href="#m30db6c4e77" y="343.118485"/>
      </g>
     </g>
     <g id="text_22">
      <!-- 30 -->
      <g transform="translate(844.118216 357.716922)scale(0.1 -0.1)">
       <use xlink:href="#DejaVuSans-51"/>
       <use x="63.623047" xlink:href="#DejaVuSans-48"/>
      </g>
     </g>
    </g>
   </g>
   <g id="matplotlib.axis_4">
    <g id="ytick_6">
     <g id="line2d_26">
      <g>
       <use style="stroke:#000000;stroke-width:0.8;" x="489.607067" xlink:href="#mc15dfc8d30" y="340.078986"/>
      </g>
     </g>
     <g id="text_23">
      <!-- −0.02 -->
      <g transform="translate(451.961754 343.878205)scale(0.1 -0.1)">
       <use xlink:href="#DejaVuSans-8722"/>
       <use x="83.789062" xlink:href="#DejaVuSans-48"/>
       <use x="147.412109" xlink:href="#DejaVuSans-46"/>
       <use x="179.199219" xlink:href="#DejaVuSans-48"/>
       <use x="242.822266" xlink:href="#DejaVuSans-50"/>
      </g>
     </g>
    </g>
    <g id="ytick_7">
     <g id="line2d_27">
      <g>
       <use style="stroke:#000000;stroke-width:0.8;" x="489.607067" xlink:href="#mc15dfc8d30" y="291.860757"/>
      </g>
     </g>
     <g id="text_24">
      <!-- −0.01 -->
      <g transform="translate(451.961754 295.659976)scale(0.1 -0.1)">
       <use xlink:href="#DejaVuSans-8722"/>
       <use x="83.789062" xlink:href="#DejaVuSans-48"/>
       <use x="147.412109" xlink:href="#DejaVuSans-46"/>
       <use x="179.199219" xlink:href="#DejaVuSans-48"/>
       <use x="242.822266" xlink:href="#DejaVuSans-49"/>
      </g>
     </g>
    </g>
    <g id="ytick_8">
     <g id="line2d_28">
      <g>
       <use style="stroke:#000000;stroke-width:0.8;" x="489.607067" xlink:href="#mc15dfc8d30" y="243.642528"/>
      </g>
     </g>
     <g id="text_25">
      <!-- 0.00 -->
      <g transform="translate(460.341442 247.441747)scale(0.1 -0.1)">
       <use xlink:href="#DejaVuSans-48"/>
       <use x="63.623047" xlink:href="#DejaVuSans-46"/>
       <use x="95.410156" xlink:href="#DejaVuSans-48"/>
       <use x="159.033203" xlink:href="#DejaVuSans-48"/>
      </g>
     </g>
    </g>
    <g id="ytick_9">
     <g id="line2d_29">
      <g>
       <use style="stroke:#000000;stroke-width:0.8;" x="489.607067" xlink:href="#mc15dfc8d30" y="195.4243"/>
      </g>
     </g>
     <g id="text_26">
      <!-- 0.01 -->
      <g transform="translate(460.341442 199.223518)scale(0.1 -0.1)">
       <use xlink:href="#DejaVuSans-48"/>
       <use x="63.623047" xlink:href="#DejaVuSans-46"/>
       <use x="95.410156" xlink:href="#DejaVuSans-48"/>
       <use x="159.033203" xlink:href="#DejaVuSans-49"/>
      </g>
     </g>
    </g>
    <g id="ytick_10">
     <g id="line2d_30">
      <g>
       <use style="stroke:#000000;stroke-width:0.8;" x="489.607067" xlink:href="#mc15dfc8d30" y="147.206071"/>
      </g>
     </g>
     <g id="text_27">
      <!-- 0.02 -->
      <g transform="translate(460.341442 151.005289)scale(0.1 -0.1)">
       <use xlink:href="#DejaVuSans-48"/>
       <use x="63.623047" xlink:href="#DejaVuSans-46"/>
       <use x="95.410156" xlink:href="#DejaVuSans-48"/>
       <use x="159.033203" xlink:href="#DejaVuSans-50"/>
      </g>
     </g>
    </g>
    <g id="ytick_11">
     <g id="line2d_31">
      <g>
       <use style="stroke:#000000;stroke-width:0.8;" x="489.607067" xlink:href="#mc15dfc8d30" y="98.987842"/>
      </g>
     </g>
     <g id="text_28">
      <!-- 0.03 -->
      <g transform="translate(460.341442 102.78706)scale(0.1 -0.1)">
       <use xlink:href="#DejaVuSans-48"/>
       <use x="63.623047" xlink:href="#DejaVuSans-46"/>
       <use x="95.410156" xlink:href="#DejaVuSans-48"/>
       <use x="159.033203" xlink:href="#DejaVuSans-51"/>
      </g>
     </g>
    </g>
    <g id="ytick_12">
     <g id="line2d_32">
      <g>
       <use style="stroke:#000000;stroke-width:0.8;" x="489.607067" xlink:href="#mc15dfc8d30" y="50.769613"/>
      </g>
     </g>
     <g id="text_29">
      <!-- 0.04 -->
      <defs>
       <path d="M 37.796875 64.3125 
L 12.890625 25.390625 
L 37.796875 25.390625 
z
M 35.203125 72.90625 
L 47.609375 72.90625 
L 47.609375 25.390625 
L 58.015625 25.390625 
L 58.015625 17.1875 
L 47.609375 17.1875 
L 47.609375 0 
L 37.796875 0 
L 37.796875 17.1875 
L 4.890625 17.1875 
L 4.890625 26.703125 
z
" id="DejaVuSans-52"/>
      </defs>
      <g transform="translate(460.341442 54.568832)scale(0.1 -0.1)">
       <use xlink:href="#DejaVuSans-48"/>
       <use x="63.623047" xlink:href="#DejaVuSans-46"/>
       <use x="95.410156" xlink:href="#DejaVuSans-48"/>
       <use x="159.033203" xlink:href="#DejaVuSans-52"/>
      </g>
     </g>
    </g>
   </g>
   <g id="line2d_33">
    <path clip-path="url(#p0f49fb4858)" d="M 507.3362 240.661939 
L 518.774351 59.256988 
L 530.212501 63.848809 
L 541.650652 75.345487 
L 553.088802 209.594721 
L 564.526953 86.704248 
L 575.965103 70.698683 
L 587.403254 201.591072 
L 598.841404 58.359159 
L 610.279555 273.1788 
L 621.717705 211.509369 
L 633.155856 71.936923 
L 644.594006 286.530279 
L 656.032157 306.729809 
L 667.470308 177.967853 
L 678.908458 329.129099 
L 690.346609 231.182506 
L 701.784759 265.851791 
L 713.22291 136.529104 
L 724.66106 53.436089 
L 736.099211 172.931461 
L 747.537361 209.381886 
L 758.975512 66.286238 
L 770.413662 81.23292 
L 781.851813 49.341386 
L 793.289963 88.557746 
L 804.728114 69.874159 
L 816.166265 65.176251 
L 827.604415 207.821206 
L 839.042566 252.445724 
L 850.480716 283.625613 
L 861.918867 55.754892 
" style="fill:none;stroke:#1f77b4;stroke-linecap:square;stroke-opacity:0.5;stroke-width:1.5;"/>
   </g>
   <g id="line2d_34">
    <path clip-path="url(#p0f49fb4858)" d="M 507.3362 213.126981 
L 518.774351 68.302801 
L 530.212501 60.193868 
L 541.650652 81.862243 
L 553.088802 190.949763 
L 564.526953 78.234283 
L 575.965103 74.958714 
L 587.403254 190.52768 
L 598.841404 68.47289 
L 610.279555 281.552386 
L 621.717705 219.255235 
L 633.155856 77.592961 
L 644.594006 252.865539 
L 656.032157 303.321945 
L 667.470308 215.293533 
L 678.908458 293.265515 
L 690.346609 201.009893 
L 701.784759 246.466645 
L 713.22291 107.675949 
L 724.66106 58.323234 
L 736.099211 218.473746 
L 747.537361 225.387267 
L 758.975512 65.627851 
L 770.413662 74.404386 
L 781.851813 64.387833 
L 793.289963 87.655336 
L 804.728114 83.125667 
L 816.166265 69.419506 
L 827.604415 210.634864 
L 839.042566 251.768917 
L 850.480716 256.722667 
L 861.918867 64.80031 
" style="fill:none;stroke:#ff7f0e;stroke-dasharray:5.55,2.4;stroke-dashoffset:0;stroke-opacity:0.5;stroke-width:1.5;"/>
   </g>
   <g id="patch_9">
    <path d="M 489.607067 343.118485 
L 489.607067 35.352 
" style="fill:none;stroke:#000000;stroke-linecap:square;stroke-linejoin:miter;stroke-width:0.8;"/>
   </g>
   <g id="patch_10">
    <path d="M 879.648 343.118485 
L 879.648 35.352 
" style="fill:none;stroke:#000000;stroke-linecap:square;stroke-linejoin:miter;stroke-width:0.8;"/>
   </g>
   <g id="patch_11">
    <path d="M 489.607067 343.118485 
L 879.648 343.118485 
" style="fill:none;stroke:#000000;stroke-linecap:square;stroke-linejoin:miter;stroke-width:0.8;"/>
   </g>
   <g id="patch_12">
    <path d="M 489.607067 35.352 
L 879.648 35.352 
" style="fill:none;stroke:#000000;stroke-linecap:square;stroke-linejoin:miter;stroke-width:0.8;"/>
   </g>
   <g id="text_30">
    <!-- translation_y -->
    <defs>
     <path d="M 32.171875 -5.078125 
Q 28.375 -14.84375 24.75 -17.8125 
Q 21.140625 -20.796875 15.09375 -20.796875 
L 7.90625 -20.796875 
L 7.90625 -13.28125 
L 13.1875 -13.28125 
Q 16.890625 -13.28125 18.9375 -11.515625 
Q 21 -9.765625 23.484375 -3.21875 
L 25.09375 0.875 
L 2.984375 54.6875 
L 12.5 54.6875 
L 29.59375 11.921875 
L 46.6875 54.6875 
L 56.203125 54.6875 
z
" id="DejaVuSans-121"/>
    </defs>
    <g transform="translate(645.815971 29.352)scale(0.12 -0.12)">
     <use xlink:href="#DejaVuSans-116"/>
     <use x="39.208984" xlink:href="#DejaVuSans-114"/>
     <use x="80.322266" xlink:href="#DejaVuSans-97"/>
     <use x="141.601562" xlink:href="#DejaVuSans-110"/>
     <use x="204.980469" xlink:href="#DejaVuSans-115"/>
     <use x="257.080078" xlink:href="#DejaVuSans-108"/>
     <use x="284.863281" xlink:href="#DejaVuSans-97"/>
     <use x="346.142578" xlink:href="#DejaVuSans-116"/>
     <use x="385.351562" xlink:href="#DejaVuSans-105"/>
     <use x="413.134766" xlink:href="#DejaVuSans-111"/>
     <use x="474.316406" xlink:href="#DejaVuSans-110"/>
     <use x="537.695312" xlink:href="#DejaVuSans-95"/>
     <use x="587.695312" xlink:href="#DejaVuSans-121"/>
    </g>
   </g>
   <g id="legend_2">
    <g id="patch_13">
     <path d="M 496.607067 338.118485 
L 575.943004 338.118485 
Q 577.943004 338.118485 577.943004 336.118485 
L 577.943004 307.762235 
Q 577.943004 305.762235 575.943004 305.762235 
L 496.607067 305.762235 
Q 494.607067 305.762235 494.607067 307.762235 
L 494.607067 336.118485 
Q 494.607067 338.118485 496.607067 338.118485 
z
" style="fill:#ffffff;opacity:0.8;stroke:#cccccc;stroke-linejoin:miter;"/>
    </g>
    <g id="line2d_35">
     <path d="M 498.607067 313.860672 
L 518.607067 313.860672 
" style="fill:none;stroke:#1f77b4;stroke-linecap:square;stroke-opacity:0.5;stroke-width:1.5;"/>
    </g>
    <g id="line2d_36"/>
    <g id="text_31">
     <!-- True -->
     <g transform="translate(526.607067 317.360672)scale(0.1 -0.1)">
      <use xlink:href="#DejaVuSans-84"/>
      <use x="60.865234" xlink:href="#DejaVuSans-114"/>
      <use x="101.978516" xlink:href="#DejaVuSans-117"/>
      <use x="165.357422" xlink:href="#DejaVuSans-101"/>
     </g>
    </g>
    <g id="line2d_37">
     <path d="M 498.607067 328.538797 
L 518.607067 328.538797 
" style="fill:none;stroke:#ff7f0e;stroke-dasharray:5.55,2.4;stroke-dashoffset:0;stroke-opacity:0.5;stroke-width:1.5;"/>
    </g>
    <g id="line2d_38"/>
    <g id="text_32">
     <!-- Predicted -->
     <g transform="translate(526.607067 332.038797)scale(0.1 -0.1)">
      <use xlink:href="#DejaVuSans-80"/>
      <use x="60.287109" xlink:href="#DejaVuSans-114"/>
      <use x="101.369141" xlink:href="#DejaVuSans-101"/>
      <use x="162.892578" xlink:href="#DejaVuSans-100"/>
      <use x="226.369141" xlink:href="#DejaVuSans-105"/>
      <use x="254.152344" xlink:href="#DejaVuSans-99"/>
      <use x="309.132812" xlink:href="#DejaVuSans-116"/>
      <use x="348.341797" xlink:href="#DejaVuSans-101"/>
      <use x="409.865234" xlink:href="#DejaVuSans-100"/>
     </g>
    </g>
   </g>
  </g>
  <g id="axes_3">
   <g id="patch_14">
    <path d="M 929.431067 343.118485 
L 1319.472 343.118485 
L 1319.472 35.352 
L 929.431067 35.352 
z
" style="fill:#ffffff;"/>
   </g>
   <g id="matplotlib.axis_5">
    <g id="xtick_15">
     <g id="line2d_39">
      <g>
       <use style="stroke:#000000;stroke-width:0.8;" x="947.1602" xlink:href="#m30db6c4e77" y="343.118485"/>
      </g>
     </g>
     <g id="text_33">
      <!-- 0 -->
      <g transform="translate(943.97895 357.716922)scale(0.1 -0.1)">
       <use xlink:href="#DejaVuSans-48"/>
      </g>
     </g>
    </g>
    <g id="xtick_16">
     <g id="line2d_40">
      <g>
       <use style="stroke:#000000;stroke-width:0.8;" x="1004.350953" xlink:href="#m30db6c4e77" y="343.118485"/>
      </g>
     </g>
     <g id="text_34">
      <!-- 5 -->
      <g transform="translate(1001.169703 357.716922)scale(0.1 -0.1)">
       <use xlink:href="#DejaVuSans-53"/>
      </g>
     </g>
    </g>
    <g id="xtick_17">
     <g id="line2d_41">
      <g>
       <use style="stroke:#000000;stroke-width:0.8;" x="1061.541705" xlink:href="#m30db6c4e77" y="343.118485"/>
      </g>
     </g>
     <g id="text_35">
      <!-- 10 -->
      <g transform="translate(1055.179205 357.716922)scale(0.1 -0.1)">
       <use xlink:href="#DejaVuSans-49"/>
       <use x="63.623047" xlink:href="#DejaVuSans-48"/>
      </g>
     </g>
    </g>
    <g id="xtick_18">
     <g id="line2d_42">
      <g>
       <use style="stroke:#000000;stroke-width:0.8;" x="1118.732458" xlink:href="#m30db6c4e77" y="343.118485"/>
      </g>
     </g>
     <g id="text_36">
      <!-- 15 -->
      <g transform="translate(1112.369958 357.716922)scale(0.1 -0.1)">
       <use xlink:href="#DejaVuSans-49"/>
       <use x="63.623047" xlink:href="#DejaVuSans-53"/>
      </g>
     </g>
    </g>
    <g id="xtick_19">
     <g id="line2d_43">
      <g>
       <use style="stroke:#000000;stroke-width:0.8;" x="1175.923211" xlink:href="#m30db6c4e77" y="343.118485"/>
      </g>
     </g>
     <g id="text_37">
      <!-- 20 -->
      <g transform="translate(1169.560711 357.716922)scale(0.1 -0.1)">
       <use xlink:href="#DejaVuSans-50"/>
       <use x="63.623047" xlink:href="#DejaVuSans-48"/>
      </g>
     </g>
    </g>
    <g id="xtick_20">
     <g id="line2d_44">
      <g>
       <use style="stroke:#000000;stroke-width:0.8;" x="1233.113963" xlink:href="#m30db6c4e77" y="343.118485"/>
      </g>
     </g>
     <g id="text_38">
      <!-- 25 -->
      <g transform="translate(1226.751463 357.716922)scale(0.1 -0.1)">
       <use xlink:href="#DejaVuSans-50"/>
       <use x="63.623047" xlink:href="#DejaVuSans-53"/>
      </g>
     </g>
    </g>
    <g id="xtick_21">
     <g id="line2d_45">
      <g>
       <use style="stroke:#000000;stroke-width:0.8;" x="1290.304716" xlink:href="#m30db6c4e77" y="343.118485"/>
      </g>
     </g>
     <g id="text_39">
      <!-- 30 -->
      <g transform="translate(1283.942216 357.716922)scale(0.1 -0.1)">
       <use xlink:href="#DejaVuSans-51"/>
       <use x="63.623047" xlink:href="#DejaVuSans-48"/>
      </g>
     </g>
    </g>
   </g>
   <g id="matplotlib.axis_6">
    <g id="ytick_13">
     <g id="line2d_46">
      <g>
       <use style="stroke:#000000;stroke-width:0.8;" x="929.431067" xlink:href="#mc15dfc8d30" y="309.836782"/>
      </g>
     </g>
     <g id="text_40">
      <!-- −0.04 -->
      <g transform="translate(891.785754 313.636001)scale(0.1 -0.1)">
       <use xlink:href="#DejaVuSans-8722"/>
       <use x="83.789062" xlink:href="#DejaVuSans-48"/>
       <use x="147.412109" xlink:href="#DejaVuSans-46"/>
       <use x="179.199219" xlink:href="#DejaVuSans-48"/>
       <use x="242.822266" xlink:href="#DejaVuSans-52"/>
      </g>
     </g>
    </g>
    <g id="ytick_14">
     <g id="line2d_47">
      <g>
       <use style="stroke:#000000;stroke-width:0.8;" x="929.431067" xlink:href="#mc15dfc8d30" y="266.301288"/>
      </g>
     </g>
     <g id="text_41">
      <!-- −0.03 -->
      <g transform="translate(891.785754 270.100506)scale(0.1 -0.1)">
       <use xlink:href="#DejaVuSans-8722"/>
       <use x="83.789062" xlink:href="#DejaVuSans-48"/>
       <use x="147.412109" xlink:href="#DejaVuSans-46"/>
       <use x="179.199219" xlink:href="#DejaVuSans-48"/>
       <use x="242.822266" xlink:href="#DejaVuSans-51"/>
      </g>
     </g>
    </g>
    <g id="ytick_15">
     <g id="line2d_48">
      <g>
       <use style="stroke:#000000;stroke-width:0.8;" x="929.431067" xlink:href="#mc15dfc8d30" y="222.765793"/>
      </g>
     </g>
     <g id="text_42">
      <!-- −0.02 -->
      <g transform="translate(891.785754 226.565012)scale(0.1 -0.1)">
       <use xlink:href="#DejaVuSans-8722"/>
       <use x="83.789062" xlink:href="#DejaVuSans-48"/>
       <use x="147.412109" xlink:href="#DejaVuSans-46"/>
       <use x="179.199219" xlink:href="#DejaVuSans-48"/>
       <use x="242.822266" xlink:href="#DejaVuSans-50"/>
      </g>
     </g>
    </g>
    <g id="ytick_16">
     <g id="line2d_49">
      <g>
       <use style="stroke:#000000;stroke-width:0.8;" x="929.431067" xlink:href="#mc15dfc8d30" y="179.230299"/>
      </g>
     </g>
     <g id="text_43">
      <!-- −0.01 -->
      <g transform="translate(891.785754 183.029518)scale(0.1 -0.1)">
       <use xlink:href="#DejaVuSans-8722"/>
       <use x="83.789062" xlink:href="#DejaVuSans-48"/>
       <use x="147.412109" xlink:href="#DejaVuSans-46"/>
       <use x="179.199219" xlink:href="#DejaVuSans-48"/>
       <use x="242.822266" xlink:href="#DejaVuSans-49"/>
      </g>
     </g>
    </g>
    <g id="ytick_17">
     <g id="line2d_50">
      <g>
       <use style="stroke:#000000;stroke-width:0.8;" x="929.431067" xlink:href="#mc15dfc8d30" y="135.694805"/>
      </g>
     </g>
     <g id="text_44">
      <!-- 0.00 -->
      <g transform="translate(900.165442 139.494023)scale(0.1 -0.1)">
       <use xlink:href="#DejaVuSans-48"/>
       <use x="63.623047" xlink:href="#DejaVuSans-46"/>
       <use x="95.410156" xlink:href="#DejaVuSans-48"/>
       <use x="159.033203" xlink:href="#DejaVuSans-48"/>
      </g>
     </g>
    </g>
    <g id="ytick_18">
     <g id="line2d_51">
      <g>
       <use style="stroke:#000000;stroke-width:0.8;" x="929.431067" xlink:href="#mc15dfc8d30" y="92.15931"/>
      </g>
     </g>
     <g id="text_45">
      <!-- 0.01 -->
      <g transform="translate(900.165442 95.958529)scale(0.1 -0.1)">
       <use xlink:href="#DejaVuSans-48"/>
       <use x="63.623047" xlink:href="#DejaVuSans-46"/>
       <use x="95.410156" xlink:href="#DejaVuSans-48"/>
       <use x="159.033203" xlink:href="#DejaVuSans-49"/>
      </g>
     </g>
    </g>
    <g id="ytick_19">
     <g id="line2d_52">
      <g>
       <use style="stroke:#000000;stroke-width:0.8;" x="929.431067" xlink:href="#mc15dfc8d30" y="48.623816"/>
      </g>
     </g>
     <g id="text_46">
      <!-- 0.02 -->
      <g transform="translate(900.165442 52.423035)scale(0.1 -0.1)">
       <use xlink:href="#DejaVuSans-48"/>
       <use x="63.623047" xlink:href="#DejaVuSans-46"/>
       <use x="95.410156" xlink:href="#DejaVuSans-48"/>
       <use x="159.033203" xlink:href="#DejaVuSans-50"/>
      </g>
     </g>
    </g>
   </g>
   <g id="line2d_53">
    <path clip-path="url(#pa5cbde5f3d)" d="M 947.1602 289.665477 
L 958.598351 67.053264 
L 970.036501 228.401466 
L 981.474652 189.62701 
L 992.912802 329.129099 
L 1004.350953 85.485317 
L 1015.789103 206.554481 
L 1027.227254 62.718 
L 1038.665404 63.349262 
L 1050.103555 105.261973 
L 1061.541705 223.175464 
L 1072.979856 125.128391 
L 1084.418006 271.22167 
L 1095.856157 161.504561 
L 1107.294308 71.92967 
L 1118.732458 159.783559 
L 1130.170609 309.338294 
L 1141.608759 220.929027 
L 1153.04691 143.635287 
L 1164.48506 223.787135 
L 1175.923211 75.119513 
L 1187.361361 221.517198 
L 1198.799512 206.449557 
L 1210.237662 215.537162 
L 1221.675813 223.330016 
L 1233.113963 138.622968 
L 1244.552114 181.140636 
L 1255.990265 63.793755 
L 1267.428415 60.587378 
L 1278.866566 230.301359 
L 1290.304716 266.031802 
L 1301.742867 228.943917 
" style="fill:none;stroke:#1f77b4;stroke-linecap:square;stroke-opacity:0.5;stroke-width:1.5;"/>
   </g>
   <g id="line2d_54">
    <path clip-path="url(#pa5cbde5f3d)" d="M 947.1602 295.867071 
L 958.598351 74.775832 
L 970.036501 223.256985 
L 981.474652 182.684141 
L 992.912802 277.621281 
L 1004.350953 87.450326 
L 1015.789103 180.190215 
L 1027.227254 49.341386 
L 1038.665404 73.336131 
L 1050.103555 134.161009 
L 1061.541705 223.612375 
L 1072.979856 121.474131 
L 1084.418006 226.506333 
L 1095.856157 153.575492 
L 1107.294308 94.613414 
L 1118.732458 143.046907 
L 1130.170609 285.144369 
L 1141.608759 181.204025 
L 1153.04691 191.01894 
L 1164.48506 223.414496 
L 1175.923211 99.367161 
L 1187.361361 236.348839 
L 1198.799512 181.826087 
L 1210.237662 181.435609 
L 1221.675813 229.834144 
L 1233.113963 134.521946 
L 1244.552114 183.678153 
L 1255.990265 73.776108 
L 1267.428415 123.729532 
L 1278.866566 225.416183 
L 1290.304716 229.95553 
L 1301.742867 233.14474 
" style="fill:none;stroke:#ff7f0e;stroke-dasharray:5.55,2.4;stroke-dashoffset:0;stroke-opacity:0.5;stroke-width:1.5;"/>
   </g>
   <g id="patch_15">
    <path d="M 929.431067 343.118485 
L 929.431067 35.352 
" style="fill:none;stroke:#000000;stroke-linecap:square;stroke-linejoin:miter;stroke-width:0.8;"/>
   </g>
   <g id="patch_16">
    <path d="M 1319.472 343.118485 
L 1319.472 35.352 
" style="fill:none;stroke:#000000;stroke-linecap:square;stroke-linejoin:miter;stroke-width:0.8;"/>
   </g>
   <g id="patch_17">
    <path d="M 929.431067 343.118485 
L 1319.472 343.118485 
" style="fill:none;stroke:#000000;stroke-linecap:square;stroke-linejoin:miter;stroke-width:0.8;"/>
   </g>
   <g id="patch_18">
    <path d="M 929.431067 35.352 
L 1319.472 35.352 
" style="fill:none;stroke:#000000;stroke-linecap:square;stroke-linejoin:miter;stroke-width:0.8;"/>
   </g>
   <g id="text_47">
    <!-- translation_z -->
    <defs>
     <path d="M 5.515625 54.6875 
L 48.1875 54.6875 
L 48.1875 46.484375 
L 14.40625 7.171875 
L 48.1875 7.171875 
L 48.1875 0 
L 4.296875 0 
L 4.296875 8.203125 
L 38.09375 47.515625 
L 5.515625 47.515625 
z
" id="DejaVuSans-122"/>
    </defs>
    <g transform="translate(1086.042158 29.352)scale(0.12 -0.12)">
     <use xlink:href="#DejaVuSans-116"/>
     <use x="39.208984" xlink:href="#DejaVuSans-114"/>
     <use x="80.322266" xlink:href="#DejaVuSans-97"/>
     <use x="141.601562" xlink:href="#DejaVuSans-110"/>
     <use x="204.980469" xlink:href="#DejaVuSans-115"/>
     <use x="257.080078" xlink:href="#DejaVuSans-108"/>
     <use x="284.863281" xlink:href="#DejaVuSans-97"/>
     <use x="346.142578" xlink:href="#DejaVuSans-116"/>
     <use x="385.351562" xlink:href="#DejaVuSans-105"/>
     <use x="413.134766" xlink:href="#DejaVuSans-111"/>
     <use x="474.316406" xlink:href="#DejaVuSans-110"/>
     <use x="537.695312" xlink:href="#DejaVuSans-95"/>
     <use x="587.695312" xlink:href="#DejaVuSans-122"/>
    </g>
   </g>
   <g id="legend_3">
    <g id="patch_19">
     <path d="M 1233.136062 338.118485 
L 1312.472 338.118485 
Q 1314.472 338.118485 1314.472 336.118485 
L 1314.472 307.762235 
Q 1314.472 305.762235 1312.472 305.762235 
L 1233.136062 305.762235 
Q 1231.136062 305.762235 1231.136062 307.762235 
L 1231.136062 336.118485 
Q 1231.136062 338.118485 1233.136062 338.118485 
z
" style="fill:#ffffff;opacity:0.8;stroke:#cccccc;stroke-linejoin:miter;"/>
    </g>
    <g id="line2d_55">
     <path d="M 1235.136062 313.860672 
L 1255.136062 313.860672 
" style="fill:none;stroke:#1f77b4;stroke-linecap:square;stroke-opacity:0.5;stroke-width:1.5;"/>
    </g>
    <g id="line2d_56"/>
    <g id="text_48">
     <!-- True -->
     <g transform="translate(1263.136062 317.360672)scale(0.1 -0.1)">
      <use xlink:href="#DejaVuSans-84"/>
      <use x="60.865234" xlink:href="#DejaVuSans-114"/>
      <use x="101.978516" xlink:href="#DejaVuSans-117"/>
      <use x="165.357422" xlink:href="#DejaVuSans-101"/>
     </g>
    </g>
    <g id="line2d_57">
     <path d="M 1235.136062 328.538797 
L 1255.136062 328.538797 
" style="fill:none;stroke:#ff7f0e;stroke-dasharray:5.55,2.4;stroke-dashoffset:0;stroke-opacity:0.5;stroke-width:1.5;"/>
    </g>
    <g id="line2d_58"/>
    <g id="text_49">
     <!-- Predicted -->
     <g transform="translate(1263.136062 332.038797)scale(0.1 -0.1)">
      <use xlink:href="#DejaVuSans-80"/>
      <use x="60.287109" xlink:href="#DejaVuSans-114"/>
      <use x="101.369141" xlink:href="#DejaVuSans-101"/>
      <use x="162.892578" xlink:href="#DejaVuSans-100"/>
      <use x="226.369141" xlink:href="#DejaVuSans-105"/>
      <use x="254.152344" xlink:href="#DejaVuSans-99"/>
      <use x="309.132812" xlink:href="#DejaVuSans-116"/>
      <use x="348.341797" xlink:href="#DejaVuSans-101"/>
      <use x="409.865234" xlink:href="#DejaVuSans-100"/>
     </g>
    </g>
   </g>
  </g>
  <g id="axes_4">
   <g id="patch_20">
    <path d="M 49.783067 684.224867 
L 439.824 684.224867 
L 439.824 376.458382 
L 49.783067 376.458382 
z
" style="fill:#ffffff;"/>
   </g>
   <g id="matplotlib.axis_7">
    <g id="xtick_22">
     <g id="line2d_59">
      <g>
       <use style="stroke:#000000;stroke-width:0.8;" x="67.5122" xlink:href="#m30db6c4e77" y="684.224867"/>
      </g>
     </g>
     <g id="text_50">
      <!-- 0 -->
      <g transform="translate(64.33095 698.823304)scale(0.1 -0.1)">
       <use xlink:href="#DejaVuSans-48"/>
      </g>
     </g>
    </g>
    <g id="xtick_23">
     <g id="line2d_60">
      <g>
       <use style="stroke:#000000;stroke-width:0.8;" x="124.702953" xlink:href="#m30db6c4e77" y="684.224867"/>
      </g>
     </g>
     <g id="text_51">
      <!-- 5 -->
      <g transform="translate(121.521703 698.823304)scale(0.1 -0.1)">
       <use xlink:href="#DejaVuSans-53"/>
      </g>
     </g>
    </g>
    <g id="xtick_24">
     <g id="line2d_61">
      <g>
       <use style="stroke:#000000;stroke-width:0.8;" x="181.893705" xlink:href="#m30db6c4e77" y="684.224867"/>
      </g>
     </g>
     <g id="text_52">
      <!-- 10 -->
      <g transform="translate(175.531205 698.823304)scale(0.1 -0.1)">
       <use xlink:href="#DejaVuSans-49"/>
       <use x="63.623047" xlink:href="#DejaVuSans-48"/>
      </g>
     </g>
    </g>
    <g id="xtick_25">
     <g id="line2d_62">
      <g>
       <use style="stroke:#000000;stroke-width:0.8;" x="239.084458" xlink:href="#m30db6c4e77" y="684.224867"/>
      </g>
     </g>
     <g id="text_53">
      <!-- 15 -->
      <g transform="translate(232.721958 698.823304)scale(0.1 -0.1)">
       <use xlink:href="#DejaVuSans-49"/>
       <use x="63.623047" xlink:href="#DejaVuSans-53"/>
      </g>
     </g>
    </g>
    <g id="xtick_26">
     <g id="line2d_63">
      <g>
       <use style="stroke:#000000;stroke-width:0.8;" x="296.275211" xlink:href="#m30db6c4e77" y="684.224867"/>
      </g>
     </g>
     <g id="text_54">
      <!-- 20 -->
      <g transform="translate(289.912711 698.823304)scale(0.1 -0.1)">
       <use xlink:href="#DejaVuSans-50"/>
       <use x="63.623047" xlink:href="#DejaVuSans-48"/>
      </g>
     </g>
    </g>
    <g id="xtick_27">
     <g id="line2d_64">
      <g>
       <use style="stroke:#000000;stroke-width:0.8;" x="353.465963" xlink:href="#m30db6c4e77" y="684.224867"/>
      </g>
     </g>
     <g id="text_55">
      <!-- 25 -->
      <g transform="translate(347.103463 698.823304)scale(0.1 -0.1)">
       <use xlink:href="#DejaVuSans-50"/>
       <use x="63.623047" xlink:href="#DejaVuSans-53"/>
      </g>
     </g>
    </g>
    <g id="xtick_28">
     <g id="line2d_65">
      <g>
       <use style="stroke:#000000;stroke-width:0.8;" x="410.656716" xlink:href="#m30db6c4e77" y="684.224867"/>
      </g>
     </g>
     <g id="text_56">
      <!-- 30 -->
      <g transform="translate(404.294216 698.823304)scale(0.1 -0.1)">
       <use xlink:href="#DejaVuSans-51"/>
       <use x="63.623047" xlink:href="#DejaVuSans-48"/>
      </g>
     </g>
    </g>
   </g>
   <g id="matplotlib.axis_8">
    <g id="ytick_20">
     <g id="line2d_66">
      <g>
       <use style="stroke:#000000;stroke-width:0.8;" x="49.783067" xlink:href="#mc15dfc8d30" y="671.797958"/>
      </g>
     </g>
     <g id="text_57">
      <!-- −5 -->
      <g transform="translate(28.040879 675.597177)scale(0.1 -0.1)">
       <use xlink:href="#DejaVuSans-8722"/>
       <use x="83.789062" xlink:href="#DejaVuSans-53"/>
      </g>
     </g>
    </g>
    <g id="ytick_21">
     <g id="line2d_67">
      <g>
       <use style="stroke:#000000;stroke-width:0.8;" x="49.783067" xlink:href="#mc15dfc8d30" y="627.743513"/>
      </g>
     </g>
     <g id="text_58">
      <!-- 0 -->
      <g transform="translate(36.420567 631.542732)scale(0.1 -0.1)">
       <use xlink:href="#DejaVuSans-48"/>
      </g>
     </g>
    </g>
    <g id="ytick_22">
     <g id="line2d_68">
      <g>
       <use style="stroke:#000000;stroke-width:0.8;" x="49.783067" xlink:href="#mc15dfc8d30" y="583.689068"/>
      </g>
     </g>
     <g id="text_59">
      <!-- 5 -->
      <g transform="translate(36.420567 587.488287)scale(0.1 -0.1)">
       <use xlink:href="#DejaVuSans-53"/>
      </g>
     </g>
    </g>
    <g id="ytick_23">
     <g id="line2d_69">
      <g>
       <use style="stroke:#000000;stroke-width:0.8;" x="49.783067" xlink:href="#mc15dfc8d30" y="539.634624"/>
      </g>
     </g>
     <g id="text_60">
      <!-- 10 -->
      <g transform="translate(30.058067 543.433842)scale(0.1 -0.1)">
       <use xlink:href="#DejaVuSans-49"/>
       <use x="63.623047" xlink:href="#DejaVuSans-48"/>
      </g>
     </g>
    </g>
    <g id="ytick_24">
     <g id="line2d_70">
      <g>
       <use style="stroke:#000000;stroke-width:0.8;" x="49.783067" xlink:href="#mc15dfc8d30" y="495.580179"/>
      </g>
     </g>
     <g id="text_61">
      <!-- 15 -->
      <g transform="translate(30.058067 499.379397)scale(0.1 -0.1)">
       <use xlink:href="#DejaVuSans-49"/>
       <use x="63.623047" xlink:href="#DejaVuSans-53"/>
      </g>
     </g>
    </g>
    <g id="ytick_25">
     <g id="line2d_71">
      <g>
       <use style="stroke:#000000;stroke-width:0.8;" x="49.783067" xlink:href="#mc15dfc8d30" y="451.525734"/>
      </g>
     </g>
     <g id="text_62">
      <!-- 20 -->
      <g transform="translate(30.058067 455.324953)scale(0.1 -0.1)">
       <use xlink:href="#DejaVuSans-50"/>
       <use x="63.623047" xlink:href="#DejaVuSans-48"/>
      </g>
     </g>
    </g>
    <g id="ytick_26">
     <g id="line2d_72">
      <g>
       <use style="stroke:#000000;stroke-width:0.8;" x="49.783067" xlink:href="#mc15dfc8d30" y="407.471289"/>
      </g>
     </g>
     <g id="text_63">
      <!-- 25 -->
      <g transform="translate(30.058067 411.270508)scale(0.1 -0.1)">
       <use xlink:href="#DejaVuSans-50"/>
       <use x="63.623047" xlink:href="#DejaVuSans-53"/>
      </g>
     </g>
    </g>
   </g>
   <g id="line2d_73">
    <path clip-path="url(#pf042a30c2c)" d="M 67.5122 621.61636 
L 78.950351 424.241048 
L 90.388501 637.432142 
L 101.826652 612.025506 
L 113.264802 621.831653 
L 124.702953 482.472223 
L 136.141103 613.359735 
L 147.579254 654.42535 
L 159.017404 418.294579 
L 170.455555 615.824497 
L 181.893705 637.335578 
L 193.331856 574.090135 
L 204.770006 390.447768 
L 216.208157 484.643217 
L 227.646308 652.438229 
L 239.084458 637.847135 
L 250.522609 622.048552 
L 261.960759 624.656142 
L 273.39891 606.113046 
L 284.83706 637.286497 
L 296.275211 652.005174 
L 307.713361 637.834712 
L 319.151512 614.287259 
L 330.589662 613.781249 
L 342.027813 637.57382 
L 353.465963 577.571314 
L 364.904114 611.819418 
L 376.342265 411.621224 
L 387.780415 656.51327 
L 399.218566 621.35842 
L 410.656716 397.631302 
L 422.094867 637.666426 
" style="fill:none;stroke:#1f77b4;stroke-linecap:square;stroke-opacity:0.5;stroke-width:1.5;"/>
   </g>
   <g id="line2d_74">
    <path clip-path="url(#pf042a30c2c)" d="M 67.5122 621.883279 
L 78.950351 459.830409 
L 90.388501 639.236773 
L 101.826652 612.359033 
L 113.264802 618.103223 
L 124.702953 474.080832 
L 136.141103 613.371493 
L 147.579254 652.719401 
L 159.017404 446.628865 
L 170.455555 616.294744 
L 181.893705 639.797368 
L 193.331856 570.051406 
L 204.770006 410.846812 
L 216.208157 480.211842 
L 227.646308 663.165408 
L 239.084458 641.379226 
L 250.522609 619.46705 
L 261.960759 616.534923 
L 273.39891 612.339389 
L 284.83706 639.492812 
L 296.275211 670.235481 
L 307.713361 634.979254 
L 319.151512 616.059926 
L 330.589662 613.621995 
L 342.027813 643.153755 
L 353.465963 589.91592 
L 364.904114 612.377565 
L 376.342265 446.260943 
L 387.780415 642.008914 
L 399.218566 620.445731 
L 410.656716 411.045016 
L 422.094867 645.153538 
" style="fill:none;stroke:#ff7f0e;stroke-dasharray:5.55,2.4;stroke-dashoffset:0;stroke-opacity:0.5;stroke-width:1.5;"/>
   </g>
   <g id="patch_21">
    <path d="M 49.783067 684.224867 
L 49.783067 376.458382 
" style="fill:none;stroke:#000000;stroke-linecap:square;stroke-linejoin:miter;stroke-width:0.8;"/>
   </g>
   <g id="patch_22">
    <path d="M 439.824 684.224867 
L 439.824 376.458382 
" style="fill:none;stroke:#000000;stroke-linecap:square;stroke-linejoin:miter;stroke-width:0.8;"/>
   </g>
   <g id="patch_23">
    <path d="M 49.783067 684.224867 
L 439.824 684.224867 
" style="fill:none;stroke:#000000;stroke-linecap:square;stroke-linejoin:miter;stroke-width:0.8;"/>
   </g>
   <g id="patch_24">
    <path d="M 49.783067 376.458382 
L 439.824 376.458382 
" style="fill:none;stroke:#000000;stroke-linecap:square;stroke-linejoin:miter;stroke-width:0.8;"/>
   </g>
   <g id="text_64">
    <!-- rpy_x -->
    <defs>
     <path d="M 18.109375 8.203125 
L 18.109375 -20.796875 
L 9.078125 -20.796875 
L 9.078125 54.6875 
L 18.109375 54.6875 
L 18.109375 46.390625 
Q 20.953125 51.265625 25.265625 53.625 
Q 29.59375 56 35.59375 56 
Q 45.5625 56 51.78125 48.09375 
Q 58.015625 40.1875 58.015625 27.296875 
Q 58.015625 14.40625 51.78125 6.484375 
Q 45.5625 -1.421875 35.59375 -1.421875 
Q 29.59375 -1.421875 25.265625 0.953125 
Q 20.953125 3.328125 18.109375 8.203125 
z
M 48.6875 27.296875 
Q 48.6875 37.203125 44.609375 42.84375 
Q 40.53125 48.484375 33.40625 48.484375 
Q 26.265625 48.484375 22.1875 42.84375 
Q 18.109375 37.203125 18.109375 27.296875 
Q 18.109375 17.390625 22.1875 11.75 
Q 26.265625 6.109375 33.40625 6.109375 
Q 40.53125 6.109375 44.609375 11.75 
Q 48.6875 17.390625 48.6875 27.296875 
z
" id="DejaVuSans-112"/>
    </defs>
    <g transform="translate(228.425408 370.458382)scale(0.12 -0.12)">
     <use xlink:href="#DejaVuSans-114"/>
     <use x="41.113281" xlink:href="#DejaVuSans-112"/>
     <use x="104.589844" xlink:href="#DejaVuSans-121"/>
     <use x="163.769531" xlink:href="#DejaVuSans-95"/>
     <use x="213.769531" xlink:href="#DejaVuSans-120"/>
    </g>
   </g>
   <g id="legend_4">
    <g id="patch_25">
     <path d="M 56.783067 413.814632 
L 136.119004 413.814632 
Q 138.119004 413.814632 138.119004 411.814632 
L 138.119004 383.458382 
Q 138.119004 381.458382 136.119004 381.458382 
L 56.783067 381.458382 
Q 54.783067 381.458382 54.783067 383.458382 
L 54.783067 411.814632 
Q 54.783067 413.814632 56.783067 413.814632 
z
" style="fill:#ffffff;opacity:0.8;stroke:#cccccc;stroke-linejoin:miter;"/>
    </g>
    <g id="line2d_75">
     <path d="M 58.783067 389.55682 
L 78.783067 389.55682 
" style="fill:none;stroke:#1f77b4;stroke-linecap:square;stroke-opacity:0.5;stroke-width:1.5;"/>
    </g>
    <g id="line2d_76"/>
    <g id="text_65">
     <!-- True -->
     <g transform="translate(86.783067 393.05682)scale(0.1 -0.1)">
      <use xlink:href="#DejaVuSans-84"/>
      <use x="60.865234" xlink:href="#DejaVuSans-114"/>
      <use x="101.978516" xlink:href="#DejaVuSans-117"/>
      <use x="165.357422" xlink:href="#DejaVuSans-101"/>
     </g>
    </g>
    <g id="line2d_77">
     <path d="M 58.783067 404.234945 
L 78.783067 404.234945 
" style="fill:none;stroke:#ff7f0e;stroke-dasharray:5.55,2.4;stroke-dashoffset:0;stroke-opacity:0.5;stroke-width:1.5;"/>
    </g>
    <g id="line2d_78"/>
    <g id="text_66">
     <!-- Predicted -->
     <g transform="translate(86.783067 407.734945)scale(0.1 -0.1)">
      <use xlink:href="#DejaVuSans-80"/>
      <use x="60.287109" xlink:href="#DejaVuSans-114"/>
      <use x="101.369141" xlink:href="#DejaVuSans-101"/>
      <use x="162.892578" xlink:href="#DejaVuSans-100"/>
      <use x="226.369141" xlink:href="#DejaVuSans-105"/>
      <use x="254.152344" xlink:href="#DejaVuSans-99"/>
      <use x="309.132812" xlink:href="#DejaVuSans-116"/>
      <use x="348.341797" xlink:href="#DejaVuSans-101"/>
      <use x="409.865234" xlink:href="#DejaVuSans-100"/>
     </g>
    </g>
   </g>
  </g>
  <g id="axes_5">
   <g id="patch_26">
    <path d="M 489.607067 684.224867 
L 879.648 684.224867 
L 879.648 376.458382 
L 489.607067 376.458382 
z
" style="fill:#ffffff;"/>
   </g>
   <g id="matplotlib.axis_9">
    <g id="xtick_29">
     <g id="line2d_79">
      <g>
       <use style="stroke:#000000;stroke-width:0.8;" x="507.3362" xlink:href="#m30db6c4e77" y="684.224867"/>
      </g>
     </g>
     <g id="text_67">
      <!-- 0 -->
      <g transform="translate(504.15495 698.823304)scale(0.1 -0.1)">
       <use xlink:href="#DejaVuSans-48"/>
      </g>
     </g>
    </g>
    <g id="xtick_30">
     <g id="line2d_80">
      <g>
       <use style="stroke:#000000;stroke-width:0.8;" x="564.526953" xlink:href="#m30db6c4e77" y="684.224867"/>
      </g>
     </g>
     <g id="text_68">
      <!-- 5 -->
      <g transform="translate(561.345703 698.823304)scale(0.1 -0.1)">
       <use xlink:href="#DejaVuSans-53"/>
      </g>
     </g>
    </g>
    <g id="xtick_31">
     <g id="line2d_81">
      <g>
       <use style="stroke:#000000;stroke-width:0.8;" x="621.717705" xlink:href="#m30db6c4e77" y="684.224867"/>
      </g>
     </g>
     <g id="text_69">
      <!-- 10 -->
      <g transform="translate(615.355205 698.823304)scale(0.1 -0.1)">
       <use xlink:href="#DejaVuSans-49"/>
       <use x="63.623047" xlink:href="#DejaVuSans-48"/>
      </g>
     </g>
    </g>
    <g id="xtick_32">
     <g id="line2d_82">
      <g>
       <use style="stroke:#000000;stroke-width:0.8;" x="678.908458" xlink:href="#m30db6c4e77" y="684.224867"/>
      </g>
     </g>
     <g id="text_70">
      <!-- 15 -->
      <g transform="translate(672.545958 698.823304)scale(0.1 -0.1)">
       <use xlink:href="#DejaVuSans-49"/>
       <use x="63.623047" xlink:href="#DejaVuSans-53"/>
      </g>
     </g>
    </g>
    <g id="xtick_33">
     <g id="line2d_83">
      <g>
       <use style="stroke:#000000;stroke-width:0.8;" x="736.099211" xlink:href="#m30db6c4e77" y="684.224867"/>
      </g>
     </g>
     <g id="text_71">
      <!-- 20 -->
      <g transform="translate(729.736711 698.823304)scale(0.1 -0.1)">
       <use xlink:href="#DejaVuSans-50"/>
       <use x="63.623047" xlink:href="#DejaVuSans-48"/>
      </g>
     </g>
    </g>
    <g id="xtick_34">
     <g id="line2d_84">
      <g>
       <use style="stroke:#000000;stroke-width:0.8;" x="793.289963" xlink:href="#m30db6c4e77" y="684.224867"/>
      </g>
     </g>
     <g id="text_72">
      <!-- 25 -->
      <g transform="translate(786.927463 698.823304)scale(0.1 -0.1)">
       <use xlink:href="#DejaVuSans-50"/>
       <use x="63.623047" xlink:href="#DejaVuSans-53"/>
      </g>
     </g>
    </g>
    <g id="xtick_35">
     <g id="line2d_85">
      <g>
       <use style="stroke:#000000;stroke-width:0.8;" x="850.480716" xlink:href="#m30db6c4e77" y="684.224867"/>
      </g>
     </g>
     <g id="text_73">
      <!-- 30 -->
      <g transform="translate(844.118216 698.823304)scale(0.1 -0.1)">
       <use xlink:href="#DejaVuSans-51"/>
       <use x="63.623047" xlink:href="#DejaVuSans-48"/>
      </g>
     </g>
    </g>
   </g>
   <g id="matplotlib.axis_10">
    <g id="ytick_27">
     <g id="line2d_86">
      <g>
       <use style="stroke:#000000;stroke-width:0.8;" x="489.607067" xlink:href="#mc15dfc8d30" y="653.435743"/>
      </g>
     </g>
     <g id="text_74">
      <!-- 0 -->
      <g transform="translate(476.244567 657.234962)scale(0.1 -0.1)">
       <use xlink:href="#DejaVuSans-48"/>
      </g>
     </g>
    </g>
    <g id="ytick_28">
     <g id="line2d_87">
      <g>
       <use style="stroke:#000000;stroke-width:0.8;" x="489.607067" xlink:href="#mc15dfc8d30" y="589.567899"/>
      </g>
     </g>
     <g id="text_75">
      <!-- 20 -->
      <g transform="translate(469.882067 593.367118)scale(0.1 -0.1)">
       <use xlink:href="#DejaVuSans-50"/>
       <use x="63.623047" xlink:href="#DejaVuSans-48"/>
      </g>
     </g>
    </g>
    <g id="ytick_29">
     <g id="line2d_88">
      <g>
       <use style="stroke:#000000;stroke-width:0.8;" x="489.607067" xlink:href="#mc15dfc8d30" y="525.700055"/>
      </g>
     </g>
     <g id="text_76">
      <!-- 40 -->
      <g transform="translate(469.882067 529.499274)scale(0.1 -0.1)">
       <use xlink:href="#DejaVuSans-52"/>
       <use x="63.623047" xlink:href="#DejaVuSans-48"/>
      </g>
     </g>
    </g>
    <g id="ytick_30">
     <g id="line2d_89">
      <g>
       <use style="stroke:#000000;stroke-width:0.8;" x="489.607067" xlink:href="#mc15dfc8d30" y="461.832212"/>
      </g>
     </g>
     <g id="text_77">
      <!-- 60 -->
      <defs>
       <path d="M 33.015625 40.375 
Q 26.375 40.375 22.484375 35.828125 
Q 18.609375 31.296875 18.609375 23.390625 
Q 18.609375 15.53125 22.484375 10.953125 
Q 26.375 6.390625 33.015625 6.390625 
Q 39.65625 6.390625 43.53125 10.953125 
Q 47.40625 15.53125 47.40625 23.390625 
Q 47.40625 31.296875 43.53125 35.828125 
Q 39.65625 40.375 33.015625 40.375 
z
M 52.59375 71.296875 
L 52.59375 62.3125 
Q 48.875 64.0625 45.09375 64.984375 
Q 41.3125 65.921875 37.59375 65.921875 
Q 27.828125 65.921875 22.671875 59.328125 
Q 17.53125 52.734375 16.796875 39.40625 
Q 19.671875 43.65625 24.015625 45.921875 
Q 28.375 48.1875 33.59375 48.1875 
Q 44.578125 48.1875 50.953125 41.515625 
Q 57.328125 34.859375 57.328125 23.390625 
Q 57.328125 12.15625 50.6875 5.359375 
Q 44.046875 -1.421875 33.015625 -1.421875 
Q 20.359375 -1.421875 13.671875 8.265625 
Q 6.984375 17.96875 6.984375 36.375 
Q 6.984375 53.65625 15.1875 63.9375 
Q 23.390625 74.21875 37.203125 74.21875 
Q 40.921875 74.21875 44.703125 73.484375 
Q 48.484375 72.75 52.59375 71.296875 
z
" id="DejaVuSans-54"/>
      </defs>
      <g transform="translate(469.882067 465.63143)scale(0.1 -0.1)">
       <use xlink:href="#DejaVuSans-54"/>
       <use x="63.623047" xlink:href="#DejaVuSans-48"/>
      </g>
     </g>
    </g>
    <g id="ytick_31">
     <g id="line2d_90">
      <g>
       <use style="stroke:#000000;stroke-width:0.8;" x="489.607067" xlink:href="#mc15dfc8d30" y="397.964368"/>
      </g>
     </g>
     <g id="text_78">
      <!-- 80 -->
      <defs>
       <path d="M 31.78125 34.625 
Q 24.75 34.625 20.71875 30.859375 
Q 16.703125 27.09375 16.703125 20.515625 
Q 16.703125 13.921875 20.71875 10.15625 
Q 24.75 6.390625 31.78125 6.390625 
Q 38.8125 6.390625 42.859375 10.171875 
Q 46.921875 13.96875 46.921875 20.515625 
Q 46.921875 27.09375 42.890625 30.859375 
Q 38.875 34.625 31.78125 34.625 
z
M 21.921875 38.8125 
Q 15.578125 40.375 12.03125 44.71875 
Q 8.5 49.078125 8.5 55.328125 
Q 8.5 64.0625 14.71875 69.140625 
Q 20.953125 74.21875 31.78125 74.21875 
Q 42.671875 74.21875 48.875 69.140625 
Q 55.078125 64.0625 55.078125 55.328125 
Q 55.078125 49.078125 51.53125 44.71875 
Q 48 40.375 41.703125 38.8125 
Q 48.828125 37.15625 52.796875 32.3125 
Q 56.78125 27.484375 56.78125 20.515625 
Q 56.78125 9.90625 50.3125 4.234375 
Q 43.84375 -1.421875 31.78125 -1.421875 
Q 19.734375 -1.421875 13.25 4.234375 
Q 6.78125 9.90625 6.78125 20.515625 
Q 6.78125 27.484375 10.78125 32.3125 
Q 14.796875 37.15625 21.921875 38.8125 
z
M 18.3125 54.390625 
Q 18.3125 48.734375 21.84375 45.5625 
Q 25.390625 42.390625 31.78125 42.390625 
Q 38.140625 42.390625 41.71875 45.5625 
Q 45.3125 48.734375 45.3125 54.390625 
Q 45.3125 60.0625 41.71875 63.234375 
Q 38.140625 66.40625 31.78125 66.40625 
Q 25.390625 66.40625 21.84375 63.234375 
Q 18.3125 60.0625 18.3125 54.390625 
z
" id="DejaVuSans-56"/>
      </defs>
      <g transform="translate(469.882067 401.763586)scale(0.1 -0.1)">
       <use xlink:href="#DejaVuSans-56"/>
       <use x="63.623047" xlink:href="#DejaVuSans-48"/>
      </g>
     </g>
    </g>
   </g>
   <g id="line2d_91">
    <path clip-path="url(#pf7e198d1b0)" d="M 507.3362 650.617877 
L 518.774351 391.374488 
L 530.212501 640.544946 
L 541.650652 654.587337 
L 553.088802 651.208635 
L 564.526953 403.529488 
L 575.965103 653.501595 
L 587.403254 660.320475 
L 598.841404 391.991449 
L 610.279555 646.956733 
L 621.717705 657.331719 
L 633.155856 417.754472 
L 644.594006 410.760619 
L 656.032157 429.136341 
L 667.470308 657.693879 
L 678.908458 650.782149 
L 690.346609 650.794989 
L 701.784759 645.173643 
L 713.22291 655.672012 
L 724.66106 640.622611 
L 736.099211 657.704282 
L 747.537361 657.329161 
L 758.975512 651.538774 
L 770.413662 653.067386 
L 781.851813 639.994309 
L 793.289963 424.0745 
L 804.728114 654.529168 
L 816.166265 390.447768 
L 827.604415 659.947772 
L 839.042566 640.908671 
L 850.480716 412.627143 
L 861.918867 639.771917 
" style="fill:none;stroke:#1f77b4;stroke-linecap:square;stroke-opacity:0.5;stroke-width:1.5;"/>
   </g>
   <g id="line2d_92">
    <path clip-path="url(#pf7e198d1b0)" d="M 507.3362 637.667647 
L 518.774351 403.945619 
L 530.212501 646.266895 
L 541.650652 649.444049 
L 553.088802 641.277353 
L 564.526953 406.256121 
L 575.965103 649.217783 
L 587.403254 660.586989 
L 598.841404 407.344689 
L 610.279555 654.485832 
L 621.717705 650.743039 
L 633.155856 414.180983 
L 644.594006 418.375063 
L 656.032157 421.090416 
L 667.470308 650.866258 
L 678.908458 643.605032 
L 690.346609 639.074672 
L 701.784759 649.554982 
L 713.22291 645.308112 
L 724.66106 646.661781 
L 736.099211 648.750038 
L 747.537361 650.80164 
L 758.975512 649.783958 
L 770.413662 649.482391 
L 781.851813 644.564399 
L 793.289963 418.109232 
L 804.728114 649.779372 
L 816.166265 406.038408 
L 827.604415 670.235481 
L 839.042566 639.98273 
L 850.480716 419.513698 
L 861.918867 644.075263 
" style="fill:none;stroke:#ff7f0e;stroke-dasharray:5.55,2.4;stroke-dashoffset:0;stroke-opacity:0.5;stroke-width:1.5;"/>
   </g>
   <g id="patch_27">
    <path d="M 489.607067 684.224867 
L 489.607067 376.458382 
" style="fill:none;stroke:#000000;stroke-linecap:square;stroke-linejoin:miter;stroke-width:0.8;"/>
   </g>
   <g id="patch_28">
    <path d="M 879.648 684.224867 
L 879.648 376.458382 
" style="fill:none;stroke:#000000;stroke-linecap:square;stroke-linejoin:miter;stroke-width:0.8;"/>
   </g>
   <g id="patch_29">
    <path d="M 489.607067 684.224867 
L 879.648 684.224867 
" style="fill:none;stroke:#000000;stroke-linecap:square;stroke-linejoin:miter;stroke-width:0.8;"/>
   </g>
   <g id="patch_30">
    <path d="M 489.607067 376.458382 
L 879.648 376.458382 
" style="fill:none;stroke:#000000;stroke-linecap:square;stroke-linejoin:miter;stroke-width:0.8;"/>
   </g>
   <g id="text_79">
    <!-- rpy_y -->
    <g transform="translate(668.249408 370.458382)scale(0.12 -0.12)">
     <use xlink:href="#DejaVuSans-114"/>
     <use x="41.113281" xlink:href="#DejaVuSans-112"/>
     <use x="104.589844" xlink:href="#DejaVuSans-121"/>
     <use x="163.769531" xlink:href="#DejaVuSans-95"/>
     <use x="213.769531" xlink:href="#DejaVuSans-121"/>
    </g>
   </g>
   <g id="legend_5">
    <g id="patch_31">
     <path d="M 793.312062 546.519749 
L 872.648 546.519749 
Q 874.648 546.519749 874.648 544.519749 
L 874.648 516.163499 
Q 874.648 514.163499 872.648 514.163499 
L 793.312062 514.163499 
Q 791.312062 514.163499 791.312062 516.163499 
L 791.312062 544.519749 
Q 791.312062 546.519749 793.312062 546.519749 
z
" style="fill:#ffffff;opacity:0.8;stroke:#cccccc;stroke-linejoin:miter;"/>
    </g>
    <g id="line2d_93">
     <path d="M 795.312062 522.261937 
L 815.312062 522.261937 
" style="fill:none;stroke:#1f77b4;stroke-linecap:square;stroke-opacity:0.5;stroke-width:1.5;"/>
    </g>
    <g id="line2d_94"/>
    <g id="text_80">
     <!-- True -->
     <g transform="translate(823.312062 525.761937)scale(0.1 -0.1)">
      <use xlink:href="#DejaVuSans-84"/>
      <use x="60.865234" xlink:href="#DejaVuSans-114"/>
      <use x="101.978516" xlink:href="#DejaVuSans-117"/>
      <use x="165.357422" xlink:href="#DejaVuSans-101"/>
     </g>
    </g>
    <g id="line2d_95">
     <path d="M 795.312062 536.940062 
L 815.312062 536.940062 
" style="fill:none;stroke:#ff7f0e;stroke-dasharray:5.55,2.4;stroke-dashoffset:0;stroke-opacity:0.5;stroke-width:1.5;"/>
    </g>
    <g id="line2d_96"/>
    <g id="text_81">
     <!-- Predicted -->
     <g transform="translate(823.312062 540.440062)scale(0.1 -0.1)">
      <use xlink:href="#DejaVuSans-80"/>
      <use x="60.287109" xlink:href="#DejaVuSans-114"/>
      <use x="101.369141" xlink:href="#DejaVuSans-101"/>
      <use x="162.892578" xlink:href="#DejaVuSans-100"/>
      <use x="226.369141" xlink:href="#DejaVuSans-105"/>
      <use x="254.152344" xlink:href="#DejaVuSans-99"/>
      <use x="309.132812" xlink:href="#DejaVuSans-116"/>
      <use x="348.341797" xlink:href="#DejaVuSans-101"/>
      <use x="409.865234" xlink:href="#DejaVuSans-100"/>
     </g>
    </g>
   </g>
  </g>
  <g id="axes_6">
   <g id="patch_32">
    <path d="M 929.431067 684.224867 
L 1319.472 684.224867 
L 1319.472 376.458382 
L 929.431067 376.458382 
z
" style="fill:#ffffff;"/>
   </g>
   <g id="matplotlib.axis_11">
    <g id="xtick_36">
     <g id="line2d_97">
      <g>
       <use style="stroke:#000000;stroke-width:0.8;" x="947.1602" xlink:href="#m30db6c4e77" y="684.224867"/>
      </g>
     </g>
     <g id="text_82">
      <!-- 0 -->
      <g transform="translate(943.97895 698.823304)scale(0.1 -0.1)">
       <use xlink:href="#DejaVuSans-48"/>
      </g>
     </g>
    </g>
    <g id="xtick_37">
     <g id="line2d_98">
      <g>
       <use style="stroke:#000000;stroke-width:0.8;" x="1004.350953" xlink:href="#m30db6c4e77" y="684.224867"/>
      </g>
     </g>
     <g id="text_83">
      <!-- 5 -->
      <g transform="translate(1001.169703 698.823304)scale(0.1 -0.1)">
       <use xlink:href="#DejaVuSans-53"/>
      </g>
     </g>
    </g>
    <g id="xtick_38">
     <g id="line2d_99">
      <g>
       <use style="stroke:#000000;stroke-width:0.8;" x="1061.541705" xlink:href="#m30db6c4e77" y="684.224867"/>
      </g>
     </g>
     <g id="text_84">
      <!-- 10 -->
      <g transform="translate(1055.179205 698.823304)scale(0.1 -0.1)">
       <use xlink:href="#DejaVuSans-49"/>
       <use x="63.623047" xlink:href="#DejaVuSans-48"/>
      </g>
     </g>
    </g>
    <g id="xtick_39">
     <g id="line2d_100">
      <g>
       <use style="stroke:#000000;stroke-width:0.8;" x="1118.732458" xlink:href="#m30db6c4e77" y="684.224867"/>
      </g>
     </g>
     <g id="text_85">
      <!-- 15 -->
      <g transform="translate(1112.369958 698.823304)scale(0.1 -0.1)">
       <use xlink:href="#DejaVuSans-49"/>
       <use x="63.623047" xlink:href="#DejaVuSans-53"/>
      </g>
     </g>
    </g>
    <g id="xtick_40">
     <g id="line2d_101">
      <g>
       <use style="stroke:#000000;stroke-width:0.8;" x="1175.923211" xlink:href="#m30db6c4e77" y="684.224867"/>
      </g>
     </g>
     <g id="text_86">
      <!-- 20 -->
      <g transform="translate(1169.560711 698.823304)scale(0.1 -0.1)">
       <use xlink:href="#DejaVuSans-50"/>
       <use x="63.623047" xlink:href="#DejaVuSans-48"/>
      </g>
     </g>
    </g>
    <g id="xtick_41">
     <g id="line2d_102">
      <g>
       <use style="stroke:#000000;stroke-width:0.8;" x="1233.113963" xlink:href="#m30db6c4e77" y="684.224867"/>
      </g>
     </g>
     <g id="text_87">
      <!-- 25 -->
      <g transform="translate(1226.751463 698.823304)scale(0.1 -0.1)">
       <use xlink:href="#DejaVuSans-50"/>
       <use x="63.623047" xlink:href="#DejaVuSans-53"/>
      </g>
     </g>
    </g>
    <g id="xtick_42">
     <g id="line2d_103">
      <g>
       <use style="stroke:#000000;stroke-width:0.8;" x="1290.304716" xlink:href="#m30db6c4e77" y="684.224867"/>
      </g>
     </g>
     <g id="text_88">
      <!-- 30 -->
      <g transform="translate(1283.942216 698.823304)scale(0.1 -0.1)">
       <use xlink:href="#DejaVuSans-51"/>
       <use x="63.623047" xlink:href="#DejaVuSans-48"/>
      </g>
     </g>
    </g>
   </g>
   <g id="matplotlib.axis_12">
    <g id="ytick_32">
     <g id="line2d_104">
      <g>
       <use style="stroke:#000000;stroke-width:0.8;" x="929.431067" xlink:href="#mc15dfc8d30" y="672.422231"/>
      </g>
     </g>
     <g id="text_89">
      <!-- −80 -->
      <g transform="translate(901.326379 676.221449)scale(0.1 -0.1)">
       <use xlink:href="#DejaVuSans-8722"/>
       <use x="83.789062" xlink:href="#DejaVuSans-56"/>
       <use x="147.412109" xlink:href="#DejaVuSans-48"/>
      </g>
     </g>
    </g>
    <g id="ytick_33">
     <g id="line2d_105">
      <g>
       <use style="stroke:#000000;stroke-width:0.8;" x="929.431067" xlink:href="#mc15dfc8d30" y="636.960446"/>
      </g>
     </g>
     <g id="text_90">
      <!-- −60 -->
      <g transform="translate(901.326379 640.759664)scale(0.1 -0.1)">
       <use xlink:href="#DejaVuSans-8722"/>
       <use x="83.789062" xlink:href="#DejaVuSans-54"/>
       <use x="147.412109" xlink:href="#DejaVuSans-48"/>
      </g>
     </g>
    </g>
    <g id="ytick_34">
     <g id="line2d_106">
      <g>
       <use style="stroke:#000000;stroke-width:0.8;" x="929.431067" xlink:href="#mc15dfc8d30" y="601.498661"/>
      </g>
     </g>
     <g id="text_91">
      <!-- −40 -->
      <g transform="translate(901.326379 605.297879)scale(0.1 -0.1)">
       <use xlink:href="#DejaVuSans-8722"/>
       <use x="83.789062" xlink:href="#DejaVuSans-52"/>
       <use x="147.412109" xlink:href="#DejaVuSans-48"/>
      </g>
     </g>
    </g>
    <g id="ytick_35">
     <g id="line2d_107">
      <g>
       <use style="stroke:#000000;stroke-width:0.8;" x="929.431067" xlink:href="#mc15dfc8d30" y="566.036875"/>
      </g>
     </g>
     <g id="text_92">
      <!-- −20 -->
      <g transform="translate(901.326379 569.836094)scale(0.1 -0.1)">
       <use xlink:href="#DejaVuSans-8722"/>
       <use x="83.789062" xlink:href="#DejaVuSans-50"/>
       <use x="147.412109" xlink:href="#DejaVuSans-48"/>
      </g>
     </g>
    </g>
    <g id="ytick_36">
     <g id="line2d_108">
      <g>
       <use style="stroke:#000000;stroke-width:0.8;" x="929.431067" xlink:href="#mc15dfc8d30" y="530.57509"/>
      </g>
     </g>
     <g id="text_93">
      <!-- 0 -->
      <g transform="translate(916.068567 534.374309)scale(0.1 -0.1)">
       <use xlink:href="#DejaVuSans-48"/>
      </g>
     </g>
    </g>
    <g id="ytick_37">
     <g id="line2d_109">
      <g>
       <use style="stroke:#000000;stroke-width:0.8;" x="929.431067" xlink:href="#mc15dfc8d30" y="495.113305"/>
      </g>
     </g>
     <g id="text_94">
      <!-- 20 -->
      <g transform="translate(909.706067 498.912524)scale(0.1 -0.1)">
       <use xlink:href="#DejaVuSans-50"/>
       <use x="63.623047" xlink:href="#DejaVuSans-48"/>
      </g>
     </g>
    </g>
    <g id="ytick_38">
     <g id="line2d_110">
      <g>
       <use style="stroke:#000000;stroke-width:0.8;" x="929.431067" xlink:href="#mc15dfc8d30" y="459.65152"/>
      </g>
     </g>
     <g id="text_95">
      <!-- 40 -->
      <g transform="translate(909.706067 463.450739)scale(0.1 -0.1)">
       <use xlink:href="#DejaVuSans-52"/>
       <use x="63.623047" xlink:href="#DejaVuSans-48"/>
      </g>
     </g>
    </g>
    <g id="ytick_39">
     <g id="line2d_111">
      <g>
       <use style="stroke:#000000;stroke-width:0.8;" x="929.431067" xlink:href="#mc15dfc8d30" y="424.189735"/>
      </g>
     </g>
     <g id="text_96">
      <!-- 60 -->
      <g transform="translate(909.706067 427.988954)scale(0.1 -0.1)">
       <use xlink:href="#DejaVuSans-54"/>
       <use x="63.623047" xlink:href="#DejaVuSans-48"/>
      </g>
     </g>
    </g>
    <g id="ytick_40">
     <g id="line2d_112">
      <g>
       <use style="stroke:#000000;stroke-width:0.8;" x="929.431067" xlink:href="#mc15dfc8d30" y="388.72795"/>
      </g>
     </g>
     <g id="text_97">
      <!-- 80 -->
      <g transform="translate(909.706067 392.527169)scale(0.1 -0.1)">
       <use xlink:href="#DejaVuSans-56"/>
       <use x="63.623047" xlink:href="#DejaVuSans-48"/>
      </g>
     </g>
    </g>
   </g>
   <g id="line2d_113">
    <path clip-path="url(#p7e70d5302d)" d="M 947.1602 655.447734 
L 958.598351 494.251405 
L 970.036501 666.903674 
L 981.474652 668.447498 
L 992.912802 658.094787 
L 1004.350953 505.830211 
L 1015.789103 668.892191 
L 1027.227254 400.477683 
L 1038.665404 492.976199 
L 1050.103555 403.736265 
L 1061.541705 404.496922 
L 1072.979856 527.353671 
L 1084.418006 480.502516 
L 1095.856157 509.623204 
L 1107.294308 404.928141 
L 1118.732458 400.266328 
L 1130.170609 656.337484 
L 1141.608759 401.744204 
L 1153.04691 658.388593 
L 1164.48506 667.593041 
L 1175.923211 406.394303 
L 1187.361361 405.095694 
L 1198.799512 670.235481 
L 1210.237662 669.098581 
L 1221.675813 665.168165 
L 1233.113963 527.944447 
L 1244.552114 668.295908 
L 1255.990265 491.684151 
L 1267.428415 401.785694 
L 1278.866566 402.602909 
L 1290.304716 481.739781 
L 1301.742867 664.38535 
" style="fill:none;stroke:#1f77b4;stroke-linecap:square;stroke-opacity:0.5;stroke-width:1.5;"/>
   </g>
   <g id="line2d_114">
    <path clip-path="url(#p7e70d5302d)" d="M 947.1602 651.732136 
L 958.598351 498.719418 
L 970.036501 668.058958 
L 981.474652 666.725935 
L 992.912802 657.20133 
L 1004.350953 504.969537 
L 1015.789103 665.587899 
L 1027.227254 400.848515 
L 1038.665404 495.756343 
L 1050.103555 393.858738 
L 1061.541705 402.808055 
L 1072.979856 529.465762 
L 1084.418006 474.943208 
L 1095.856157 501.206487 
L 1107.294308 409.873195 
L 1118.732458 403.375592 
L 1130.170609 653.701889 
L 1141.608759 401.30587 
L 1153.04691 662.797237 
L 1164.48506 668.338925 
L 1175.923211 411.926616 
L 1187.361361 401.116605 
L 1198.799512 666.674233 
L 1210.237662 666.256419 
L 1221.675813 666.49345 
L 1233.113963 533.941904 
L 1244.552114 667.39777 
L 1255.990265 495.804464 
L 1267.428415 390.447768 
L 1278.866566 409.329439 
L 1290.304716 474.764792 
L 1301.742867 665.790867 
" style="fill:none;stroke:#ff7f0e;stroke-dasharray:5.55,2.4;stroke-dashoffset:0;stroke-opacity:0.5;stroke-width:1.5;"/>
   </g>
   <g id="patch_33">
    <path d="M 929.431067 684.224867 
L 929.431067 376.458382 
" style="fill:none;stroke:#000000;stroke-linecap:square;stroke-linejoin:miter;stroke-width:0.8;"/>
   </g>
   <g id="patch_34">
    <path d="M 1319.472 684.224867 
L 1319.472 376.458382 
" style="fill:none;stroke:#000000;stroke-linecap:square;stroke-linejoin:miter;stroke-width:0.8;"/>
   </g>
   <g id="patch_35">
    <path d="M 929.431067 684.224867 
L 1319.472 684.224867 
" style="fill:none;stroke:#000000;stroke-linecap:square;stroke-linejoin:miter;stroke-width:0.8;"/>
   </g>
   <g id="patch_36">
    <path d="M 929.431067 376.458382 
L 1319.472 376.458382 
" style="fill:none;stroke:#000000;stroke-linecap:square;stroke-linejoin:miter;stroke-width:0.8;"/>
   </g>
   <g id="text_98">
    <!-- rpy_z -->
    <g transform="translate(1108.475596 370.458382)scale(0.12 -0.12)">
     <use xlink:href="#DejaVuSans-114"/>
     <use x="41.113281" xlink:href="#DejaVuSans-112"/>
     <use x="104.589844" xlink:href="#DejaVuSans-121"/>
     <use x="163.769531" xlink:href="#DejaVuSans-95"/>
     <use x="213.769531" xlink:href="#DejaVuSans-122"/>
    </g>
   </g>
   <g id="legend_6">
    <g id="patch_37">
     <path d="M 936.431067 413.814632 
L 1015.767004 413.814632 
Q 1017.767004 413.814632 1017.767004 411.814632 
L 1017.767004 383.458382 
Q 1017.767004 381.458382 1015.767004 381.458382 
L 936.431067 381.458382 
Q 934.431067 381.458382 934.431067 383.458382 
L 934.431067 411.814632 
Q 934.431067 413.814632 936.431067 413.814632 
z
" style="fill:#ffffff;opacity:0.8;stroke:#cccccc;stroke-linejoin:miter;"/>
    </g>
    <g id="line2d_115">
     <path d="M 938.431067 389.55682 
L 958.431067 389.55682 
" style="fill:none;stroke:#1f77b4;stroke-linecap:square;stroke-opacity:0.5;stroke-width:1.5;"/>
    </g>
    <g id="line2d_116"/>
    <g id="text_99">
     <!-- True -->
     <g transform="translate(966.431067 393.05682)scale(0.1 -0.1)">
      <use xlink:href="#DejaVuSans-84"/>
      <use x="60.865234" xlink:href="#DejaVuSans-114"/>
      <use x="101.978516" xlink:href="#DejaVuSans-117"/>
      <use x="165.357422" xlink:href="#DejaVuSans-101"/>
     </g>
    </g>
    <g id="line2d_117">
     <path d="M 938.431067 404.234945 
L 958.431067 404.234945 
" style="fill:none;stroke:#ff7f0e;stroke-dasharray:5.55,2.4;stroke-dashoffset:0;stroke-opacity:0.5;stroke-width:1.5;"/>
    </g>
    <g id="line2d_118"/>
    <g id="text_100">
     <!-- Predicted -->
     <g transform="translate(966.431067 407.734945)scale(0.1 -0.1)">
      <use xlink:href="#DejaVuSans-80"/>
      <use x="60.287109" xlink:href="#DejaVuSans-114"/>
      <use x="101.369141" xlink:href="#DejaVuSans-101"/>
      <use x="162.892578" xlink:href="#DejaVuSans-100"/>
      <use x="226.369141" xlink:href="#DejaVuSans-105"/>
      <use x="254.152344" xlink:href="#DejaVuSans-99"/>
      <use x="309.132812" xlink:href="#DejaVuSans-116"/>
      <use x="348.341797" xlink:href="#DejaVuSans-101"/>
      <use x="409.865234" xlink:href="#DejaVuSans-100"/>
     </g>
    </g>
   </g>
  </g>
  <g id="text_101">
   <!-- Sample 1 -->
   <defs>
    <path d="M 53.515625 70.515625 
L 53.515625 60.890625 
Q 47.90625 63.578125 42.921875 64.890625 
Q 37.9375 66.21875 33.296875 66.21875 
Q 25.25 66.21875 20.875 63.09375 
Q 16.5 59.96875 16.5 54.203125 
Q 16.5 49.359375 19.40625 46.890625 
Q 22.3125 44.4375 30.421875 42.921875 
L 36.375 41.703125 
Q 47.40625 39.59375 52.65625 34.296875 
Q 57.90625 29 57.90625 20.125 
Q 57.90625 9.515625 50.796875 4.046875 
Q 43.703125 -1.421875 29.984375 -1.421875 
Q 24.8125 -1.421875 18.96875 -0.25 
Q 13.140625 0.921875 6.890625 3.21875 
L 6.890625 13.375 
Q 12.890625 10.015625 18.65625 8.296875 
Q 24.421875 6.59375 29.984375 6.59375 
Q 38.421875 6.59375 43.015625 9.90625 
Q 47.609375 13.234375 47.609375 19.390625 
Q 47.609375 24.75 44.3125 27.78125 
Q 41.015625 30.8125 33.5 32.328125 
L 27.484375 33.5 
Q 16.453125 35.6875 11.515625 40.375 
Q 6.59375 45.0625 6.59375 53.421875 
Q 6.59375 63.09375 13.40625 68.65625 
Q 20.21875 74.21875 32.171875 74.21875 
Q 37.3125 74.21875 42.625 73.28125 
Q 47.953125 72.359375 53.515625 70.515625 
z
" id="DejaVuSans-83"/>
    <path d="M 52 44.1875 
Q 55.375 50.25 60.0625 53.125 
Q 64.75 56 71.09375 56 
Q 79.640625 56 84.28125 50.015625 
Q 88.921875 44.046875 88.921875 33.015625 
L 88.921875 0 
L 79.890625 0 
L 79.890625 32.71875 
Q 79.890625 40.578125 77.09375 44.375 
Q 74.3125 48.1875 68.609375 48.1875 
Q 61.625 48.1875 57.5625 43.546875 
Q 53.515625 38.921875 53.515625 30.90625 
L 53.515625 0 
L 44.484375 0 
L 44.484375 32.71875 
Q 44.484375 40.625 41.703125 44.40625 
Q 38.921875 48.1875 33.109375 48.1875 
Q 26.21875 48.1875 22.15625 43.53125 
Q 18.109375 38.875 18.109375 30.90625 
L 18.109375 0 
L 9.078125 0 
L 9.078125 54.6875 
L 18.109375 54.6875 
L 18.109375 46.1875 
Q 21.1875 51.21875 25.484375 53.609375 
Q 29.78125 56 35.6875 56 
Q 41.65625 56 45.828125 52.96875 
Q 50 49.953125 52 44.1875 
z
" id="DejaVuSans-109"/>
    <path id="DejaVuSans-32"/>
   </defs>
   <g transform="translate(637.0575 23.258925)scale(0.12 -0.12)">
    <use xlink:href="#DejaVuSans-83"/>
    <use x="63.476562" xlink:href="#DejaVuSans-97"/>
    <use x="124.755859" xlink:href="#DejaVuSans-109"/>
    <use x="222.167969" xlink:href="#DejaVuSans-112"/>
    <use x="285.644531" xlink:href="#DejaVuSans-108"/>
    <use x="313.427734" xlink:href="#DejaVuSans-101"/>
    <use x="374.951172" xlink:href="#DejaVuSans-32"/>
    <use x="406.738281" xlink:href="#DejaVuSans-49"/>
   </g>
  </g>
 </g>
 <defs>
  <clipPath id="p42055fb6bc">
   <rect height="307.766485" width="390.040933" x="49.783067" y="35.352"/>
  </clipPath>
  <clipPath id="p0f49fb4858">
   <rect height="307.766485" width="390.040933" x="489.607067" y="35.352"/>
  </clipPath>
  <clipPath id="pa5cbde5f3d">
   <rect height="307.766485" width="390.040933" x="929.431067" y="35.352"/>
  </clipPath>
  <clipPath id="pf042a30c2c">
   <rect height="307.766485" width="390.040933" x="49.783067" y="376.458382"/>
  </clipPath>
  <clipPath id="pf7e198d1b0">
   <rect height="307.766485" width="390.040933" x="489.607067" y="376.458382"/>
  </clipPath>
  <clipPath id="p7e70d5302d">
   <rect height="307.766485" width="390.040933" x="929.431067" y="376.458382"/>
  </clipPath>
 </defs>
</svg>
